<?xml version="1.0" encoding="UTF-8" standalone="no"?>
<svg
   xmlns:dc="http://purl.org/dc/elements/1.1/"
   xmlns:cc="http://creativecommons.org/ns#"
   xmlns:rdf="http://www.w3.org/1999/02/22-rdf-syntax-ns#"
   xmlns:svg="http://www.w3.org/2000/svg"
   xmlns="http://www.w3.org/2000/svg"
   xmlns:xlink="http://www.w3.org/1999/xlink"
   width="150"
   height="150"
   viewBox="0 0 150 150"
   id="svg2"
   version="1.1">
  <defs
     id="defs4">
    <linearGradient
       id="linearGradient5385">
      <stop
         style="stop-color:#000000;stop-opacity:0.53811657"
         offset="0"
         id="stop5387" />
      <stop
         style="stop-color:#000000;stop-opacity:0;"
         offset="1"
         id="stop5389" />
    </linearGradient>
    <linearGradient
       id="linearGradient5167">
      <stop
         id="stop5169"
         stop-color="#fff" />
      <stop
         id="stop5171"
         offset="1"
         stop-color="#fff"
         stop-opacity="0"
         style="stop-color:#ffffff;stop-opacity:0.10313901" />
    </linearGradient>
    <linearGradient
       id="linearGradient5023">
      <stop
         id="stop5025"
         stop-color="#eeeeec"
         style="stop-color:#ededed;stop-opacity:1" />
      <stop
         id="stop5027"
         offset="1"
         stop-color="#d3d7cf"
         style="stop-color:#d3d3d3;stop-opacity:1" />
    </linearGradient>
    <linearGradient
       id="2">
      <stop
         stop-color="#888a85"
         id="Y"
         style="stop-color:#a9a9a9;stop-opacity:1" />
      <stop
         stop-color="#2e3436"
         offset="1"
         id="Z"
         style="stop-color:#606060;stop-opacity:1" />
    </linearGradient>
    <linearGradient
       id="3">
      <stop
         stop-color="#eeeeec"
         id="a"
         style="stop-color:#ededed;stop-opacity:1" />
      <stop
         stop-color="#888a85"
         offset="1"
         id="b"
         style="stop-color:#878787;stop-opacity:1" />
    </linearGradient>
    <linearGradient
       id="5">
      <stop
         stop-color="#fff"
         id="e" />
      <stop
         stop-opacity="0"
         stop-color="#fff"
         offset="1"
         id="f" />
    </linearGradient>
    <linearGradient
       id="7">
      <stop
         stop-color="#e9b96e"
         id="i"
         style="stop-color:#c2c2c2;stop-opacity:1" />
      <stop
         stop-color="#c17d11"
         offset="1"
         id="j"
         style="stop-color:#868686;stop-opacity:1" />
    </linearGradient>
    <filter
       id="8"
       color-interpolation-filters="sRGB"
       height="1.302"
       width="1.321"
       y="-0.151"
       x="-0.16">
      <feGaussianBlur
         id="k"
         stdDeviation="0.5327" />
    </filter>
    <linearGradient
       id="9">
      <stop
         stop-color="#eeeeec"
         id="l" />
      <stop
         stop-color="#d3d7cf"
         offset="1"
         id="m" />
    </linearGradient>
    <radialGradient
       gradientTransform="matrix(0.19640263,1.8335174,-2.5074392,0.26859186,85.034144,942.80112)"
       gradientUnits="userSpaceOnUse"
       xlink:href="#7"
       id="B"
       r="18.475"
       cy="14.524"
       cx="10.598" />
    <linearGradient
       gradientUnits="userSpaceOnUse"
       xlink:href="#linearGradient5167"
       id="C"
       y2="46.667"
       x2="0"
       y1="3.333"
       gradientTransform="matrix(0.9593462,0,0,0.942101,40.153619,962.79649)" />
    <linearGradient
       gradientUnits="userSpaceOnUse"
       xlink:href="#5"
       id="D"
       y2="18.539"
       x2="17.775"
       y1="-22.618"
       x1="-7.177"
       gradientTransform="matrix(0.963088,0,0,0.963088,40.063816,963.2349)" />
    <radialGradient
       gradientTransform="matrix(0.5533713,-2.2948164,-3.3955484,-0.8188024,85.930078,1040.9361)"
       gradientUnits="userSpaceOnUse"
       xlink:href="#linearGradient5023"
       id="E"
       r="16.219"
       cy="13.388"
       cx="24.293" />
    <linearGradient
       gradientTransform="matrix(0.896238,0,0,-0.896238,41.685181,1006.9968)"
       gradientUnits="userSpaceOnUse"
       xlink:href="#5"
       id="F"
       y2="2.25"
       x2="0"
       y1="43.531" />
    <radialGradient
       gradientTransform="matrix(1.792476,-1.8567779e-7,-1.9429172e-7,-1.8756322,11.101067,1015.2431)"
       gradientUnits="userSpaceOnUse"
       xlink:href="#9"
       id="G"
       r="3.03"
       cy="8.609"
       cx="34.13" />
    <linearGradient
       gradientTransform="matrix(0.896238,0,0,-0.896238,41.685181,1006.9372)"
       gradientUnits="userSpaceOnUse"
       xlink:href="#5"
       id="H"
       y2="6.363"
       x2="36.533"
       y1="8.75"
       x1="34.13" />
    <linearGradient
       gradientUnits="userSpaceOnUse"
       xlink:href="#3"
       id="I"
       y2="31.394"
       x2="59.847"
       y1="14.994"
       x1="55.936" />
    <linearGradient
       gradientUnits="userSpaceOnUse"
       xlink:href="#5"
       id="J"
       y2="26.631"
       x2="0"
       y1="16.19" />
    <linearGradient
       gradientUnits="userSpaceOnUse"
       xlink:href="#2"
       id="K"
       y2="28.03"
       x2="0"
       y1="16.38" />
    <clipPath
       id="clipoutline1">
      <path
         id="outline1"
         d="M 54.1,12.5 12.9,54.7 C -2.7,70.3 23,69 32.3,74.9 36.6,77.7 18.5,81.3 22.2,85 c 3.6,3.7 21.7,7.1 25.3,10.7 3.6,3.7 -7.3,7.6 -3.7,11.3 3.5,3.7 11.9,0.2 13.4,8.6 1.1,6.2 15.4,3.1 21.8,-2.2 4,-3.4 -6.9,-3.4 -3.3,-7.1 9,-9.1 17,-4.1 20.3,-12.5 1.8,-4.5 -13.6,-7.7 -9.5,-10.6 9.8,-6.9 45.8,-10.4 29.2,-27 L 73,12.5 c -5.3,-5 -14,-5 -18.9,0 z m -9.9,64.7 c 0.9,0 30.8,4 19.3,7.1 -4.4,1.2 -24.6,-7.1 -19.3,-7.1 z m 57.2,16.6 c 0,2.1 16.3,3.3 15.4,-0.5 -1.3,-6.4 -13.6,-5.9 -15.4,0.5 z m -69.5,11.1 c 3.7,3.2 9.3,-0.7 11.1,-5.2 -3.6,-4.7 -16.9,0.3 -11.1,5.2 z m 67.5,-6.7 c -4.6,4.2 0.8,8.6 5.3,5.7 1.2,-0.8 -0.1,-4.7 -5.3,-5.7 z" />
    </clipPath>
    <linearGradient
       gradientUnits="userSpaceOnUse"
       xlink:href="#linearGradient5785"
       id="linearGradient9175"
       y2="40"
       x2="60"
       y1="20"
       x1="82.118591" />
    <linearGradient
       gradientUnits="userSpaceOnUse"
       id="linearGradient5785">
      <stop
         offset="0"
         style="stop-color:#c0cdf9;stop-opacity:1"
         id="stop5787" />
      <stop
         offset="1"
         style="stop-color:#07092d;stop-opacity:0.28804347"
         id="stop5789" />
    </linearGradient>
    <filter
       color-interpolation-filters="sRGB"
       id="filter6017-3">
      <feGaussianBlur
         stdDeviation="0.80546496"
         id="feGaussianBlur6019-9" />
    </filter>
    <filter
       color-interpolation-filters="sRGB"
       id="filter6031-0">
      <feGaussianBlur
         stdDeviation="3.4903482"
         id="feGaussianBlur6033-8" />
    </filter>
    <clipPath
       id="clipPath9086-1">
      <use
         xlink:href="#outline1"
         height="300"
         width="400"
         y="0"
         x="0"
         style="opacity:0.25;fill:#ffffff;fill-opacity:1"
         id="use9088-0"
         transform="translate(1.0095461e-6,0)" />
    </clipPath>
    <filter
       color-interpolation-filters="sRGB"
       id="filter8490-0">
      <feGaussianBlur
         stdDeviation="2.4163949"
         id="feGaussianBlur8492-5" />
    </filter>
    <linearGradient
       gradientTransform="matrix(1.009184,0,0,1.009184,-0.3890738,-0.3831933)"
       gradientUnits="userSpaceOnUse"
       xlink:href="#5"
       id="shinySpecular-0"
       y2="60"
       x2="58"
       y1="35"
       x1="33" />
    <linearGradient
       gradientUnits="userSpaceOnUse"
       xlink:href="#5"
       id="IcecapTip-0"
       y2="50"
       x2="90"
       y1="20"
       x1="60" />
    <radialGradient
       gradientTransform="matrix(1.5700516,0,0,1.0509301,-75.500107,-22.095908)"
       gradientUnits="userSpaceOnUse"
       xlink:href="#5"
       id="radialGradient9177-1"
       fy="250.89737"
       fx="116.31038"
       r="30.599579"
       cy="250.89737"
       cx="116.31038" />
    <radialGradient
       gradientTransform="matrix(2.0032532,0,0,1.340898,-132.8752,-95.166065)"
       gradientUnits="userSpaceOnUse"
       xlink:href="#5"
       id="radialGradient8574-0"
       fy="251.99396"
       fx="132.44434"
       r="30.599579"
       cy="251.99396"
       cx="132.44434" />
    <filter
       color-interpolation-filters="sRGB"
       id="filter8732-3"
       x="-0.078079157"
       width="1.1561583"
       y="-0.11422065"
       height="1.2284414">
      <feGaussianBlur
         stdDeviation="1.9579068"
         id="feGaussianBlur8734-5" />
    </filter>
    <radialGradient
       gradientTransform="matrix(1,0,0,0.4233577,0,97.164234)"
       gradientUnits="userSpaceOnUse"
       xlink:href="#5"
       id="radialGradient8744-9"
       fy="168.5"
       fx="210.25"
       r="34.25"
       cy="168.5"
       cx="210.25" />
    <radialGradient
       gradientTransform="matrix(1,0,0,0.4233577,0,97.164234)"
       gradientUnits="userSpaceOnUse"
       xlink:href="#5"
       id="radialGradient8768-6"
       fy="182.08189"
       fx="217.5"
       r="34.25"
       cy="182.08189"
       cx="217.5" />
    <filter
       color-interpolation-filters="sRGB"
       id="filter8764-9"
       x="-0.074262142"
       width="1.1485243"
       y="-0.1754123"
       height="1.3508246">
      <feGaussianBlur
         stdDeviation="2.1195652"
         id="feGaussianBlur8766-2" />
    </filter>
    <linearGradient
       gradientUnits="userSpaceOnUse"
       xlink:href="#5"
       id="linearGradient8912-9"
       y2="201.5"
       x2="231.75"
       y1="195.1875"
       x1="231.625" />
    <linearGradient
       gradientUnits="userSpaceOnUse"
       xlink:href="#5"
       id="linearGradient8910-3"
       y2="200.07138"
       x2="231.37646"
       y1="195.62132"
       x1="231.37646" />
    <filter
       color-interpolation-filters="sRGB"
       id="filter8906-3"
       x="-0.085441329"
       width="1.1708827"
       y="-0.27823201"
       height="1.556464">
      <feGaussianBlur
         stdDeviation="0.56515877"
         id="feGaussianBlur8908-7" />
    </filter>
    <radialGradient
       gradientTransform="matrix(1,0,0,0.1477455,0,174.56924)"
       gradientUnits="userSpaceOnUse"
       xlink:href="#5"
       id="radialGradient8922-9"
       fy="204.83229"
       fx="228.21875"
       r="14.09375"
       cy="204.83229"
       cx="228.21875" />
    <filter
       color-interpolation-filters="sRGB"
       id="filter8980-1"
       x="-0.069862768"
       width="1.1397254"
       y="-0.47285891"
       height="1.9457178">
      <feGaussianBlur
         stdDeviation="0.82052366"
         id="feGaussianBlur8982-9" />
    </filter>
    <linearGradient
       gradientUnits="userSpaceOnUse"
       xlink:href="#5"
       id="linearGradient8990-4"
       y2="201.5"
       x2="231.75"
       y1="195.1875"
       x1="231.625" />
    <linearGradient
       gradientUnits="userSpaceOnUse"
       xlink:href="#5"
       id="linearGradient8992-2"
       y2="200.07138"
       x2="231.37646"
       y1="195.62132"
       x1="231.37646" />
    <radialGradient
       gradientTransform="matrix(1,0,0,0.1477455,0,174.56924)"
       gradientUnits="userSpaceOnUse"
       xlink:href="#5"
       id="radialGradient8994-0"
       fy="204.83229"
       fx="228.21875"
       r="14.09375"
       cy="204.83229"
       cx="228.21875" />
    <radialGradient
       gradientTransform="matrix(1,0,0,0.4070844,0,115.76014)"
       gradientUnits="userSpaceOnUse"
       xlink:href="#5"
       id="radialGradient9004-6"
       fy="187.86935"
       fx="89.875"
       r="22.75"
       cy="187.86935"
       cx="89.875" />
    <linearGradient
       gradientUnits="userSpaceOnUse"
       xlink:href="#5"
       id="linearGradient9023-6"
       y2="201.5"
       x2="231.75"
       y1="195.1875"
       x1="231.625" />
    <linearGradient
       gradientUnits="userSpaceOnUse"
       xlink:href="#5"
       id="linearGradient9025-1"
       y2="200.07138"
       x2="231.37646"
       y1="195.62132"
       x1="231.37646" />
    <radialGradient
       gradientTransform="matrix(1.1850746,-0.3283582,0.1228557,0.4433973,-45.068314,152.92161)"
       gradientUnits="userSpaceOnUse"
       xlink:href="#5"
       id="radialGradient9046-1"
       fy="230.83626"
       fx="90.28125"
       r="10.46875"
       cy="230.83626"
       cx="90.28125" />
    <filter
       color-interpolation-filters="sRGB"
       id="filter9068-2"
       x="-0.076179281"
       width="1.1523587"
       y="-0.1655701"
       height="1.3311402">
      <feGaussianBlur
         stdDeviation="0.66458488"
         id="feGaussianBlur9070-7" />
    </filter>
    <radialGradient
       gradientTransform="matrix(1.7221535,0,0,1.6949765,-49.39526,-14.078057)"
       gradientUnits="userSpaceOnUse"
       xlink:href="#5"
       id="radialGradient11553-3"
       fy="21.225746"
       fx="68.39994"
       r="54.783398"
       cy="21.225746"
       cx="68.39994" />
    <filter
       color-interpolation-filters="sRGB"
       id="filter9298-4">
      <feGaussianBlur
         stdDeviation="0.32610678"
         id="feGaussianBlur9300-4" />
    </filter>
    <linearGradient
       gradientUnits="userSpaceOnUse"
       xlink:href="#5"
       id="linearGradient5905-4"
       y2="223.5"
       x2="153.5"
       y1="208.16444"
       x1="95.5" />
    <filter
       color-interpolation-filters="sRGB"
       id="filter5983-8"
       x="-0.082508981"
       width="1.165018"
       y="-0.12233575"
       height="1.2446715">
      <feGaussianBlur
         stdDeviation="3.6868363"
         id="feGaussianBlur5985-3" />
    </filter>
    <linearGradient
       gradientTransform="matrix(0.8852575,0,0,0.8852575,5.1772151,9.2293372)"
       gradientUnits="userSpaceOnUse"
       xlink:href="#linearGradient5793-9"
       id="linearGradient5801-2"
       y2="84.480316"
       x2="53.63158"
       y1="76.246338"
       x1="57.225197" />
    <linearGradient
       id="linearGradient5793-9">
      <stop
         offset="0"
         style="stop-color:#eeeeec;stop-opacity:1"
         id="stop5795-5" />
      <stop
         offset="1"
         style="stop-color:#eeeeec;stop-opacity:0"
         id="stop5797-4" />
    </linearGradient>
    <radialGradient
       gradientTransform="matrix(1.3515234,0,0,1.7175707,-63.705646,-153.95568)"
       gradientUnits="userSpaceOnUse"
       xlink:href="#5"
       id="radialGradient5811-3"
       fy="214.55121"
       fx="181.22731"
       r="22.466398"
       cy="214.55121"
       cx="181.22731" />
    <filter
       color-interpolation-filters="sRGB"
       id="filter5845-5">
      <feGaussianBlur
         stdDeviation="1.2409356"
         id="feGaussianBlur5847-5" />
    </filter>
    <linearGradient
       gradientTransform="matrix(0.4927913,0,0,0.4927913,-6.0003885,-9.7225182)"
       gradientUnits="userSpaceOnUse"
       xlink:href="#5"
       id="linearGradient5822-7"
       y2="187.65974"
       x2="82.754066"
       y1="180.47572"
       x1="73.712105" />
    <linearGradient
       id="linearGradient10981-3-9">
      <stop
         offset="0"
         style="stop-color:#729fcf;stop-opacity:1"
         id="stop10983-2-0" />
      <stop
         offset="1"
         style="stop-color:#729fcf;stop-opacity:0"
         id="stop10985-3-7" />
    </linearGradient>
    <filter
       color-interpolation-filters="sRGB"
       id="filter10997-7-2">
      <feGaussianBlur
         stdDeviation="2.7696726"
         id="feGaussianBlur10999-0-7" />
    </filter>
    <linearGradient
       gradientTransform="translate(-130.16572,-83.352786)"
       gradientUnits="userSpaceOnUse"
       xlink:href="#linearGradient10981-3-9"
       id="linearGradient1539"
       y2="144.5"
       x2="153.70045"
       y1="217.5"
       x1="180.81293" />
    <filter
       style="color-interpolation-filters:sRGB"
       id="filter5381"
       x="-0.0975"
       width="1.195"
       y="-0.39"
       height="1.78">
      <feGaussianBlur
         stdDeviation="4.0443447"
         id="feGaussianBlur5383" />
    </filter>
    <radialGradient
       xlink:href="#linearGradient5385"
       id="radialGradient5391"
       cx="76.249832"
       cy="1053.1984"
       fx="76.249832"
       fy="1053.1984"
       r="59.48298"
       gradientTransform="matrix(0.82236028,0.00537738,-0.00213673,0.32676944,13.908709,693.6614)"
       gradientUnits="userSpaceOnUse" />
  </defs>
  <metadata
     id="metadata7">
    <rdf:RDF>
      <cc:Work
         rdf:about="">
        <dc:format>image/svg+xml</dc:format>
        <dc:type
           rdf:resource="http://purl.org/dc/dcmitype/StillImage" />
        <dc:title></dc:title>
      </cc:Work>
    </rdf:RDF>
  </metadata>
  <rect
     y="0"
     x="0"
     height="150"
     width="150"
     id="rect5773"
     style="color:#000000;clip-rule:nonzero;display:inline;overflow:visible;visibility:visible;opacity:1;isolation:auto;mix-blend-mode:normal;color-interpolation:sRGB;color-interpolation-filters:linearRGB;solid-color:#000000;solid-opacity:1;fill:#ffffff;fill-opacity:1;fill-rule:nonzero;stroke:none;stroke-width:0.89623803;stroke-linecap:butt;stroke-linejoin:miter;stroke-miterlimit:4;stroke-dasharray:none;stroke-dashoffset:0;stroke-opacity:1;marker:none;marker-start:none;marker-mid:none;marker-end:none;color-rendering:auto;image-rendering:auto;shape-rendering:auto;text-rendering:auto;enable-background:accumulate" />
  <g
     id="layer1"
     transform="matrix(0.97109505,0,0,0.97109505,4.2300406,-876.78442)">
    <ellipse
       style="color:#000000;clip-rule:nonzero;display:inline;overflow:visible;visibility:visible;opacity:0.67299996;isolation:auto;mix-blend-mode:normal;color-interpolation:sRGB;color-interpolation-filters:linearRGB;solid-color:#000000;solid-opacity:1;fill:url(#radialGradient5391);fill-opacity:1;fill-rule:nonzero;stroke:#9d9d9d;stroke-width:0.89623803;stroke-linecap:butt;stroke-linejoin:miter;stroke-miterlimit:4;stroke-dasharray:none;stroke-dashoffset:0;stroke-opacity:1;marker:none;marker-start:none;marker-mid:none;marker-end:none;filter:url(#filter5381);color-rendering:auto;image-rendering:auto;shape-rendering:auto;text-rendering:auto;enable-background:accumulate"
       id="path5311"
       cx="74.664833"
       cy="1030.9838"
       rx="49.77655"
       ry="12.444138"
       transform="matrix(1.2498238,0,0,1.0073572,-21.318007,-9.1805484)" />
    <g
       id="g5240"
       transform="matrix(2.0582119,-1.0504115,1.0504115,2.0582119,-1091.1059,-986.3903)">
      <g
         id="g5232">
        <path
           style="fill:url(#B);fill-rule:evenodd;stroke:#9d9d9d;stroke-width:0.96304339;stroke-opacity:1"
           d="m 47.258777,965.50503 c -0.724718,0 -1.319101,0.68888 -1.319101,1.50147 l 0,38.685 c 0,0.8126 0.594384,1.5015 1.319101,1.5015 l 31.838302,0 c 0.724717,0 1.3191,-0.6889 1.319101,-1.5015 l 0,-38.685 c 0,-0.81259 -0.594383,-1.50147 -1.319101,-1.50147 l -31.838302,0 z"
           id="M" />
        <path
           style="opacity:0.8;fill:none;stroke:url(#C);stroke-width:0.96304339"
           d="m 47.258777,966.41769 c -0.130008,0 -0.389735,0.20962 -0.389735,0.58881 l 0,38.685 c 0,0.3792 0.259726,0.5888 0.389735,0.5888 l 31.838302,0 c 0.130009,0 0.389734,-0.2096 0.389734,-0.5888 l 0,-38.685 c 0,-0.37919 -0.259726,-0.58881 -0.389734,-0.58881 l -31.838302,0 z"
           id="N" />
        <path
           style="opacity:0.6;fill:url(#D);fill-rule:evenodd"
           d="m 47.25688,965.97368 c -0.413632,0 -0.842703,0.45098 -0.842703,1.02328 l 0,24.37817 c 9.139149,-5.65117 22.021787,-11.80766 33.527501,-16.67346 l 0,-7.70471 c 10e-7,-0.5723 -0.429069,-1.02328 -0.842701,-1.02328 l -31.842097,0 z"
           id="O" />
        <path
           style="fill:#a7a7a7;fill-opacity:1"
           d="m 50.507524,1005.9045 c -1.539199,0 -2.772737,-1.2335 -2.772737,-2.7727 l 0,-33.30087 c 0,-1.5392 1.233538,-2.77273 2.772737,-2.77273 l 25.374739,0 c 1.539199,0 2.772737,1.23354 2.772737,2.77273 l 0,29.77191 -6.049608,6.30166 -22.097868,0 0,0 z"
           id="P" />
        <path
           style="fill:url(#E)"
           d="m 50.507524,1004.9803 c -1.038393,0 -1.848491,-0.8101 -1.848491,-1.8485 l 0,-33.30087 c 0,-1.03839 0.810098,-1.84849 1.848491,-1.84849 l 25.374739,0 c 1.038393,0 1.848491,0.8101 1.848491,1.84849 l 0,29.37981 -5.517466,5.76956 -21.705764,0 z"
           id="Q" />
        <path
           style="opacity:0.8;fill:none;stroke:url(#F);stroke-width:0.89600003;stroke-linecap:square;stroke-linejoin:round"
           d="m 50.507524,1004.5321 c -0.80458,0 -1.400372,-0.5957 -1.400372,-1.4003 l 0,-33.30087 c 0,-0.80458 0.595792,-1.40037 1.400372,-1.40037 l 25.374739,0 c 0.804581,0 1.400372,0.59579 1.400372,1.40037 l 0,29.23977 -5.265399,5.4614 -21.509712,0 0,0 z"
           id="S" />
      </g>
      <g
         id="g5173">
        <path
           style="opacity:0.16000001;fill:#2e3436;filter:url(#8)"
           d="m 77.133371,16.968067 0,6.875 c 0,0.956611 0.676661,1.593751 1.71875,1.59375 l 6.25,0 0,-1.8125 -6.9375,-6.65625 -1.03125,0 0,0 z"
           transform="matrix(0.896238,0,0,-0.8100394,1.458998,1018.6389)"
           id="T" />
        <path
           style="fill:#a7a7a7;fill-opacity:1"
           d="m 71.372844,1005.8015 0,-5.6575 c -2e-6,-1.03843 0.810097,-1.84853 1.848491,-1.84853 l 5.433443,0 0,1.20432 -6.049607,6.30171 -1.232327,0 0,0 z"
           id="U" />
        <path
           style="fill:url(#G)"
           d="m 72.269303,1004.7806 0,-4.7333 c -10e-7,-0.57419 0.378033,-0.95222 0.952254,-0.95222 l 4.481189,0 -5.433443,5.68552 0,0 z"
           id="V" />
        <path
           style="opacity:0.8;fill:none;stroke:url(#H);stroke-width:0.89600003;stroke-linecap:square"
           d="m 72.717423,1003.6323 0,-3.5849 c -10e-7,-0.3382 0.165977,-0.50418 0.504134,-0.50418 l 3.444914,0 -3.949048,4.08908 z"
           id="W" />
      </g>
      <g
         id="X"
         transform="matrix(0.9180102,0,0,0.7524892,41.145684,962.03997)">
        <path
           id="p"
           d="m 13.031712,3.3127153 1.924751,6.239505 c 0.36426,1.1075167 1.256004,1.5413677 2.198945,1.5392607 l 13.715919,0 c 1.007931,0.0023 1.839587,-0.474167 2.198945,-1.5667475 L 34.807069,3.8899382 C 34.633248,2.1321559 15.660167,1.5897175 13.031712,3.3127153 Z"
           style="opacity:0.5;fill:#2e3436" />
        <path
           id="q"
           transform="matrix(0.879578,0,0,0.879578,-32.568236,-14.229)"
           d="m 53.96875,16.40625 c -0.227234,0.03412 -1.169585,0.322383 -1.6875,0.96875 -0.508043,0.633965 -0.640226,0.979171 -0.5625,1.8125 0.02228,0.238917 0.08782,0.486655 0.15625,0.65625 0.03422,0.0848 0.04294,0.150533 0.0625,0.1875 l 2.09375,6.25 c 0.414131,1.259146 1.427962,1.752395 2.5,1.75 l 15.59375,0 c 1.145925,0.0026 2.091442,-0.539085 2.5,-1.78125 l 2.15625,-6.40625 C 76.877759,19.556327 76.99918,19.123868 76.9375,18.625 76.87582,18.126132 76.621473,17.629376 76.28125,17.25 75.923221,16.850594 75.438162,16.544609 75,16.4375 74.561838,16.330391 74.171214,16.406634 74.28125,16.40625 l -19.75,0 -0.125,0 c -0.01061,-7.09e-4 -0.02063,5.67e-4 -0.03125,0 -0.04246,-0.0023 -0.0825,0 -0.125,0 -0.05313,0 -0.103206,-0.0035 -0.15625,0 a 1.4526884,1.4526884 0 0 0 -0.125,0 z"
           style="fill:url(#K)" />
        <path
           id="r"
           transform="matrix(0.879578,0,0,0.879578,-32.576961,-14.229)"
           d="m 54.1875,17.84375 c -0.23626,0.03548 -0.487536,0.07094 -0.78125,0.4375 -0.169064,0.210968 -0.268989,0.577663 -0.25,0.78125 0.01899,0.203587 0.08524,0.287616 0.09375,0.3125 l 2.15625,6.40625 c 0.0048,0.0146 0.02578,0.017 0.03125,0.03125 0.182908,0.477016 0.696142,0.782138 1.09375,0.78125 l 15.59375,0 c 0.397612,8.88e-4 0.910837,-0.304231 1.09375,-0.78125 l 0.03125,0 c 0.0029,-0.0081 -0.0027,-0.02309 0,-0.03125 L 75.40625,19.375 c 0.125813,-0.374698 0.156742,-0.737546 -0.21875,-1.15625 -0.402647,-0.449181 -0.729514,-0.375617 -0.90625,-0.375 l -19.90625,0 c -0.0093,1.44e-4 -0.02192,1.44e-4 -0.03125,0 0.007,-5.4e-5 -0.03824,-5.4e-5 -0.03125,0 a 0.93763029,0.93763029 0 0 0 -0.125,0 z"
           style="fill:url(#I)" />
        <path
           id="s"
           transform="matrix(0.879578,0,0,0.879578,-32.583902,-14.229)"
           d="M 54.28125,18.625 C 54.19118,18.63853 54.082207,18.67865 54,18.78125 c -0.04601,0.05741 -0.03664,0.129698 -0.03125,0.1875 0.0044,0.04669 0.0209,0.0957 0.03125,0.125 l 0,0.03125 2.15625,6.40625 c 0.0536,0.162973 0.207402,0.281624 0.375,0.28125 l 15.59375,0 c 0.167596,3.75e-4 0.321397,-0.118276 0.375,-0.28125 l 2.15625,-6.4375 c 0.04088,-0.121739 0.03423,-0.23589 -0.0625,-0.34375 -0.100933,-0.112598 -0.213867,-0.125344 -0.3125,-0.125 l -19.90625,0 c -0.0125,1.93e-4 -0.01875,1.93e-4 -0.03125,0 -0.0044,3.5e-5 -0.02681,3.5e-5 -0.03125,0 a 0.14577079,0.14577079 0 0 0 -0.03125,0 z"
           style="opacity:0.8;fill:none;stroke:url(#J);stroke-width:1.40999997" />
      </g>
      <g
         id="g5179">
        <g
           id="g5143"
           transform="matrix(0.82400858,0,0,1,9.1501314,0.894686)">
          <rect
             id="t"
             y="977.51862"
             x="51.991917"
             height="2.688714"
             width="13.636581"
             style="fill:#ffffff" />
          <rect
             id="z"
             y="976.62262"
             x="51.991917"
             height="2.688714"
             width="13.636581"
             style="fill:#878787;fill-opacity:1" />
        </g>
        <g
           id="g5139"
           transform="matrix(0.97232052,0,0,1,1.4391093,0.894686)">
          <rect
             id="u"
             y="972.14124"
             x="51.991917"
             height="2.688714"
             width="12.73512"
             style="fill:#ffffff" />
          <rect
             id="10"
             y="971.24518"
             x="51.991917"
             height="2.688714"
             width="12.73512"
             style="fill:#878787;fill-opacity:1" />
        </g>
        <g
           id="g5151"
           transform="translate(0,-3)">
          <rect
             id="w"
             y="988.2735"
             x="51.991917"
             height="2.688714"
             width="21.342115"
             style="fill:#ffffff" />
          <rect
             id="12"
             y="987.3775"
             x="51.991917"
             height="2.688714"
             width="21.342115"
             style="fill:#878787;fill-opacity:1" />
        </g>
        <g
           id="g5155"
           transform="translate(0,-3)">
          <rect
             id="x"
             y="993.65094"
             x="51.991917"
             height="2.688714"
             width="20.042572"
             style="fill:#ffffff" />
          <rect
             id="13"
             y="992.75488"
             x="51.991917"
             height="2.688714"
             width="20.042572"
             style="fill:#878787;fill-opacity:1" />
        </g>
        <g
           style="display:inline;enable-background:new"
           id="g9139"
           transform="matrix(0.09724674,0,0,0.09724674,64.284787,970.1394)">
          <g
             style="opacity:0.78325124"
             id="g6035"
             transform="translate(3.6896803e-7,0.4883067)">
            <path
               style="fill:#000000;fill-opacity:1;filter:url(#filter6017-3)"
               id="path5987"
               d="m 54.1,12.988307 -41.2,42.2 c -15.6,15.6 10.1,14.3 19.4,20.2 4.3,2.8 -13.8,6.4 -10.1,10.1 3.6,3.7 21.7,7.1 25.3,10.7 3.6,3.699996 -7.3,7.600003 -3.7,11.300003 3.5,3.7 11.9,0.2 13.4,8.6 1.1,6.2 15.4,3.1 21.8,-2.2 4,-3.4 -6.9,-3.4 -3.3,-7.1 9,-9.100003 17,-4.1 20.3,-12.500003 1.8,-4.5 -13.6,-7.7 -9.5,-10.6 9.8,-6.9 45.8,-10.4 29.2,-27 l -42.7,-43.7 c -5.3,-5.0000003 -14,-5.0000003 -18.9,0 z m 47.3,81.3 c 0,2.1 16.3,3.3 15.4,-0.5 -1.3,-6.4 -13.6,-5.9 -15.4,0.5 z M 31.9,105.38831 c 3.7,3.2 9.3,-0.7 11.1,-5.2 -3.6,-4.700003 -16.9,0.3 -11.1,5.2 z m 67.5,-6.700003 c -4.6,4.200003 0.8,8.600003 5.3,5.700003 1.2,-0.8 -0.1,-4.700007 -5.3,-5.700003 z" />
            <path
               style="opacity:0.57635468;fill:#000000;fill-opacity:1;filter:url(#filter6031-0)"
               id="path6021"
               d="m 54.1,13.964921 -41.2,42.2 c -15.6,15.6 10.1,14.3 19.4,20.2 4.3,2.8 -13.8,6.4 -10.1,10.1 3.6,3.7 21.7,7.1 25.3,10.7 3.6,3.699999 -7.3,7.600009 -3.7,11.300009 3.5,3.7 11.9,0.2 13.4,8.6 1.1,6.2 15.4,3.1 21.8,-2.2 4,-3.4 -6.9,-3.4 -3.3,-7.1 9,-9.100009 17,-4.1 20.3,-12.500009 1.8,-4.5 -13.6,-7.7 -9.5,-10.6 9.8,-6.9 45.8,-10.4 29.2,-27 l -42.7,-43.7 c -5.3,-5.0000009 -14,-5.0000009 -18.9,0 z m 47.3,81.3 c 0,2.1 16.3,3.3 15.4,-0.5 -1.3,-6.4 -13.6,-5.9 -15.4,0.5 z M 31.9,106.36493 c 3.7,3.2 9.3,-0.7 11.1,-5.2 -3.6,-4.700009 -16.9,0.3 -11.1,5.2 z m 67.5,-6.700009 c -4.6,4.200009 0.8,8.600009 5.3,5.700009 1.2,-0.8 -0.1,-4.70001 -5.3,-5.700009 z" />
          </g>
          <path
             style="fill:#000000;fill-opacity:1"
             id="use7631"
             d="M 54.1,12.5 12.9,54.7 C -2.7,70.3 23,69 32.3,74.9 36.6,77.7 18.5,81.3 22.2,85 c 3.6,3.7 21.7,7.1 25.3,10.7 3.6,3.7 -7.3,7.6 -3.7,11.3 3.5,3.7 11.9,0.2 13.4,8.6 1.1,6.2 15.4,3.1 21.8,-2.2 4,-3.4 -6.9,-3.4 -3.3,-7.1 9,-9.1 17,-4.1 20.3,-12.5 1.8,-4.5 -13.6,-7.7 -9.5,-10.6 9.8,-6.9 45.8,-10.4 29.2,-27 L 73,12.5 c -5.3,-5 -14,-5 -18.9,0 z m 47.3,81.3 c 0,2.1 16.3,3.3 15.4,-0.5 -1.3,-6.4 -13.6,-5.9 -15.4,0.5 z m -69.5,11.1 c 3.7,3.2 9.3,-0.7 11.1,-5.2 -3.6,-4.7 -16.9,0.3 -11.1,5.2 z m 67.5,-6.7 c -4.6,4.2 0.8,8.6 5.3,5.7 1.2,-0.8 -0.1,-4.7 -5.3,-5.7 z" />
          <path
             style="fill:none"
             id="use7639"
             d="M 54.1,12.5 12.9,54.7 C -2.7,70.3 23,69 32.3,74.9 36.6,77.7 18.5,81.3 22.2,85 c 3.6,3.7 21.7,7.1 25.3,10.7 3.6,3.7 -7.3,7.6 -3.7,11.3 3.5,3.7 11.9,0.2 13.4,8.6 1.1,6.2 15.4,3.1 21.8,-2.2 4,-3.4 -6.9,-3.4 -3.3,-7.1 9,-9.1 17,-4.1 20.3,-12.5 1.8,-4.5 -13.6,-7.7 -9.5,-10.6 9.8,-6.9 45.8,-10.4 29.2,-27 L 73,12.5 c -5.3,-5 -14,-5 -18.9,0 z m 47.3,81.3 c 0,2.1 16.3,3.3 15.4,-0.5 -1.3,-6.4 -13.6,-5.9 -15.4,0.5 z m -69.5,11.1 c 3.7,3.2 9.3,-0.7 11.1,-5.2 -3.6,-4.7 -16.9,0.3 -11.1,5.2 z m 67.5,-6.7 c -4.6,4.2 0.8,8.6 5.3,5.7 1.2,-0.8 -0.1,-4.7 -5.3,-5.7 z" />
          <use
             xlink:href="#outline1"
             height="300"
             width="400"
             y="0"
             x="0"
             style="opacity:0.66995072;fill:url(#linearGradient9175);filter:url(#filter8490-0)"
             id="use7641"
             clip-path="url(#clipPath9086-1)"
             transform="matrix(0.9905442,0,0,0.9905442,0.6051535,0.604136)" />
          <path
             style="opacity:0.50526315;fill:url(#shinySpecular-0);stroke:none"
             id="path7643"
             d="M 16.565217,57.039374 C 5.3632748,68.140398 25.042362,65.011927 40.180121,70.966113 L 71.464824,15.965587 c -4.743164,-4.844083 -10.798268,-4.44041 -15.137759,0 L 16.565217,57.039374 Z" />
          <path
             style="fill:url(#IcecapTip-0)"
             id="icecap"
             d="m 70.5,15.5 16.3,16.6 c 1.5,1.5 1.5,4.6 0.6,5.5 L 79.3,31 77.7,40.7 71,37.1 60.1,44 56.5,29.5 50.7,42.1 36.2,42 c -2.8,0 -2.4,-2.9 0.5,-5.8 5.7,-6.3 16.8,-17 20.3,-20.7 3.6,-3.7 9.9,-3.6 13.5,0 z" />
          <path
             style="opacity:0.21674876;fill:url(#radialGradient9177-1);fill-opacity:1;fill-rule:evenodd;stroke:none"
             id="path8566"
             transform="matrix(0.5296484,0,0,0.5296484,-11.722258,-13.864159)"
             d="m 113,203.5 c 0,0 3.34046,5.10071 3,7.5 -0.66817,4.70868 -10.80945,7.05842 -8.5625,11.25 2.21991,4.14114 10.22139,1.79405 16.9375,6.125 6.6875,4.3125 4.88949,13.10149 9.75,15.3125 9.47925,4.31205 34.375,-7.4375 33.125,-7.1875 -1.25,0.25 -24.57014,5.09545 -29.82014,0.84545 -5.98592,-4.84575 -7.70217,-8.23028 -12.11736,-11.09545 -4.13751,-2.68498 -9.94967,-3.78036 -11.30246,-5.97865 -1.35279,-2.19829 2.7092,-5.03469 2.98996,-9.27135 0.16862,-2.54442 -4,-7.5 -4,-7.5 z" />
          <path
             style="opacity:0.27586209;fill:url(#radialGradient8574-0);fill-opacity:1;fill-rule:evenodd;stroke:none;filter:url(#filter8732-3)"
             id="path8718"
             transform="matrix(0.5296484,0,0,0.5296484,-11.722258,-13.864159)"
             d="m 113,203.5 c 0,0 3.34046,5.10071 3,7.5 -0.66817,4.70868 -10.80945,7.05842 -8.5625,11.25 2.21991,4.14114 10.22139,1.79405 16.9375,6.125 6.6875,4.3125 4.88949,13.10149 9.75,15.3125 9.47925,4.31205 34.375,-7.4375 33.125,-7.1875 -41.33959,0.15736 -33.62485,-10.4946 -49.5625,-17.5 -2.30305,-1.0123 -0.96826,-3.76334 -0.6875,-8 0.16862,-2.54442 -4,-7.5 -4,-7.5 z" />
          <path
             style="opacity:0.45320195;fill:url(#radialGradient8744-9);fill-opacity:1;fill-rule:evenodd;stroke:none"
             id="path8736"
             transform="matrix(0.5296484,0,0,0.5296484,-11.722258,-13.864159)"
             d="m 183.25,181.75 c 37.10371,-13.65459 49.02363,-15.53058 61.25,-27.75 -14.16069,11.95366 -44.09847,18.3658 -68.5,29 l 7.25,-1.25 z" />
          <path
             style="opacity:0.51231528;fill:url(#radialGradient8768-6);fill-opacity:1;fill-rule:evenodd;stroke:none;filter:url(#filter8764-9)"
             id="path8746"
             transform="matrix(0.5296484,0,0,0.5296484,-11.722258,-14.791044)"
             d="m 183.25,181.75 c 61.10371,-21.65459 50.77363,-21.53058 61.25,-27.75 -19.42769,7.43666 -55.73446,8.22981 -68.5,29 l 7.25,-1.25 z" />
          <path
             style="display:inline;overflow:visible;visibility:visible;opacity:0.2857143;fill:url(#linearGradient8912-9);fill-opacity:1;fill-rule:nonzero;stroke:none;stroke-width:1;marker:none;enable-background:accumulate"
             id="path8864"
             transform="matrix(0.5296484,0,0,0.5296484,-12.384318,-14.791044)"
             d="m 237.875,199.0625 a 7.9375,2.4375 0 1 1 -15.875,0 7.9375,2.4375 0 1 1 15.875,0 z" />
          <path
             style="display:inline;overflow:visible;visibility:visible;opacity:0.62068936;fill:url(#linearGradient8910-3);fill-opacity:1;fill-rule:nonzero;stroke:none;stroke-width:1;marker:none;filter:url(#filter8906-3);enable-background:accumulate"
             id="path8874"
             transform="matrix(0.7131486,0,0,1.1407811,-54.577902,-134.95502)"
             d="m 237.875,199.0625 a 7.9375,2.4375 0 1 1 -15.875,0 7.9375,2.4375 0 1 1 15.875,0 z" />
          <path
             style="fill:url(#radialGradient8922-9);fill-opacity:1;fill-rule:evenodd;stroke:none;filter:url(#filter8980-1)"
             id="path8914"
             transform="matrix(0.5296484,0,0,0.5296484,-11.722258,-14.238677)"
             d="m 214.125,203.75 c 3.76948,3.48424 24.75576,5.27219 28.1875,-1 -6.73663,4.7839 -21.71677,3.10264 -28.1875,1 z" />
          <path
             style="display:inline;overflow:visible;visibility:visible;opacity:0.2857143;fill:url(#linearGradient8990-4);fill-opacity:1;fill-rule:nonzero;stroke:none;stroke-width:1;marker:none;enable-background:accumulate"
             id="path8984"
             transform="matrix(0.2042516,-0.1035605,0.2395168,0.4723972,5.7547955,30.286555)"
             d="m 236.44594,199.0625 a 6.5084434,3.0820823 0 1 1 -13.01688,0 6.5084434,3.0820823 0 1 1 13.01688,0 z" />
          <path
             style="display:inline;overflow:visible;visibility:visible;opacity:0.62068936;fill:url(#linearGradient8992-2);fill-opacity:1;fill-rule:nonzero;stroke:none;stroke-width:1;marker:none;filter:url(#filter8906-3);enable-background:accumulate"
             id="path8986"
             transform="matrix(0.2750159,-0.1394397,0.5158824,1.0174708,-65.353496,-69.300635)"
             d="m 236.99305,199.0625 a 7.0555515,2.1400476 0 1 1 -14.1111,0 7.0555515,2.1400476 0 1 1 14.1111,0 z" />
          <path
             style="fill:url(#radialGradient8994-0);fill-opacity:1;fill-rule:evenodd;stroke:none;filter:url(#filter8980-1)"
             id="path8988"
             transform="matrix(0.2042516,-0.1035605,0.2395168,0.4723972,6.2599008,30.649764)"
             d="m 217.05754,201.94027 c 3.76948,3.48424 26.97122,8.91123 25.25496,0.80973 -3.31737,5.32326 -18.78423,1.29291 -25.25496,-0.80973 z" />
          <path
             style="fill:url(#radialGradient9004-6);fill-opacity:1;fill-rule:evenodd;stroke:none"
             id="path8996"
             transform="matrix(0.5296484,0,0,0.5296484,-11.722258,-13.864159)"
             d="m 68.25,186 c 0,-0.62057 38.84622,11.83854 45.5,18.5 -5.47122,-5.33854 -33.159709,-17.61609 -37.375,-17.75 -4.215291,-0.13391 -7.625,-0.5 -8.125,-0.75 z" />
          <g
             id="g9018"
             transform="matrix(0.8790148,-0.1929959,0.2338341,0.6959295,-20.209533,36.725557)">
            <path
               style="display:inline;overflow:visible;visibility:visible;opacity:0.2857143;fill:url(#linearGradient9023-6);fill-opacity:1;fill-rule:nonzero;stroke:none;stroke-width:1;marker:none;enable-background:accumulate"
               id="path9006"
               transform="matrix(0.5296484,0,0,0.5296484,-84.4165,-4.7277245)"
               d="m 237.875,199.0625 a 7.9375,2.4375 0 1 1 -15.875,0 7.9375,2.4375 0 1 1 15.875,0 z" />
            <path
               style="display:inline;overflow:visible;visibility:visible;opacity:0.62068936;fill:url(#linearGradient9025-1);fill-opacity:1;fill-rule:nonzero;stroke:none;stroke-width:1;marker:none;filter:url(#filter8906-3);enable-background:accumulate"
               id="path9008"
               transform="matrix(0.7131486,0,0,1.1407811,-126.61008,-124.8917)"
               d="m 237.875,199.0625 a 7.9375,2.4375 0 1 1 -15.875,0 7.9375,2.4375 0 1 1 15.875,0 z" />
          </g>
          <path
             style="opacity:0.61576353;fill:url(#radialGradient9046-1);fill-opacity:1;fill-rule:evenodd;stroke:none;filter:url(#filter9068-2)"
             id="path9038"
             transform="matrix(0.5296484,0,0,0.5296484,-11.622949,-14.42691)"
             d="m 80.5,220.0625 c 0,0 2.10339,5.65078 7.875,5.9375 5.83887,0.29006 12.50324,-7.00698 13.0625,-9.625 -1,2.25 -6.590334,9.03328 -13.8125,8.9375 -4.099862,-0.0544 -7.125,-5.25 -7.125,-5.25 z" />
          <path
             style="fill:none;stroke:url(#radialGradient11553-3);stroke-width:0.48830673;stroke-miterlimit:4;stroke-dasharray:none;stroke-opacity:1;filter:url(#filter9298-4)"
             id="87235"
             d="m 63.40625,10.21875 c -3.098181,0 -6.134601,1.122042 -8.28125,3.3125 l -41.1875,42.1875 c -3.76562,3.76562 -4.6702413,6.23069 -4.4375,7.625 0.1163706,0.697155 0.4585994,1.303027 1.1875,1.9375 0.728901,0.634473 1.831495,1.256389 3.15625,1.8125 2.649511,1.112222 6.217961,2.008085 9.71875,2.96875 3.500789,0.960665 6.929812,1.974626 9.53125,3.625 0.396623,0.258266 0.769088,0.576468 1.03125,1.03125 0.262162,0.454782 0.354216,1.056088 0.25,1.5625 -0.208431,1.012824 -0.83202,1.546985 -1.46875,2.03125 -1.27346,0.96853 -3.023257,1.773229 -4.78125,2.625 -1.757993,0.851771 -3.524925,1.723242 -4.40625,2.4375 -0.440663,0.357129 -0.600112,0.678133 -0.59375,0.65625 0.0064,-0.02188 -0.116851,-0.273101 0.09375,-0.0625 0.551764,0.56709 2.274075,1.538165 4.46875,2.40625 2.194675,0.868085 4.88065,1.745624 7.59375,2.625 2.7131,0.879376 5.4575,1.749959 7.78125,2.65625 2.32375,0.906291 4.217694,1.748944 5.46875,3 0.622681,0.639978 1.062632,1.435956 1.15625,2.25 0.09362,0.814044 -0.126809,1.578032 -0.4375,2.21875 -0.621382,1.28144 -1.620313,2.26719 -2.53125,3.21875 -0.910938,0.95156 -1.736226,1.86034 -2.03125,2.46875 -0.147512,0.3042 -0.170347,0.50242 -0.15625,0.625 0.0141,0.12258 0.03518,0.24623 0.3125,0.53125 A 1.4566768,1.4566768 0 0 1 44.875,106 c 1.193594,1.2618 3.787002,1.43924 6.71875,2.125 1.465874,0.34288 2.998909,0.86196 4.3125,2 1.313591,1.13804 2.299435,2.87059 2.71875,5.21875 0.176459,0.99459 0.702722,1.4788 1.96875,1.875 1.266028,0.3962 3.194353,0.46554 5.3125,0.15625 4.236295,-0.61859 9.260035,-2.69532 12.15625,-5.09375 0.17999,-0.15299 0.129956,-0.11255 0.1875,-0.1875 -0.194805,-0.13939 -0.651644,-0.43652 -1.40625,-0.8125 -0.891527,-0.4442 -1.944708,-0.85956 -2.75,-1.875 -0.402646,-0.50772 -0.679877,-1.30934 -0.5625,-2.09375 0.117377,-0.78441 0.546832,-1.43702 1.125,-2.03125 4.745751,-4.79848 9.421937,-5.944136 12.9375,-6.875 1.757782,-0.465432 3.229292,-0.891233 4.34375,-1.59375 1.114458,-0.702517 1.98508,-1.663728 2.71875,-3.53125 0.08087,-0.202174 0.07855,-0.260846 -0.03125,-0.5 C 94.515197,92.542096 94.220541,92.159521 93.75,91.75 92.808918,90.930959 91.239577,90.050804 89.6875,89.1875 88.135423,88.324196 86.627034,87.519262 85.53125,86.5 84.983358,85.990369 84.409233,85.348367 84.34375,84.375 84.27827,83.401633 84.916318,82.523367 85.65625,82 88.401968,80.06679 92.552528,78.595094 97.0625,77.03125 101.57247,75.467406 106.42363,73.849125 110.375,72 c 3.95137,-1.849125 6.85729,-3.978669 7.78125,-6.125 0.46198,-1.073165 0.54663,-2.158606 0.0625,-3.5625 -0.48413,-1.403894 -1.58958,-3.120831 -3.5625,-5.09375 L 72,13.5625 c -0.01071,-0.0101 -0.02051,-0.02119 -0.03125,-0.03125 -2.357722,-2.207738 -5.478371,-3.3125 -8.5625,-3.3125 z m 45.9375,80 c -2.63522,0.09513 -5.05952,1.301393 -6.09375,3.1875 0.29381,0.110524 0.55838,0.234969 1.03125,0.34375 1.37562,0.316455 3.29543,0.520736 5.1875,0.5625 1.89207,0.04176 3.78415,-0.117472 4.9375,-0.4375 0.50487,-0.14009 0.77236,-0.281778 0.90625,-0.375 -0.2558,-1.091098 -0.86487,-1.862126 -1.90625,-2.4375 -1.07862,-0.595951 -2.55669,-0.898111 -4.0625,-0.84375 z m -70.5,9.0625 c -2.089872,-0.145348 -4.716548,0.686551 -6,1.71875 -0.641726,0.5161 -0.913269,0.99441 -0.9375,1.3125 -0.02423,0.31809 0.07726,0.74199 0.9375,1.46875 a 1.4566768,1.4566768 0 0 1 0,0.0312 c 1.352809,1.17 2.882256,1.04802 4.625,0.0937 1.460951,-0.79997 2.757201,-2.30075 3.625,-3.875 -0.585032,-0.377341 -1.284532,-0.682853 -2.25,-0.75 z m 61,0.625 c -0.447303,0.5686 -0.690902,1.09797 -0.71875,1.46875 -0.03844,0.51176 0.106611,0.90723 0.5,1.28125 0.73729,0.70099 2.33912,1.00278 3.96875,0.125 -0.0322,-0.1891 -0.0933,-0.47591 -0.34375,-0.84375 -0.4999,-0.73414 -1.6686,-1.5251 -3.40625,-2.03125 z" />
          <path
             style="opacity:0.32512315;fill:url(#linearGradient5905-4);fill-opacity:1;fill-rule:evenodd;stroke:none;filter:url(#filter5983-8)"
             id="path5897"
             transform="matrix(0.4883067,0,0,0.4883067,-5.8104012,-7.7042521)"
             d="m 95.5,172 c -5.090606,1.50191 -21.592018,7.73713 -19.25,12.5 2.243595,4.56272 40.61138,6.40132 46.5,20 2.5679,5.93009 -5.89238,10.40326 -3.75,16.5 1.64973,4.69477 14.41196,16.49084 22.48603,22.06781 6.33298,4.37435 14.65096,-3.52244 11.26397,-10.06781 -5.39589,-10.42759 18.44266,-23.19912 29.25,-29 6.30524,-3.38436 -13,-20 -13,-20 0,0 -73.5,-12 -73.5,-12 z" />
          <path
             style="fill:url(#linearGradient5801-2);fill-opacity:1;fill-rule:evenodd;stroke:none"
             id="path5783"
             d="m 41.742167,78.533037 c 2.231933,1.639226 6.636757,0.650538 9.282124,1.841759 6.349518,2.859218 14.154941,6.045427 12.718568,0.404555 0,0 -1.615771,1.342042 -1.615771,1.342042 0,0 -0.03153,-2.557545 -0.03153,-2.557545 0,0 -3.751977,0.916294 -3.751977,0.916294 0,0 -2.906173,-2.332759 -4.238526,-3.101995 -0.27829,-0.160669 -1.707695,1.292815 -1.707695,1.292815 0,0 -0.25697,-1.543804 -0.25697,-1.543804 -1.857372,-0.197638 -3.696159,-0.284805 -5.31515,-0.271821 -3.880942,0.03112 -6.499059,0.637741 -5.083074,1.6777 z" />
          <path
             style="opacity:0.47783251;fill:url(#radialGradient5811-3);fill-opacity:1;fill-rule:evenodd;stroke:none;filter:url(#filter5845-5)"
             id="path5803"
             transform="matrix(0.4883067,0,0,0.4883067,-5.8104012,-7.7042521)"
             d="m 182.75,187.25 c -1.75981,6.4783 21.62776,15.27989 19.875,19.75 -3.85895,9.84158 -24.97596,3.13755 -41.125,23.75 -2.31318,2.95251 3.25,13.5 2.5,12.25 -0.75,-1.25 -6.4649,-9.96285 -5,-14.25 4.59417,-13.44525 49.0128,-18.45749 40.875,-24.875 -4.67988,-3.69058 -21.50546,-13.88721 -17.125,-16.625 z" />
          <path
             style="display:inline;overflow:visible;visibility:visible;opacity:0.58620689;fill:#ffffff;fill-opacity:1;fill-rule:nonzero;stroke:none;stroke-width:1;marker:none;enable-background:accumulate"
             id="path6041"
             transform="matrix(0.4883067,0,0,0.4883067,-6.3597463,-8.0094438)"
             d="m 236.5,201.1875 a 2.5625,1.0625 0 1 1 -5.125,0 2.5625,1.0625 0 1 1 5.125,0 z" />
          <path
             style="display:inline;overflow:visible;visibility:visible;opacity:0.58620689;fill:#ffffff;fill-opacity:1;fill-rule:nonzero;stroke:none;stroke-width:1;marker:none;enable-background:accumulate"
             id="path6043"
             transform="matrix(0.3096579,0,0,0.4883067,27.528443,1.5735759)"
             d="m 236.5,201.1875 a 2.5625,1.0625 0 1 1 -5.125,0 2.5625,1.0625 0 1 1 5.125,0 z" />
          <path
             style="display:inline;overflow:visible;visibility:visible;opacity:0.58620689;fill:#ffffff;fill-opacity:1;fill-rule:nonzero;stroke:none;stroke-width:1;marker:none;enable-background:accumulate"
             id="path6045"
             transform="matrix(0.5478563,0,0,0.4883067,-92.102233,1.115795)"
             d="m 236.5,201.1875 a 2.5625,1.0625 0 1 1 -5.125,0 2.5625,1.0625 0 1 1 5.125,0 z" />
          <path
             style="display:inline;overflow:visible;visibility:visible;opacity:0.25123153;fill:url(#linearGradient5822-7);fill-opacity:1;fill-rule:nonzero;stroke:none;stroke-width:2.04789329;marker:none;enable-background:accumulate"
             id="path5049"
             d="m 36.672282,76.528654 c -7.152988,4.424107 -18.274031,6.034229 -6.103834,8.972635 -1.449712,-3.2281 3.138581,-2.872021 6.103834,-8.972635 z" />
          <path
             style="color:#000000;display:inline;overflow:visible;visibility:visible;opacity:0.36315792;fill:url(#linearGradient1539);fill-opacity:1;fill-rule:nonzero;stroke:none;stroke-width:2;marker:none;filter:url(#filter10997-7-2);enable-background:accumulate"
             id="path10207"
             transform="matrix(0.48830674,0,0,0.48830674,57.750397,32.997477)"
             d="m 8.8342799,171.64721 c 0,0 22.5917801,-2.12795 27.8180201,-8.64645 3.05755,-3.81358 -12.15146,-8.2638 -8.86827,-12 12.35008,-14.0541 22.73076,-13.46729 37.05025,-19.35355 14.31949,-5.88626 9.03544,-8.76906 4.40381,-11.35355 -7.9325,-4.4264 -25.58722,-9.14237 -19.74696,-19.64645 5.87688,-10.569936 57.34315,-25.249996 57.34315,-25.249996 15.59619,-5.32843 13.63909,-14.96447 6,-23 l -46,-45.7499997 c 0,0 2.28296,43.3886497 -7,61.9999997 -11.4715,22.99914 -72.54408,48.661766 -47,51.499996 9,1 13.32065,4.0705 17,11 7.57631,14.26883 -21.0000001,40.5 -21.0000001,40.5 z" />
        </g>
        <g
           id="g5159">
          <circle
             r="2.0842118"
             cy="999.32129"
             cx="58.212376"
             id="circle5086"
             style="color:#000000;clip-rule:nonzero;display:inline;overflow:visible;visibility:visible;opacity:1;isolation:auto;mix-blend-mode:normal;color-interpolation:sRGB;color-interpolation-filters:linearRGB;solid-color:#000000;solid-opacity:1;fill:#ffffff;fill-opacity:1;fill-rule:nonzero;stroke:none;stroke-width:0.89623803;stroke-linecap:butt;stroke-linejoin:miter;stroke-miterlimit:4;stroke-dasharray:none;stroke-dashoffset:0;stroke-opacity:1;marker:none;marker-start:none;marker-mid:none;marker-end:none;color-rendering:auto;image-rendering:auto;shape-rendering:auto;text-rendering:auto;enable-background:accumulate" />
          <circle
             style="color:#000000;clip-rule:nonzero;display:inline;overflow:visible;visibility:visible;opacity:1;isolation:auto;mix-blend-mode:normal;color-interpolation:sRGB;color-interpolation-filters:linearRGB;solid-color:#000000;solid-opacity:1;fill:#888a85;fill-opacity:1;fill-rule:nonzero;stroke:none;stroke-width:0.89623803;stroke-linecap:butt;stroke-linejoin:miter;stroke-miterlimit:4;stroke-dasharray:none;stroke-dashoffset:0;stroke-opacity:1;marker:none;marker-start:none;marker-mid:none;marker-end:none;color-rendering:auto;image-rendering:auto;shape-rendering:auto;text-rendering:auto;enable-background:accumulate"
             id="circle5059"
             cx="58.212376"
             cy="998.82983"
             r="2.0842118" />
        </g>
        <g
           id="g5163">
          <circle
             style="color:#000000;clip-rule:nonzero;display:inline;overflow:visible;visibility:visible;opacity:1;isolation:auto;mix-blend-mode:normal;color-interpolation:sRGB;color-interpolation-filters:linearRGB;solid-color:#000000;solid-opacity:1;fill:#ffffff;fill-opacity:1;fill-rule:nonzero;stroke:none;stroke-width:0.89623803;stroke-linecap:butt;stroke-linejoin:miter;stroke-miterlimit:4;stroke-dasharray:none;stroke-dashoffset:0;stroke-opacity:1;marker:none;marker-start:none;marker-mid:none;marker-end:none;color-rendering:auto;image-rendering:auto;shape-rendering:auto;text-rendering:auto;enable-background:accumulate"
             id="circle5061"
             cx="65.125854"
             cy="999.32129"
             r="2.0842118" />
          <circle
             r="2.0842118"
             cy="998.82983"
             cx="65.125854"
             id="path5029"
             style="color:#000000;clip-rule:nonzero;display:inline;overflow:visible;visibility:visible;opacity:1;isolation:auto;mix-blend-mode:normal;color-interpolation:sRGB;color-interpolation-filters:linearRGB;solid-color:#000000;solid-opacity:1;fill:#888a85;fill-opacity:1;fill-rule:nonzero;stroke:none;stroke-width:0.89623803;stroke-linecap:butt;stroke-linejoin:miter;stroke-miterlimit:4;stroke-dasharray:none;stroke-dashoffset:0;stroke-opacity:1;marker:none;marker-start:none;marker-mid:none;marker-end:none;color-rendering:auto;image-rendering:auto;shape-rendering:auto;text-rendering:auto;enable-background:accumulate" />
        </g>
      </g>
    </g>
  </g>
  <style
     id="style26"
     type="text/css" />
</svg>
