<?xml version="1.0" encoding="UTF-8" standalone="no"?>
<!-- Created with Inkscape (http://www.inkscape.org/) -->

<svg
   xmlns:dc="http://purl.org/dc/elements/1.1/"
   xmlns:cc="http://creativecommons.org/ns#"
   xmlns:rdf="http://www.w3.org/1999/02/22-rdf-syntax-ns#"
   xmlns:svg="http://www.w3.org/2000/svg"
   xmlns="http://www.w3.org/2000/svg"
   xmlns:xlink="http://www.w3.org/1999/xlink"
   xmlns:sodipodi="http://sodipodi.sourceforge.net/DTD/sodipodi-0.dtd"
   xmlns:inkscape="http://www.inkscape.org/namespaces/inkscape"
   width="364.03726"
   height="307.13269"
   id="svg2"
   sodipodi:version="0.32"
   inkscape:version="0.91pre2 r"
   version="1.0"
   sodipodi:docname="500.svg"
   inkscape:output_extension="org.inkscape.output.svg.inkscape"
   style="enable-background:new">
  <defs
     id="defs4">
    <linearGradient
       inkscape:collect="always"
       id="linearGradient5893">
      <stop
         style="stop-color:#000000;stop-opacity:0.50961538"
         offset="0"
         id="stop5895" />
      <stop
         style="stop-color:#000000;stop-opacity:0.00480769"
         offset="1"
         id="stop5897" />
    </linearGradient>
    <linearGradient
       id="linearGradient5733">
      <stop
         style="stop-color:#ffffff;stop-opacity:1;"
         offset="0"
         id="stop5735" />
      <stop
         style="stop-color:#ffffff;stop-opacity:0"
         offset="1"
         id="stop5737" />
    </linearGradient>
    <linearGradient
       inkscape:collect="always"
       id="linearGradient5719">
      <stop
         style="stop-color:#000000;stop-opacity:1;"
         offset="0"
         id="stop5721" />
      <stop
         style="stop-color:#000000;stop-opacity:0;"
         offset="1"
         id="stop5723" />
    </linearGradient>
    <filter
       inkscape:collect="always"
       id="filter5765"
       x="-0.14626265"
       width="1.2925253"
       y="-0.11547264"
       height="1.2309453">
      <feGaussianBlur
         inkscape:collect="always"
         stdDeviation="11.086574"
         id="feGaussianBlur5767" />
    </filter>
    <filter
       inkscape:collect="always"
       id="filter5935"
       x="-0.47471207"
       width="1.9494241"
       y="-0.37477961"
       height="1.7495592" />
    <radialGradient
       inkscape:collect="always"
       xlink:href="#linearGradient5719"
       id="radialGradient6039"
       gradientUnits="userSpaceOnUse"
       gradientTransform="matrix(0.9004486,-0.25345805,0.54509171,1.936522,-435.54423,-395.39778)"
       cx="541.80084"
       cy="423.77536"
       fx="541.80084"
       fy="423.77536"
       r="90.9589" />
    <radialGradient
       inkscape:collect="always"
       xlink:href="#linearGradient5719"
       id="radialGradient6041"
       gradientUnits="userSpaceOnUse"
       gradientTransform="matrix(0.48762966,-0.15114856,0.28335202,0.91413943,-84.765738,1.9513913)"
       cx="524.16516"
       cy="450.3728"
       fx="524.16516"
       fy="450.3728"
       r="90.9589" />
    <radialGradient
       inkscape:collect="always"
       xlink:href="#linearGradient5893"
       id="radialGradient6043"
       gradientUnits="userSpaceOnUse"
       gradientTransform="matrix(1.2744883,-0.2291964,0.0908709,0.5053057,-458.74627,233.53063)"
       cx="655.32001"
       cy="458.586"
       fx="655.32001"
       fy="458.586"
       r="90.9589" />
    <clipPath
       id="clipoutline1">
      <path
         id="outline1"
         d="M 54.1,12.5 12.9,54.7 C -2.7,70.3 23,69 32.3,74.9 36.6,77.7 18.5,81.3 22.2,85 c 3.6,3.7 21.7,7.1 25.3,10.7 3.6,3.7 -7.3,7.6 -3.7,11.3 3.5,3.7 11.9,0.2 13.4,8.6 1.1,6.2 15.4,3.1 21.8,-2.2 4,-3.4 -6.9,-3.4 -3.3,-7.1 9,-9.1 17,-4.1 20.3,-12.5 1.8,-4.5 -13.6,-7.7 -9.5,-10.6 9.8,-6.9 45.8,-10.4 29.2,-27 L 73,12.5 c -5.3,-5 -14,-5 -18.9,0 z m -9.9,64.7 c 0.9,0 30.8,4 19.3,7.1 -4.4,1.2 -24.6,-7.1 -19.3,-7.1 z m 57.2,16.6 c 0,2.1 16.3,3.3 15.4,-0.5 -1.3,-6.4 -13.6,-5.9 -15.4,0.5 z m -69.5,11.1 c 3.7,3.2 9.3,-0.7 11.1,-5.2 -3.6,-4.7 -16.9,0.3 -11.1,5.2 z m 67.5,-6.7 c -4.6,4.2 0.8,8.6 5.3,5.7 1.2,-0.8 -0.1,-4.7 -5.3,-5.7 z"
         inkscape:connector-curvature="0" />
    </clipPath>
    <linearGradient
       gradientUnits="userSpaceOnUse"
       id="linearGradient5785">
      <stop
         offset="0"
         style="stop-color:#c0cdf9;stop-opacity:1"
         id="stop5787" />
      <stop
         offset="1"
         style="stop-color:#07092d;stop-opacity:0.28804347"
         id="stop5789" />
    </linearGradient>
    <linearGradient
       id="linearGradient10981-3-9">
      <stop
         offset="0"
         style="stop-color:#729fcf;stop-opacity:1"
         id="stop10983-2-0" />
      <stop
         offset="1"
         style="stop-color:#729fcf;stop-opacity:0"
         id="stop10985-3-7" />
    </linearGradient>
    <linearGradient
       gradientUnits="userSpaceOnUse"
       xlink:href="#linearGradient5785"
       id="linearGradient20622"
       y2="40"
       x2="60"
       y1="20"
       x1="82.118591" />
    <filter
       style="color-interpolation-filters:sRGB"
       id="filter6017-3-0-8">
      <feGaussianBlur
         inkscape:collect="always"
         stdDeviation="0.80546496"
         id="feGaussianBlur6019-9-8-2" />
    </filter>
    <filter
       style="color-interpolation-filters:sRGB"
       id="filter6031-0-9-2">
      <feGaussianBlur
         inkscape:collect="always"
         stdDeviation="3.4903482"
         id="feGaussianBlur6033-8-8-3" />
    </filter>
    <clipPath
       id="clipPath9086-1-0-9">
      <use
         xlink:href="#outline1"
         height="300"
         width="400"
         y="0"
         x="0"
         style="opacity:0.25;fill:#ffffff;fill-opacity:1"
         id="use9088-0-7-3"
         transform="translate(1.0095461e-6,0)" />
    </clipPath>
    <filter
       style="color-interpolation-filters:sRGB"
       id="filter8490-0-2-5">
      <feGaussianBlur
         inkscape:collect="always"
         stdDeviation="2.4163949"
         id="feGaussianBlur8492-5-5-9" />
    </filter>
    <linearGradient
       gradientTransform="matrix(1.009184,0,0,1.009184,-0.3890738,-0.3831933)"
       gradientUnits="userSpaceOnUse"
       xlink:href="#linearGradient5733"
       id="shinySpecular-0-8-9"
       y2="60"
       x2="58"
       y1="35"
       x1="33" />
    <linearGradient
       gradientUnits="userSpaceOnUse"
       xlink:href="#linearGradient5733"
       id="IcecapTip-0-7-8"
       y2="50"
       x2="90"
       y1="20"
       x1="60" />
    <radialGradient
       gradientTransform="matrix(1.5700516,0,0,1.0509301,-75.500107,-22.095908)"
       gradientUnits="userSpaceOnUse"
       xlink:href="#linearGradient5733"
       id="radialGradient9177-1-8-3"
       fy="250.89737"
       fx="116.31038"
       r="30.599579"
       cy="250.89737"
       cx="116.31038" />
    <radialGradient
       gradientTransform="matrix(2.0032532,0,0,1.340898,-132.8752,-95.166065)"
       gradientUnits="userSpaceOnUse"
       xlink:href="#linearGradient5733"
       id="radialGradient8574-0-5-5"
       fy="251.99396"
       fx="132.44434"
       r="30.599579"
       cy="251.99396"
       cx="132.44434" />
    <filter
       style="color-interpolation-filters:sRGB"
       id="filter8732-3-6-1"
       x="-0.078079157"
       width="1.1561583"
       y="-0.11422065"
       height="1.2284414">
      <feGaussianBlur
         inkscape:collect="always"
         stdDeviation="1.9579068"
         id="feGaussianBlur8734-5-7-4" />
    </filter>
    <radialGradient
       gradientTransform="matrix(1,0,0,0.4233577,0,97.164234)"
       gradientUnits="userSpaceOnUse"
       xlink:href="#linearGradient5733"
       id="radialGradient8744-9-0-2"
       fy="168.5"
       fx="210.25"
       r="34.25"
       cy="168.5"
       cx="210.25" />
    <radialGradient
       gradientTransform="matrix(1,0,0,0.4233577,0,97.164234)"
       gradientUnits="userSpaceOnUse"
       xlink:href="#linearGradient5733"
       id="radialGradient8768-6-9-4"
       fy="182.08189"
       fx="217.5"
       r="34.25"
       cy="182.08189"
       cx="217.5" />
    <filter
       style="color-interpolation-filters:sRGB"
       id="filter8764-9-5-2"
       x="-0.074262142"
       width="1.1485243"
       y="-0.1754123"
       height="1.3508246">
      <feGaussianBlur
         inkscape:collect="always"
         stdDeviation="2.1195652"
         id="feGaussianBlur8766-2-0-5" />
    </filter>
    <linearGradient
       gradientUnits="userSpaceOnUse"
       xlink:href="#linearGradient5733"
       id="linearGradient8912-9-6-6"
       y2="201.5"
       x2="231.75"
       y1="195.1875"
       x1="231.625" />
    <linearGradient
       gradientUnits="userSpaceOnUse"
       xlink:href="#linearGradient5733"
       id="linearGradient8910-3-3-0"
       y2="200.07138"
       x2="231.37646"
       y1="195.62132"
       x1="231.37646" />
    <filter
       style="color-interpolation-filters:sRGB"
       id="filter8906-3-7-0"
       x="-0.085441329"
       width="1.1708827"
       y="-0.27823201"
       height="1.556464">
      <feGaussianBlur
         inkscape:collect="always"
         stdDeviation="0.56515877"
         id="feGaussianBlur8908-7-7-3" />
    </filter>
    <radialGradient
       gradientTransform="matrix(1,0,0,0.1477455,0,174.56924)"
       gradientUnits="userSpaceOnUse"
       xlink:href="#linearGradient5733"
       id="radialGradient8922-9-9-1"
       fy="204.83229"
       fx="228.21875"
       r="14.09375"
       cy="204.83229"
       cx="228.21875" />
    <filter
       style="color-interpolation-filters:sRGB"
       id="filter8980-1-3-2"
       x="-0.069862768"
       width="1.1397254"
       y="-0.47285891"
       height="1.9457178">
      <feGaussianBlur
         inkscape:collect="always"
         stdDeviation="0.82052366"
         id="feGaussianBlur8982-9-3-6" />
    </filter>
    <linearGradient
       gradientUnits="userSpaceOnUse"
       xlink:href="#linearGradient5733"
       id="linearGradient8990-4-2-0"
       y2="201.5"
       x2="231.75"
       y1="195.1875"
       x1="231.625" />
    <linearGradient
       gradientUnits="userSpaceOnUse"
       xlink:href="#linearGradient5733"
       id="linearGradient8992-2-5-2"
       y2="200.07138"
       x2="231.37646"
       y1="195.62132"
       x1="231.37646" />
    <radialGradient
       gradientTransform="matrix(1,0,0,0.1477455,0,174.56924)"
       gradientUnits="userSpaceOnUse"
       xlink:href="#linearGradient5733"
       id="radialGradient8994-0-1-1"
       fy="204.83229"
       fx="228.21875"
       r="14.09375"
       cy="204.83229"
       cx="228.21875" />
    <radialGradient
       gradientTransform="matrix(1,0,0,0.4070844,0,115.76014)"
       gradientUnits="userSpaceOnUse"
       xlink:href="#linearGradient5733"
       id="radialGradient9004-6-2-3"
       fy="187.86935"
       fx="89.875"
       r="22.75"
       cy="187.86935"
       cx="89.875" />
    <linearGradient
       gradientUnits="userSpaceOnUse"
       xlink:href="#linearGradient5733"
       id="linearGradient9023-6-3-6"
       y2="201.5"
       x2="231.75"
       y1="195.1875"
       x1="231.625" />
    <linearGradient
       gradientUnits="userSpaceOnUse"
       xlink:href="#linearGradient5733"
       id="linearGradient9025-1-0-8"
       y2="200.07138"
       x2="231.37646"
       y1="195.62132"
       x1="231.37646" />
    <radialGradient
       gradientTransform="matrix(1.1850746,-0.3283582,0.1228557,0.4433973,-45.068314,152.92161)"
       gradientUnits="userSpaceOnUse"
       xlink:href="#linearGradient5733"
       id="radialGradient9046-1-8-3"
       fy="230.83626"
       fx="90.28125"
       r="10.46875"
       cy="230.83626"
       cx="90.28125" />
    <filter
       style="color-interpolation-filters:sRGB"
       id="filter9068-2-5-3"
       x="-0.076179281"
       width="1.1523587"
       y="-0.1655701"
       height="1.3311402">
      <feGaussianBlur
         inkscape:collect="always"
         stdDeviation="0.66458488"
         id="feGaussianBlur9070-7-1-7" />
    </filter>
    <radialGradient
       gradientTransform="matrix(1.7221535,0,0,1.6949765,-49.39526,-14.078057)"
       gradientUnits="userSpaceOnUse"
       xlink:href="#linearGradient5733"
       id="radialGradient11553-3-7-6"
       fy="21.225746"
       fx="68.39994"
       r="54.783398"
       cy="21.225746"
       cx="68.39994" />
    <filter
       style="color-interpolation-filters:sRGB"
       id="filter9298-4-7-0">
      <feGaussianBlur
         inkscape:collect="always"
         stdDeviation="0.32610678"
         id="feGaussianBlur9300-4-6-8" />
    </filter>
    <linearGradient
       gradientUnits="userSpaceOnUse"
       xlink:href="#linearGradient5733"
       id="linearGradient5905-4-8-5"
       y2="223.5"
       x2="153.5"
       y1="208.16444"
       x1="95.5" />
    <filter
       style="color-interpolation-filters:sRGB"
       id="filter5983-8-2-7"
       x="-0.082508981"
       width="1.165018"
       y="-0.12233575"
       height="1.2446715">
      <feGaussianBlur
         inkscape:collect="always"
         stdDeviation="3.6868363"
         id="feGaussianBlur5985-3-9-7" />
    </filter>
    <radialGradient
       gradientTransform="matrix(1.3515234,0,0,1.7175707,-63.705646,-153.95568)"
       gradientUnits="userSpaceOnUse"
       xlink:href="#linearGradient5733"
       id="radialGradient5811-3-3-7"
       fy="214.55121"
       fx="181.22731"
       r="22.466398"
       cy="214.55121"
       cx="181.22731" />
    <filter
       style="color-interpolation-filters:sRGB"
       id="filter5845-5-0-8">
      <feGaussianBlur
         inkscape:collect="always"
         stdDeviation="1.2409356"
         id="feGaussianBlur5847-5-8-6" />
    </filter>
    <linearGradient
       gradientTransform="matrix(0.4927913,0,0,0.4927913,-6.0003885,-9.7225182)"
       gradientUnits="userSpaceOnUse"
       xlink:href="#linearGradient5733"
       id="linearGradient5822-7-2-3"
       y2="187.65974"
       x2="82.754066"
       y1="180.47572"
       x1="73.712105" />
    <linearGradient
       gradientTransform="translate(-130.16572,-83.352786)"
       gradientUnits="userSpaceOnUse"
       xlink:href="#linearGradient10981-3-9"
       id="linearGradient1539-7-2"
       y2="144.5"
       x2="153.70045"
       y1="217.5"
       x1="180.81293" />
    <filter
       style="color-interpolation-filters:sRGB"
       id="filter10997-7-2-1-4">
      <feGaussianBlur
         inkscape:collect="always"
         stdDeviation="2.7696726"
         id="feGaussianBlur10999-0-7-7-6" />
    </filter>
  </defs>
  <sodipodi:namedview
     id="base"
     pagecolor="#ffffff"
     bordercolor="#666666"
     borderopacity="1.0"
     gridtolerance="10000"
     guidetolerance="10"
     objecttolerance="10"
     inkscape:pageopacity="0.0"
     inkscape:pageshadow="2"
     inkscape:zoom="1"
     inkscape:cx="50.39824"
     inkscape:cy="240.9084"
     inkscape:document-units="px"
     inkscape:current-layer="layer2"
     showgrid="false"
     inkscape:window-width="1855"
     inkscape:window-height="1056"
     inkscape:window-x="65"
     inkscape:window-y="24"
     showguides="true"
     inkscape:guide-bbox="true"
     inkscape:window-maximized="1"
     fit-margin-top="0"
     fit-margin-left="0"
     fit-margin-right="0"
     fit-margin-bottom="0" />
  <metadata
     id="metadata7">
    <rdf:RDF>
      <cc:Work
         rdf:about="">
        <dc:format>image/svg+xml</dc:format>
        <dc:type
           rdf:resource="http://purl.org/dc/dcmitype/StillImage" />
        <dc:title></dc:title>
      </cc:Work>
    </rdf:RDF>
  </metadata>
  <g
     inkscape:groupmode="layer"
     id="layer6"
     inkscape:label="bgr"
     style="display:inline"
     transform="translate(-120.53881,-243.04802)" />
  <g
     inkscape:label="logo"
     inkscape:groupmode="layer"
     id="layer1"
     style="display:inline"
     transform="translate(-120.53881,-243.04802)" />
  <g
     inkscape:groupmode="layer"
     id="layer5"
     inkscape:label="draw"
     style="display:inline"
     transform="translate(-120.53881,-243.04802)" />
  <g
     inkscape:groupmode="layer"
     id="layer7"
     inkscape:label="draw2"
     style="display:inline"
     transform="translate(-120.53881,-243.04802)">
    <g
       style="display:inline;fill:#ffffff;enable-background:new"
       id="g18546"
       transform="matrix(0.63113524,0,0,0.62441177,212.06853,179.79662)">
      <g
         id="g18548"
         transform="matrix(1.0084071,0,0,1.0084071,-178.17487,113.03214)"
         style="fill:#ffffff">
        <path
           style="font-size:12px;fill:#ffffff;fill-rule:evenodd;stroke-width:1pt"
           d="m 248.84375,54.96875 c -11.10175,0 -22.1805,4.243 -30.6875,12.75 l -151.1875,151.1875 c -8.338513,8.33852 -12.55358,19.18142 -12.71875,30.0625 l -0.0625,0 c 0,0.0421 0.06027,0.0828 0.0625,0.125 -0.0022,0.17838 -0.0625,0.35286 -0.0625,0.53125 l 0.28125,0 c 2.90625,11.0102 77.62691,25.06442 85.96875,33.40625 12.599,12.599 -48.2863,21.83851 -35.6875,34.4375 12.599,12.599 76.15,24.36975 88.75,36.96875 12.599,12.599 -25.75524,26.02601 -13.15625,38.625 12.599,12.599 54.915,-3.17551 47.25,29.6875 17.014,17.014 52.51326,8.92026 76.28125,-8.09375 12.599,-12.599 -24.16151,-11.49476 -11.5625,-24.09375 12.599,-12.599 44.3905,-12.6745 71.1875,-42.8125 -10.786,-16.775 -46.09899,-23.93226 -33.5,-36.53125 12.599,-12.599 37.0855,-6.18551 89.9375,-30.1875 25.80277,-11.71865 23.6609,-20.61448 23.5625,-31.40625 -0.002,-0.22595 0,-0.42858 0,-0.65625 l -0.0625,0 c -0.16518,-10.881 -4.34905,-21.72405 -12.6875,-30.0625 L 279.5625,67.71875 c -8.50701,-8.507001 -19.617,-12.75 -30.71875,-12.75 z"
           id="path18550"
           inkscape:connector-curvature="0" />
        <path
           style="font-size:12px;fill:#ffffff;fill-rule:evenodd;stroke-width:1pt"
           d="m 364.356,366.845 c 18.472,3.694 22.168,16.625 18.472,20.319 -3.693,3.695 -12.929,7.389 -20.318,1.847 -7.391,-5.541 -7.391,-18.472 1.846,-22.166 z"
           id="path18552"
           inkscape:connector-curvature="0" />
        <path
           style="font-size:12px;fill:#ffffff;fill-rule:evenodd;stroke-width:1pt"
           d="m 177.423,368.079 c -1.8,0.48 -16.837,-12.478 -28.745,-6.472 -11.905,6.005 -19.897,19.452 -8.775,24.97 11.123,5.518 19.074,-0.845 28.825,-7.692 9.752,-6.846 9.4,-8.165 8.695,-10.806 z"
           id="path18554"
           inkscape:connector-curvature="0" />
        <path
           style="font-size:12px;fill:#ffffff;fill-rule:evenodd;stroke-width:1pt"
           d="m 397.131,335.205 c 10.046,-2.512 33.252,0 29.556,14.776 -3.693,14.78 -35.095,9.236 -55.417,1.85 -1.847,-14.779 21.126,-15.443 25.861,-16.626 z"
           id="path18556"
           inkscape:connector-curvature="0" />
        <path
           style="font-size:12px;fill:#ffffff;fill-opacity:1;fill-rule:evenodd;stroke-width:1pt"
           d="m 204.84,101.661 c -17.363,8.815 -45.887,45.85 -45.887,51.139 l -0.541,22.023 49.458,-4.96 17.713,-41.468 13.744,47.421 35.966,-24.008 23.268,10.912 4.221,-31.944 42.315,20.436 c 0,-0.661 -0.048,-1.322 -0.146,-1.981 -0.098,-0.658 -0.244,-1.315 -0.44,-1.966 -0.195,-0.652 -0.439,-1.298 -0.732,-1.938 -0.293,-0.639 -0.635,-1.271 -1.026,-1.894 -0.39,-0.622 -0.83,-1.235 -1.318,-1.836 -0.489,-0.601 -1.026,-1.189 -1.612,-1.763 -0.586,-0.575 -1.221,-1.134 -1.905,-1.677 -0.684,-0.543 -1.417,-1.069 -2.199,-1.576 L 264.28,83.5998 c -12.505,-8.106 -15.179,-12.868 -27.684,-4.762 L 204.84,101.661 Z"
           id="path18558"
           inkscape:connector-curvature="0" />
        <path
           style="font-size:12px;fill:#ffffff;fill-opacity:1;fill-rule:evenodd;stroke-width:1pt"
           d="m 181.808,290.745 c 22.515,5.839 47.553,13.485 67.651,13.622 l 0.869,9.054 c -17.21,-1.774 -53.632,-10.074 -62.218,-14.46 l -6.302,-8.216 z"
           id="path18560"
           inkscape:connector-curvature="0" />
      </g>
    </g>
    <g
       style="display:inline;enable-background:new"
       id="g9139"
       transform="matrix(2.0920794,3.3770923e-8,-3.3770923e-8,2.0920794,127.27024,273.99892)">
      <g
         style="opacity:0.78325124"
         id="g6035"
         transform="translate(3.6896803e-7,0.4883067)">
        <path
           style="fill:#000000;fill-opacity:1;filter:url(#filter6017-3-0-8)"
           id="path5987"
           d="m 54.1,12.988307 -41.2,42.2 c -15.6,15.6 10.1,14.3 19.4,20.2 4.3,2.8 -13.8,6.4 -10.1,10.1 3.6,3.7 21.7,7.1 25.3,10.7 3.6,3.699996 -7.3,7.600003 -3.7,11.300003 3.5,3.7 11.9,0.2 13.4,8.6 1.1,6.2 15.4,3.1 21.8,-2.2 4,-3.4 -6.9,-3.4 -3.3,-7.1 9,-9.100003 17,-4.1 20.3,-12.500003 1.8,-4.5 -13.6,-7.7 -9.5,-10.6 9.8,-6.9 45.8,-10.4 29.2,-27 l -42.7,-43.7 c -5.3,-5.0000003 -14,-5.0000003 -18.9,0 z m 47.3,81.3 c 0,2.1 16.3,3.3 15.4,-0.5 -1.3,-6.4 -13.6,-5.9 -15.4,0.5 z M 31.9,105.38831 c 3.7,3.2 9.3,-0.7 11.1,-5.2 -3.6,-4.700003 -16.9,0.3 -11.1,5.2 z m 67.5,-6.700003 c -4.6,4.200003 0.8,8.600003 5.3,5.700003 1.2,-0.8 -0.1,-4.700007 -5.3,-5.700003 z"
           inkscape:connector-curvature="0" />
        <path
           style="opacity:0.57635468;fill:#000000;fill-opacity:1;filter:url(#filter6031-0-9-2)"
           id="path6021"
           d="m 54.1,13.964921 -41.2,42.2 c -15.6,15.6 10.1,14.3 19.4,20.2 4.3,2.8 -13.8,6.4 -10.1,10.1 3.6,3.7 21.7,7.1 25.3,10.7 3.6,3.699999 -7.3,7.600009 -3.7,11.300009 3.5,3.7 11.9,0.2 13.4,8.6 1.1,6.2 15.4,3.1 21.8,-2.2 4,-3.4 -6.9,-3.4 -3.3,-7.1 9,-9.100009 17,-4.1 20.3,-12.500009 1.8,-4.5 -13.6,-7.7 -9.5,-10.6 9.8,-6.9 45.8,-10.4 29.2,-27 l -42.7,-43.7 c -5.3,-5.0000009 -14,-5.0000009 -18.9,0 z m 47.3,81.3 c 0,2.1 16.3,3.3 15.4,-0.5 -1.3,-6.4 -13.6,-5.9 -15.4,0.5 z M 31.9,106.36493 c 3.7,3.2 9.3,-0.7 11.1,-5.2 -3.6,-4.700009 -16.9,0.3 -11.1,5.2 z m 67.5,-6.700009 c -4.6,4.200009 0.8,8.600009 5.3,5.700009 1.2,-0.8 -0.1,-4.70001 -5.3,-5.700009 z"
           inkscape:connector-curvature="0" />
      </g>
      <path
         style="fill:#000000;fill-opacity:1"
         id="use7631"
         d="M 54.1,12.5 12.9,54.7 C -2.7,70.3 23,69 32.3,74.9 36.6,77.7 18.5,81.3 22.2,85 c 3.6,3.7 21.7,7.1 25.3,10.7 3.6,3.7 -7.3,7.6 -3.7,11.3 3.5,3.7 11.9,0.2 13.4,8.6 1.1,6.2 15.4,3.1 21.8,-2.2 4,-3.4 -6.9,-3.4 -3.3,-7.1 9,-9.1 17,-4.1 20.3,-12.5 1.8,-4.5 -13.6,-7.7 -9.5,-10.6 9.8,-6.9 45.8,-10.4 29.2,-27 L 73,12.5 c -5.3,-5 -14,-5 -18.9,0 z m 47.3,81.3 c 0,2.1 16.3,3.3 15.4,-0.5 -1.3,-6.4 -13.6,-5.9 -15.4,0.5 z m -69.5,11.1 c 3.7,3.2 9.3,-0.7 11.1,-5.2 -3.6,-4.7 -16.9,0.3 -11.1,5.2 z m 67.5,-6.7 c -4.6,4.2 0.8,8.6 5.3,5.7 1.2,-0.8 -0.1,-4.7 -5.3,-5.7 z"
         inkscape:connector-curvature="0" />
      <path
         style="fill:none"
         id="use7639"
         d="M 54.1,12.5 12.9,54.7 C -2.7,70.3 23,69 32.3,74.9 36.6,77.7 18.5,81.3 22.2,85 c 3.6,3.7 21.7,7.1 25.3,10.7 3.6,3.7 -7.3,7.6 -3.7,11.3 3.5,3.7 11.9,0.2 13.4,8.6 1.1,6.2 15.4,3.1 21.8,-2.2 4,-3.4 -6.9,-3.4 -3.3,-7.1 9,-9.1 17,-4.1 20.3,-12.5 1.8,-4.5 -13.6,-7.7 -9.5,-10.6 9.8,-6.9 45.8,-10.4 29.2,-27 L 73,12.5 c -5.3,-5 -14,-5 -18.9,0 z m 47.3,81.3 c 0,2.1 16.3,3.3 15.4,-0.5 -1.3,-6.4 -13.6,-5.9 -15.4,0.5 z m -69.5,11.1 c 3.7,3.2 9.3,-0.7 11.1,-5.2 -3.6,-4.7 -16.9,0.3 -11.1,5.2 z m 67.5,-6.7 c -4.6,4.2 0.8,8.6 5.3,5.7 1.2,-0.8 -0.1,-4.7 -5.3,-5.7 z"
         inkscape:connector-curvature="0" />
      <use
         xlink:href="#outline1"
         height="300"
         width="400"
         y="0"
         x="0"
         style="opacity:0.66995072;fill:url(#linearGradient20622);filter:url(#filter8490-0-2-5)"
         id="use7641"
         clip-path="url(#clipPath9086-1-0-9)"
         transform="matrix(0.9905442,0,0,0.9905442,0.6051535,0.604136)" />
      <path
         style="opacity:0.50526315;fill:url(#shinySpecular-0-8-9);stroke:none"
         id="path7643"
         d="M 16.565217,57.039374 C 5.3632748,68.140398 25.042362,65.011927 40.180121,70.966113 L 71.464824,15.965587 c -4.743164,-4.844083 -10.798268,-4.44041 -15.137759,0 L 16.565217,57.039374 Z"
         inkscape:connector-curvature="0" />
      <path
         style="fill:url(#IcecapTip-0-7-8)"
         id="icecap"
         d="m 70.5,15.5 16.3,16.6 c 1.5,1.5 1.5,4.6 0.6,5.5 L 79.3,31 77.7,40.7 71,37.1 60.1,44 56.5,29.5 50.7,42.1 36.2,42 c -2.8,0 -2.4,-2.9 0.5,-5.8 5.7,-6.3 16.8,-17 20.3,-20.7 3.6,-3.7 9.9,-3.6 13.5,0 z"
         inkscape:connector-curvature="0" />
      <path
         style="opacity:0.21674876;fill:url(#radialGradient9177-1-8-3);fill-opacity:1;fill-rule:evenodd;stroke:none"
         id="path8566"
         transform="matrix(0.5296484,0,0,0.5296484,-11.722258,-13.864159)"
         d="m 113,203.5 c 0,0 3.34046,5.10071 3,7.5 -0.66817,4.70868 -10.80945,7.05842 -8.5625,11.25 2.21991,4.14114 10.22139,1.79405 16.9375,6.125 6.6875,4.3125 4.88949,13.10149 9.75,15.3125 9.47925,4.31205 34.375,-7.4375 33.125,-7.1875 -1.25,0.25 -24.57014,5.09545 -29.82014,0.84545 -5.98592,-4.84575 -7.70217,-8.23028 -12.11736,-11.09545 -4.13751,-2.68498 -9.94967,-3.78036 -11.30246,-5.97865 -1.35279,-2.19829 2.7092,-5.03469 2.98996,-9.27135 0.16862,-2.54442 -4,-7.5 -4,-7.5 z"
         inkscape:connector-curvature="0" />
      <path
         style="opacity:0.27586209;fill:url(#radialGradient8574-0-5-5);fill-opacity:1;fill-rule:evenodd;stroke:none;filter:url(#filter8732-3-6-1)"
         id="path8718"
         transform="matrix(0.5296484,0,0,0.5296484,-11.722258,-13.864159)"
         d="m 113,203.5 c 0,0 3.34046,5.10071 3,7.5 -0.66817,4.70868 -10.80945,7.05842 -8.5625,11.25 2.21991,4.14114 10.22139,1.79405 16.9375,6.125 6.6875,4.3125 4.88949,13.10149 9.75,15.3125 9.47925,4.31205 34.375,-7.4375 33.125,-7.1875 -41.33959,0.15736 -33.62485,-10.4946 -49.5625,-17.5 -2.30305,-1.0123 -0.96826,-3.76334 -0.6875,-8 0.16862,-2.54442 -4,-7.5 -4,-7.5 z"
         inkscape:connector-curvature="0" />
      <path
         style="opacity:0.45320195;fill:url(#radialGradient8744-9-0-2);fill-opacity:1;fill-rule:evenodd;stroke:none"
         id="path8736"
         transform="matrix(0.5296484,0,0,0.5296484,-11.722258,-13.864159)"
         d="m 183.25,181.75 c 37.10371,-13.65459 49.02363,-15.53058 61.25,-27.75 -14.16069,11.95366 -44.09847,18.3658 -68.5,29 l 7.25,-1.25 z"
         inkscape:connector-curvature="0" />
      <path
         style="opacity:0.51231528;fill:url(#radialGradient8768-6-9-4);fill-opacity:1;fill-rule:evenodd;stroke:none;filter:url(#filter8764-9-5-2)"
         id="path8746"
         transform="matrix(0.5296484,0,0,0.5296484,-11.722258,-14.791044)"
         d="m 183.25,181.75 c 61.10371,-21.65459 50.77363,-21.53058 61.25,-27.75 -19.42769,7.43666 -55.73446,8.22981 -68.5,29 l 7.25,-1.25 z"
         inkscape:connector-curvature="0" />
      <path
         style="display:inline;overflow:visible;visibility:visible;opacity:0.2857143;fill:url(#linearGradient8912-9-6-6);fill-opacity:1;fill-rule:nonzero;stroke:none;stroke-width:1;marker:none;enable-background:accumulate"
         id="path8864"
         transform="matrix(0.5296484,0,0,0.5296484,-12.384318,-14.791044)"
         d="m 237.875,199.0625 a 7.9375,2.4375 0 1 1 -15.875,0 7.9375,2.4375 0 1 1 15.875,0 z"
         inkscape:connector-curvature="0" />
      <path
         style="display:inline;overflow:visible;visibility:visible;opacity:0.62068936;fill:url(#linearGradient8910-3-3-0);fill-opacity:1;fill-rule:nonzero;stroke:none;stroke-width:1;marker:none;filter:url(#filter8906-3-7-0);enable-background:accumulate"
         id="path8874"
         transform="matrix(0.7131486,0,0,1.1407811,-54.577902,-134.95502)"
         d="m 237.875,199.0625 a 7.9375,2.4375 0 1 1 -15.875,0 7.9375,2.4375 0 1 1 15.875,0 z"
         inkscape:connector-curvature="0" />
      <path
         style="fill:url(#radialGradient8922-9-9-1);fill-opacity:1;fill-rule:evenodd;stroke:none;filter:url(#filter8980-1-3-2)"
         id="path8914"
         transform="matrix(0.5296484,0,0,0.5296484,-11.722258,-14.238677)"
         d="m 214.125,203.75 c 3.76948,3.48424 24.75576,5.27219 28.1875,-1 -6.73663,4.7839 -21.71677,3.10264 -28.1875,1 z"
         inkscape:connector-curvature="0" />
      <path
         style="display:inline;overflow:visible;visibility:visible;opacity:0.2857143;fill:url(#linearGradient8990-4-2-0);fill-opacity:1;fill-rule:nonzero;stroke:none;stroke-width:1;marker:none;enable-background:accumulate"
         id="path8984"
         transform="matrix(0.2042516,-0.1035605,0.2395168,0.4723972,5.7547955,30.286555)"
         d="m 236.44594,199.0625 a 6.5084434,3.0820823 0 1 1 -13.01688,0 6.5084434,3.0820823 0 1 1 13.01688,0 z"
         inkscape:connector-curvature="0" />
      <path
         style="display:inline;overflow:visible;visibility:visible;opacity:0.62068936;fill:url(#linearGradient8992-2-5-2);fill-opacity:1;fill-rule:nonzero;stroke:none;stroke-width:1;marker:none;filter:url(#filter8906-3-7-0);enable-background:accumulate"
         id="path8986"
         transform="matrix(0.2750159,-0.1394397,0.5158824,1.0174708,-65.353496,-69.300635)"
         d="m 236.99305,199.0625 a 7.0555515,2.1400476 0 1 1 -14.1111,0 7.0555515,2.1400476 0 1 1 14.1111,0 z"
         inkscape:connector-curvature="0" />
      <path
         style="fill:url(#radialGradient8994-0-1-1);fill-opacity:1;fill-rule:evenodd;stroke:none;filter:url(#filter8980-1-3-2)"
         id="path8988"
         transform="matrix(0.2042516,-0.1035605,0.2395168,0.4723972,6.2599008,30.649764)"
         d="m 217.05754,201.94027 c 3.76948,3.48424 26.97122,8.91123 25.25496,0.80973 -3.31737,5.32326 -18.78423,1.29291 -25.25496,-0.80973 z"
         inkscape:connector-curvature="0" />
      <path
         style="fill:url(#radialGradient9004-6-2-3);fill-opacity:1;fill-rule:evenodd;stroke:none"
         id="path8996"
         transform="matrix(0.5296484,0,0,0.5296484,-11.722258,-13.864159)"
         d="m 68.25,186 c 0,-0.62057 38.84622,11.83854 45.5,18.5 -5.47122,-5.33854 -33.159709,-17.61609 -37.375,-17.75 -4.215291,-0.13391 -7.625,-0.5 -8.125,-0.75 z"
         inkscape:connector-curvature="0" />
      <g
         id="g9018"
         transform="matrix(0.8790148,-0.1929959,0.2338341,0.6959295,-20.209533,36.725557)">
        <path
           style="display:inline;overflow:visible;visibility:visible;opacity:0.2857143;fill:url(#linearGradient9023-6-3-6);fill-opacity:1;fill-rule:nonzero;stroke:none;stroke-width:1;marker:none;enable-background:accumulate"
           id="path9006"
           transform="matrix(0.5296484,0,0,0.5296484,-84.4165,-4.7277245)"
           d="m 237.875,199.0625 a 7.9375,2.4375 0 1 1 -15.875,0 7.9375,2.4375 0 1 1 15.875,0 z"
           inkscape:connector-curvature="0" />
        <path
           style="display:inline;overflow:visible;visibility:visible;opacity:0.62068936;fill:url(#linearGradient9025-1-0-8);fill-opacity:1;fill-rule:nonzero;stroke:none;stroke-width:1;marker:none;filter:url(#filter8906-3-7-0);enable-background:accumulate"
           id="path9008"
           transform="matrix(0.7131486,0,0,1.1407811,-126.61008,-124.8917)"
           d="m 237.875,199.0625 a 7.9375,2.4375 0 1 1 -15.875,0 7.9375,2.4375 0 1 1 15.875,0 z"
           inkscape:connector-curvature="0" />
      </g>
      <path
         style="opacity:0.61576353;fill:url(#radialGradient9046-1-8-3);fill-opacity:1;fill-rule:evenodd;stroke:none;filter:url(#filter9068-2-5-3)"
         id="path9038"
         transform="matrix(0.5296484,0,0,0.5296484,-11.622949,-14.42691)"
         d="m 80.5,220.0625 c 0,0 2.10339,5.65078 7.875,5.9375 5.83887,0.29006 12.50324,-7.00698 13.0625,-9.625 -1,2.25 -6.590334,9.03328 -13.8125,8.9375 -4.099862,-0.0544 -7.125,-5.25 -7.125,-5.25 z"
         inkscape:connector-curvature="0" />
      <path
         style="fill:none;stroke:url(#radialGradient11553-3-7-6);stroke-width:0.48830673;stroke-miterlimit:4;stroke-dasharray:none;stroke-opacity:1;filter:url(#filter9298-4-7-0)"
         id="87235"
         d="m 63.40625,10.21875 c -3.098181,0 -6.134601,1.122042 -8.28125,3.3125 l -41.1875,42.1875 c -3.76562,3.76562 -4.6702413,6.23069 -4.4375,7.625 0.1163706,0.697155 0.4585994,1.303027 1.1875,1.9375 0.728901,0.634473 1.831495,1.256389 3.15625,1.8125 2.649511,1.112222 6.217961,2.008085 9.71875,2.96875 3.500789,0.960665 6.929812,1.974626 9.53125,3.625 0.396623,0.258266 0.769088,0.576468 1.03125,1.03125 0.262162,0.454782 0.354216,1.056088 0.25,1.5625 -0.208431,1.012824 -0.83202,1.546985 -1.46875,2.03125 -1.27346,0.96853 -3.023257,1.773229 -4.78125,2.625 -1.757993,0.851771 -3.524925,1.723242 -4.40625,2.4375 -0.440663,0.357129 -0.600112,0.678133 -0.59375,0.65625 0.0064,-0.02188 -0.116851,-0.273101 0.09375,-0.0625 0.551764,0.56709 2.274075,1.538165 4.46875,2.40625 2.194675,0.868085 4.88065,1.745624 7.59375,2.625 2.7131,0.879376 5.4575,1.749959 7.78125,2.65625 2.32375,0.906291 4.217694,1.748944 5.46875,3 0.622681,0.639978 1.062632,1.435956 1.15625,2.25 0.09362,0.814044 -0.126809,1.578032 -0.4375,2.21875 -0.621382,1.28144 -1.620313,2.26719 -2.53125,3.21875 -0.910938,0.95156 -1.736226,1.86034 -2.03125,2.46875 -0.147512,0.3042 -0.170347,0.50242 -0.15625,0.625 0.0141,0.12258 0.03518,0.24623 0.3125,0.53125 A 1.4566768,1.4566768 0 0 1 44.875,106 c 1.193594,1.2618 3.787002,1.43924 6.71875,2.125 1.465874,0.34288 2.998909,0.86196 4.3125,2 1.313591,1.13804 2.299435,2.87059 2.71875,5.21875 0.176459,0.99459 0.702722,1.4788 1.96875,1.875 1.266028,0.3962 3.194353,0.46554 5.3125,0.15625 4.236295,-0.61859 9.260035,-2.69532 12.15625,-5.09375 0.17999,-0.15299 0.129956,-0.11255 0.1875,-0.1875 -0.194805,-0.13939 -0.651644,-0.43652 -1.40625,-0.8125 -0.891527,-0.4442 -1.944708,-0.85956 -2.75,-1.875 -0.402646,-0.50772 -0.679877,-1.30934 -0.5625,-2.09375 0.117377,-0.78441 0.546832,-1.43702 1.125,-2.03125 4.745751,-4.79848 9.421937,-5.944136 12.9375,-6.875 1.757782,-0.465432 3.229292,-0.891233 4.34375,-1.59375 1.114458,-0.702517 1.98508,-1.663728 2.71875,-3.53125 0.08087,-0.202174 0.07855,-0.260846 -0.03125,-0.5 C 94.515197,92.542096 94.220541,92.159521 93.75,91.75 92.808918,90.930959 91.239577,90.050804 89.6875,89.1875 88.135423,88.324196 86.627034,87.519262 85.53125,86.5 84.983358,85.990369 84.409233,85.348367 84.34375,84.375 84.27827,83.401633 84.916318,82.523367 85.65625,82 88.401968,80.06679 92.552528,78.595094 97.0625,77.03125 101.57247,75.467406 106.42363,73.849125 110.375,72 c 3.95137,-1.849125 6.85729,-3.978669 7.78125,-6.125 0.46198,-1.073165 0.54663,-2.158606 0.0625,-3.5625 -0.48413,-1.403894 -1.58958,-3.120831 -3.5625,-5.09375 L 72,13.5625 c -0.01071,-0.0101 -0.02051,-0.02119 -0.03125,-0.03125 -2.357722,-2.207738 -5.478371,-3.3125 -8.5625,-3.3125 z m 45.9375,80 c -2.63522,0.09513 -5.05952,1.301393 -6.09375,3.1875 0.29381,0.110524 0.55838,0.234969 1.03125,0.34375 1.37562,0.316455 3.29543,0.520736 5.1875,0.5625 1.89207,0.04176 3.78415,-0.117472 4.9375,-0.4375 0.50487,-0.14009 0.77236,-0.281778 0.90625,-0.375 -0.2558,-1.091098 -0.86487,-1.862126 -1.90625,-2.4375 -1.07862,-0.595951 -2.55669,-0.898111 -4.0625,-0.84375 z m -70.5,9.0625 c -2.089872,-0.145348 -4.716548,0.686551 -6,1.71875 -0.641726,0.5161 -0.913269,0.99441 -0.9375,1.3125 -0.02423,0.31809 0.07726,0.74199 0.9375,1.46875 a 1.4566768,1.4566768 0 0 1 0,0.0312 c 1.352809,1.17 2.882256,1.04802 4.625,0.0937 1.460951,-0.79997 2.757201,-2.30075 3.625,-3.875 -0.585032,-0.377341 -1.284532,-0.682853 -2.25,-0.75 z m 61,0.625 c -0.447303,0.5686 -0.690902,1.09797 -0.71875,1.46875 -0.03844,0.51176 0.106611,0.90723 0.5,1.28125 0.73729,0.70099 2.33912,1.00278 3.96875,0.125 -0.0322,-0.1891 -0.0933,-0.47591 -0.34375,-0.84375 -0.4999,-0.73414 -1.6686,-1.5251 -3.40625,-2.03125 z"
         inkscape:connector-curvature="0" />
      <path
         style="opacity:0.32512315;fill:url(#linearGradient5905-4-8-5);fill-opacity:1;fill-rule:evenodd;stroke:none;filter:url(#filter5983-8-2-7)"
         id="path5897"
         transform="matrix(0.4883067,0,0,0.4883067,-5.8104012,-7.7042521)"
         d="m 95.5,172 c -5.090606,1.50191 -21.592018,7.73713 -19.25,12.5 2.243595,4.56272 40.61138,6.40132 46.5,20 2.5679,5.93009 -5.89238,10.40326 -3.75,16.5 1.64973,4.69477 14.41196,16.49084 22.48603,22.06781 6.33298,4.37435 14.65096,-3.52244 11.26397,-10.06781 -5.39589,-10.42759 18.44266,-23.19912 29.25,-29 6.30524,-3.38436 -13,-20 -13,-20 0,0 -73.5,-12 -73.5,-12 z"
         inkscape:connector-curvature="0" />
      <path
         style="opacity:0.47783251;fill:url(#radialGradient5811-3-3-7);fill-opacity:1;fill-rule:evenodd;stroke:none;filter:url(#filter5845-5-0-8)"
         id="path5803"
         transform="matrix(0.4883067,0,0,0.4883067,-5.8104012,-7.7042521)"
         d="m 182.75,187.25 c -1.75981,6.4783 21.62776,15.27989 19.875,19.75 -3.85895,9.84158 -24.97596,3.13755 -41.125,23.75 -2.31318,2.95251 3.25,13.5 2.5,12.25 -0.75,-1.25 -6.4649,-9.96285 -5,-14.25 4.59417,-13.44525 49.0128,-18.45749 40.875,-24.875 -4.67988,-3.69058 -21.50546,-13.88721 -17.125,-16.625 z"
         inkscape:connector-curvature="0" />
      <path
         style="display:inline;overflow:visible;visibility:visible;opacity:0.58620689;fill:#ffffff;fill-opacity:1;fill-rule:nonzero;stroke:none;stroke-width:1;marker:none;enable-background:accumulate"
         id="path6041"
         transform="matrix(0.4883067,0,0,0.4883067,-6.3597463,-8.0094438)"
         d="m 236.5,201.1875 a 2.5625,1.0625 0 1 1 -5.125,0 2.5625,1.0625 0 1 1 5.125,0 z"
         inkscape:connector-curvature="0" />
      <path
         style="display:inline;overflow:visible;visibility:visible;opacity:0.58620689;fill:#ffffff;fill-opacity:1;fill-rule:nonzero;stroke:none;stroke-width:1;marker:none;enable-background:accumulate"
         id="path6043"
         transform="matrix(0.3096579,0,0,0.4883067,27.528443,1.5735759)"
         d="m 236.5,201.1875 a 2.5625,1.0625 0 1 1 -5.125,0 2.5625,1.0625 0 1 1 5.125,0 z"
         inkscape:connector-curvature="0" />
      <path
         style="display:inline;overflow:visible;visibility:visible;opacity:0.58620689;fill:#ffffff;fill-opacity:1;fill-rule:nonzero;stroke:none;stroke-width:1;marker:none;enable-background:accumulate"
         id="path6045"
         transform="matrix(0.5478563,0,0,0.4883067,-92.102233,1.115795)"
         d="m 236.5,201.1875 a 2.5625,1.0625 0 1 1 -5.125,0 2.5625,1.0625 0 1 1 5.125,0 z"
         inkscape:connector-curvature="0" />
      <path
         style="display:inline;overflow:visible;visibility:visible;opacity:0.25123153;fill:url(#linearGradient5822-7-2-3);fill-opacity:1;fill-rule:nonzero;stroke:none;stroke-width:2.04789329;marker:none;enable-background:accumulate"
         id="path5049"
         d="m 36.672282,76.528654 c -7.152988,4.424107 -18.274031,6.034229 -6.103834,8.972635 -1.449712,-3.2281 3.138581,-2.872021 6.103834,-8.972635 z"
         inkscape:connector-curvature="0" />
      <path
         style="color:#000000;display:inline;overflow:visible;visibility:visible;opacity:0.36315792;fill:url(#linearGradient1539-7-2);fill-opacity:1;fill-rule:nonzero;stroke:none;stroke-width:2;marker:none;filter:url(#filter10997-7-2-1-4);enable-background:accumulate"
         id="path10207"
         transform="matrix(0.48830674,0,0,0.48830674,57.750397,32.997477)"
         d="m 8.8342799,171.64721 c 0,0 22.5917801,-2.12795 27.8180201,-8.64645 3.05755,-3.81358 -12.15146,-8.2638 -8.86827,-12 12.35008,-14.0541 22.73076,-13.46729 37.05025,-19.35355 14.31949,-5.88626 9.03544,-8.76906 4.40381,-11.35355 -7.9325,-4.4264 -25.58722,-9.14237 -19.74696,-19.64645 5.87688,-10.569936 57.34315,-25.249996 57.34315,-25.249996 15.59619,-5.32843 13.63909,-14.96447 6,-23 l -46,-45.7499997 c 0,0 2.28296,43.3886497 -7,61.9999997 -11.4715,22.99914 -72.54408,48.661766 -47,51.499996 9,1 13.32065,4.0705 17,11 7.57631,14.26883 -21.0000001,40.5 -21.0000001,40.5 z"
         inkscape:connector-curvature="0" />
    </g>
    <g
       id="g21620"
       transform="matrix(0.66815752,0,0,0.66815752,80.08935,201.56728)">
      <path
         sodipodi:nodetypes="cccccccc"
         id="path4929"
         d="M 299.48253,161.64811 426.82727,294.2119 c 15.47307,44.99438 -57.93141,45.92761 -89.24569,62.62856 0.12067,5.04507 5.80231,25.56824 11.4819,30.61333 5.33251,9.65712 -49.43836,0.1975 -46.44952,-15.65714 19.83543,-41.17874 10.44225,-65.39304 3.13143,-80.19428 -42.76485,-48.9916 -49.12251,-72.5991 -46.44951,-106.46855 6.57082,-37.4024 25.68375,-21.84741 40.18665,-23.48571 z"
         style="opacity:1;fill:#333333;fill-rule:evenodd;stroke:#000000;stroke-width:3.74176168;stroke-linecap:butt;stroke-linejoin:miter;stroke-miterlimit:4;stroke-dasharray:none;stroke-opacity:1"
         inkscape:connector-curvature="0" />
      <path
         inkscape:transform-center-x="-24.007614"
         inkscape:transform-center-y="29.748567"
         sodipodi:nodetypes="ccccccccc"
         id="path5709"
         d="m 299.48253,161.64811 c 21.84355,12.43739 48.51795,41.49376 73.07165,67.80879 29.11776,24.15485 27.24543,49.82643 34.62884,64.755 15.47307,44.99438 -38.28716,45.92761 -69.60144,62.62856 0.12067,5.04507 5.80231,25.56824 11.4819,30.61333 5.33251,9.65712 -49.43836,0.1975 -46.44952,-15.65714 19.83543,-41.17874 10.44225,-65.39304 3.13143,-80.19428 -42.76485,-48.9916 -49.12251,-72.5991 -46.44951,-106.46855 6.57082,-37.4024 25.68375,-21.84741 40.18665,-23.48571 z"
         style="opacity:1;fill:url(#radialGradient6039);fill-opacity:1;fill-rule:evenodd;stroke:none;stroke-width:1px;stroke-linecap:butt;stroke-linejoin:miter;stroke-opacity:0;enable-background:new"
         inkscape:connector-curvature="0" />
      <path
         inkscape:transform-center-x="-24.007615"
         inkscape:transform-center-y="29.748567"
         sodipodi:nodetypes="ccccccc"
         id="path5727"
         d="m 299.48253,161.64811 c 98.59392,83.38812 94.95801,174.77969 38.09905,195.19235 0.12067,5.04507 5.80231,25.56824 11.4819,30.61333 5.33251,9.65712 -49.43836,0.1975 -46.44952,-15.65714 19.83543,-41.17874 10.44225,-65.39304 3.13143,-80.19428 -42.76485,-48.9916 -49.12251,-72.5991 -46.44951,-106.46855 6.57082,-37.4024 25.68375,-21.84741 40.18665,-23.48571 z"
         style="opacity:1;fill:url(#radialGradient6041);fill-opacity:1;fill-rule:evenodd;stroke:none;stroke-width:1px;stroke-linecap:butt;stroke-linejoin:miter;stroke-opacity:0;enable-background:new"
         inkscape:connector-curvature="0" />
    </g>
    <path
       inkscape:connector-curvature="0"
       style="opacity:1;fill:#ffffff;fill-opacity:0;fill-rule:evenodd;stroke:none;stroke-width:1px;stroke-linecap:butt;stroke-linejoin:miter;stroke-opacity:0;filter:url(#filter5765);enable-background:new"
       d="m 362.42112,160.33815 c 23.35109,13.29576 51.86642,44.35746 78.1147,72.48863 31.12733,25.8219 50.12578,53.26521 58.01876,69.22407 16.54094,48.09968 -61.92956,49.09731 -95.405,66.95088 0.129,5.39326 6.20276,10.2286 12.27433,15.62187 5.70053,10.32361 -52.85036,0.21113 -49.65524,-16.73772 21.20437,-44.02069 11.16292,-52.8019 3.34754,-68.62465 -45.71627,-52.37277 -52.5127,-77.60954 -49.65523,-113.8165 7.02431,-39.98373 27.45632,-23.35521 42.96014,-25.10658 z"
       id="path5731"
       sodipodi:nodetypes="ccccccccc"
       inkscape:transform-center-y="21.248523"
       inkscape:transform-center-x="-17.147932"
       transform="matrix(0.66815752,0,0,0.66815752,39.999899,201.56728)" />
    <path
       inkscape:connector-curvature="0"
       style="opacity:0;fill:url(#radialGradient6043);fill-opacity:1;fill-rule:evenodd;stroke:none;stroke-width:1px;stroke-linecap:butt;stroke-linejoin:miter;stroke-opacity:0;filter:url(#filter5935);enable-background:new"
       d="m 362.42112,160.33815 c 23.35109,13.29576 51.86642,44.35746 78.1147,72.48863 31.12733,25.8219 50.12578,53.26521 58.01876,69.22407 16.54094,48.09968 -61.92956,49.09731 -95.405,66.95088 0.129,5.39326 6.20276,10.2286 12.27433,15.62187 5.70053,10.32361 -52.85036,0.21113 -49.65524,-16.73772 21.20437,-44.02069 11.16292,-52.8019 3.34754,-68.62465 -45.71627,-52.37277 -52.5127,-77.60954 -49.65523,-113.8165 7.02431,-39.98373 27.45632,-23.35521 42.96014,-25.10658 z"
       id="path5769"
       sodipodi:nodetypes="ccccccccc"
       inkscape:transform-center-y="21.248523"
       inkscape:transform-center-x="-17.147932"
       transform="matrix(0.66815752,0,0,0.66815752,39.999899,201.56728)" />
  </g>
  <g
     inkscape:groupmode="layer"
     id="layer3"
     inkscape:label="zobrati"
     style="display:inline;opacity:1"
     transform="translate(-120.53881,-243.04802)">
    <path
       style="opacity:1;fill:#e6e6e6;fill-opacity:1;stroke:#000000;stroke-width:0.66815752;stroke-linecap:round;stroke-linejoin:round;stroke-opacity:1;enable-background:new"
       d="m 258.29949,311.50007 0,6.6607 c -1.21619,0.3229 -2.37434,0.81385 -3.44519,1.41983 -2.56649,8.92493 -2.92623,17.66032 -1.10663,26.53838 l 1.00223,-1.00223 c 1.0973,0.63119 2.2978,1.12923 3.54959,1.46159 l 0,6.82774 7.53765,0 0,-6.82774 c 1.25179,-0.33236 2.45229,-0.83039 3.54959,-1.46159 l 4.82326,4.82326 5.34526,-5.34526 -4.80238,-4.80238 c 0.64658,-1.1023 1.16023,-2.28837 1.50335,-3.54959 l 6.7651,0 0,-7.55853 -6.72334,0 c -0.33242,-1.283 -0.83706,-2.51109 -1.48247,-3.63311 l 4.73974,-4.73974 -5.34526,-5.34526 -4.71886,4.71886 c -1.12728,-0.66124 -2.36108,-1.18095 -3.65399,-1.52423 l 0,-6.6607 -7.53765,0 z m 3.75838,16.4325 c 2.50286,10e-6 4.55183,2.02807 4.55183,4.53094 0,2.50286 -2.04896,4.53095 -4.55183,4.53095 -2.50287,0 -4.53094,-2.02807 -4.53094,-4.53095 0,-2.50287 2.02807,-4.53094 4.53094,-4.53094 z"
       id="path16939"
       inkscape:connector-curvature="0" />
    <path
       style="opacity:1;fill:#e6e6e6;fill-opacity:1;stroke:#000000;stroke-width:0.66815752;stroke-linecap:round;stroke-linejoin:round;stroke-opacity:1;enable-background:new"
       d="m 351.70912,354.70312 -0.61979,5.27809 c -1.42007,0.58244 -2.78001,1.28708 -4.05174,2.08224 l -4.62181,-2.61013 -6.23119,5.5183 4.64262,2.62189 c -6.7e-4,0.001 4.4e-4,0.003 -4.9e-4,0.004 -0.79688,1.04431 -1.45092,2.12685 -1.92698,3.2238 l -7.20973,1.61038 -0.70338,5.98997 7.26101,-1.62183 c 0.25067,0.9178 0.68478,1.74422 1.27582,2.46328 l -5.59941,4.95879 5.23596,2.95697 5.62419,-4.98073 c 10e-4,2.8e-4 0.005,-0.001 0.006,-0.001 1.11842,0.23755 2.34208,0.34827 3.65406,0.31183 l -0.63562,5.41289 8.10452,-1.81024 0.63563,-5.41289 c 1.37388,-0.56349 2.69585,-1.24281 3.93181,-2.00623 l 4.7259,2.66892 6.2312,-5.5183 -4.70509,-2.65716 c 0.7963,-1.02895 1.45312,-2.09903 1.93865,-3.18128 l 7.261,-1.62183 0.7034,-5.98998 -7.20972,1.61038 c -0.23716,-0.93764 -0.66534,-1.77846 -1.25328,-2.51344 -6.6e-4,-6.7e-4 10e-4,-0.003 5e-4,-0.004 l 5.52507,-4.89297 -5.23596,-2.95697 -5.50031,4.87102 c -1.14776,-0.25418 -2.41273,-0.37327 -3.7678,-0.33564 l 0.61979,-5.27809 -8.10453,1.81023 z m 2.5238,12.11108 c 2.68509,-0.59975 4.67269,0.52272 4.43964,2.50725 -0.23303,1.98453 -2.59841,4.07929 -5.2835,4.67904 -2.6851,0.59974 -4.67269,-0.52273 -4.43965,-2.50726 0.23304,-1.98452 2.59842,-4.07928 5.28351,-4.67903 z"
       id="path16941"
       inkscape:connector-curvature="0" />
    <path
       style="opacity:1;fill:#e6e6e6;fill-opacity:1;stroke:#000000;stroke-width:0.66815752;stroke-linecap:round;stroke-linejoin:round;stroke-opacity:1;enable-background:new"
       d="m 289.4063,336.31148 -0.59067,5.69465 c -1.13737,0.17908 -2.22933,0.51477 -3.25303,0.98098 l -3.61719,-4.4544 -5.04631,4.09786 3.63348,4.47446 c -6.6e-4,10e-4 3e-4,0.003 -4.6e-4,0.005 -0.65171,0.90259 -1.19082,1.89541 -1.58903,2.96349 l -5.74919,-0.59632 -0.67033,6.46273 5.79009,0.60056 c 0.18161,1.1094 0.51046,2.17761 0.9658,3.17796 l -4.53466,3.68237 4.09785,5.0463 4.55473,-3.69865 c 10e-4,6.7e-4 0.003,-2.9e-4 0.005,4.7e-4 0.88271,0.63735 1.85129,1.1679 2.89267,1.5633 l -0.60575,5.84009 6.46273,0.67033 0.60575,-5.84008 c 1.10037,-0.17326 2.16175,-0.49326 3.15647,-0.93588 l 3.69866,4.55472 5.04632,-4.09785 -3.68237,-4.53465 c 0.65095,-0.88562 1.19204,-1.86359 1.59747,-2.9121 l 5.7901,0.60057 0.67033,-6.46273 -5.74919,-0.59631 c -0.17053,-1.12708 -0.49441,-2.20941 -0.94698,-3.22654 -5.3e-4,-10e-4 6.7e-4,-0.003 4.7e-4,-0.005 l 4.47447,-3.63349 -4.09786,-5.04631 -4.4544,3.61719 c -0.90568,-0.6657 -1.90685,-1.21935 -2.98245,-1.62774 l 0.59067,-5.69465 -6.46273,-0.67033 z m 1.77474,14.37864 c 2.14115,0.22209 3.69671,2.13767 3.47462,4.27883 -0.22209,2.14115 -2.13768,3.69671 -4.27883,3.47462 -2.14116,-0.22209 -3.69672,-2.13768 -3.47463,-4.27883 0.22208,-2.14115 2.13769,-3.69671 4.27884,-3.47462 z"
       id="path16943"
       inkscape:connector-curvature="0" />
    <path
       id="path16945"
       d="m 365.76345,243.78927 0.36252,3.71995 c -1.26147,-0.17054 -2.44283,-0.22293 -3.52282,-0.16904 l -4.92457,-3.95808 -4.99684,1.48926 4.94675,3.9759 c -6.7e-4,5.2e-4 6.7e-4,0.002 3e-4,0.003 -0.57748,0.44618 -1.01048,0.98265 -1.2695,1.60648 l -6.6493,-1.8829 0.41143,4.22168 6.6966,1.8963 c 0.40816,0.80094 0.97636,1.61172 1.67614,2.40887 l -4.4902,1.33825 5.57895,4.48403 4.51007,-1.34416 c 10e-4,8e-4 0.004,6.7e-4 0.005,0.001 1.12006,0.66017 2.31841,1.2698 3.57504,1.80625 l 0.37179,3.81495 7.47455,2.1166 -0.37179,-3.81495 c 1.22044,0.16499 2.36986,0.22019 3.42117,0.17488 l 5.03548,4.04723 4.99685,-1.48925 -5.01331,-4.0294 c 0.57971,-0.43483 1.01765,-0.96069 1.28845,-1.56937 l 6.6966,1.8963 -0.41142,-4.22168 -6.64929,-1.88289 c -0.39877,-0.81012 -0.96388,-1.62922 -1.66355,-2.43706 -6.7e-4,-9.4e-4 5.1e-4,-0.002 -3e-4,-0.003 l 4.43061,-1.32049 -5.57897,-4.48404 -4.41073,1.31456 c -1.15135,-0.68535 -2.39098,-1.31905 -3.6889,-1.87314 l -0.36253,-3.71994 -7.47454,-2.1166 z m 4.63129,10.23198 c 2.47638,0.70125 4.59418,2.4034 4.73047,3.80208 0.13631,1.39868 -1.7605,1.964 -4.23688,1.26275 -2.47638,-0.70124 -4.59417,-2.40339 -4.73047,-3.80207 -0.13631,-1.39868 1.76051,-1.964 4.23688,-1.26276 z"
       style="opacity:1;fill:#e6e6e6;fill-opacity:1;stroke:#000000;stroke-width:0.66815752;stroke-linecap:round;stroke-linejoin:round;stroke-opacity:1;enable-background:new"
       inkscape:connector-curvature="0" />
    <path
       style="opacity:1;fill:#e6e6e6;fill-opacity:1;stroke:#000000;stroke-width:0.66815746;stroke-linecap:round;stroke-linejoin:round;stroke-opacity:1;enable-background:new"
       d="m 471.85691,352.42989 -2.42211,3.4057 c -1.07376,0.17576 -2.15916,0.44141 -3.22713,0.78008 l -1.7427,-2.41362 -5.86357,2.73434 1.75055,2.42449 c -10e-4,6.7e-4 -6.7e-4,0.002 -0.002,0.003 -0.88153,0.57404 -1.69269,1.19457 -2.40327,1.85097 l -4.92787,0 -2.74879,3.86505 4.96294,0 c -0.20732,0.64527 -0.26965,1.25714 -0.1966,1.82108 l -5.26905,2.45711 1.97428,2.73434 5.29237,-2.46797 c 6.6e-4,3.9e-4 0.003,-3.9e-4 0.004,0 0.57495,0.32293 1.26199,0.57741 2.05895,0.74746 l -2.48396,3.49267 5.53947,0 2.48396,-3.49267 c 1.03884,-0.17005 2.09175,-0.42453 3.12603,-0.74746 l 1.78196,2.46797 5.86356,-2.73434 -1.7741,-2.45711 c 0.8752,-0.56395 1.68318,-1.17581 2.39369,-1.82108 l 4.96293,0 2.74879,-3.86505 -4.92787,0 c 0.22308,-0.6564 0.29455,-1.27693 0.22954,-1.85097 -7e-5,-6.7e-4 0.002,-0.002 0.002,-0.003 l 5.1991,-2.42449 -1.97427,-2.73434 -5.17579,2.41362 c -0.586,-0.33831 -1.29442,-0.60445 -2.11757,-0.78008 l 2.42211,-3.4057 -5.53948,0 z m -3.20337,8.39874 c 1.83526,0 2.58472,1.03796 1.67401,2.31848 -0.91069,1.28051 -3.13652,2.31848 -4.97179,2.31848 -1.83527,0 -2.58472,-1.03796 -1.67402,-2.31848 0.9107,-1.28052 3.13652,-2.31849 4.9718,-2.31848 z"
       id="path16947"
       inkscape:connector-curvature="0" />
    <path
       style="opacity:1;fill:#ffffff;fill-opacity:1;stroke:#000000;stroke-width:0.66815746;stroke-linecap:round;stroke-linejoin:round;stroke-opacity:1;enable-background:new"
       d="m 288.80505,384.83036 -1.67039,4.34302 -1.69127,4.34303 -3.61223,-2.92319 -3.63311,-2.92319 0.64728,4.13422 c 3.09028,4.40428 5.74782,8.1618 7.76733,11.25428 0.61331,-0.45131 1.37273,-0.70991 2.19239,-0.70991 2.04314,0 3.69575,1.65262 3.69575,3.69574 10e-6,1.48445 -0.86776,2.77232 -2.12975,3.36167 1.70577,3.43049 2.52595,6.42955 2.54735,9.7718 l 2.86055,2.31767 3.63311,2.92319 -0.70992,-4.59358 -0.70992,-4.44742 c 0.047,-0.0468 0.0998,-0.0778 0.14616,-0.12528 l 4.44742,0.68903 4.59359,0.70992 -2.92319,-3.61222 -2.83967,-3.52871 c 0.0131,-0.0492 0.0293,-0.0968 0.0418,-0.14616 l 4.21774,-1.62863 4.34303,-1.69128 -4.34303,-1.67039 -4.28038,-1.64952 c -0.006,-0.0233 -0.0144,-0.0603 -0.0208,-0.0835 l 2.88143,-3.57046 2.92319,-3.63311 -4.59358,0.7308 -4.61447,0.70992 0.7308,-4.61447 0.70992,-4.59358 -3.63311,2.92319 -3.61222,2.92319 -1.69128,-4.34303 -1.67039,-4.34302 z"
       id="path18494"
       inkscape:connector-curvature="0" />
    <path
       style="opacity:1;fill:#ffffff;fill-opacity:1;stroke:#000000;stroke-width:0.66815752;stroke-linecap:round;stroke-linejoin:round;stroke-opacity:1;enable-background:new"
       d="m 311.48961,405.57312 -0.62457,3.67664 -0.62459,3.67664 0.0275,-0.005 c -0.0177,0.009 -0.0337,0.0208 -0.0514,0.0296 l 0.0238,-0.024 -3.30986,-1.71338 -3.30984,-1.71337 1.29891,3.49082 1.29432,3.49176 c -5.9e-4,6.6e-4 10e-4,0.004 6.7e-4,0.005 l -0.005,6.7e-4 -3.71989,0.17354 -3.72541,0.16987 2.87543,2.37584 2.8312,2.34658 c -0.001,0.0211 -0.005,0.0423 -0.006,0.0635 l -3.09413,1.97877 -3.13998,2.01204 3.67664,0.62458 3.57176,0.60288 c 0.0177,0.0367 0.0374,0.0718 0.0555,0.10829 l -1.66402,3.22327 -1.71798,3.31079 3.49541,-1.29985 3.37149,-1.25071 c 0.0439,0.0299 0.0883,0.0586 0.13268,0.0878 l 0.16572,3.58754 0.16988,3.72541 2.37678,-2.87083 2.27334,-2.74455 c 0.0645,0.005 0.12924,0.01 0.19401,0.0132 l 1.92147,3.00055 2.01203,3.13999 0.61999,-3.67571 0.59572,-3.5129 c 0.0588,-0.0287 0.11534,-0.0582 0.17345,-0.0879 l 3.16527,1.63757 3.31444,1.71244 -1.29985,-3.49542 -1.25436,-3.36595 c 0.0295,-0.0442 0.059,-0.088 0.0878,-0.13268 l 3.59213,-0.16667 3.72542,-0.16986 -2.87085,-2.37678 -2.79616,-2.31545 c 0.003,-0.0407 0.007,-0.0806 0.009,-0.12139 l 3.05653,-1.95199 3.13997,-2.01203 -3.67663,-0.62459 -3.62603,-0.61097 c -0.009,-0.0172 -0.0162,-0.0351 -0.025,-0.0523 l 1.68777,-3.27116 1.7134,-3.30985 -3.49542,1.29986 -3.49178,1.29431 c -6.7e-4,-6.1e-4 -0.003,0.001 -0.005,6.7e-4 -6.7e-4,-5.9e-4 -2e-5,-0.004 -6.7e-4,-0.005 l -0.16893,-3.72082 -0.16894,-3.72082 -2.38137,2.87176 -2.37678,2.87085 0.0258,0.009 c -0.018,-0.001 -0.0354,-0.003 -0.0533,-0.003 l 0.0276,-0.005 -2.01205,-3.13998 -2.00744,-3.14093 z m 2.79734,13.74348 c 1.60301,-0.32627 3.16765,0.70916 3.49392,2.31215 0.32628,1.603 -0.70916,3.16765 -2.31215,3.49391 -1.60299,0.32628 -3.16765,-0.70914 -3.49391,-2.31214 -0.32627,-1.60301 0.70916,-3.16765 2.31214,-3.49392 z"
       id="path18496"
       inkscape:connector-curvature="0" />
    <path
       id="path18502"
       d="m 395.92643,445.27463 -0.89026,4.79311 -0.89026,4.79312 0.0361,-0.007 c -0.0233,0.011 -0.0445,0.0265 -0.0677,0.0376 l 0.0316,-0.0309 -4.29181,-2.30605 -4.29182,-2.30604 1.62763,4.5889 1.62163,4.59002 c -6.7e-4,10e-4 0.002,0.005 0.001,0.006 l -0.006,0.001 -4.86568,0.15207 -4.87284,0.14717 3.71068,3.16321 3.65347,3.12406 c -0.003,0.0276 -0.007,0.0552 -0.009,0.0828 l -4.08405,2.52424 -4.14464,2.5668 4.79312,0.89027 4.65646,0.85977 c 0.0224,0.0483 0.0475,0.0947 0.0704,0.14267 l -2.23979,4.17964 -2.31208,4.29294 4.59493,-1.62877 4.43193,-1.56702 c 0.0568,0.0399 0.11427,0.0784 0.17166,0.11743 l 0.14452,4.69253 0.14719,4.87283 3.16433,-3.70465 3.02658,-3.54166 c 0.0843,0.007 0.16875,0.0153 0.25334,0.0211 l 2.45121,3.96057 2.56679,4.14465 0.88424,-4.79198 0.84926,-4.57968 c 0.0774,-0.0363 0.15193,-0.0737 0.22847,-0.11144 l 4.10436,2.20405 4.29784,2.30491 -1.62877,-4.59492 -1.57192,-4.42478 c 0.0394,-0.0573 0.0789,-0.11384 0.11743,-0.17165 l 4.69855,-0.14567 4.87284,-0.14717 -3.70466,-3.16434 -3.60828,-3.08266 c 0.004,-0.0531 0.0106,-0.10526 0.0139,-0.15848 l 4.03436,-2.48999 4.14463,-2.56679 -4.7931,-0.89027 -4.72724,-0.87144 c -0.011,-0.0227 -0.0205,-0.0462 -0.0316,-0.0689 l 2.27179,-4.24175 2.30605,-4.29182 -4.59492,1.62878 -4.59004,1.62161 c -0.001,-6.7e-4 -0.005,0.002 -0.006,0.001 -10e-4,-6.7e-4 5e-5,-0.005 -10e-4,-0.006 l -0.14604,-4.86681 -0.14604,-4.86681 -3.17037,3.70577 -3.16433,3.70467 0.0335,0.0124 c -0.0234,-0.002 -0.0462,-0.004 -0.0696,-0.005 l 0.0361,-0.007 -2.5668,-4.14465 -2.56077,-4.14577 z m 3.38017,18.02005 c 2.10181,-0.39424 4.12612,0.99058 4.52037,3.09239 0.39425,2.1018 -0.99057,4.12611 -3.09238,4.52037 -2.10181,0.39425 -4.12611,-0.99059 -4.52037,-3.09238 -0.39424,-2.10181 0.99057,-4.12612 3.09238,-4.52038 z"
       style="opacity:1;fill:#ffffff;fill-opacity:1;stroke:#000000;stroke-width:0.6681574;stroke-linecap:round;stroke-linejoin:round;stroke-opacity:1;enable-background:new"
       inkscape:connector-curvature="0" />
    <path
       style="opacity:1;fill:#ffffff;fill-opacity:1;stroke:#000000;stroke-width:0.66815746;stroke-linecap:round;stroke-linejoin:round;stroke-opacity:1;enable-background:new"
       d="m 395.27201,380.59493 -2.6734,6.91172 -2.67339,6.91172 0.0558,0 c -0.0379,0.01 -0.0739,0.0271 -0.11176,0.0373 l 0.0559,-0.0373 -5.76597,-4.64819 -5.76596,-4.64816 1.14573,7.31225 1.13643,7.31225 c -10e-4,0.001 0.001,0.008 0,0.009 l -0.009,0 -7.31225,-1.13641 -7.32157,-1.14575 4.65748,5.76597 4.58298,5.69144 c -0.0113,0.0405 -0.0263,0.0805 -0.0373,0.12111 l -6.80926,2.62681 -6.91171,2.67341 6.91171,2.6734 6.7161,2.58956 c 0.0199,0.0785 0.0444,0.15475 0.0652,0.23287 l -4.51775,5.61694 -4.65749,5.76597 7.32157,-1.14575 7.06076,-1.09917 c 0.0737,0.0755 0.14874,0.14918 0.22356,0.22357 l -1.09917,7.05143 -1.14574,7.32157 5.76596,-4.64816 5.51448,-4.44326 c 0.12384,0.0346 0.24783,0.0701 0.37259,0.10247 l 2.5523,6.60432 2.6734,6.91171 2.66408,-6.91171 2.55231,-6.60432 c 0.12589,-0.0326 0.24765,-0.0676 0.37259,-0.10247 l 5.51448,4.44326 5.77528,4.64816 -1.14574,-7.32157 -1.10849,-7.05143 c 0.0749,-0.0745 0.14981,-0.14797 0.22357,-0.22357 l 7.06075,1.09917 7.32157,1.14575 -4.64818,-5.76597 -4.52707,-5.61694 c 0.0208,-0.0782 0.0453,-0.1543 0.0652,-0.23287 l 6.72542,-2.58956 6.91171,-2.6734 -6.91171,-2.67341 -6.81856,-2.62681 c -0.01,-0.037 -0.0177,-0.0749 -0.0279,-0.11179 l 4.58296,-5.70076 4.64819,-5.76597 -7.32157,1.14575 -7.31227,1.13641 c -10e-4,-10e-4 -0.008,0.001 -0.009,0 -0.001,-10e-4 10e-4,-0.008 0,-0.009 l 1.14575,-7.31225 1.14574,-7.31225 -5.77528,4.64816 -5.76597,4.64819 0.0466,0.0279 c -0.0345,-0.009 -0.0679,-0.0188 -0.10247,-0.0279 l 0.0559,0 -2.67341,-6.91172 -2.66409,-6.91172 z m 0,27.87041 c 3.25072,2e-5 5.88707,2.63635 5.88707,5.88707 0,3.25072 -2.63635,5.88707 -5.88707,5.88707 -3.25072,0 -5.88707,-2.63635 -5.88707,-5.88707 1e-5,-3.25072 2.63635,-5.88707 5.88707,-5.88707 z"
       id="path18500"
       inkscape:connector-curvature="0" />
    <path
       style="opacity:1;fill:#ffffff;fill-opacity:1;stroke:#000000;stroke-width:0.6681574;stroke-linecap:round;stroke-linejoin:round;stroke-opacity:1;enable-background:new"
       d="m 351.67662,417.18763 0.35697,4.19654 0.35696,4.19655 0.0285,-0.0139 c -0.0169,0.0146 -0.031,0.0323 -0.0478,0.0468 l 0.0192,-0.0329 -4.10346,-0.93724 -4.10346,-0.93722 2.40748,3.44937 2.40274,3.45168 c -4e-4,0.001 0.003,0.003 0.002,0.005 l -0.005,0.002 -4.01809,1.24182 -4.02519,1.23939 3.81584,1.7844 3.75922,1.76492 c 0.004,0.0235 0.007,0.0476 0.0112,0.0711 l -2.82336,3.03863 -2.86407,3.08796 4.19655,-0.35696 4.07573,-0.35104 c 0.0297,0.0351 0.0613,0.068 0.0913,0.1027 l -0.90774,3.99483 -0.942,4.10579 3.45413,-2.40982 3.33251,-2.32103 c 0.0565,0.0202 0.11315,0.0392 0.16991,0.0585 l 1.19584,3.87559 1.2394,4.02518 1.78672,-3.81108 1.70934,-3.64374 c 0.0719,-0.0132 0.14406,-0.026 0.21585,-0.0406 l 2.94949,2.73725 3.08796,2.86408 -0.36173,-4.19423 -0.3422,-4.00935 c 0.0562,-0.048 0.10966,-0.0962 0.16477,-0.14519 l 3.92395,0.89523 4.10821,0.9349 -2.40982,-3.45413 -2.32346,-3.32542 c 0.0197,-0.0567 0.0396,-0.11291 0.0585,-0.1699 l 3.88036,-1.19818 4.02519,-1.23939 -3.8111,-1.78672 -3.71208,-1.74079 c -0.009,-0.0452 -0.0153,-0.0901 -0.0247,-0.1352 l 2.78982,-2.9987 2.86406,-3.08796 -4.19654,0.35696 -4.13736,0.35755 c -0.0144,-0.0164 -0.0277,-0.0338 -0.0422,-0.0501 l 0.92018,-4.05392 0.93722,-4.10345 -3.45412,2.40982 -3.45169,2.40273 c -10e-4,-4.1e-4 -0.003,0.003 -0.005,0.002 -10e-4,-3.9e-4 -10e-4,-0.005 -0.002,-0.005 l -1.23706,-4.02042 -1.23706,-4.02043 -1.7915,3.8134 -1.78672,3.8111 0.0307,0.003 c -0.0199,0.004 -0.0394,0.007 -0.0593,0.0113 l 0.0285,-0.014 -3.08797,-2.86407 -3.08319,-2.86641 z m 6.94555,14.23542 c 1.66038,-0.8101 3.66394,-0.12054 4.47406,1.53984 0.8101,1.66037 0.12054,3.66394 -1.53984,4.47405 -1.66038,0.81011 -3.66395,0.12053 -4.47406,-1.53984 -0.8101,-1.66038 -0.12054,-3.66394 1.53984,-4.47405 z"
       id="path18504"
       inkscape:connector-curvature="0" />
    <path
       style="opacity:1;fill:#999999;fill-opacity:1;stroke:none;stroke-linecap:round;stroke-linejoin:round;stroke-opacity:1"
       id="path3461"
       d="m 315.17893,351.15542 c 0.57822,-0.57772 1.03743,-1.24507 1.52442,-1.89684 0.30085,-0.40264 0.6227,-0.78964 0.91491,-1.19859 1.04426,-1.46142 1.48249,-2.22827 2.46868,-3.81154 2.63786,-4.09043 4.87335,-8.42275 7.45283,-12.54802 0.82007,-1.31152 1.70001,-2.58475 2.53263,-3.88834 0.8197,-1.28337 1.6161,-2.58149 2.42415,-3.87223 5.65363,-8.16457 11.98682,-15.81761 18.25322,-23.51094 0.92438,-1.06498 1.85072,-2.12826 2.77314,-3.19494 0.82558,-0.9547 1.63718,-1.92154 2.47085,-2.86919 2.67702,-3.04301 5.47869,-5.97351 8.19561,-8.98036 0.59107,-0.58625 1.18311,-1.17153 1.7732,-1.75877 1.16743,-1.16177 1.89396,-1.91814 3.0965,-3.02977 1.32412,-1.22402 2.68793,-2.41236 4.0436,-3.60144 1.78571,-1.52369 3.56236,-3.05577 5.31039,-4.6226 1.09456,-0.90295 2.20908,-1.78506 3.35838,-2.6174 0.0221,-0.016 1.23635,-0.43463 1.21449,-0.41837 l 0,0 c -1.12951,0.84009 -2.24628,1.69967 -3.33032,2.59793 -0.21503,0.18845 -1.38803,1.21501 -1.57728,1.38679 -0.25715,0.23343 -0.49929,0.48332 -0.76091,0.71173 -0.99179,0.86592 -2.0481,1.65985 -3.02507,2.5437 -3.088,2.68679 -6.13879,5.41945 -8.95792,8.39237 -4.67612,4.89653 -9.25745,9.88806 -13.59116,15.09225 -6.33633,7.64182 -12.66141,15.31287 -18.27963,23.5083 -1.55171,2.37926 -3.50815,5.34012 -4.99321,7.76994 -2.50028,4.0909 -4.64854,8.38404 -7.19126,12.45032 -0.83673,1.27284 -1.63588,2.57055 -2.49223,3.83028 -0.2737,0.40263 -0.57678,0.78451 -0.86338,1.17808 -0.25161,0.34552 -0.81456,1.14957 -1.13148,1.5259 -0.10748,0.12764 -0.23174,0.24016 -0.34761,0.36024 -0.0199,0.0206 -1.28581,0.49176 -1.26554,0.47151 z"
       inkscape:connector-curvature="0" />
    <path
       style="opacity:1;fill:#999999;fill-opacity:1;stroke:none;stroke-linecap:round;stroke-linejoin:round;stroke-opacity:1"
       id="path3467"
       d="m 318.26127,322.72503 c 2.13873,-3.43087 4.88739,-6.43542 7.49282,-9.50933 1.07738,-1.36583 2.18138,-2.71107 3.23213,-4.09749 1.60391,-2.11628 5.84955,-8.04295 7.3473,-10.12333 1.65047,-2.29251 5.57676,-7.77116 7.30873,-10.07894 1.11138,-1.48086 2.26417,-2.93019 3.39625,-4.39529 4.50228,-5.80992 9.36579,-11.32702 14.33385,-16.73969 0.0178,-0.0194 1.18366,-0.44314 1.16568,-0.42393 l 0,0 c -1.22631,1.3098 -2.47585,2.59802 -3.68593,3.92284 -3.82569,4.18845 -7.4725,8.54569 -11.04257,12.95168 -0.67985,0.89559 -6.63628,8.73621 -7.07063,9.33477 -1.21813,1.67863 -2.35828,3.41258 -3.55487,5.10663 -3.38709,4.79521 -6.83074,9.55526 -10.44952,14.1791 -0.86151,1.04937 -1.7214,2.10007 -2.58453,3.14812 -0.62832,0.76292 -1.27801,1.50852 -1.88977,2.28478 -0.99618,1.26407 -1.91042,2.59605 -2.76476,3.95825 -0.015,0.0238 -1.24906,0.50568 -1.23418,0.48183 z"
       inkscape:connector-curvature="0" />
    <path
       style="opacity:1;fill:#999999;fill-opacity:1;stroke:none;stroke-linecap:round;stroke-linejoin:round;stroke-opacity:1"
       id="path3471"
       d="m 332.37144,276.56931 c 2.9326,-2.79632 5.78329,-5.67386 8.5878,-8.59924 1.78775,-1.98374 3.64456,-3.90182 5.45281,-5.86658 0.0164,-0.0179 1.09182,-0.40883 1.0752,-0.39114 l 0,0 c -1.83506,1.95468 -3.68193,3.89845 -5.48795,5.88017 -1.95238,2.02115 -3.90457,4.04071 -5.88093,6.03836 -0.6704,0.67761 -1.32121,1.3747 -2.00071,2.04319 -0.15597,0.15344 -0.32384,0.2943 -0.48576,0.44146 -0.021,0.0191 -1.28102,0.47339 -1.26046,0.45378 z"
       inkscape:connector-curvature="0" />
    <path
       style="opacity:1;fill:#999999;fill-opacity:1;stroke:none;stroke-linecap:round;stroke-linejoin:round;stroke-opacity:1"
       id="path3529"
       d="m 358.10236,265.43861 c -0.0722,-0.0416 -0.15179,-0.0723 -0.21658,-0.12472 -0.0892,-0.0721 -0.1517,-0.17372 -0.2413,-0.24534 -0.11997,-0.0959 -0.26288,-0.16016 -0.38406,-0.25451 -0.13774,-0.10724 -0.25538,-0.23847 -0.39071,-0.34874 -0.33178,-0.27035 -0.68179,-0.51754 -1.01991,-0.77992 -0.91432,-0.78094 -1.81758,-1.58239 -2.67085,-2.4305 -0.01,-0.01 0.53065,-0.39534 0.54065,-0.38543 l 0,0 c 0.74463,0.73841 -0.28367,-0.27386 0.6378,0.60357 0.39616,0.37723 0.48235,0.49869 0.90751,0.87091 0.18085,0.15833 0.37248,0.30389 0.55703,0.45789 0.18024,0.15042 0.35821,0.30354 0.53731,0.45532 0.74873,0.63918 0.24482,0.22516 0.98714,0.7982 0.33958,0.26213 0.66967,0.55089 1.02755,0.78884 0.0525,0.0349 0.11046,0.0607 0.16569,0.091 0.0124,0.007 -0.42502,0.51048 -0.43727,0.50342 z"
       inkscape:connector-curvature="0" />
    <path
       style="opacity:1;fill:#999999;fill-opacity:1;stroke:none;stroke-linecap:round;stroke-linejoin:round;stroke-opacity:1"
       id="path3543"
       d="m 353.39229,396.19019 c 0.10724,-0.0569 0.20689,-0.13124 0.3217,-0.17069 0.25096,-0.0862 0.51666,-0.12351 0.76945,-0.20423 0.87302,-0.27877 1.73648,-0.58985 2.58574,-0.9343 0.67207,-0.27259 1.32526,-0.5898 1.9932,-0.87238 0.93348,-0.39491 1.87385,-0.77332 2.81077,-1.15999 4.67503,-2.03993 9.44395,-3.84361 14.21599,-5.63966 2.14324,-0.80665 4.27202,-1.653 6.43089,-2.4168 4.70235,-1.66367 9.62056,-3.15923 14.37637,-4.65196 8.72644,-2.19101 6.70778,-1.76927 15.52021,-3.64072 2.5176,-0.53465 5.03026,-1.09688 7.56199,-1.56001 6.50482,-1.18994 13.08267,-1.93202 19.64938,-2.67348 5.84725,-0.45858 3.0916,-0.26804 8.26577,-0.58839 0.0224,-10e-4 -0.31875,1.00367 -0.34124,1.00473 l 0,0 c -5.13087,0.24518 -2.39642,0.088 -8.20203,0.49401 -3.35123,0.33249 -8.49843,0.8129 -11.77142,1.26885 -2.72244,0.37926 -12.31131,1.98462 -14.84135,2.51166 -4.30941,0.8977 -11.08436,2.7187 -15.34031,3.82729 -5.08727,1.57043 -9.35242,2.82466 -14.3584,4.61286 -6.9077,2.46752 -13.64238,5.40666 -20.37379,8.31005 -2.76447,1.21762 -5.52951,2.44768 -8.35505,3.51649 -0.0274,0.0104 -0.94376,-1.0196 -0.91787,-1.03333 z"
       inkscape:connector-curvature="0" />
    <path
       style="opacity:1;fill:#999999;fill-opacity:1;stroke:none;stroke-linecap:round;stroke-linejoin:round;stroke-opacity:1"
       id="path3547"
       d="m 344.01327,393.37904 c 0.11593,-0.0592 0.23723,-0.10887 0.34779,-0.17757 0.17937,-0.11145 0.33697,-0.25658 0.52013,-0.36168 0.30687,-0.1761 0.63316,-0.31604 0.94668,-0.48 1.039,-0.54339 2.09147,-1.061 3.12582,-1.61317 0.80747,-0.43105 1.59895,-0.89143 2.39842,-1.33714 8.31574,-4.01621 16.77693,-7.73258 25.3806,-11.0909 2.47601,-0.96648 4.97447,-1.8744 7.4617,-2.8116 10.72585,-3.67662 5.30571,-1.91586 16.26225,-5.27662 0.0131,-0.004 0.41292,0.50098 0.39987,0.50505 l 0,0 c -10.90109,3.39663 -5.50903,1.61645 -16.17808,5.33486 -3.98301,1.51974 -10.32112,3.90017 -14.30955,5.56586 -2.01379,0.84101 -4.00041,1.74595 -5.98952,2.64378 -4.1142,1.85705 -8.16719,3.83228 -12.13501,5.98562 -1.82957,0.97647 -3.6652,1.94425 -5.45017,3.00149 -0.0973,0.0576 -1.20744,0.75278 -1.40582,0.86628 -0.13238,0.0757 -0.2712,0.1396 -0.4068,0.20939 -0.0258,0.0133 -0.99411,-0.95047 -0.96831,-0.96365 z"
       inkscape:connector-curvature="0" />
    <path
       style="opacity:1;fill:#999999;fill-opacity:1;stroke:none;stroke-linecap:round;stroke-linejoin:round;stroke-opacity:1"
       id="path3563"
       d="m 416.97443,380.44748 c 0.1505,-0.0333 0.30308,-0.0583 0.45149,-0.0998 1.4013,-0.39269 0.14327,-0.14233 2.03058,-0.55444 2.15269,-0.47007 1.74297,-0.31594 4.18399,-0.69785 0.9964,-0.15588 1.98968,-0.3311 2.98452,-0.49666 1.44927,-0.14 2.89906,-0.27479 4.34782,-0.42001 1.81073,-0.18152 8.42876,-0.88628 10.00667,-1.01799 6.07626,-0.50719 12.16617,-0.71743 18.2585,-0.90016 2.32409,-0.12759 8.78802,-0.49824 11.25392,-0.57496 1.52604,-0.0475 3.0533,-0.0389 4.57995,-0.0583 0.0198,-2.6e-4 -0.30569,0.87437 -0.32549,0.87481 l 0,0 c -5.25491,0.11519 -10.50446,0.33869 -15.75905,0.47082 -10.59419,0.50896 -21.2223,0.98084 -31.71152,2.65118 -0.99262,0.16583 -1.98472,0.33478 -2.97784,0.4975 -0.78375,0.12841 -1.57265,0.22695 -2.35275,0.3759 -0.57328,0.10946 -1.1365,0.26631 -1.7049,0.39882 -0.74566,0.17384 -1.2668,0.26817 -1.9605,0.50128 -0.13635,0.0458 -0.26597,0.10961 -0.39895,0.16441 -0.0282,0.0116 -0.93619,-1.10791 -0.90644,-1.11449 z"
       inkscape:connector-curvature="0" />
    <path
       style="opacity:1;fill:#999999;fill-opacity:1;stroke:none;stroke-linecap:round;stroke-linejoin:round;stroke-opacity:1"
       id="path3592"
       d="m 467.7557,354.43487 c 0.39517,-0.71775 0.82867,-1.41226 1.30306,-2.08015 0.31655,-0.50915 0.59894,-1.02662 1.01252,-1.46553 0.0194,-0.0206 1.27483,-0.45138 1.26221,-0.42609 l 0,0 c -0.15586,0.31228 -0.39007,0.49478 -0.59017,0.77374 -0.072,0.1004 -0.11745,0.21748 -0.17908,0.32457 -0.0714,0.12411 -0.14666,0.24597 -0.21999,0.36895 -0.4719,0.64775 -0.93175,1.30862 -1.2615,2.03896 -0.0123,0.0272 -1.34144,0.49168 -1.32705,0.46555 z"
       inkscape:connector-curvature="0" />
    <path
       style="opacity:1;fill:#999999;fill-opacity:1;stroke:none;stroke-linecap:round;stroke-linejoin:round;stroke-opacity:1"
       id="path3602"
       d="m 449.20125,361.63808 c 0.0842,-0.0415 -0.71359,0.62557 -0.52799,0.47766 0.86845,-0.69207 0.49108,-0.48359 0.0377,0.0449 -0.26363,0.30737 -0.48422,0.64949 -0.7396,0.96375 -0.44812,0.58021 -0.22783,0.29806 -0.66043,0.84676 -0.0182,0.0231 -1.3486,0.42509 -1.32927,0.40285 l 0,0 c 0.47621,-0.54764 0.2469,-0.26441 0.68736,-0.85017 0.41118,-0.53853 0.7552,-1.00052 1.23251,-1.48794 0.62199,-0.63515 1.08292,-1.21689 1.8109,-1.65994 0.0246,-0.015 -0.53717,1.2749 -0.51126,1.26212 z"
       inkscape:connector-curvature="0" />
    <path
       style="opacity:1;fill:#999999;fill-opacity:1;stroke:none;stroke-linecap:round;stroke-linejoin:round;stroke-opacity:1"
       id="path3626"
       d="m 428.47455,406.04577 c -3.06035,0.0708 -6.11468,0.32045 -9.1454,0.75168 0.46966,0.69813 1.38923,0.25765 2.06711,0.3132 6.37476,-0.11152 12.75887,-0.10808 19.12256,0.3219 5.65955,0.38695 11.30177,1.21867 16.79402,2.6496 4.06415,0.95914 7.83672,2.92767 11.1408,5.4579 3.37534,2.62377 6.56317,5.61328 8.81972,9.27715 2.14136,3.42187 3.40604,7.39238 3.5433,11.43202 0.27555,5.03352 -0.97796,10.09776 -3.36013,14.52516 -1.44971,2.68654 -2.99919,5.32307 -4.6539,7.8888 -2.21934,3.3325 -4.87512,6.36674 -7.85967,9.03484 -3.92529,3.5885 -8.33322,6.60577 -12.90323,9.30841 -3.75454,2.14275 -7.5844,4.15096 -11.38389,6.21223 -5.27582,2.74487 -10.77537,5.06661 -16.45209,6.84532 -4.68669,1.57027 -9.47932,2.83143 -14.32723,3.79379 -3.49516,0.70651 -7.03715,1.12658 -10.56251,1.64726 -9.49109,1.30095 -19.01845,2.31111 -28.53932,3.36411 -9.61514,0.99068 -19.23583,1.92766 -28.84742,2.95284 -0.66175,0.428 0.23741,1.44739 0.81432,1.04399 5.15894,-0.94366 10.40856,-1.17144 15.60661,-1.8146 13.50458,-1.45927 26.99928,-3.02053 40.46396,-4.81305 4.4624,-0.62207 8.93404,-1.2316 13.34196,-2.17414 6.35643,-1.49238 12.55379,-3.5776 18.69474,-5.77887 3.61157,-1.33017 7.15884,-2.852 10.51642,-4.74133 3.31765,-1.79517 6.65174,-3.56071 9.96805,-5.35747 3.9691,-2.24914 7.75302,-4.83487 11.21405,-7.81148 3.26993,-2.77581 6.42017,-5.74238 9.02333,-9.1645 2.48597,-3.38558 4.51208,-7.07576 6.58633,-10.71949 1.99515,-3.79047 3.12433,-8.03141 3.35761,-12.30474 0.23213,-5.40952 -1.20967,-10.91523 -4.25187,-15.41085 -1.74149,-2.46498 -3.88075,-4.63061 -6.16279,-6.59632 -2.18062,-1.78975 -4.40848,-3.56213 -6.9523,-4.81339 -3.74261,-1.93616 -7.88971,-2.85348 -11.99416,-3.66187 -6.17468,-1.1464 -12.46204,-1.56256 -18.73489,-1.63851 -1.64785,-0.0389 -3.29601,-0.0477 -4.94409,-0.0196 z"
       sodipodi:nodetypes="cccsscssscscscscsscsscssccscssscsscsssscsssccsscscsscssscsscsscscsssssssccsscsscsssccssccccc"
       inkscape:connector-curvature="0" />
    <path
       style="opacity:1;fill:#999999;fill-opacity:1;stroke:none;stroke-linecap:round;stroke-linejoin:round;stroke-opacity:1"
       id="path3640"
       d="m 444.66574,413.08495 c 0.21834,0.074 0.43276,0.16081 0.65502,0.22202 1.36314,0.37546 0.88558,0.12242 2.42738,0.62022 1.13479,0.36639 2.32711,0.89769 3.42251,1.34613 0.7394,0.3027 1.48081,0.60046 2.22121,0.90069 2.48234,1.21218 4.87052,2.58752 7.21883,4.03843 1.86939,1.155 2.80572,1.69565 4.53368,3.02869 0.66696,0.51452 1.29405,1.07876 1.94107,1.61813 2.11445,1.9263 4.07427,4.08666 5.35706,6.67088 0.709,1.42832 0.80064,2.02386 1.22783,3.54329 0.23531,1.21401 0.52101,2.45065 0.57338,3.69285 0.0286,0.67801 -0.0327,1.35687 -0.0579,2.03501 -0.0501,1.35024 -0.0879,2.65078 -0.325,3.98611 -0.12001,0.67591 -0.31849,1.33552 -0.47774,2.00329 -0.20567,0.63201 -0.36854,1.27959 -0.61703,1.89603 -0.72948,1.80967 -1.88092,3.71138 -3.04811,5.271 -0.81045,1.08293 -1.88611,2.28587 -2.77324,3.30801 -3.05319,3.18684 -6.46904,5.99332 -10.09868,8.49615 -0.76187,0.52535 -1.54342,1.0216 -2.31514,1.53239 -1.70619,1.05433 -3.30215,2.0661 -5.05522,3.04486 -0.85078,0.47499 -1.72462,0.90748 -2.58362,1.36745 -0.87526,0.46867 -1.73233,0.97192 -2.61911,1.41843 -1.86079,0.93695 -3.40016,1.54752 -5.32096,2.35771 -5.01858,2.05311 -10.30365,3.36762 -15.61253,4.41468 -3.24802,0.79103 -6.57762,1.22021 -9.80297,2.10039 -0.9087,0.19161 -1.77956,0.50976 -2.67034,0.76564 -0.0261,0.007 0.53999,-1.13726 0.56593,-1.14511 l 0,0 c 0.88876,-0.26895 1.78214,-0.52038 2.68734,-0.7294 0.14909,-0.0362 2.50387,-0.60713 2.55729,-0.61784 0.49766,-0.0998 1.00383,-0.15247 1.50264,-0.24637 0.58087,-0.10935 1.15542,-0.25029 1.7356,-0.36323 7.06846,-1.37603 -3.77565,0.80408 3.95708,-0.7611 1.58167,-0.3449 3.17219,-0.65059 4.74695,-1.02578 3.67249,-0.87494 7.31194,-1.92875 10.79353,-3.40116 0.89869,-0.38058 1.80776,-0.73752 2.69606,-1.14175 1.78034,-0.81015 3.48781,-1.72392 5.21163,-2.64551 2.6,-1.39001 5.19,-2.8086 7.6273,-4.47428 2.85131,-1.97484 5.72955,-3.91393 8.34047,-6.20764 0.30796,-0.27055 0.58647,-0.57291 0.87991,-0.85915 0.52586,-0.51294 1.05199,-1.02559 1.57798,-1.5384 1.79235,-1.97075 1.13311,-1.15588 2.71274,-3.24257 0.42292,-0.55869 0.86569,-1.10348 1.25931,-1.68318 1.12058,-1.65033 1.97512,-3.44089 2.52283,-5.36071 0.15379,-0.65061 0.33093,-1.29614 0.46136,-1.95184 0.38549,-1.93802 0.5966,-3.97903 0.47223,-5.95722 -0.0388,-0.61675 -0.16165,-1.22532 -0.24254,-1.83798 -0.0806,-0.61082 -0.16136,-1.22163 -0.24205,-1.83244 -0.40277,-1.41391 -0.52959,-2.12046 -1.20793,-3.44251 -0.29045,-0.56606 -0.65386,-1.0918 -0.99616,-1.62809 -0.36539,-0.57246 -0.71456,-1.15772 -1.12656,-1.6976 -1.0563,-1.38416 -1.84676,-2.05116 -3.10692,-3.26837 -0.62947,-0.54541 -1.22814,-1.12852 -1.8884,-1.63622 -0.70008,-0.53834 -1.45192,-1.00592 -2.18603,-1.49684 -3.06289,-2.04827 -6.25711,-3.86895 -9.60747,-5.40902 -0.60833,-0.26502 -3.24873,-1.43064 -3.99128,-1.70018 -1.51899,-0.55141 -7.56855,-2.07355 -9.15546,-2.35913 -0.0298,-0.005 5.21353,-0.0276 5.2422,-0.0178 z"
       sodipodi:nodetypes="cssscsscscssscsscscssscccsccsssscsssscsscsscssscssscsscssc"
       inkscape:connector-curvature="0" />
    <path
       style="opacity:1;fill:#999999;fill-opacity:1;stroke:none;stroke-linecap:round;stroke-linejoin:round;stroke-opacity:1"
       id="path3650"
       d="m 456.81531,486.27811 c -3.12778,2.02777 -6.48774,3.65978 -9.8096,5.33935 -3.42613,1.69927 -6.86946,3.36929 -10.39891,4.84607 -1.48451,0.62114 -2.96616,1.25438 -4.48422,1.78828 -2.42231,0.85193 -7.93458,2.37531 -10.30968,3.05051 -6.12572,1.41295 -12.25657,2.80083 -18.47297,3.76239 -2.22597,0.34431 -4.46692,0.58457 -6.69642,0.90522 -2.34745,0.33759 -4.68834,0.71935 -7.03395,1.06945 -2.39043,0.35679 -4.78276,0.70079 -7.17414,1.05119 -9.57481,1.48886 -19.20608,2.53289 -28.85101,3.43396 -2.45709,0.22954 -4.91239,0.48038 -7.37232,0.6772 -2.45318,0.19627 -4.91065,0.33466 -7.36597,0.50199 -11.43539,0.49906 -3.15607,0.18845 -14.46917,0.4823 -2.40912,0.0626 -4.81711,0.17174 -7.22672,0.21028 -2.31635,0.037 -4.63327,0.0168 -6.9499,0.0164 -7.28621,-10e-4 -5.16753,0.009 -12.1124,-0.14785 -1.71502,-0.053 -3.43102,-0.0806 -5.14507,-0.15897 -1.49232,-0.0682 -2.9819,-0.18716 -4.47286,-0.28059 -4.47661,-0.2805 -8.95521,-0.54779 -13.42836,-0.87831 -1.84781,-0.0498 -3.69048,-0.04 -5.53429,-0.16957 -0.0279,-0.002 0.68475,-1.11303 0.71258,-1.11011 l 0,0 c 0.4378,0.0459 0.874,0.11115 1.31339,0.1377 4.70103,0.284 -1.36099,-0.26477 4.07405,0.27466 3.14737,0.14814 2.60299,0.0947 5.9033,0.37285 1.16482,0.0982 2.32692,0.22859 3.4926,0.3162 4.51488,0.33933 9.04343,0.43342 13.55993,0.74666 9.99857,0.18564 1.43633,0.0484 12.10094,0.15228 2.29442,0.0224 4.58873,0.11233 6.88307,0.0832 2.41978,-0.0307 4.83605,-0.19898 7.25519,-0.26252 13.67888,-0.35933 0.53966,0.21299 14.45808,-0.48036 5.19948,-0.32308 9.45304,-0.54705 14.64052,-1.03041 2.40409,-0.224 4.80119,-0.51775 7.20173,-0.77717 2.39102,-0.25839 4.7854,-0.48748 7.17294,-0.77625 2.98727,-0.36132 11.54519,-1.5656 14.52419,-1.98008 9.66043,-1.35704 4.61553,-0.60573 14.20257,-2.12172 2.26072,-0.35748 4.5256,-0.68945 6.78248,-1.07046 6.18766,-1.04462 12.35592,-2.24267 18.44485,-3.76662 1.79717,-0.51557 3.60635,-0.99094 5.39149,-1.5467 2.22259,-0.69196 7.1281,-2.39997 9.37307,-3.33172 1.85758,-0.77097 5.5471,-2.58085 7.43788,-3.50462 1.00108,-0.4891 1.99938,-0.98384 2.99908,-1.47575 1.63402,-0.87226 3.28466,-1.7141 4.90181,-2.61725 0.6384,-0.35654 1.25582,-0.74963 1.891,-1.11189 0.46605,-0.2658 0.95467,-0.49202 1.41229,-0.77207 0.33969,-0.20787 1.21738,-0.86071 1.62577,-1.16125 0.0237,-0.0174 -0.42213,1.29804 -0.44684,1.31405 z"
       inkscape:connector-curvature="0" />
  </g>
  <g
     inkscape:groupmode="layer"
     id="layer2"
     inkscape:label="texts"
     style="display:inline"
     transform="translate(-120.53881,-243.04802)" />
  <style
     id="style26"
     type="text/css" />
</svg>
