<?xml version="1.0" encoding="UTF-8" standalone="no"?>
<!-- Created with Inkscape (http://www.inkscape.org/) -->

<svg xmlns:dc="http://purl.org/dc/elements/1.1/" xmlns:cc="http://creativecommons.org/ns#" xmlns:rdf="http://www.w3.org/1999/02/22-rdf-syntax-ns#" xmlns:svg="http://www.w3.org/2000/svg" xmlns="http://www.w3.org/2000/svg" xmlns:sodipodi="http://sodipodi.sourceforge.net/DTD/sodipodi-0.dtd" xmlns:inkscape="http://www.inkscape.org/namespaces/inkscape" width="140" height="20" id="svg2" version="1.1" inkscape:version="0.48+devel r" viewBox="0 0 140 20" sodipodi:docname="browser.svg">
  <defs id="defs4" />
  <sodipodi:namedview id="base" pagecolor="#ffffff" bordercolor="#666666" borderopacity="1.0" inkscape:pageopacity="0.0" inkscape:pageshadow="2" inkscape:zoom="8.061" inkscape:cx="48.5" inkscape:cy="-1" inkscape:document-units="px" inkscape:current-layer="layer1" showgrid="false" fit-margin-top="0" fit-margin-left="0" fit-margin-right="0" fit-margin-bottom="0" inkscape:window-width="1855" inkscape:window-height="1056" inkscape:window-x="65" inkscape:window-y="24" inkscape:window-maximized="1" />
  <metadata id="metadata7">
    <rdf:RDF>
      <cc:Work rdf:about="">
        <dc:format>image/svg+xml</dc:format>
        <dc:type rdf:resource="http://purl.org/dc/dcmitype/StillImage" />
        <dc:title></dc:title>
      </cc:Work>
    </rdf:RDF>
  </metadata>
  <g inkscape:label="Layer 1" inkscape:groupmode="layer" id="layer1" transform="translate(-112.1,-287.7)">
    <g id="g4192" style="opacity:0">
      <rect y="287.7" x="112.1" height="20" width="20" id="rect4101" style="color:#000000;fill:#d40000;stroke-width:1.795;stroke-dasharray:3.59, 3.58999999999999986" />
      <rect y="287.7" x="152.1" height="20" width="20" id="rect4101-3" style="color:#000000;fill:#d40000;stroke-width:1.795;stroke-dasharray:3.59, 3.58999999999999986" />
      <rect y="287.7" x="132.1" height="20" width="20" id="rect4101-3-2" style="color:#000000;fill:#339900;stroke-width:1.795;stroke-dasharray:3.59, 3.58999999999999986" />
      <rect y="287.7" x="172.1" height="20" width="20" id="rect4101-3-5" style="color:#000000;fill:#339900;stroke-width:1.795;stroke-dasharray:3.59, 3.58999999999999986" />
      <rect y="287.7" x="192.1" height="20" width="20" id="rect4101-3-6" style="color:#000000;fill:#d40000;stroke-width:1.795;stroke-dasharray:3.59, 3.58999999999999986" />
      <rect y="287.7" x="212.1" height="20" width="20" id="rect4101-3-6-7" style="color:#000000;fill:#339900;stroke-width:1.795;stroke-dasharray:3.59, 3.58999999999999986" />
      <rect style="color:#000000;fill:#d40000;stroke-width:1.795;stroke-dasharray:3.59, 3.58999999999999986" id="rect10059" width="20" height="20" x="232.1" y="287.7" />
    </g>
    <circle style="color:#000000;fill:#888888;stroke-width:1.114px" id="path4698" cx="122.1" cy="297.7" r="5" />
    <path style="color:#000000;fill:#888888;stroke-width:1.114px" d="M 49.8 0.5 A 9.593 9.593 0 0 0 46 1.301 A 9.593 9.593 0 0 0 41 13.9 A 9.593 9.593 0 0 0 53.6 18.9 A 9.593 9.593 0 0 0 58.6 6.301 A 9.593 9.593 0 0 0 49.8 0.5 z M 46.9 2.199 L 51.2 8.801 L 48 10 L 46.9 2.199 z M 51.7 10.4 L 52.9 18 L 48.7 11.7 L 51.7 10.4 z " transform="translate(112.1,287.7)" id="path4935" />
    <path style="color:#000000;fill:#888888;stroke-width:1.114px" d="M 109.9 0.4004 A 9.593 9.593 0 0 0 106.2 1.199 A 9.593 9.593 0 0 0 101.2 13.8 A 9.593 9.593 0 0 0 113.8 18.8 A 9.593 9.593 0 0 0 118.7 13.9 L 114.2 13.9 C 113.4 15.4 111.8 16.4 110 16.4 C 107.3 16.4 105.1 14.2 105.1 11.6 L 112.1 11.6 L 114.8 11.6 L 119.4 11.6 A 9.593 9.593 0 0 0 118.8 6.199 A 9.593 9.593 0 0 0 109.9 0.4004 z M 110 3.6 C 112.6 3.6 114.9 5.7 114.8 8.4 L 105.1 8.4 C 105.1 5.8 107.3 3.6 110 3.6 z " transform="translate(112.1,287.7)" id="path9486" />
    <path style="fill:#888888" d="m 182.1,288.1 a 9.587,9.587 0 0 0 -7.8,4 l 3.8,4 c -0.4,0.9 -0.5,1.9 -0.2,2.9 l -3.8,-6.6 a 9.587,9.587 0 0 0 -1.6,5.3 9.587,9.587 0 0 0 8.7,9.6 l 1.7,-5.4 c 1,-0.2 1.8,-0.7 2.5,-1.5 l -4,6.9 a 9.587,9.587 0 0 0 0.7,0 9.587,9.587 0 0 0 9.6,-9.6 9.587,9.587 0 0 0 -0.9,-4 l -5.4,1.3 c -0.8,-1 -2.1,-1.6 -3.4,-1.7 l 8.6,0 a 9.587,9.587 0 0 0 -8.5,-5.2 z m 0,6 a 3.573,3.573 0 0 1 3.6,3.6 3.573,3.573 0 0 1 -3.6,3.6 3.573,3.573 0 0 1 -3.6,-3.6 3.573,3.573 0 0 1 3.6,-3.6 z" id="circle47_1_" inkscape:connector-curvature="0" />
    <path style="color:#000000;fill:#888888;stroke-width:1.114px" d="m 202,288.2 a 9.593,9.593 0 0 0 -3.7,0.8 9.593,9.593 0 0 0 -5,12.6 9.593,9.593 0 0 0 12.6,5 9.593,9.593 0 0 0 5,-12.6 9.593,9.593 0 0 0 -8.9,-5.8 z m 0,1.1 a 5.357,8.547 0 0 1 5,5.1 5.357,8.547 0 0 1 -2.8,11.3 5.357,8.547 0 0 1 -7,-4.6 5.357,8.547 0 0 1 2.8,-11.2 5.357,8.547 0 0 1 2,-0.6 z" id="path9486-8" inkscape:connector-curvature="0" />
    <g id="g3647" transform="matrix(0.2186,0,0,0.2186,61.33,285.8)">
      <path style="fill:#888888" d="m 826.7,9.797 c -24.2,0 -44.4,19.983 -44.4,44.623 0,24.66 20.2,44.66 44.4,44.66 24.7,0 44.9,-20 44.9,-44.66 0,-24.64 -20.2,-44.623 -44.9,-44.623 z m -1.8,8.903 c 0.4,-0.1 0.4,0.1 0.9,0.32 l 4.1,9.3 c 2.3,0.1 4.6,0.43 6.4,1.12 l 7.3,-7.11 c 0,-0.17 0.5,-0.25 0.5,-0.1 l 5.9,3.44 0,0.73 -3.2,9.64 c 1,1.42 2.3,3.01 3.2,4.67 l 10.6,0 c 0,0 0.4,0.22 0.4,0.48 l 1.4,6.39 c 0.5,0.29 0,0.59 0,0.71 l -13.3,2.9 -0.4,-0.2 c -1.9,-10.24 -10.5,-18.1 -21.5,-18.1 -2.3,0 -4.1,0.46 -6.4,1.13 l 0,-0.12 -2.8,-13.06 c 0,-0.25 0,-0.51 0.5,-0.59 l 6.4,-1.55 z m -20.6,9.51 c 0,0 0,0 0.5,0.1 l 9.6,9.01 c -5.1,3.94 -8.7,10.11 -8.7,17.1 0,6.27 2.7,11.85 7.3,15.83 l 0,0.19 -8.7,9.97 c -0.5,0.14 -0.5,0.1 -0.9,-0.1 l -4.6,-4.67 c -0.4,-0.18 0,-0.5 0,-0.73 l 5.5,-8.6 c -0.9,-1.88 -1.8,-3.98 -2.3,-6.13 l -9.6,-2.38 c -0.5,-0.1 -0.5,-0.32 -0.5,-0.6 l 0,-6.53 c 0,-0.29 0,-0.53 0.5,-0.59 L 802.5,48 c 0.4,-1.85 0.9,-3.62 2.3,-5.26 l -5.5,-8.96 c -0.5,-0.25 -0.5,-0.58 0,-0.75 l 4.5,-4.64 c 0,-0.11 0.5,-0.18 0.5,-0.19 z m 44.4,30.83 13.2,3.02 c 0.5,0.1 0.5,0.42 0.5,0.69 l -1.8,6.41 c 0,0.27 -0.5,0.41 -0.5,0.41 l -10.5,-0.55 c -0.9,1.87 -2.3,3.52 -4.1,5.08 l 3.2,9.65 c 0,0.23 -0.5,0.55 -0.5,0.69 l -5.9,3.29 c 0,0.14 -0.5,0.1 -0.5,-0.14 L 835,79.95 c -1.9,0.46 -3.7,0.64 -5.5,0.64 l -5.1,9.2 c -0.4,0.23 -0.4,0.36 -0.9,0.27 l -6.4,-1.69 c 0,-0.1 -0.4,-0.32 -0.4,-0.64 l 3.6,-12.99 0,0 c 2.3,0.78 4.6,1.33 6.9,1.33 10.5,0 19.2,-7.28 21,-16.93 l 0.5,-0.1 z" id="path2819-8-3-8" inkscape:connector-curvature="0" />
      <g style="fill:#ffffff" id="g4835-5-6-3" transform="matrix(0.4153,0,0,0.4153,609.1,80.91)" />
      <g style="fill:#ffffff" id="g4835-5-6-3-7" transform="matrix(-0.2158,0.3548,-0.3548,-0.2158,919.2,-144.8)" />
      <g style="fill:#ffffff" id="g4835-5-6-3-1" transform="matrix(-0.2073,-0.3598,0.3598,-0.2073,958.9,231.7)" />
    </g>
    <path style="fill:#888888" d="m 140,306.8 c -3,-0.5 -5.3,-2.2 -6.8,-5 -0.3,-0.7 -0.8,-2 -0.8,-2.6 -0.1,-0.2 -0.1,-0.3 -0.2,-0.3 -0.1,0 -0.1,-0.1 -0.1,-0.3 0,-0.2 0.1,-1.5 0.2,-2 0,-0.3 0,-0.3 -0.1,-0.2 -0.1,0.2 -0.1,0.2 -0.1,-0.1 0.2,-0.9 0.6,-2 1,-2.4 0.1,-0.3 0.1,-0.4 0.1,-1 0,-1 0.3,-1.9 0.8,-2.5 l 0.1,-0.1 0.1,0.2 c 0,0.3 0.3,0.9 0.4,0.9 0.1,0 0.3,-0.2 0.6,-0.4 1.2,-1.2 2.7,-2 4.5,-2.4 0.8,-0.2 2.8,-0.2 3.7,0 1.3,0.3 2.6,0.9 3.6,1.7 0.3,0.2 0.8,0.5 1,0.7 0.5,0.3 1.1,0.9 1.4,1.5 0.3,0.6 0.4,0.5 0.2,-0.4 -0.1,-0.2 -0.1,-0.4 -0.1,-0.4 0,-0.1 0.3,0.5 0.5,0.9 0.3,0.6 0.5,1.5 0.7,2.7 0.1,0.5 0.1,1 0.1,1 0,0.1 0.1,0.1 0.1,0.1 0.1,0 0.1,-0.1 0.1,-0.2 0,-0.2 0,-0.3 0.1,-0.4 0.1,-0.3 0,1.3 -0.1,2.3 -0.4,2.6 -1.4,4.9 -3,6.4 -1.2,1.2 -2.8,1.9 -4.6,2.3 -0.9,0.1 -2.7,0.2 -3.4,0 z m 4.2,-4.6 c 0.6,-0.3 1.3,-0.9 1.9,-1.6 0.3,-0.6 0.4,-0.5 0.2,0.1 -0.1,0.2 -0.1,0.5 -0.1,0.6 l 0,0.2 0.2,-0.2 c 0.5,-0.5 0.9,-1.9 0.8,-3.2 0,-0.4 0,-0.7 0.1,-0.7 0.1,0 0.4,0.4 0.4,0.5 0,0.1 0.1,0.1 0.1,0.1 0.1,0 0.1,-0.2 0.2,-0.5 0.1,-0.5 0.1,-2.5 0,-2.9 -0.1,-0.3 0,-0.3 0.4,0.1 0.2,0.2 0.3,0.4 0.4,0.4 0,-0.1 -0.1,-0.4 -0.2,-0.7 -0.6,-1.4 -1.7,-2.4 -3.2,-3 -0.3,-0.1 -0.5,-0.1 -0.6,-0.1 -0.4,0 0.3,-0.2 1.2,-0.3 0.2,0 0.4,-0.1 0.4,-0.1 0,-0.1 -1,-0.5 -1.7,-0.7 l -0.8,-0.2 0.5,0 c 0.3,0 0.8,0 1.2,0.1 0.5,0.1 0.8,0.1 0.8,0.1 0,-0.1 -0.8,-0.5 -1.4,-0.8 -3.2,-1.4 -7,-0.7 -9.6,1.7 l -0.6,0.6 0.2,0.1 c 0.1,0.2 0.2,0.2 1.4,0.2 0.6,0 1.2,0 1.2,-0.1 0,0 0.2,-0.2 0.4,-0.3 0.5,-0.3 1,-0.5 1.6,-0.6 l 0.4,-0.1 -0.3,0.3 c -0.5,0.3 -1,1.1 -1,1.5 0,0.2 0.3,0.6 0.5,0.8 0.2,0.1 0.4,0.2 1.1,0.2 0.9,0 0.9,0 0.9,0.2 0.1,0.4 0,0.6 -0.7,1 -0.4,0.2 -0.8,0.5 -0.9,0.6 l -0.2,0.3 0.1,0.4 c 0,0.3 0,0.5 0,0.6 0,0.2 0,0.2 -0.3,0.1 -0.5,-0.2 -1,0 -1.2,0.5 -0.2,0.5 0.3,1.1 1.1,1.6 0.6,0.3 1.3,0.3 2.1,0 0.6,-0.3 0.7,-0.3 1.1,-0.3 0.8,0.1 1.6,0.8 1.2,1.1 -0.1,0 -0.2,0 -0.3,0 -0.2,0 -0.5,0.1 -1.2,0.6 -0.7,0.4 -1.3,0.6 -2.2,0.7 l -0.7,0 0.5,0.4 c 1.2,0.7 2.1,1 3.2,1 0.7,0 0.8,0 1.4,-0.3 z" id="path5338" inkscape:connector-curvature="0" />
  </g>
</svg>
