<?xml version="1.0" encoding="UTF-8" standalone="no"?>
<!-- Created with Inkscape (http://www.inkscape.org/) -->

<svg
   xmlns:dc="http://purl.org/dc/elements/1.1/"
   xmlns:cc="http://creativecommons.org/ns#"
   xmlns:rdf="http://www.w3.org/1999/02/22-rdf-syntax-ns#"
   xmlns:svg="http://www.w3.org/2000/svg"
   xmlns="http://www.w3.org/2000/svg"
   xmlns:sodipodi="http://sodipodi.sourceforge.net/DTD/sodipodi-0.dtd"
   xmlns:inkscape="http://www.inkscape.org/namespaces/inkscape"
   version="1.0"
   viewBox="0 0 128 128"
   width="128"
   height="128"
   id="svg2"
   inkscape:version="0.91+devel r"
   sodipodi:docname="admin-logo.svg"
   inkscape:export-filename="/home/doctormo/Projects/inkscape/web/inkscape/static/images/inkscape-admin-logo.png"
   inkscape:export-xdpi="31.5"
   inkscape:export-ydpi="31.5">
  <metadata
     id="metadata141">
    <rdf:RDF>
      <cc:Work
         rdf:about="">
        <dc:format>image/svg+xml</dc:format>
        <dc:type
           rdf:resource="http://purl.org/dc/dcmitype/StillImage" />
        <dc:title></dc:title>
      </cc:Work>
    </rdf:RDF>
  </metadata>
  <sodipodi:namedview
     pagecolor="#ffffff"
     bordercolor="#666666"
     borderopacity="1"
     objecttolerance="10"
     gridtolerance="10"
     guidetolerance="10"
     inkscape:pageopacity="0"
     inkscape:pageshadow="2"
     inkscape:window-width="1855"
     inkscape:window-height="1056"
     id="namedview139"
     showgrid="false"
     inkscape:zoom="5.2215909"
     inkscape:cx="42.9759"
     inkscape:cy="80.436793"
     inkscape:window-x="65"
     inkscape:window-y="24"
     inkscape:window-maximized="1"
     inkscape:current-layer="g9139"
     fit-margin-top="0"
     fit-margin-left="0"
     fit-margin-right="0"
     fit-margin-bottom="0" />
  <defs
     id="defs4" />
  <style
     type="text/css"
     id="style26" />
  <g
     transform="matrix(0.9939405,0,0,0.9939405,-32.9191,37.71886)"
     id="g9139"
     style="display:inline;enable-background:new">
    <rect
       style="color:#000000;clip-rule:nonzero;display:inline;overflow:visible;visibility:visible;opacity:1;isolation:auto;mix-blend-mode:normal;color-interpolation:sRGB;color-interpolation-filters:linearRGB;solid-color:#000000;solid-opacity:1;fill:#417690;fill-opacity:1;fill-rule:nonzero;stroke:none;stroke-width:5.83535957;stroke-linecap:butt;stroke-linejoin:miter;stroke-miterlimit:4;stroke-dasharray:none;stroke-dashoffset:0;stroke-opacity:1;marker:none;color-rendering:auto;image-rendering:auto;shape-rendering:auto;text-rendering:auto;enable-background:accumulate"
       id="rect4158"
       width="128.78035"
       height="128.78035"
       x="33.119789"
       y="-37.948811"
       ry="33.176006" />
    <path
       style="fill:#ffffff;fill-opacity:1;stroke-width:1"
       d="m 96.134307,-27.430893 c -3.281221,0 -6.513495,1.188165 -8.843637,3.565862 L 48.105429,16.269611 c -14.836832,14.836831 9.606622,13.600934 18.451656,19.212299 4.08964,2.663021 -13.125141,6.087157 -9.606148,9.606149 3.423883,3.518993 20.638211,6.75228 24.062095,10.176164 3.423885,3.518992 -6.943024,7.229056 -3.519139,10.748048 3.328775,3.518992 11.317414,0.189245 12.744033,8.17831 1.046188,5.896689 14.646674,2.949417 20.733584,-2.0913 3.80431,-3.233669 -6.56177,-3.235215 -3.13789,-6.754208 8.55971,-8.654818 16.16718,-3.899013 19.30575,-11.888077 1.71194,-4.279854 -12.93369,-7.322721 -9.03427,-10.080849 9.32058,-6.562446 43.55978,-9.890786 27.77187,-25.678696 l -40.61121,-41.562482 c -2.52036,-2.377697 -5.85023,-3.565862 -9.131453,-3.565862 z m 43.642563,76.084815 c -3.29311,0.118885 -6.64392,1.759621 -7.49989,4.803074 0,1.997266 15.50254,3.1394 14.64657,-0.474701 -0.6182,-3.043451 -3.85356,-4.447258 -7.14668,-4.328373 z m -68.121423,8.641796 c -4.478988,0.265122 -9.272044,3.514751 -5.479617,6.718698 3.518992,3.043453 8.845478,-0.665256 10.55742,-4.945111 -1.069964,-1.396898 -3.0419,-1.894097 -5.077803,-1.773587 z m 58.718993,0.345747 c -4.37496,3.994532 0.76057,8.17981 5.04042,5.42168 1.1413,-0.760862 -0.0948,-4.470601 -5.04042,-5.42168 z"
       id="use7631"
       inkscape:connector-curvature="0"
       sodipodi:nodetypes="scccccccccccccssccssccsccc" />
  </g>
  <style
     id="style26-2"
     type="text/css" />
</svg>
