<?xml version="1.0" encoding="UTF-8" standalone="no"?>
<!-- Created with Inkscape (http://www.inkscape.org/) -->

<svg xmlns="http://www.w3.org/2000/svg" width="32" height="32" version="1.1">
    <path style="fill:#d55500"
	  d="m 28.9,8.02 c -1,0.42 -2,0.7 -3.1,0.83 1.1,-0.66 2,-1.69 2.4,-2.92 -1.1,0.6 -2.2,1.04 -3.4,1.28 -1,-1.03 -2.3,-1.67 -3.9,-1.67 -2.9,0 -5.2,2.36 -5.2,5.26 0,0.4 0,0.8 0.1,1.2 -4.4,-0.2 -8.27,-2.3 -10.87,-5.49 -0.46,0.78 -0.72,1.68 -0.72,2.65 0,1.84 0.94,3.44 2.35,4.44 -0.86,-0.1 -1.68,-0.3 -2.39,-0.7 0,0 0,0 0,0.1 0,2.5 1.82,4.7 4.23,5.1 -0.44,0.2 -0.91,0.2 -1.39,0.2 -0.34,0 -0.67,0 -0.99,-0.1 0.67,2.1 2.62,3.7 4.98,3.7 -1.86,1.4 -4.13,2.3 -6.6,2.3 -0.43,0 -0.85,-0.1 -1.26,-0.1 2.33,1.5 5.11,2.4 8.06,2.4 9.7,0 15,-8.1 15,-15.1 0,-0.2 0,-0.4 0,-0.6 1.1,-0.8 2,-1.72 2.7,-2.77 z" />
</svg>
