<?xml version="1.0" encoding="UTF-8" standalone="no"?>
<!-- Created with Inkscape (http://www.inkscape.org/) -->

<svg
   xmlns:dc="http://purl.org/dc/elements/1.1/"
   xmlns:cc="http://creativecommons.org/ns#"
   xmlns:rdf="http://www.w3.org/1999/02/22-rdf-syntax-ns#"
   xmlns:svg="http://www.w3.org/2000/svg"
   xmlns="http://www.w3.org/2000/svg"
   xmlns:sodipodi="http://sodipodi.sourceforge.net/DTD/sodipodi-0.dtd"
   xmlns:inkscape="http://www.inkscape.org/namespaces/inkscape"
   width="32"
   height="32"
   version="1.1"
   id="svg7024"
   inkscape:version="0.91 r"
   sodipodi:docname="logo_facebook.svg"
   inkscape:export-filename="/media/sicher/maren/www/Inkscape/Branches/inkscape-web/inkscape/static/images/logo_facebook.png"
   inkscape:export-xdpi="90"
   inkscape:export-ydpi="90">
  <metadata
     id="metadata7032">
    <rdf:RDF>
      <cc:Work
         rdf:about="">
        <dc:format>image/svg+xml</dc:format>
        <dc:type
           rdf:resource="http://purl.org/dc/dcmitype/StillImage" />
        <dc:title></dc:title>
      </cc:Work>
    </rdf:RDF>
  </metadata>
  <defs
     id="defs7030" />
  <sodipodi:namedview
     pagecolor="#ffffff"
     bordercolor="#666666"
     borderopacity="1"
     objecttolerance="10"
     gridtolerance="10"
     guidetolerance="10"
     inkscape:pageopacity="0"
     inkscape:pageshadow="2"
     inkscape:window-width="640"
     inkscape:window-height="480"
     id="namedview7028"
     showgrid="false"
     inkscape:zoom="6.7045455"
     inkscape:cx="48.485424"
     inkscape:cy="-1.499661"
     inkscape:current-layer="svg7024" />
  <path
     d="m 27.120235,3.5000316 -22.2403758,0 c -0.762289,0 -1.379859,0.6175703 -1.379859,1.3797656 l 0,22.2405628 c 0,0.762007 0.61757,1.379765 1.379859,1.379765 l 11.9734298,0 0,-9.681313 -3.257953,0 0,-3.773046 3.257953,0 0,-2.782485 c 0,-3.2291011 1.97214,-4.9873906 4.852789,-4.9873906 1.379766,0 2.565632,0.1027559 2.911375,0.1486572 l 0,3.3745704 -1.997992,7.82e-4 c -1.566547,0 -1.869851,0.744397 -1.869851,1.83678 l 0,2.408929 3.73614,0 -0.486524,3.773048 -3.249616,0 0,9.681311 6.370625,0 c 0.762007,0 1.379765,-0.617757 1.379765,-1.379765 l 0,-22.2405621 c 0,-0.7621952 -0.617758,-1.3797655 -1.379765,-1.3797655"
     style="fill:#3d539f;fill-opacity:1;fill-rule:nonzero;stroke:none"
     id="path46"
     inkscape:connector-curvature="0" />
</svg>
