<?xml version="1.0" encoding="UTF-8" standalone="no"?>
<!-- Created with Inkscape (http://www.inkscape.org/) -->

<svg
   xmlns:dc="http://purl.org/dc/elements/1.1/"
   xmlns:cc="http://creativecommons.org/ns#"
   xmlns:rdf="http://www.w3.org/1999/02/22-rdf-syntax-ns#"
   xmlns:svg="http://www.w3.org/2000/svg"
   xmlns="http://www.w3.org/2000/svg"
   xmlns:sodipodi="http://sodipodi.sourceforge.net/DTD/sodipodi-0.dtd"
   xmlns:inkscape="http://www.inkscape.org/namespaces/inkscape"
   width="32"
   height="32"
   version="1.1"
   id="svg7024"
   inkscape:version="0.91 r"
   sodipodi:docname="logo_googleplus.svg"
   inkscape:export-filename="/media/sicher/maren/www/Inkscape/Branches/inkscape-web/inkscape/static/images/logo_facebook.png"
   inkscape:export-xdpi="90"
   inkscape:export-ydpi="90">
  <metadata
     id="metadata7032">
    <rdf:RDF>
      <cc:Work
         rdf:about="">
        <dc:format>image/svg+xml</dc:format>
        <dc:type
           rdf:resource="http://purl.org/dc/dcmitype/StillImage" />
        <dc:title></dc:title>
      </cc:Work>
    </rdf:RDF>
  </metadata>
  <defs
     id="defs7030" />
  <sodipodi:namedview
     pagecolor="#ffffff"
     bordercolor="#666666"
     borderopacity="1"
     objecttolerance="10"
     gridtolerance="10"
     guidetolerance="10"
     inkscape:pageopacity="0"
     inkscape:pageshadow="2"
     inkscape:window-width="640"
     inkscape:window-height="480"
     id="namedview7028"
     showgrid="false"
     inkscape:zoom="5.5409467"
     inkscape:cx="36.331173"
     inkscape:cy="13.072922"
     inkscape:current-layer="svg7024" />
  <path
     style="fill:#df4a32;fill-opacity:1"
     d="m 9.5026402,27.929749 c -0.81749,-0.0375 -1.8657,-0.20557 -2.49014,-0.39931 -0.8944105,-0.27748 -1.5674105,-0.67215 -2.2469905,-1.31768 -1.40446,-1.3341 -1.63983,-2.89091 -0.70656,-4.67334 0.4319,-0.82489 1.2401,-1.53938 2.37416,-2.09887 1.3640905,-0.67298 2.3895805,-0.91743 4.7764803,-1.1386 0.3203,-0.0297 0.58237,-0.0699 0.58237,-0.0894 0,-0.0195 -0.15924,-0.29772 -0.35385,-0.61832 -0.56582,-0.93209 -0.64934,-1.44291 -0.3691,-2.25746 0.0884,-0.25682 0.16066,-0.47033 0.16066,-0.47446 0,-0.004 -0.4428,-0.009 -0.98401,-0.011 -1.6219398,-0.006 -2.6478798,-0.38028 -3.5953298,-1.31243 -1.0279505,-1.01134 -1.5045305,-2.00701 -1.5809405,-3.30288 -0.13865,-2.3513392 1.5276005,-4.7234392 3.9448305,-5.6159292 1.2331498,-0.4553 2.8217698,-0.58619 6.7101398,-0.55283 l 2.76766,0.0237 -1.8734,1.08442 -0.93186,0 -0.93185,0 0.48236,0.44658 c 0.55084,0.50998 1.05154,1.2586 1.35955,2.03271 0.19603,0.4926999 0.21208,0.6240399 0.21228,1.7378799 1.3e-4,1.0556293 -0.0227,1.2690593 -0.18513,1.7226993 -0.27246,0.76112 -0.66789,1.30532 -1.66663,2.29366 -1.03827,1.02745 -1.23753,1.35575 -1.23753,2.0389 0,0.41779 0.0337,0.52316 0.2644,0.82557 0.14543,0.19066 0.75538,0.76964 1.35545,1.28662 1.74876,1.5066 2.28874,2.26303 2.53243,3.54749 0.54459,2.87044 -1.55527,5.6163 -4.95359,6.47751 -0.9471,0.24001 -2.43174,0.38983 -3.4158598,0.3447 z m 3.7753698,-1.43177 c 1.08076,-0.29403 1.9672,-0.92374 2.38756,-1.69609 0.5737,-1.05407 0.45622,-2.49628 -0.285,-3.49885 -0.19345,-0.26165 -1.10275,-1.03686 -2.03823,-1.73764 l -0.65861,-0.49338 -0.8836,0 c -0.86952,0 -2.0762498,0.18125 -2.9215098,0.43879 -1.19536,0.36422 -2.0785,1.0423 -2.5112905,1.92819 -0.3198,0.65459 -0.37916,1.77182 -0.13149,2.47472 0.4836105,1.37254 1.9690905,2.39978 3.9125403,2.70562 0.68831,0.10832 2.55086,0.0361 3.12963,-0.12136 z m -0.80188,-12.52313 c 0.21362,-0.0643 0.58069,-0.24933 0.81571,-0.41119 0.33764,-0.23254 0.48163,-0.40464 0.68616,-0.8201 0.24184,-0.49125 0.26091,-0.59221 0.29022,-1.53674 0.065,-2.0945793 -0.59589,-4.0714192 -1.75034,-5.2354592 -0.64874,-0.65414 -1.18415,-0.88518 -2.05132,-0.88518 -1.4226798,0 -2.4365598,0.88233 -2.7608198,2.40261 -0.42251,1.9809099 0.69017,5.0076992 2.23425,6.0777392 0.7120198,0.49343 1.7161598,0.6551 2.5361398,0.40832 z m 10.72228,1.80376 -3.29341,0 0,-1.92785 3.29341,0 0,-3.37374 1.92785,0 0,3.37374 3.37374,0 0,1.92785 -3.37374,0 0,3.29341 -1.92785,0 z"
     id="path3338"
     inkscape:connector-curvature="0"
     sodipodi:nodetypes="sssssssssssssssccccsscsssssssssssscsssssssssssssssccccccccccccc" />
</svg>
