<?xml version="1.0" encoding="UTF-8" standalone="no"?>
<!-- Generator: Adobe Illustrator 18.1.1, SVG Export Plug-In . SVG Version: 6.00 Build 0)  -->

<svg
   xmlns:dc="http://purl.org/dc/elements/1.1/"
   xmlns:cc="http://creativecommons.org/ns#"
   xmlns:rdf="http://www.w3.org/1999/02/22-rdf-syntax-ns#"
   xmlns:svg="http://www.w3.org/2000/svg"
   xmlns="http://www.w3.org/2000/svg"
   xmlns:sodipodi="http://sodipodi.sourceforge.net/DTD/sodipodi-0.dtd"
   xmlns:inkscape="http://www.inkscape.org/namespaces/inkscape"
   version="1.1"
   id="Capa_1"
   viewBox="0 0 32 32"
   width="32px"
   height="32px"
   xml:space="preserve"
   inkscape:version="0.91 r13725"
   sodipodi:docname="12313.svg"><metadata
     id="metadata4262"><rdf:RDF><cc:Work
         rdf:about=""><dc:format>image/svg+xml</dc:format><dc:type
           rdf:resource="http://purl.org/dc/dcmitype/StillImage" /><dc:title></dc:title></cc:Work></rdf:RDF></metadata><defs
     id="defs4260" /><sodipodi:namedview
     pagecolor="#ffffff"
     bordercolor="#666666"
     borderopacity="1"
     objecttolerance="10"
     gridtolerance="10"
     guidetolerance="10"
     inkscape:pageopacity="0"
     inkscape:pageshadow="2"
     inkscape:window-width="1855"
     inkscape:window-height="1056"
     id="namedview4258"
     showgrid="false"
     inkscape:zoom="29.28125"
     inkscape:cx="15.965848"
     inkscape:cy="16"
     inkscape:window-x="65"
     inkscape:window-y="24"
     inkscape:window-maximized="1"
     inkscape:current-layer="Capa_1" /><g
     id="g4220"
     style="fill:#bfbfbf;fill-opacity:1"
     transform="matrix(0.875,0,0,0.875,2,2)"><g
       id="g4222"
       style="fill:#bfbfbf;fill-opacity:1"><path
         style="fill:#bfbfbf;fill-opacity:1"
         d="M 27.586,12.712 C 26.66,10.251 24.284,8.5 21.5,8.5 20.859,8.5 20.24,8.593 19.654,8.766 18.068,6.205 15.233,4.5 12,4.5 7.096,4.5 3.106,8.424 3.002,13.303 1.207,14.342 0,16.283 0,18.5 c 0,3.312 2.688,6 6,6 l 6,0 0,-2 -6.003,0 C 3.794,22.5 2,20.709 2,18.5 2,16.607 3.317,15.018 5.087,14.604 5.029,14.245 5,13.876 5,13.5 c 0,-3.866 3.134,-7 7,-7 3.162,0 5.834,2.097 6.702,4.975 0.769,-0.611 1.739,-0.975 2.798,-0.975 2.316,0 4.225,1.75 4.473,4 l 0.03,0 c 2.203,0 3.997,1.791 3.997,4 0,2.205 -1.789,4 -3.997,4 l -6.003,0 0,2 6,0 c 3.312,0 6,-2.693 6,-6 0,-2.765 -1.87,-5.093 -4.414,-5.788 z"
         id="path4224"
         inkscape:connector-curvature="0" /><polygon
         style="fill:#bfbfbf;fill-opacity:1"
         points="14,27.5 18,27.5 18,19.5 21,19.5 16,13.5 11,19.5 14,19.5 "
         id="polygon4226" /></g></g><g
     id="g4228"
     style="fill:#bfbfbf;fill-opacity:1" /><g
     id="g4230"
     style="fill:#bfbfbf;fill-opacity:1" /><g
     id="g4232"
     style="fill:#bfbfbf;fill-opacity:1" /><g
     id="g4234"
     style="fill:#bfbfbf;fill-opacity:1" /><g
     id="g4236"
     style="fill:#bfbfbf;fill-opacity:1" /><g
     id="g4238"
     style="fill:#bfbfbf;fill-opacity:1" /><g
     id="g4240"
     style="fill:#bfbfbf;fill-opacity:1" /><g
     id="g4242"
     style="fill:#bfbfbf;fill-opacity:1" /><g
     id="g4244"
     style="fill:#bfbfbf;fill-opacity:1" /><g
     id="g4246"
     style="fill:#bfbfbf;fill-opacity:1" /><g
     id="g4248"
     style="fill:#bfbfbf;fill-opacity:1" /><g
     id="g4250"
     style="fill:#bfbfbf;fill-opacity:1" /><g
     id="g4252"
     style="fill:#bfbfbf;fill-opacity:1" /><g
     id="g4254"
     style="fill:#bfbfbf;fill-opacity:1" /><g
     id="g4256"
     style="fill:#bfbfbf;fill-opacity:1" /></svg>
