<?xml version="1.0" encoding="UTF-8" standalone="no"?>
<!-- Created with Inkscape (http://www.inkscape.org/) -->

<svg
   xmlns:dc="http://purl.org/dc/elements/1.1/"
   xmlns:cc="http://creativecommons.org/ns#"
   xmlns:rdf="http://www.w3.org/1999/02/22-rdf-syntax-ns#"
   xmlns:svg="http://www.w3.org/2000/svg"
   xmlns="http://www.w3.org/2000/svg"
   xmlns:sodipodi="http://sodipodi.sourceforge.net/DTD/sodipodi-0.dtd"
   xmlns:inkscape="http://www.inkscape.org/namespaces/inkscape"
   width="13"
   height="13"
   id="svg2"
   version="1.1"
   inkscape:version="0.48+devel r"
   viewBox="0 0 13 13"
   sodipodi:docname="admin.svg">
  <defs
     id="defs4" />
  <sodipodi:namedview
     id="base"
     pagecolor="#ffffff"
     bordercolor="#666666"
     borderopacity="1.0"
     inkscape:pageopacity="0.0"
     inkscape:pageshadow="2"
     inkscape:zoom="48.028075"
     inkscape:cx="6.3532989"
     inkscape:cy="3.9508142"
     inkscape:document-units="px"
     inkscape:current-layer="layer1"
     showgrid="false"
     inkscape:window-width="1855"
     inkscape:window-height="1056"
     inkscape:window-x="65"
     inkscape:window-y="24"
     inkscape:window-maximized="1" />
  <metadata
     id="metadata7">
    <rdf:RDF>
      <cc:Work
         rdf:about="">
        <dc:format>image/svg+xml</dc:format>
        <dc:type
           rdf:resource="http://purl.org/dc/dcmitype/StillImage" />
        <dc:title></dc:title>
      </cc:Work>
    </rdf:RDF>
  </metadata>
  <g
     inkscape:label="Layer 1"
     inkscape:groupmode="layer"
     id="layer1"
     transform="translate(0,-1039.3622)">
    <path
       sodipodi:type="star"
       style="color:#000000;color-interpolation:sRGB;color-interpolation-filters:linearRGB;fill:#000000;fill-opacity:0.86802027;fill-rule:nonzero;stroke:none;stroke-width:1;paint-order:normal;marker:none;visibility:visible;display:inline;overflow:visible;isolation:auto;mix-blend-mode:normal;enable-background:accumulate;clip-rule:nonzero;color-rendering:auto;image-rendering:auto;shape-rendering:auto;text-rendering:auto"
       id="path7911"
       sodipodi:sides="5"
       sodipodi:cx="3.6645234"
       sodipodi:cy="1042.6179"
       sodipodi:r1="3.172621"
       sodipodi:r2="1.5863107"
       sodipodi:arg1="1.5707963"
       sodipodi:arg2="2.1991149"
       inkscape:flatsided="false"
       inkscape:rounded="0.02"
       inkscape:randomized="0"
       d="m 3.6645234,1045.7905 c -0.042137,0 -0.898321,-1.8645 -0.9324102,-1.8892 -0.034089,-0.025 -2.07191079,-0.2629 -2.0849317,-0.303 -0.0130209,-0.04 1.4956498,-1.4305 1.5086707,-1.4706 0.013021,-0.04 -0.3902379,-2.0517 -0.3561487,-2.0765 0.034089,-0.025 1.8226834,0.9804 1.8648199,0.9804 0.042137,0 1.8307305,-1.0052 1.8648197,-0.9804 0.034089,0.025 -0.3691695,2.0364 -0.3561485,2.0765 0.013021,0.04 1.5216916,1.4305 1.5086707,1.4706 -0.013021,0.04 -2.0508427,0.2782 -2.0849319,0.303 -0.034089,0.025 -0.8902734,1.8892 -0.93241,1.8892 z"
       inkscape:transform-center-y="0.30273321" />
    <path
       sodipodi:type="star"
       style="color:#000000;color-interpolation:sRGB;color-interpolation-filters:linearRGB;fill:#000000;fill-opacity:0.86802027;fill-rule:nonzero;stroke:none;stroke-width:1;paint-order:normal;marker:none;visibility:visible;display:inline;overflow:visible;isolation:auto;mix-blend-mode:normal;enable-background:accumulate;clip-rule:nonzero;color-rendering:auto;image-rendering:auto;shape-rendering:auto;text-rendering:auto"
       id="path7911-9"
       sodipodi:sides="5"
       sodipodi:cx="9.4944467"
       sodipodi:cy="1044.4806"
       sodipodi:r1="3.172621"
       sodipodi:r2="1.5863107"
       sodipodi:arg1="1.5707963"
       sodipodi:arg2="2.1991149"
       inkscape:flatsided="false"
       inkscape:rounded="0.02"
       inkscape:randomized="0"
       d="m 9.4944468,1047.6532 c -0.042136,0 -0.898321,-1.8645 -0.9324102,-1.8893 -0.034089,-0.025 -2.0719108,-0.2628 -2.0849317,-0.3029 -0.013021,-0.04 1.4956498,-1.4305 1.5086707,-1.4706 0.013021,-0.04 -0.390238,-2.0517 -0.3561488,-2.0765 0.034089,-0.025 1.8226835,0.9804 1.86482,0.9804 0.042137,0 1.8307302,-1.0052 1.8648202,-0.9804 0.03409,0.025 -0.36917,2.0364 -0.356149,2.0765 0.01302,0.04 1.521692,1.4305 1.508671,1.4706 -0.01302,0.04 -2.050843,0.2782 -2.084932,0.3029 -0.03409,0.025 -0.8902736,1.8893 -0.9324102,1.8893 z"
       inkscape:transform-center-y="0.30273321" />
    <path
       sodipodi:type="star"
       style="color:#000000;color-interpolation:sRGB;color-interpolation-filters:linearRGB;fill:#000000;fill-opacity:0.86802027;fill-rule:nonzero;stroke:none;stroke-width:1;paint-order:normal;marker:none;visibility:visible;display:inline;overflow:visible;isolation:auto;mix-blend-mode:normal;enable-background:accumulate;clip-rule:nonzero;color-rendering:auto;image-rendering:auto;shape-rendering:auto;text-rendering:auto"
       id="path7911-1"
       sodipodi:sides="5"
       sodipodi:cx="4.5181904"
       sodipodi:cy="1048.6031"
       sodipodi:r1="3.172621"
       sodipodi:r2="1.5863107"
       sodipodi:arg1="1.5707963"
       sodipodi:arg2="2.1991149"
       inkscape:flatsided="false"
       inkscape:rounded="0.02"
       inkscape:randomized="0"
       d="m 4.5181905,1051.7758 c -0.042137,0 -0.898321,-1.8645 -0.9324102,-1.8893 -0.034089,-0.025 -2.0719109,-0.2629 -2.0849318,-0.303 -0.013021,-0.04 1.4956498,-1.4305 1.5086707,-1.4705 0.013021,-0.04 -0.3902379,-2.0518 -0.3561487,-2.0766 0.034089,-0.025 1.8226834,0.9804 1.86482,0.9804 0.042136,0 1.8307305,-1.0051 1.8648197,-0.9804 0.034089,0.025 -0.3691695,2.0365 -0.3561486,2.0766 0.013021,0.04 1.5216916,1.4305 1.5086707,1.4705 -0.013021,0.04 -2.0508427,0.2782 -2.0849319,0.303 -0.034089,0.025 -0.8902734,1.8893 -0.9324099,1.8893 z"
       inkscape:transform-center-y="0.30273321" />
  </g>
</svg>
