<?xml version="1.0" encoding="UTF-8" standalone="no"?>
<!-- Created with Inkscape (http://www.inkscape.org/) -->

<svg
   xmlns:dc="http://purl.org/dc/elements/1.1/"
   xmlns:cc="http://creativecommons.org/ns#"
   xmlns:rdf="http://www.w3.org/1999/02/22-rdf-syntax-ns#"
   xmlns:svg="http://www.w3.org/2000/svg"
   xmlns="http://www.w3.org/2000/svg"
   xmlns:sodipodi="http://sodipodi.sourceforge.net/DTD/sodipodi-0.dtd"
   xmlns:inkscape="http://www.inkscape.org/namespaces/inkscape"
   width="32"
   height="32"
   viewBox="0 0 32 32"
   version="1.1"
   id="svg8"
   inkscape:version="0.91+devel r14774 custom"
   sodipodi:docname="fullscreen.svg">
  <defs
     id="defs2" />
  <sodipodi:namedview
     id="base"
     pagecolor="#ffffff"
     bordercolor="#666666"
     borderopacity="1.0"
     inkscape:pageopacity="0.0"
     inkscape:pageshadow="2"
     inkscape:zoom="5.5873899"
     inkscape:cx="17.180756"
     inkscape:cy="38.79952"
     inkscape:document-units="px"
     inkscape:current-layer="svg8"
     showgrid="false"
     units="px"
     inkscape:window-width="1855"
     inkscape:window-height="1056"
     inkscape:window-x="65"
     inkscape:window-y="24"
     inkscape:window-maximized="1"
     inkscape:snap-to-guides="false" />
  <metadata
     id="metadata5">
    <rdf:RDF>
      <cc:Work
         rdf:about="">
        <dc:format>image/svg+xml</dc:format>
        <dc:type
           rdf:resource="http://purl.org/dc/dcmitype/StillImage" />
        <dc:title></dc:title>
      </cc:Work>
    </rdf:RDF>
  </metadata>
  <g
     inkscape:label="Layer 1"
     inkscape:groupmode="layer"
     id="layer1"
     style="opacity:1">
    <rect
       style="opacity:1;fill:#ff7300;fill-opacity:1;fill-rule:evenodd;stroke:none;stroke-width:40.00252151;stroke-linecap:round;stroke-linejoin:round;stroke-miterlimit:4;stroke-dasharray:none;stroke-dashoffset:0;stroke-opacity:1"
       id="rect3134"
       width="32"
       height="32"
       x="0"
       y="0"
       ry="2.0375838" />
    <path
       style="color:#000000;font-style:normal;font-variant:normal;font-weight:normal;font-stretch:normal;font-size:medium;line-height:normal;font-family:sans-serif;font-variant-ligatures:normal;font-variant-position:normal;font-variant-caps:normal;font-variant-numeric:normal;font-variant-alternates:normal;font-feature-settings:normal;text-indent:0;text-align:start;text-decoration:none;text-decoration-line:none;text-decoration-style:solid;text-decoration-color:#000000;letter-spacing:normal;word-spacing:normal;text-transform:none;writing-mode:lr-tb;direction:ltr;text-orientation:mixed;dominant-baseline:auto;baseline-shift:baseline;text-anchor:start;white-space:normal;shape-padding:0;clip-rule:nonzero;display:inline;overflow:visible;visibility:visible;opacity:1;isolation:auto;mix-blend-mode:normal;color-interpolation:sRGB;color-interpolation-filters:linearRGB;solid-color:#000000;solid-opacity:1;fill:#ffffff;fill-opacity:1;fill-rule:evenodd;stroke:none;stroke-width:3.70260906;stroke-linecap:butt;stroke-linejoin:round;stroke-miterlimit:4;stroke-dasharray:none;stroke-dashoffset:0;stroke-opacity:1;color-rendering:auto;image-rendering:auto;shape-rendering:auto;text-rendering:auto;enable-background:accumulate"
       d="m 28.820312,2.0156174 c -0.07154,-0.008 -0.15136,10e-4 -0.242188,0.0312 -3.512954,1.15646 -7.026046,2.31248 -10.539062,3.46875 -0.363787,0.11974 -0.426464,0.42479 -0.140624,0.67969 0.883708,0.78805 1.76518,1.57863 2.648438,2.36719 C 17.178838,11.861277 13.397274,15.565527 8.6054688,20.257757 7.7110574,19.458517 6.8162514,18.658597 5.921875,17.859317 5.6366922,17.604457 5.3438088,17.703677 5.265625,18.078067 4.5095528,21.698657 3.7539748,25.316517 3,28.937497 c -0.078012,0.37465 0.152124,0.58451 0.515625,0.46484 3.512969,-1.15646 7.026032,-2.31638 10.539063,-3.47265 0.36355,-0.11966 0.430017,-0.42087 0.144532,-0.67579 -0.942198,-0.84132 -1.886123,-1.68189 -2.828126,-2.52343 4.772154,-4.67278 8.598215,-8.41781 11.945312,-11.69532 0.95175,0.85034 1.903828,1.70033 2.85547,2.55078 0.285264,0.25494 0.578392,0.15583 0.656248,-0.21875 0.752422,-3.6200596 1.50965,-7.2361396 2.265626,-10.8554596 0.05866,-0.28079 -0.05884,-0.47091 -0.273438,-0.4961 z"
       id="path3136"
       inkscape:connector-curvature="0" />
  </g>
</svg>
