<?xml version="1.0" encoding="UTF-8" standalone="no"?>
<svg
   xmlns:dc="http://purl.org/dc/elements/1.1/"
   xmlns:cc="http://creativecommons.org/ns#"
   xmlns:rdf="http://www.w3.org/1999/02/22-rdf-syntax-ns#"
   xmlns:svg="http://www.w3.org/2000/svg"
   xmlns="http://www.w3.org/2000/svg"
   xmlns:sodipodi="http://sodipodi.sourceforge.net/DTD/sodipodi-0.dtd"
   xmlns:inkscape="http://www.inkscape.org/namespaces/inkscape"
   height="190"
   width="190"
   style="background-color: #2f61a7;"
   sodipodi:docname="team.svg"
   inkscape:version="0.91 r"
   version="1.1"
   viewBox="0 0 190 190"
   id="svg2">
  <title
     id="title3419">Team logo</title>
  <sodipodi:namedview
     inkscape:document-units="ft"
     inkscape:snap-midpoints="false"
     inkscape:snap-smooth-nodes="false"
     inkscape:object-nodes="true"
     inkscape:object-paths="true"
     inkscape:snap-center="true"
     inkscape:snap-object-midpoints="true"
     inkscape:snap-bbox-midpoints="false"
     inkscape:bbox-nodes="true"
     inkscape:snap-bbox="true"
     inkscape:guide-bbox="true"
     showguides="true"
     inkscape:current-layer="g4844"
     inkscape:window-maximized="1"
     inkscape:window-y="24"
     inkscape:window-x="65"
     inkscape:cy="95"
     inkscape:cx="95"
     inkscape:zoom="4.0210526"
     inkscape:showpageshadow="false"
     borderlayer="true"
     showgrid="false"
     id="namedview9"
     inkscape:window-height="1056"
     inkscape:window-width="1855"
     inkscape:pageshadow="2"
     inkscape:pageopacity="1"
     guidetolerance="10"
     gridtolerance="10"
     objecttolerance="10"
     borderopacity="1"
     bordercolor="#666666"
     pagecolor="#2f61a7" />
  <defs
     id="defs11" />
  <metadata
     id="metadata7">
    <rdf:RDF>
      <cc:Work>
        <dc:format>image/svg+xml</dc:format>
        <dc:type
           rdf:resource="http://purl.org/dc/dcmitype/StillImage" />
        <cc:license
           rdf:resource="http://creativecommons.org/publicdomain/zero/1.0/" />
        <dc:publisher>
          <cc:Agent
             rdf:about="http://openclipart.org/">
            <dc:title></dc:title>
          </cc:Agent>
        </dc:publisher>
        <dc:title>Team logo</dc:title>
        <dc:date>2015-08-27</dc:date>
        <dc:description></dc:description>
        <dc:source></dc:source>
        <dc:creator>
          <cc:Agent>
            <dc:title>Moini</dc:title>
          </cc:Agent>
        </dc:creator>
        <dc:subject>
          <rdf:Bag />
        </dc:subject>
      </cc:Work>
      <cc:License
         rdf:about="http://creativecommons.org/publicdomain/zero/1.0/">
        <cc:permits
           rdf:resource="http://creativecommons.org/ns#Reproduction" />
        <cc:permits
           rdf:resource="http://creativecommons.org/ns#Distribution" />
        <cc:permits
           rdf:resource="http://creativecommons.org/ns#DerivativeWorks" />
      </cc:License>
    </rdf:RDF>
  </metadata>
  <g
     id="g4864"
     transform="translate(-3.5e-6,-10e-7)">
    <g
       id="g4844"
       transform="matrix(0.8660254,0.5,-0.5,0.8660254,60.227588,-34.772415)">
      <g
         id="g4824"
         style="color:#000000;clip-rule:nonzero;display:inline;overflow:visible;visibility:visible;opacity:1;isolation:auto;mix-blend-mode:normal;color-interpolation:sRGB;color-interpolation-filters:linearRGB;solid-color:#000000;solid-opacity:1;fill:#aad400;fill-opacity:1;fill-rule:nonzero;stroke:none;stroke-width:0.45454547;stroke-linecap:butt;stroke-linejoin:miter;stroke-miterlimit:4;stroke-dasharray:none;stroke-dashoffset:0;stroke-opacity:1;marker:none;marker-start:none;marker-mid:none;marker-end:none;filter-blend-mode:normal;filter-gaussianBlur-deviation:0;color-rendering:auto;image-rendering:auto;shape-rendering:auto;text-rendering:auto;enable-background:accumulate">
        <path
           sodipodi:nodetypes="scssscsss"
           inkscape:connector-curvature="0"
           id="rect4508"
           d="M 66.883349,101.30122 94.939284,90.301224 122.99522,101.30122 c 3.74683,1.46904 7.26448,3.23996 7.26448,7.26449 0,4.02452 -3.51765,8.73351 -7.26448,7.26448 l -28.055936,-11 -28.055935,11 c -3.746829,1.46903 -7.264483,-3.23996 -7.264483,-7.26448 0,-4.02453 3.517654,-5.79545 7.264483,-7.26449 z"
           style="color:#000000;clip-rule:nonzero;display:inline;overflow:visible;visibility:visible;opacity:1;isolation:auto;mix-blend-mode:normal;color-interpolation:sRGB;color-interpolation-filters:linearRGB;solid-color:#000000;solid-opacity:1;fill:#aad400;fill-opacity:1;fill-rule:nonzero;stroke:none;stroke-width:0.57336877;stroke-linecap:butt;stroke-linejoin:miter;stroke-miterlimit:4;stroke-dasharray:none;stroke-dashoffset:0;stroke-opacity:1;marker:none;marker-start:none;marker-mid:none;marker-end:none;color-rendering:auto;image-rendering:auto;shape-rendering:auto;text-rendering:auto;enable-background:accumulate;filter-blend-mode:normal;filter-gaussianBlur-deviation:0"
           transform="matrix(0.39638144,0.68655278,-0.68655278,0.39638144,183.05294,-42.707093)" />
        <circle
           transform="matrix(0.55,0.95262794,-0.95262794,0.55,160.76629,-71.513687)"
           r="11.021976"
           cy="67.25528"
           cx="101.20177"
           id="path4506"
           style="color:#000000;clip-rule:nonzero;display:inline;overflow:visible;visibility:visible;opacity:1;isolation:auto;mix-blend-mode:normal;color-interpolation:sRGB;color-interpolation-filters:linearRGB;solid-color:#000000;solid-opacity:1;fill:#aad400;fill-opacity:1;fill-rule:nonzero;stroke:none;stroke-width:0.41322316;stroke-linecap:butt;stroke-linejoin:miter;stroke-miterlimit:4;stroke-dasharray:none;stroke-dashoffset:0;stroke-opacity:1;marker:none;marker-start:none;marker-mid:none;marker-end:none;color-rendering:auto;image-rendering:auto;shape-rendering:auto;text-rendering:auto;enable-background:accumulate;filter-blend-mode:normal;filter-gaussianBlur-deviation:0" />
      </g>
      <g
         id="g4828"
         style="color:#000000;clip-rule:nonzero;display:inline;overflow:visible;visibility:visible;opacity:1;isolation:auto;mix-blend-mode:normal;color-interpolation:sRGB;color-interpolation-filters:linearRGB;solid-color:#000000;solid-opacity:1;fill:#c87137;fill-opacity:1;fill-rule:nonzero;stroke:none;stroke-width:0.45454547;stroke-linecap:butt;stroke-linejoin:miter;stroke-miterlimit:4;stroke-dasharray:none;stroke-dashoffset:0;stroke-opacity:1;marker:none;marker-start:none;marker-mid:none;marker-end:none;filter-blend-mode:normal;filter-gaussianBlur-deviation:0;color-rendering:auto;image-rendering:auto;shape-rendering:auto;text-rendering:auto;enable-background:accumulate">
        <path
           transform="matrix(-0.39638144,0.68655278,-0.68655278,-0.39638144,258.28431,102.40253)"
           style="color:#000000;clip-rule:nonzero;display:inline;overflow:visible;visibility:visible;opacity:1;isolation:auto;mix-blend-mode:normal;color-interpolation:sRGB;color-interpolation-filters:linearRGB;solid-color:#000000;solid-opacity:1;fill:#c87137;fill-opacity:1;fill-rule:nonzero;stroke:none;stroke-width:0.57336877;stroke-linecap:butt;stroke-linejoin:miter;stroke-miterlimit:4;stroke-dasharray:none;stroke-dashoffset:0;stroke-opacity:1;marker:none;marker-start:none;marker-mid:none;marker-end:none;color-rendering:auto;image-rendering:auto;shape-rendering:auto;text-rendering:auto;enable-background:accumulate;filter-blend-mode:normal;filter-gaussianBlur-deviation:0"
           d="M 66.883349,101.30122 94.939284,90.301224 122.99522,101.30122 c 3.74683,1.46904 7.26448,3.23996 7.26448,7.26449 0,4.02452 -3.51765,8.73351 -7.26448,7.26448 l -28.055936,-11 -28.055935,11 c -3.746829,1.46903 -7.264483,-3.23996 -7.264483,-7.26448 0,-4.02453 3.517654,-5.79545 7.264483,-7.26449 z"
           id="path4547"
           inkscape:connector-curvature="0"
           sodipodi:nodetypes="scssscsss" />
        <circle
           style="color:#000000;clip-rule:nonzero;display:inline;overflow:visible;visibility:visible;opacity:1;isolation:auto;mix-blend-mode:normal;color-interpolation:sRGB;color-interpolation-filters:linearRGB;solid-color:#000000;solid-opacity:1;fill:#c87137;fill-opacity:1;fill-rule:nonzero;stroke:none;stroke-width:0.41322316;stroke-linecap:butt;stroke-linejoin:miter;stroke-miterlimit:4;stroke-dasharray:none;stroke-dashoffset:0;stroke-opacity:1;marker:none;marker-start:none;marker-mid:none;marker-end:none;color-rendering:auto;image-rendering:auto;shape-rendering:auto;text-rendering:auto;enable-background:accumulate;filter-blend-mode:normal;filter-gaussianBlur-deviation:0"
           id="circle4545"
           cx="101.20177"
           cy="67.25528"
           r="11.021976"
           transform="matrix(-0.55,0.95262794,-0.95262794,-0.55,272.08822,68.698429)" />
      </g>
      <g
         id="g4832"
         style="color:#000000;clip-rule:nonzero;display:inline;overflow:visible;visibility:visible;opacity:1;isolation:auto;mix-blend-mode:normal;color-interpolation:sRGB;color-interpolation-filters:linearRGB;solid-color:#000000;solid-opacity:1;fill:#1fad91;fill-opacity:1;fill-rule:nonzero;stroke:none;stroke-width:0.5;stroke-linecap:butt;stroke-linejoin:miter;stroke-miterlimit:4;stroke-dasharray:none;stroke-dashoffset:0;stroke-opacity:1;marker:none;marker-start:none;marker-mid:none;marker-end:none;filter-blend-mode:normal;filter-gaussianBlur-deviation:0;color-rendering:auto;image-rendering:auto;shape-rendering:auto;text-rendering:auto;enable-background:accumulate">
        <path
           sodipodi:nodetypes="scssscsss"
           inkscape:connector-curvature="0"
           id="path4573"
           d="M 66.883349,101.30122 94.939284,90.301224 122.99522,101.30122 c 3.74683,1.46904 7.26448,3.23996 7.26448,7.26449 0,4.02452 -3.51765,8.73351 -7.26448,7.26448 l -28.055936,-11 -28.055935,11 c -3.746829,1.46903 -7.264483,-3.23996 -7.264483,-7.26448 0,-4.02453 3.517654,-5.79545 7.264483,-7.26449 z"
           style="color:#000000;clip-rule:nonzero;display:inline;overflow:visible;visibility:visible;opacity:1;isolation:auto;mix-blend-mode:normal;color-interpolation:sRGB;color-interpolation-filters:linearRGB;solid-color:#000000;solid-opacity:1;fill:#1fad91;fill-opacity:1;fill-rule:nonzero;stroke:none;stroke-width:0.63070563;stroke-linecap:butt;stroke-linejoin:miter;stroke-miterlimit:4;stroke-dasharray:none;stroke-dashoffset:0;stroke-opacity:1;marker:none;marker-start:none;marker-mid:none;marker-end:none;color-rendering:auto;image-rendering:auto;shape-rendering:auto;text-rendering:auto;enable-background:accumulate;filter-blend-mode:normal;filter-gaussianBlur-deviation:0"
           transform="matrix(0.79276287,0,0,-0.79276287,19.768623,240.10963)" />
        <circle
           transform="matrix(1.1,0,0,-1.1,-16.321944,235.21212)"
           r="11.021976"
           cy="67.25528"
           cx="101.20177"
           id="circle4571"
           style="color:#000000;clip-rule:nonzero;display:inline;overflow:visible;visibility:visible;opacity:1;isolation:auto;mix-blend-mode:normal;color-interpolation:sRGB;color-interpolation-filters:linearRGB;solid-color:#000000;solid-opacity:1;fill:#1fad91;fill-opacity:1;fill-rule:nonzero;stroke:none;stroke-width:0.45454546;stroke-linecap:butt;stroke-linejoin:miter;stroke-miterlimit:4;stroke-dasharray:none;stroke-dashoffset:0;stroke-opacity:1;marker:none;marker-start:none;marker-mid:none;marker-end:none;color-rendering:auto;image-rendering:auto;shape-rendering:auto;text-rendering:auto;enable-background:accumulate;filter-blend-mode:normal;filter-gaussianBlur-deviation:0" />
      </g>
      <g
         id="g4836"
         style="color:#000000;clip-rule:nonzero;display:inline;overflow:visible;visibility:visible;opacity:1;isolation:auto;mix-blend-mode:normal;color-interpolation:sRGB;color-interpolation-filters:linearRGB;solid-color:#000000;solid-opacity:1;fill:#ffcc00;fill-opacity:1;fill-rule:nonzero;stroke-width:0.5;stroke-linecap:butt;stroke-linejoin:miter;stroke-miterlimit:4;stroke-dasharray:none;stroke-dashoffset:0;stroke-opacity:1;filter-blend-mode:normal;filter-gaussianBlur-deviation:0;color-rendering:auto;image-rendering:auto;shape-rendering:auto;text-rendering:auto;enable-background:accumulate;stroke:none;marker:none;marker-start:none;marker-mid:none;marker-end:none">
        <path
           sodipodi:nodetypes="scssscsss"
           inkscape:connector-curvature="0"
           id="path4586"
           d="M 66.883349,101.30122 94.939284,90.301224 122.99522,101.30122 c 3.74683,1.46904 7.26448,3.23996 7.26448,7.26449 0,4.02452 -3.51765,8.73351 -7.26448,7.26448 l -28.055936,-11 -28.055935,11 c -3.746829,1.46903 -7.264483,-3.23996 -7.264483,-7.26448 0,-4.02453 3.517654,-5.79545 7.264483,-7.26449 z"
           style="color:#000000;clip-rule:nonzero;display:inline;overflow:visible;visibility:visible;opacity:1;isolation:auto;mix-blend-mode:normal;color-interpolation:sRGB;color-interpolation-filters:linearRGB;solid-color:#000000;solid-opacity:1;fill:#ffcc00;fill-opacity:1;fill-rule:nonzero;stroke:none;stroke-width:0.63070563;stroke-linecap:butt;stroke-linejoin:miter;stroke-miterlimit:4;stroke-dasharray:none;stroke-dashoffset:0;stroke-opacity:1;marker:none;marker-start:none;marker-mid:none;marker-end:none;color-rendering:auto;image-rendering:auto;shape-rendering:auto;text-rendering:auto;enable-background:accumulate;filter-blend-mode:normal;filter-gaussianBlur-deviation:0"
           transform="matrix(0.39638144,0.68655278,0.68655278,-0.39638144,-68.284306,102.40253)" />
        <circle
           transform="matrix(0.55,0.95262794,0.95262794,-0.55,-82.088221,68.698428)"
           r="11.021976"
           cy="67.25528"
           cx="101.20177"
           id="circle4584"
           style="color:#000000;clip-rule:nonzero;display:inline;overflow:visible;visibility:visible;opacity:1;isolation:auto;mix-blend-mode:normal;color-interpolation:sRGB;color-interpolation-filters:linearRGB;solid-color:#000000;solid-opacity:1;fill:#ffcc00;fill-opacity:1;fill-rule:nonzero;stroke:none;stroke-width:0.45454546;stroke-linecap:butt;stroke-linejoin:miter;stroke-miterlimit:4;stroke-dasharray:none;stroke-dashoffset:0;stroke-opacity:1;marker:none;marker-start:none;marker-mid:none;marker-end:none;color-rendering:auto;image-rendering:auto;shape-rendering:auto;text-rendering:auto;enable-background:accumulate;filter-blend-mode:normal;filter-gaussianBlur-deviation:0" />
      </g>
      <g
         id="g4840">
        <path
           transform="matrix(-0.39638144,0.68655278,0.68655278,0.39638144,6.9470659,-42.707094)"
           style="color:#000000;clip-rule:nonzero;display:inline;overflow:visible;visibility:visible;opacity:1;isolation:auto;mix-blend-mode:normal;color-interpolation:sRGB;color-interpolation-filters:linearRGB;solid-color:#000000;solid-opacity:1;fill:#4690ff;fill-opacity:1;fill-rule:nonzero;stroke:none;stroke-width:0.5;stroke-linecap:butt;stroke-linejoin:miter;stroke-miterlimit:4;stroke-dasharray:none;stroke-dashoffset:0;stroke-opacity:1;marker:none;marker-start:none;marker-mid:none;marker-end:none;color-rendering:auto;image-rendering:auto;shape-rendering:auto;text-rendering:auto;enable-background:accumulate"
           d="M 66.883349,101.30122 94.939284,90.301224 122.99522,101.30122 c 3.74683,1.46904 7.26448,3.23996 7.26448,7.26449 0,4.02452 -3.51765,8.73351 -7.26448,7.26448 l -28.055936,-11 -28.055935,11 c -3.746829,1.46903 -7.264483,-3.23996 -7.264483,-7.26448 0,-4.02453 3.517654,-5.79545 7.264483,-7.26449 z"
           id="path4580"
           inkscape:connector-curvature="0"
           sodipodi:nodetypes="scssscsss" />
        <circle
           style="color:#000000;clip-rule:nonzero;display:inline;overflow:visible;visibility:visible;opacity:1;isolation:auto;mix-blend-mode:normal;color-interpolation:sRGB;color-interpolation-filters:linearRGB;solid-color:#000000;solid-opacity:1;fill:#4690ff;fill-opacity:1;fill-rule:nonzero;stroke:none;stroke-width:0.5;stroke-linecap:butt;stroke-linejoin:miter;stroke-miterlimit:4;stroke-dasharray:none;stroke-dashoffset:0;stroke-opacity:1;marker:none;marker-start:none;marker-mid:none;marker-end:none;color-rendering:auto;image-rendering:auto;shape-rendering:auto;text-rendering:auto;enable-background:accumulate"
           id="circle4578"
           cx="101.20177"
           cy="67.25528"
           r="11.021976"
           transform="matrix(-0.55,0.95262794,0.95262794,0.55,29.233717,-71.513688)" />
      </g>
      <g
         id="g4820">
        <path
           transform="matrix(0.79276287,0,0,0.79276287,19.768623,-50.109628)"
           style="color:#000000;clip-rule:nonzero;display:inline;overflow:visible;visibility:visible;opacity:1;isolation:auto;mix-blend-mode:normal;color-interpolation:sRGB;color-interpolation-filters:linearRGB;solid-color:#000000;solid-opacity:1;fill:#d43e3e;fill-opacity:1;fill-rule:nonzero;stroke:none;stroke-width:0.5;stroke-linecap:butt;stroke-linejoin:miter;stroke-miterlimit:4;stroke-dasharray:none;stroke-dashoffset:0;stroke-opacity:1;marker:none;marker-start:none;marker-mid:none;marker-end:none;color-rendering:auto;image-rendering:auto;shape-rendering:auto;text-rendering:auto;enable-background:accumulate"
           d="M 66.883349,101.30122 94.939284,90.301224 122.99522,101.30122 c 3.74683,1.46904 7.26448,3.23996 7.26448,7.26449 0,4.02452 -3.51765,8.73351 -7.26448,7.26448 l -28.055936,-11 -28.055935,11 c -3.746829,1.46903 -7.264483,-3.23996 -7.264483,-7.26448 0,-4.02453 3.517654,-5.79545 7.264483,-7.26449 z"
           id="path4541"
           inkscape:connector-curvature="0"
           sodipodi:nodetypes="scssscsss" />
        <circle
           style="color:#000000;clip-rule:nonzero;display:inline;overflow:visible;visibility:visible;opacity:1;isolation:auto;mix-blend-mode:normal;color-interpolation:sRGB;color-interpolation-filters:linearRGB;solid-color:#000000;solid-opacity:1;fill:#d43e3e;fill-opacity:1;fill-rule:nonzero;stroke:none;stroke-width:0.5;stroke-linecap:butt;stroke-linejoin:miter;stroke-miterlimit:4;stroke-dasharray:none;stroke-dashoffset:0;stroke-opacity:1;marker:none;marker-start:none;marker-mid:none;marker-end:none;color-rendering:auto;image-rendering:auto;shape-rendering:auto;text-rendering:auto;enable-background:accumulate"
           id="circle4539"
           cx="101.20177"
           cy="67.25528"
           r="11.021976"
           transform="matrix(1.1,0,0,1.1,-16.321944,-45.212118)" />
      </g>
    </g>
    <path
       transform="matrix(1.1572929,0,0,1.1572929,-14.942995,-14.942916)"
       sodipodi:nodetypes="cccccccccccccccccccccccccccccccccccccccccccccccccccccccccccccccccccccccccccccccccccccccccccccccccsssss"
       inkscape:connector-curvature="0"
       id="path3995"
       d="m 92.923895,62.310547 -1.812567,3.150391 0.0059,0.455078 0.397412,2.974609 -6.552209,1.75513 -1.142079,-2.772708 -0.222656,-0.398438 -3.145116,-1.82168 -3.594533,2.074265 0.0053,3.636087 0.232422,0.390625 1.830452,2.377242 -4.795007,4.795007 -2.377242,-1.830452 -0.390625,-0.232422 -3.636087,-0.0053 -2.074265,3.594533 1.82168,3.145116 0.398438,0.222656 2.772708,1.142079 -1.75513,6.552209 -2.974609,-0.397412 -0.455078,-0.0059 -3.150391,1.812567 0,4.15221 3.150391,1.812567 0.455078,-0.0059 2.974609,-0.39743 1.75513,6.552214 -2.772708,1.14209 -0.398438,0.22265 -1.82168,3.14512 2.074265,3.59453 3.636087,-0.005 0.390625,-0.23242 2.377242,-1.83045 4.795007,4.795 -1.830452,2.37724 -0.232422,0.39063 -0.0053,3.63609 3.594533,2.07426 3.145116,-1.82168 0.222656,-0.39844 1.142079,-2.7727 6.552209,1.75513 -0.397412,2.9746 -0.0059,0.45508 1.812567,3.15039 4.15221,0 1.812567,-3.15039 -0.0059,-0.45508 -0.39743,-2.9746 6.552208,-1.75513 1.1421,2.7727 0.22265,0.39844 3.14512,1.82168 3.59453,-2.07426 -0.005,-3.63609 -0.23242,-0.39063 -1.83046,-2.37724 4.79501,-4.795 2.37724,1.83045 0.39063,0.23242 3.63609,0.005 2.07426,-3.59453 -1.82168,-3.14512 -0.39844,-0.22265 -2.7727,-1.14209 1.75513,-6.552214 2.9746,0.39743 0.45508,0.0059 3.15039,-1.812567 0,-4.15221 -3.15039,-1.812567 -0.45508,0.0059 -2.9746,0.397412 -1.75513,-6.552209 2.7727,-1.142079 0.39844,-0.222656 1.82168,-3.145116 -2.07426,-3.594533 -3.63609,0.0053 -0.39063,0.232422 -2.37724,1.830452 -4.79501,-4.795007 1.83046,-2.377242 0.23242,-0.390625 0.005,-3.636087 -3.59453,-2.074265 -3.14512,1.82168 -0.22265,0.398438 -1.1421,2.772708 -6.552208,-1.75513 0.39743,-2.974609 0.0059,-0.455078 -1.812567,-3.150391 z M 95,79.5 c 8.56041,0 15.5,6.939586 15.5,15.5 0,8.56041 -6.93959,15.5 -15.5,15.5 -8.560414,0 -15.5,-6.93959 -15.5,-15.5 0,-8.560414 6.939586,-15.5 15.5,-15.5 z"
       style="fill:#95e1ff;fill-opacity:1;stroke:none;stroke-width:1" />
  </g>
</svg>
