<?xml version="1.0" encoding="UTF-8" standalone="no"?>
<!-- Created with Inkscape (http://www.inkscape.org/) -->

<svg xmlns:dc="http://purl.org/dc/elements/1.1/" xmlns:cc="http://creativecommons.org/ns#" xmlns:rdf="http://www.w3.org/1999/02/22-rdf-syntax-ns#" xmlns:svg="http://www.w3.org/2000/svg" xmlns="http://www.w3.org/2000/svg" xmlns:xlink="http://www.w3.org/1999/xlink" xmlns:sodipodi="http://sodipodi.sourceforge.net/DTD/sodipodi-0.dtd" xmlns:inkscape="http://www.inkscape.org/namespaces/inkscape" width="128" height="128" id="svg2" version="1.1" inkscape:version="0.48+devel r" viewBox="0 0 128 128" sodipodi:docname="folder (copy).svg">
  <defs id="defs4">
    <linearGradient id="linearGradient5060" inkscape:collect="always">
      <stop id="stop5062" offset="0" style="stop-color:black;stop-opacity:1" />
      <stop id="stop5064" offset="1" style="stop-color:black;stop-opacity:0" />
    </linearGradient>
    <linearGradient id="linearGradient10997" inkscape:collect="always">
      <stop id="stop10999" offset="0" style="stop-color:#ffffff;stop-opacity:1" />
      <stop id="stop11001" offset="1" style="stop-color:#ffffff;stop-opacity:0" />
    </linearGradient>
    <linearGradient gradientUnits="userSpaceOnUse" y2="8.1000004" x2="19.387241" y1="6.1438289" x1="19.489662" id="linearGradient11003" xlink:href="#linearGradient10997" inkscape:collect="always" />
    <linearGradient id="linearGradient2793">
      <stop offset="0" style="stop-color:#555753;stop-opacity:1" id="stop2795" />
      <stop offset="1" style="stop-color:#d3d7cf;stop-opacity:0" id="stop2797" />
    </linearGradient>
    <linearGradient id="linearGradient5188">
      <stop offset="0" style="stop-color:#ffffff;stop-opacity:1" id="stop5190" />
      <stop offset="1" style="stop-color:#aeaea3;stop-opacity:1" id="stop5192" />
    </linearGradient>
    <linearGradient id="linearGradient5196">
      <stop offset="0" style="stop-color:#dfe2dc;stop-opacity:1" id="stop5198" />
      <stop offset="1" style="stop-color:#86917a;stop-opacity:1" id="stop5200" />
    </linearGradient>
    <linearGradient id="linearGradient5162">
      <stop offset="0" style="stop-color:#babdb6;stop-opacity:1" id="stop5164" />
      <stop offset="1" style="stop-color:#ffffff;stop-opacity:1" id="stop5166" />
    </linearGradient>
    <linearGradient id="linearGradient2338">
      <stop offset="0" style="stop-color:#f8f8f8;stop-opacity:0.1546" id="stop3317" />
      <stop offset="0.49817383" style="stop-color:#b0b2b6;stop-opacity:0.1753" id="stop3322" />
      <stop offset="0.83783782" style="stop-color:#5b5e62;stop-opacity:0.3299" id="stop3319" />
      <stop offset="1" style="stop-color:#ffffff;stop-opacity:0.1546" id="stop2342" />
    </linearGradient>
    <linearGradient id="linearGradient4294">
      <stop offset="0" style="stop-color:#e6e7e7;stop-opacity:1" id="stop4296" />
      <stop offset="1" style="stop-color:#676b73;stop-opacity:1" id="stop4298" />
    </linearGradient>
    <linearGradient id="linearGradient4302">
      <stop offset="0" style="stop-color:#c0c0c0;stop-opacity:1" id="stop4304" />
      <stop offset="1" style="stop-color:#abacb0;stop-opacity:1" id="stop4306" />
    </linearGradient>
    <linearGradient spreadMethod="reflect" gradientTransform="matrix(0.5009,0,0,0.5009,-0.5732,-0.0603)" gradientUnits="userSpaceOnUse" xlink:href="#linearGradient2793" id="linearGradient14689" y2="10.900407" x2="55.992207" y1="47.258526" x1="92.004761" />
    <linearGradient gradientTransform="matrix(1.146,0,0,1.146,-9.319,-13.99)" gradientUnits="userSpaceOnUse" xlink:href="#linearGradient4302" id="linearGradient2857" y2="31.225994" x2="63.999081" y1="6.4738212" x1="63.999081" />
    <linearGradient spreadMethod="reflect" gradientTransform="matrix(0.5976,0,0,0.5396,-6.762,-4.754)" gradientUnits="userSpaceOnUse" xlink:href="#linearGradient2793" id="linearGradient3961" y2="37.21664" x2="63.999931" y1="37.21664" x1="32.626884" />
    <linearGradient spreadMethod="reflect" gradientTransform="matrix(0.6161,0,0,0.5936,-7.94,-5.944)" gradientUnits="userSpaceOnUse" xlink:href="#linearGradient2793" id="linearGradient13703" y2="17.833755" x2="62.373119" y1="17.833755" x1="97.717728" />
    <linearGradient gradientTransform="matrix(1.045,0,0,1.045,0.9058,-0.6999)" gradientUnits="userSpaceOnUse" xlink:href="#linearGradient4294" id="linearGradient2944" y2="57.745785" x2="29.232977" y1="1.2616313" x1="29.232975" />
    <linearGradient gradientTransform="matrix(1.264,0,0,1.479,5.809,-19.35)" gradientUnits="userSpaceOnUse" xlink:href="#linearGradient2338" id="linearGradient2942" y2="39.751118" x2="35.514687" y1="38.13002" x1="4.8849959" />
    <linearGradient gradientTransform="matrix(-1,0,0,1,-164.7,28.24)" gradientUnits="userSpaceOnUse" xlink:href="#linearGradient5060" id="linearGradient16586" y2="18.389904" x2="38.714096" y1="10.611729" x1="25.632622" />
    <linearGradient gradientTransform="matrix(-1,0,0,1,-164.7,28.24)" gradientUnits="userSpaceOnUse" xlink:href="#linearGradient5162" id="linearGradient16584" y2="28.554564" x2="32.600704" y1="20.246058" x1="24.365993" />
    <linearGradient gradientTransform="matrix(-1,0,0,1,-164.7,28.24)" gradientUnits="userSpaceOnUse" xlink:href="#linearGradient5162" id="linearGradient16582" y2="14.412428" x2="23.585091" y1="36.509514" x1="22.008699" />
    <radialGradient gradientTransform="matrix(-1.79,0,0,1.769,-148.9,16.29)" gradientUnits="userSpaceOnUse" xlink:href="#linearGradient5196" id="radialGradient16580" fy="10.853651" fx="20.089987" r="22.597088" cy="10.853651" cx="20.089987" />
    <radialGradient gradientTransform="matrix(-2.136,0,0,2.111,-137.8,12.57)" gradientUnits="userSpaceOnUse" xlink:href="#linearGradient5188" id="radialGradient16578" fy="14.210698" fx="23.688078" r="22.597088" cy="14.210698" cx="23.688078" />
    <linearGradient gradientTransform="matrix(-1,0,0,1,-164.7,28.24)" gradientUnits="userSpaceOnUse" xlink:href="#linearGradient5060" id="linearGradient16576-4" y2="18.389904" x2="38.714096" y1="10.611729" x1="25.632622" />
    <linearGradient gradientTransform="matrix(-1,0,0,1,-164.7,28.24)" gradientUnits="userSpaceOnUse" xlink:href="#linearGradient5162" id="linearGradient16574" y2="28.554564" x2="32.600704" y1="20.246058" x1="24.365993" />
    <linearGradient gradientTransform="matrix(-1,0,0,1,-164.7,28.24)" gradientUnits="userSpaceOnUse" xlink:href="#linearGradient5162" id="linearGradient16572" y2="14.412428" x2="23.585091" y1="36.509514" x1="22.008699" />
    <radialGradient gradientTransform="matrix(-1.79,0,0,1.769,-148.9,16.29)" gradientUnits="userSpaceOnUse" xlink:href="#linearGradient5196" id="radialGradient16570" fy="10.853651" fx="20.089987" r="22.597088" cy="10.853651" cx="20.089987" />
    <radialGradient gradientTransform="matrix(-2.136,0,0,2.111,-137.8,12.57)" gradientUnits="userSpaceOnUse" xlink:href="#linearGradient5188" id="radialGradient16568" fy="14.210698" fx="23.688078" r="22.597088" cy="14.210698" cx="23.688078" />
    <linearGradient gradientTransform="matrix(-1,0,0,1,-164.7,28.24)" gradientUnits="userSpaceOnUse" xlink:href="#linearGradient5060" id="linearGradient16566-9" y2="18.389904" x2="38.714096" y1="10.611729" x1="25.632622" />
    <linearGradient gradientTransform="matrix(-1,0,0,1,-164.7,28.24)" gradientUnits="userSpaceOnUse" xlink:href="#linearGradient5162" id="linearGradient16564" y2="28.554564" x2="32.600704" y1="20.246058" x1="24.365993" />
    <linearGradient gradientTransform="matrix(-1,0,0,1,-164.7,28.24)" gradientUnits="userSpaceOnUse" xlink:href="#linearGradient5162" id="linearGradient16562" y2="14.412428" x2="23.585091" y1="36.509514" x1="22.008699" />
    <radialGradient gradientTransform="matrix(-1.79,0,0,1.769,-148.9,16.29)" gradientUnits="userSpaceOnUse" xlink:href="#linearGradient5196" id="radialGradient16560" fy="10.853651" fx="20.089987" r="22.597088" cy="10.853651" cx="20.089987" />
    <radialGradient gradientTransform="matrix(-2.136,0,0,2.111,-137.8,12.57)" gradientUnits="userSpaceOnUse" xlink:href="#linearGradient5188" id="radialGradient16558" fy="14.210698" fx="23.688078" r="22.597088" cy="14.210698" cx="23.688078" />
    <linearGradient gradientTransform="matrix(-0.5009,0,0,0.5009,127.8,34.54)" gradientUnits="userSpaceOnUse" xlink:href="#linearGradient5060" id="linearGradient16556" y2="18.389904" x2="38.714096" y1="10.611729" x1="25.632622" />
    <linearGradient gradientTransform="matrix(-0.5009,0,0,0.5009,127.8,34.54)" gradientUnits="userSpaceOnUse" xlink:href="#linearGradient5162" id="linearGradient16554" y2="28.554564" x2="32.600704" y1="20.246058" x1="24.365993" />
    <linearGradient gradientTransform="matrix(-0.5009,0,0,0.5009,127.8,34.54)" gradientUnits="userSpaceOnUse" xlink:href="#linearGradient5162" id="linearGradient16552" y2="14.412428" x2="23.585091" y1="36.509514" x1="22.008699" />
    <radialGradient gradientTransform="matrix(-0.8968,0,0,0.8863,135.7,28.56)" gradientUnits="userSpaceOnUse" xlink:href="#linearGradient5196" id="radialGradient16550" fy="10.853651" fx="20.089987" r="22.597088" cy="10.853651" cx="20.089987" />
    <radialGradient gradientTransform="matrix(-1.07,0,0,1.057,141.3,26.69)" gradientUnits="userSpaceOnUse" xlink:href="#linearGradient5188" id="radialGradient16548" fy="14.210698" fx="23.688078" r="22.597088" cy="14.210698" cx="23.688078" />
    <radialGradient gradientTransform="matrix(1,0,0,0.3251,0,27.44)" gradientUnits="userSpaceOnUse" xlink:href="#linearGradient5060" id="radialGradient16546" fy="40.663769" fx="24.837126" r="21.478369" cy="40.663769" cx="24.837126" />
    <linearGradient gradientTransform="matrix(-1,0,0,1,-164.7,28.24)" gradientUnits="userSpaceOnUse" xlink:href="#linearGradient5060" id="linearGradient16544-0" y2="18.389904" x2="38.714096" y1="10.611729" x1="25.632622" />
    <linearGradient gradientTransform="matrix(-1,0,0,1,-164.7,28.24)" gradientUnits="userSpaceOnUse" xlink:href="#linearGradient5162" id="linearGradient16542" y2="28.554564" x2="32.600704" y1="20.246058" x1="24.365993" />
    <linearGradient gradientTransform="matrix(-1,0,0,1,-164.7,28.24)" gradientUnits="userSpaceOnUse" xlink:href="#linearGradient5162" id="linearGradient16540" y2="14.412428" x2="23.585091" y1="36.509514" x1="22.008699" />
    <radialGradient gradientTransform="matrix(-1.79,0,0,1.769,-148.9,16.29)" gradientUnits="userSpaceOnUse" xlink:href="#linearGradient5196" id="radialGradient16538" fy="10.853651" fx="20.089987" r="22.597088" cy="10.853651" cx="20.089987" />
    <radialGradient gradientTransform="matrix(-2.136,0,0,2.111,-137.8,12.57)" gradientUnits="userSpaceOnUse" xlink:href="#linearGradient5188" id="radialGradient16536" fy="14.210698" fx="23.688078" r="22.597088" cy="14.210698" cx="23.688078" />
    <radialGradient gradientTransform="matrix(1,0,0,0.3251,0,27.44)" gradientUnits="userSpaceOnUse" xlink:href="#linearGradient5060" id="radialGradient16534" fy="40.663769" fx="24.837126" r="21.478369" cy="40.663769" cx="24.837126" />
    <linearGradient gradientTransform="matrix(0.5121,0,0,0.4901,90.55,0.0241)" gradientUnits="userSpaceOnUse" xlink:href="#linearGradient2793" id="linearGradient16532" y2="82.788712" x2="89.456299" y1="82.788712" x1="73.373505" />
    <linearGradient gradientTransform="matrix(0.5009,0,0,0.5009,117,34.75)" gradientUnits="userSpaceOnUse" xlink:href="#linearGradient5162" id="linearGradient16530" y2="28.554564" x2="32.600704" y1="20.246058" x1="24.365993" />
    <linearGradient gradientTransform="matrix(0.5009,0,0,0.5009,117,34.75)" gradientUnits="userSpaceOnUse" xlink:href="#linearGradient5162" id="linearGradient16528" y2="14.412428" x2="23.585091" y1="36.509514" x1="22.008699" />
    <radialGradient gradientTransform="matrix(0.8968,0,0,0.8863,109,28.76)" gradientUnits="userSpaceOnUse" xlink:href="#linearGradient5196" id="radialGradient16526" fy="10.853651" fx="20.089987" r="22.597088" cy="10.853651" cx="20.089987" />
    <radialGradient gradientTransform="matrix(1.07,0,0,1.057,103.5,26.9)" gradientUnits="userSpaceOnUse" xlink:href="#linearGradient5188" id="radialGradient16524" fy="14.210698" fx="23.688078" r="22.597088" cy="14.210698" cx="23.688078" />
    <radialGradient gradientTransform="matrix(1,0,0,0.3251,0,27.44)" gradientUnits="userSpaceOnUse" xlink:href="#linearGradient5060" id="radialGradient16522" fy="40.663769" fx="24.837126" r="21.478369" cy="40.663769" cx="24.837126" />
    <linearGradient spreadMethod="reflect" gradientUnits="userSpaceOnUse" xlink:href="#linearGradient2793" id="linearGradient2781" y2="68.298302" x2="37.462498" y1="52.355087" x1="27.405413" />
    <radialGradient gradientTransform="matrix(0.4658,0,0,0.1299,2.785,42.54)" gradientUnits="userSpaceOnUse" xlink:href="#linearGradient5060" id="radialGradient2773" fy="108.02493" fx="62.71241" r="47.38271" cy="108.02493" cx="62.71241" />
  </defs>
  <sodipodi:namedview id="base" pagecolor="#ffffff" bordercolor="#666666" borderopacity="1.0" inkscape:pageopacity="0.0" inkscape:pageshadow="2" inkscape:zoom="2" inkscape:cx="-9.477" inkscape:cy="37.39" inkscape:document-units="px" inkscape:current-layer="layer1" showgrid="false" inkscape:window-width="1301" inkscape:window-height="744" inkscape:window-x="65" inkscape:window-y="24" inkscape:window-maximized="1" />
  <metadata id="metadata7">
    <rdf:RDF>
      <cc:Work rdf:about="">
        <dc:format>image/svg+xml</dc:format>
        <dc:type rdf:resource="http://purl.org/dc/dcmitype/StillImage" />
        <dc:title />
      </cc:Work>
    </rdf:RDF>
  </metadata>
  <g inkscape:label="Layer 1" inkscape:groupmode="layer" id="layer1" transform="translate(0,-924.3622)">
    <g id="g217" transform="matrix(2.1918248,0,0.11475998,2.8760104,-2.0899731,952.04222)" style="opacity:0.4148;fill:url(#linearGradient11003);stroke:#000000" inkscape:export-filename="/home/jimmac/ximian_art/icons/nautilus/suse93/gnome-fs-directory.png" inkscape:export-xdpi="74.800003" inkscape:export-ydpi="74.800003" />
    <g id="layer1-6" transform="matrix(1.915,0,0,1.914,18.93,941.7)">
      <g id="g2519" transform="matrix(0.7451,0,0,0.7451,0.1111,0.1111)">
        <path style="color:#000000;fill:url(#radialGradient2773);fill-rule:evenodd;stroke-width:1.055" id="path12941" d="m 54.07,56.57 a 22.07,6.165 0 0 1 -44.144,0 22.07,6.165 0 1 1 44.144,0 z" inkscape:connector-curvature="0" />
        <path style="color:#000000;fill:#d9dcd5;fill-rule:evenodd;stroke:#838383;stroke-width:0.2457;stroke-linecap:round;stroke-linejoin:round" id="path5870" transform="matrix(1.128,0,0,1.006,-2.41,1.416)" d="m 46.33,53.13 a 16.28,4.27 0 1 1 -32.55,0 16.28,4.27 0 1 1 32.55,0 z" inkscape:connector-curvature="0" />
        <path style="color:#000000;opacity:0.5;fill:url(#linearGradient2781);fill-rule:evenodd;stroke-width:0.4703" id="path3037" transform="matrix(1.128,0,0,1.006,-2.41,1.416)" d="m 46.33,53.13 a 16.28,4.27 0 1 1 -32.55,0 16.28,4.27 0 1 1 32.55,0 z" inkscape:connector-curvature="0" />
        <g id="g16471" transform="translate(-90.69,-0.7358)">
          <path style="color:#000000;opacity:0.3258;fill:url(#radialGradient16522);fill-rule:evenodd" id="path4275" transform="matrix(0.5545,0,0,0.5545,115.3,32.04)" d="m 46.32,40.66 a 21.48,6.983 0 1 1 -42.961,0 21.48,6.983 0 1 1 42.961,0 z" inkscape:connector-curvature="0" />
          <path style="color:#000000;fill:url(#radialGradient16524);fill-rule:evenodd;stroke:url(#radialGradient16526);stroke-width:0.2617" id="path4273" d="m 121.5,53.57 -0.9,1.41 1.9,0.8 1.3,-1.06 5.9,0.44 1.9,2.48 1.7,-2.74 2.1,1.15 2.8,-0.36 -0.7,-1.5 2,-1.95 -2.8,-3.1 2.7,0.35 1.1,-1.06 -1.5,0.27 -1.6,-2.75 -2.3,-0.53 1.9,-0.62 0.1,-1.59 -3.7,-3.19 -1.3,-4.25 -6,1.77 -1.5,3.54 -0.5,-1.15 -1.6,0.1 0,1.42 -1.7,-2.04 -2.4,2.57 0,3.63 4.1,3.63 -2.6,1.5 0.1,1.51 1.5,1.33 z" inkscape:connector-curvature="0" />
          <path style="color:#000000;opacity:0.7697;fill:url(#linearGradient16528);fill-rule:evenodd" id="path5158" d="m 126.7,46.13 -0.4,3.28 1,1.68 -2.3,0.71 -1.3,2.65 6,0.45 1.4,2.03 1.2,-3.1 -2.2,-1.41 -3.4,0.97 1.3,-1.77 -0.7,-3.1 -0.6,-2.39 z" inkscape:connector-curvature="0" />
          <path style="color:#000000;opacity:0.618;fill:url(#linearGradient16530);fill-rule:evenodd" id="path5160" d="m 127.2,46.66 2.3,3.45 3.6,-2.48 2.2,1.24 1.8,-1.5 1.6,1.42 -1.5,-2.48 -3.5,-0.8 -4.3,-2.13 c 0,0 -6.2,1.86 -5.9,1.86 0.4,0 5.2,0.1 5.2,0.1 l 0.8,-1.15 2.1,0.98 -4.4,1.5 z" inkscape:connector-curvature="0" />
          <path style="color:#000000;fill:#ffffff;fill-rule:evenodd" id="path5172" d="m 131.8,36.48 -5.3,1.77 -0.7,1.95 3,2.12 2.9,-2.74 0.1,-3.1 z" inkscape:connector-curvature="0" />
          <path style="color:#000000;opacity:0.1348;fill:url(#linearGradient16532);fill-rule:evenodd" id="path5174" d="m 131.8,36.65 1.2,3.72 2.1,1.86 -4.3,-0.97 c 0,0 -1.3,1.42 -0.7,1.42 0.5,0 6.3,0.7 6.3,0.7 l -0.1,1.16 -8.2,-1.51 3.6,-3.28 0.1,-3.1 z" inkscape:connector-curvature="0" />
          <path style="color:#000000;fill:#ffffff;fill-rule:evenodd" id="path5184" d="m 120.7,41.88 -0.5,4.43 1,-3.01 2.6,0.79 0.6,-1.33 3.1,0.45 0.7,-0.62 -4.5,-0.18 -0.4,1.24 -2,-0.97 -0.6,-0.8 z" inkscape:connector-curvature="0" />
          <path style="color:#000000;fill:#ffffff;fill-rule:evenodd" id="path5186" d="m 128.2,48.43 1.5,1.77 3.5,-2.3 2.1,1.15 3.5,3.28 -3.9,-2.92 -1.8,-0.54 -3.6,2.48 -1.3,-2.92 z" inkscape:connector-curvature="0" />
          <path style="color:#000000;opacity:0.3258;fill:url(#radialGradient16534);fill-rule:evenodd" id="path2423" transform="matrix(-0.5545,0,0,0.5545,134.4,32.72)" d="m 46.32,40.66 a 21.48,6.983 0 1 1 -42.961,0 21.48,6.983 0 1 1 42.961,0 z" inkscape:connector-curvature="0" />
          <g id="g2507" transform="matrix(-0.5009,0,0,0.5009,18.54,6.402)">
            <path style="color:#000000;fill:url(#radialGradient16536);fill-rule:evenodd;stroke:url(#radialGradient16538);stroke-width:0.5224" id="path2425" d="m -173.7,65.81 1.7,2.83 -3.7,1.59 -2.6,-2.12 -11.9,0.88 -3.7,4.95 -3.3,-5.48 -4.3,2.3 -5.6,-0.71 1.4,-3 -3.9,-3.89 5.5,-6.19 -5.3,0.71 -2.3,-2.12 3,0.53 3.2,-5.48 4.5,-1.06 -3.7,-1.24 -0.1,-3.18 7.2,-6.37 2.7,-8.48 12,3.53 3,7.07 1,-2.29 3.1,0.17 0,2.83 3.5,-4.06 4.8,5.12 0,7.25 -8.3,7.25 5.3,3 -0.2,3.01 -3,2.65 z" inkscape:connector-curvature="0" />
            <path style="color:#000000;opacity:0.7697;fill:url(#linearGradient16540);fill-rule:evenodd" id="path2427" d="m -184.2,50.96 0.9,6.54 -2.1,3.36 4.6,1.41 2.7,5.31 -12.1,0.88 -2.8,4.07 -2.3,-6.19 4.4,-2.83 6.7,1.95 -2.6,-3.54 1.4,-6.19 1.2,-4.77 z" inkscape:connector-curvature="0" />
            <path style="color:#000000;opacity:0.618;fill:url(#linearGradient16542);fill-rule:evenodd" id="path2429" d="m -185.2,52.02 -4.4,6.9 -7.3,-4.95 -4.4,2.47 -3.5,-3 -3.2,2.82 3,-4.95 6.9,-1.59 8.6,-4.24 c 0,0 12.4,3.71 11.7,3.71 -0.7,0 -10.2,0.18 -10.2,0.18 l -1.6,-2.3 -4.3,1.95 8.7,3 z" inkscape:connector-curvature="0" />
            <path style="color:#000000;fill:#ffffff;fill-rule:evenodd" id="path2431" d="m -194.2,31.69 10.4,3.54 1.4,3.89 -6,4.24 -5.7,-5.48 -0.1,-6.19 z" inkscape:connector-curvature="0" />
            <path style="color:#000000;opacity:0.1348;fill:url(#linearGradient16544-0);fill-rule:evenodd" id="path2433" d="m -194.4,32.05 -2.3,7.42 -4.3,3.71 8.7,-1.94 c 0,0 2.5,2.83 1.4,2.83 -1,0 -12.5,1.41 -12.5,1.41 l 0.1,2.3 16.3,-3.01 -7.1,-6.54 -0.3,-6.18 z" inkscape:connector-curvature="0" />
            <path style="color:#000000;fill:#ffffff;fill-rule:evenodd" id="path2435" d="m -172.1,42.48 0.8,8.83 -1.9,-6.01 -5.1,1.59 -1.3,-2.65 -6.1,0.89 -1.5,-1.24 9.1,-0.35 0.8,2.47 3.9,-1.94 1.3,-1.59 z" inkscape:connector-curvature="0" />
            <path style="color:#000000;fill:#ffffff;fill-rule:evenodd" id="path2437" d="m -187.2,55.56 -3,3.53 -6.9,-4.59 -4.2,2.29 -6.9,6.54 7.6,-5.83 3.7,-1.06 7.3,4.95 2.4,-5.83 z" inkscape:connector-curvature="0" />
          </g>
          <path style="color:#000000;opacity:0.3258;fill:url(#radialGradient16546);fill-rule:evenodd" id="path2479" transform="matrix(-0.5545,0,0,0.5545,129.5,31.83)" d="m 46.32,40.66 a 21.48,6.983 0 1 1 -42.961,0 21.48,6.983 0 1 1 42.961,0 z" inkscape:connector-curvature="0" />
          <path style="color:#000000;fill:url(#radialGradient16548);fill-rule:evenodd;stroke:url(#radialGradient16550);stroke-width:0.2617" id="path2481" d="m 123.3,53.36 0.9,1.42 -1.9,0.8 -1.3,-1.07 -6,0.45 -1.8,2.48 -1.7,-2.75 -2.1,1.15 -2.9,-0.35 0.8,-1.51 -2,-1.94 2.7,-3.1 -2.6,0.35 -1.2,-1.06 1.5,0.26 1.6,-2.74 2.3,-0.53 -1.8,-0.62 -0.1,-1.6 3.6,-3.19 1.4,-4.25 6,1.78 1.5,3.54 0.5,-1.15 1.5,0.1 0,1.42 1.8,-2.04 2.4,2.57 0,3.63 -4.2,3.63 2.7,1.51 -0.1,1.51 -1.5,1.32 z" inkscape:connector-curvature="0" />
          <path style="color:#000000;opacity:0.7697;fill:url(#linearGradient16552);fill-rule:evenodd" id="path2483" d="m 118.1,45.92 0.4,3.28 -1.1,1.68 2.3,0.71 1.4,2.66 -6.1,0.44 -1.4,2.04 -1.1,-3.1 2.2,-1.42 3.4,0.98 -1.4,-1.77 0.7,-3.1 0.7,-2.4 z" inkscape:connector-curvature="0" />
          <path style="color:#000000;opacity:0.618;fill:url(#linearGradient16554);fill-rule:evenodd" id="path2485" d="m 117.5,46.46 -2.2,3.45 -3.6,-2.48 -2.2,1.24 -1.8,-1.51 -1.6,1.42 1.5,-2.48 3.5,-0.8 4.3,-2.12 c 0,0 6.2,1.86 5.8,1.86 -0.3,0 -5.1,0.1 -5.1,0.1 l -0.8,-1.15 -2.1,0.97 4.3,1.51 z" inkscape:connector-curvature="0" />
          <path style="color:#000000;fill:#ffffff;fill-rule:evenodd" id="path2487" d="m 113,36.27 5.2,1.77 0.7,1.95 -3,2.13 -2.8,-2.75 -0.1,-3.1 z" inkscape:connector-curvature="0" />
          <path style="color:#000000;opacity:0.1348;fill:url(#linearGradient16556);fill-rule:evenodd" id="path2489" d="m 112.9,36.45 -1.1,3.72 -2.2,1.86 4.4,-0.98 c 0,0 1.2,1.42 0.7,1.42 -0.5,0 -6.3,0.71 -6.3,0.71 l 0.1,1.15 8.1,-1.5 -3.5,-3.28 -0.2,-3.1 z" inkscape:connector-curvature="0" />
          <path style="color:#000000;fill:#ffffff;fill-rule:evenodd" id="path2491" d="m 124.1,41.67 0.4,4.43 -1,-3.01 -2.5,0.8 -0.6,-1.33 -3.1,0.44 -0.7,-0.62 4.5,-0.17 0.4,1.24 2,-0.98 0.6,-0.8 z" inkscape:connector-curvature="0" />
          <path style="color:#000000;fill:#ffffff;fill-rule:evenodd" id="path2493" d="M 116.6,48.23 115,50 l -3.4,-2.3 -2.1,1.15 -3.5,3.27 3.8,-2.92 1.9,-0.53 3.6,2.48 1.3,-2.92 z" inkscape:connector-curvature="0" />
          <g id="g2586" transform="matrix(0,-0.5009,-0.5009,0,143.6,-60.07)">
            <path style="color:#000000;fill:url(#radialGradient16558);fill-rule:evenodd;stroke:url(#radialGradient16560);stroke-width:0.5224" id="path2588" d="m -173.7,65.81 1.7,2.83 -3.7,1.59 -2.6,-2.12 -11.9,0.88 -3.7,4.95 -3.3,-5.48 -4.3,2.3 -5.6,-0.71 1.4,-3 -3.9,-3.89 5.5,-6.19 -5.3,0.71 -2.3,-2.12 3,0.53 3.2,-5.48 4.5,-1.06 -3.7,-1.24 -0.1,-3.18 7.2,-6.37 2.7,-8.48 12,3.53 3,7.07 1,-2.29 3.1,0.17 0,2.83 3.5,-4.06 4.8,5.12 0,7.25 -8.3,7.25 5.3,3 -0.2,3.01 -3,2.65 z" inkscape:connector-curvature="0" />
            <path style="color:#000000;opacity:0.7697;fill:url(#linearGradient16562);fill-rule:evenodd" id="path2590" d="m -184.2,50.96 0.9,6.54 -2.1,3.36 4.6,1.41 2.7,5.31 -12.1,0.88 -2.8,4.07 -2.3,-6.19 4.4,-2.83 6.7,1.95 -2.6,-3.54 1.4,-6.19 1.2,-4.77 z" inkscape:connector-curvature="0" />
            <path style="color:#000000;opacity:0.618;fill:url(#linearGradient16564);fill-rule:evenodd" id="path2592" d="m -185.2,52.02 -4.4,6.9 -7.3,-4.95 -4.4,2.47 -3.5,-3 -3.2,2.82 3,-4.95 6.9,-1.59 8.6,-4.24 c 0,0 12.4,3.71 11.7,3.71 -0.7,0 -10.2,0.18 -10.2,0.18 l -1.6,-2.3 -4.3,1.95 8.7,3 z" inkscape:connector-curvature="0" />
            <path style="color:#000000;fill:#ffffff;fill-rule:evenodd" id="path2594" d="m -194.2,31.69 10.4,3.54 1.4,3.89 -6,4.24 -5.7,-5.48 -0.1,-6.19 z" inkscape:connector-curvature="0" />
            <path style="color:#000000;opacity:0.1348;fill:url(#linearGradient16566-9);fill-rule:evenodd" id="path2596" d="m -194.4,32.05 -2.3,7.42 -4.3,3.71 8.7,-1.94 c 0,0 2.5,2.83 1.4,2.83 -1,0 -12.5,1.41 -12.5,1.41 l 0.1,2.3 16.3,-3.01 -7.1,-6.54 -0.3,-6.18 z" inkscape:connector-curvature="0" />
            <path style="color:#000000;fill:#ffffff;fill-rule:evenodd" id="path2598" d="m -172.1,42.48 0.8,8.83 -1.9,-6.01 -5.1,1.59 -1.3,-2.65 -6.1,0.89 -1.5,-1.24 9.1,-0.35 0.8,2.47 3.9,-1.94 1.3,-1.59 z" inkscape:connector-curvature="0" />
            <path style="color:#000000;fill:#ffffff;fill-rule:evenodd" id="path2600" d="m -187.2,55.56 -3,3.53 -6.9,-4.59 -4.2,2.29 -6.9,6.54 7.6,-5.83 3.7,-1.06 7.3,4.95 2.4,-5.83 z" inkscape:connector-curvature="0" />
          </g>
          <g id="g2552" transform="matrix(0.5009,0,0,0.5009,226.3,6.224)">
            <path style="color:#000000;fill:url(#radialGradient16568);fill-rule:evenodd;stroke:url(#radialGradient16570);stroke-width:0.5224" id="path2554" d="m -173.7,65.81 1.7,2.83 -3.7,1.59 -2.6,-2.12 -11.9,0.88 -3.7,4.95 -3.3,-5.48 -4.3,2.3 -5.6,-0.71 1.4,-3 -3.9,-3.89 5.5,-6.19 -5.3,0.71 -2.3,-2.12 3,0.53 3.2,-5.48 4.5,-1.06 -3.7,-1.24 -0.1,-3.18 7.2,-6.37 2.7,-8.48 12,3.53 3,7.07 1,-2.29 3.1,0.17 0,2.83 3.5,-4.06 4.8,5.12 0,7.25 -8.3,7.25 5.3,3 -0.2,3.01 -3,2.65 z" inkscape:connector-curvature="0" />
            <path style="color:#000000;opacity:0.7697;fill:url(#linearGradient16572);fill-rule:evenodd" id="path2556" d="m -184.2,50.96 0.9,6.54 -2.1,3.36 4.6,1.41 2.7,5.31 -12.1,0.88 -2.8,4.07 -2.3,-6.19 4.4,-2.83 6.7,1.95 -2.6,-3.54 1.4,-6.19 1.2,-4.77 z" inkscape:connector-curvature="0" />
            <path style="color:#000000;opacity:0.618;fill:url(#linearGradient16574);fill-rule:evenodd" id="path2558" d="m -185.2,52.02 -4.4,6.9 -7.3,-4.95 -4.4,2.47 -3.5,-3 -3.2,2.82 3,-4.95 6.9,-1.59 8.6,-4.24 c 0,0 12.4,3.71 11.7,3.71 -0.7,0 -10.2,0.18 -10.2,0.18 l -1.6,-2.3 -4.3,1.95 8.7,3 z" inkscape:connector-curvature="0" />
            <path style="color:#000000;fill:#ffffff;fill-rule:evenodd" id="path2560" d="m -194.2,31.69 10.4,3.54 1.4,3.89 -6,4.24 -5.7,-5.48 -0.1,-6.19 z" inkscape:connector-curvature="0" />
            <path style="color:#000000;opacity:0.1348;fill:url(#linearGradient16576-4);fill-rule:evenodd" id="path2562" d="m -194.4,32.05 -2.3,7.42 -4.3,3.71 8.7,-1.94 c 0,0 2.5,2.83 1.4,2.83 -1,0 -12.5,1.41 -12.5,1.41 l 0.1,2.3 16.3,-3.01 -7.1,-6.54 -0.3,-6.18 z" inkscape:connector-curvature="0" />
            <path style="color:#000000;fill:#ffffff;fill-rule:evenodd" id="path2564" d="m -172.1,42.48 0.8,8.83 -1.9,-6.01 -5.1,1.59 -1.3,-2.65 -6.1,0.89 -1.5,-1.24 9.1,-0.35 0.8,2.47 3.9,-1.94 1.3,-1.59 z" inkscape:connector-curvature="0" />
            <path style="color:#000000;fill:#ffffff;fill-rule:evenodd" id="path2566" d="m -187.2,55.56 -3,3.53 -6.9,-4.59 -4.2,2.29 -6.9,6.54 7.6,-5.83 3.7,-1.06 7.3,4.95 2.4,-5.83 z" inkscape:connector-curvature="0" />
          </g>
          <g id="g2526" transform="matrix(0,0.5009,0.5009,0,97.57,143.1)">
            <path style="color:#000000;fill:url(#radialGradient16578);fill-rule:evenodd;stroke:url(#radialGradient16580);stroke-width:0.5224" id="path2528" d="m -173.7,65.81 1.7,2.83 -3.7,1.59 -2.6,-2.12 -11.9,0.88 -3.7,4.95 -3.3,-5.48 -4.3,2.3 -5.6,-0.71 1.4,-3 -3.9,-3.89 5.5,-6.19 -5.3,0.71 -2.3,-2.12 3,0.53 3.2,-5.48 4.5,-1.06 -3.7,-1.24 -0.1,-3.18 7.2,-6.37 2.7,-8.48 12,3.53 3,7.07 1,-2.29 3.1,0.17 0,2.83 3.5,-4.06 4.8,5.12 0,7.25 -8.3,7.25 5.3,3 -0.2,3.01 -3,2.65 z" inkscape:connector-curvature="0" />
            <path style="color:#000000;opacity:0.7697;fill:url(#linearGradient16582);fill-rule:evenodd" id="path2530" d="m -184.2,50.96 0.9,6.54 -2.1,3.36 4.6,1.41 2.7,5.31 -12.1,0.88 -2.8,4.07 -2.3,-6.19 4.4,-2.83 6.7,1.95 -2.6,-3.54 1.4,-6.19 1.2,-4.77 z" inkscape:connector-curvature="0" />
            <path style="color:#000000;opacity:0.618;fill:url(#linearGradient16584);fill-rule:evenodd" id="path2532" d="m -185.2,52.02 -4.4,6.9 -7.3,-4.95 -4.4,2.47 -3.5,-3 -3.2,2.82 3,-4.95 6.9,-1.59 8.6,-4.24 c 0,0 12.4,3.71 11.7,3.71 -0.7,0 -10.2,0.18 -10.2,0.18 l -1.6,-2.3 -4.3,1.95 8.7,3 z" inkscape:connector-curvature="0" />
            <path style="color:#000000;fill:#ffffff;fill-rule:evenodd" id="path2534" d="m -194.2,31.69 10.4,3.54 1.4,3.89 -6,4.24 -5.7,-5.48 -0.1,-6.19 z" inkscape:connector-curvature="0" />
            <path style="color:#000000;opacity:0.1348;fill:url(#linearGradient16586);fill-rule:evenodd" id="path2536" d="m -194.4,32.05 -2.3,7.42 -4.3,3.71 8.7,-1.94 c 0,0 2.5,2.83 1.4,2.83 -1,0 -12.5,1.41 -12.5,1.41 l 0.1,2.3 16.3,-3.01 -7.1,-6.54 -0.3,-6.18 z" inkscape:connector-curvature="0" />
            <path style="color:#000000;fill:#ffffff;fill-rule:evenodd" id="path2538" d="m -172.1,42.48 0.8,8.83 -1.9,-6.01 -5.1,1.59 -1.3,-2.65 -6.1,0.89 -1.5,-1.24 9.1,-0.35 0.8,2.47 3.9,-1.94 1.3,-1.59 z" inkscape:connector-curvature="0" />
            <path style="color:#000000;fill:#ffffff;fill-rule:evenodd" id="path2540" d="m -187.2,55.56 -3,3.53 -6.9,-4.59 -4.2,2.29 -6.9,6.54 7.6,-5.83 3.7,-1.06 7.3,4.95 2.4,-5.83 z" inkscape:connector-curvature="0" />
          </g>
        </g>
        <path style="color:#000000;opacity:0.7727;fill:#585858;fill-opacity:0.5131;fill-rule:evenodd;stroke:#636363;stroke-width:0.4328;stroke-linecap:round;stroke-linejoin:round" id="path18342" transform="matrix(0.6161,0,0,0.5936,-7.94,-5.944)" d="m 98.72,24.1 a 32.81,6.908 0 1 1 -65.62,0 32.81,6.908 0 1 1 65.62,0 z" inkscape:connector-curvature="0" />
        <path style="fill:url(#linearGradient2942);fill-rule:evenodd;stroke:url(#linearGradient2944);stroke-width:0.2617;stroke-linecap:round;stroke-linejoin:round" id="path1751" d="m 8.785,9.874 c -0.05,-0.06 4.155,43.846 4.155,43.856 0.18,4.39 7.98,5.18 18.75,5.52 13.15,-0.13 18.09,-2.34 18.27,-5.39 0,-0.1 4.22,-43.925 4.24,-43.986 C 56.68,0.1665 36.89,0.8801 29.96,0.8801 22.52,0.8801 5.985,0.6519 8.785,9.874 Z" inkscape:connector-curvature="0" />
        <path style="fill:#d9dcd5;fill-rule:evenodd" id="path18338" d="m 10.38,8.785 c 0,0 16.79,-5.209 41.44,-0.766 9.39,-7.006 -22.17,-7.5182 -22.17,-7.5182 0,0 -27.069,1.4502 -19.27,8.2842 z" inkscape:connector-curvature="0" />
        <path style="fill:url(#linearGradient13703);fill-rule:evenodd;stroke:#636363;stroke-width:0.2617;stroke-linecap:round;stroke-linejoin:round" id="path13701" d="m 10.38,8.785 c 0,0 16.79,-5.209 41.44,-0.766 9.39,-7.006 -22.17,-7.5182 -22.17,-7.5182 0,0 -27.069,1.4502 -19.27,8.2842 z" inkscape:connector-curvature="0" />
        <path style="color:#000000;fill:#ffffff;fill-rule:evenodd;stroke:#808389;stroke-width:0.1306;stroke-linecap:round;stroke-linejoin:round" id="path18314" d="m 48.76,2.775 c 0,0 0.1,0.01 0.1,0.02 0.11,0.03 0.22,0.06 0.33,0.09 0,0 0.1,0.01 0.1,0.02 0.1,0.02 0.13,0.04 0.19,0.06 0,0 0,0.01 0.1,0.02 0,0 0,0 0,0 0,0.01 0.1,0.03 0.1,0.04 0,0.01 0.1,0.02 0.12,0.04 0,0 0,0.01 0.1,0.02 0.1,0.02 0.13,0.04 0.19,0.06 0,0 0,0.01 0.1,0.02 0,0.02 0.1,0.04 0.15,0.06 0,0 0,0.01 0.1,0.02 0.12,0.04 0.24,0.08 0.36,0.129 0,0.01 0.1,0.03 0.1,0.04 0,0.01 0.1,0.02 0.1,0.04 0.1,0.03 0.15,0.06 0.23,0.09 0,0.01 0,0.03 0.1,0.04 0,0 0,0 0,0 0,0.01 0.1,0.04 0.12,0.05 0,0 0,0.01 0.1,0.02 0,0 0,0.02 0,0.02 0.1,0.03 0.14,0.06 0.21,0.09 0,0 0,0.03 0,0.04 0,0.01 0.1,0.02 0.1,0.04 0,0 0,0.01 0,0.02 0,0 0,0.01 0,0.02 0,0 0,0.01 0,0.02 0,0 0,0.01 0,0.02 0,0 0,0.01 0,0.02 0,0 0,0.02 0,0.02 0,0.02 0.1,0.04 0.1,0.05 0,0 0,0.01 0,0.02 0,0.01 0,0.03 0,0.04 0,0.01 0,0.03 0.1,0.04 0.1,0.04 0.13,0.09 0.19,0.13 0,0 0,0.01 0,0.02 0.1,0.04 0.12,0.08 0.17,0.13 0,0 0,0.01 0,0.02 0,0.01 0,0.02 0.1,0.04 0,0 0,0.03 0,0.04 0,0.01 0,0.02 0,0.04 0,0 0,0 0,0 0,0 0,0.01 0,0.02 0,0.01 0,0.02 0,0.04 0,0 0,0.01 0,0.02 0,0 0,0.01 0,0.02 0.1,0.06 0.11,0.119 0.16,0.185 0,0.01 0,0.02 0,0.04 0,0 0,0.02 0,0.02 0,0 0,0.01 0,0.02 0,0.02 0,0.04 0,0.05 0,0 0,0.01 0,0.02 0,0.02 0,0.04 0,0.06 0,0.04 0,0.08 0,0.13 0,0.03 0,0.07 0,0.09 0,0 0,0 0,0.02 0,0.01 0,0.02 0,0.04 0,0.02 0,0.05 0,0.07 0,0.01 0,0.04 0,0.06 0,0 0,0.03 0,0.04 0,0.01 0,0.02 0,0.04 0,0.07 0,0.121 -0.1,0.185 0,0 0,0.01 0,0.02 0,0.01 0,0.02 0,0.04 0,0.01 0,0.02 0,0.04 0,0.02 0,0.02 0,0.04 0,0 0,0.03 0,0.04 0,0.02 0,0.05 0,0.07 0,0 0,0 0,0 0,0 0,0.01 0,0.02 0,0.04 -0.1,0.09 -0.1,0.13 0,0 0,0.01 0,0.02 0,0 0,0.03 0,0.04 -0.1,0.07 -0.12,0.125 -0.19,0.186 0,0 0,0.01 0,0.02 0,0.01 0,0.03 -0.1,0.04 0,0 0,0.03 0,0.04 0,0.03 -0.1,0.05 -0.11,0.07 0,0 0,0.01 0,0.02 -0.1,0.04 -0.13,0.09 -0.19,0.13 0,0.01 0,0.03 0,0.04 0,0.02 -0.1,0.04 -0.1,0.06 -0.22,0.135 -0.49,0.255 -0.75,0.371 -0.1,0.02 -0.1,0.05 -0.15,0.07 -0.1,0.03 -0.12,0.05 -0.18,0.07 0,0.02 -0.1,0.03 -0.15,0.06 0,0.01 -0.1,0.03 -0.1,0.04 0,0 0,0 0,0 0,0.02 -0.1,0.04 -0.13,0.06 -0.1,0.03 -0.17,0.06 -0.25,0.09 -0.14,0.05 -0.29,0.08 -0.43,0.13 -0.1,0.03 -0.16,0.05 -0.25,0.07 -0.1,0.02 -0.13,0.05 -0.19,0.07 -0.1,0.03 -0.19,0.04 -0.29,0.07 0,0.01 -0.1,0.03 -0.15,0.04 -0.1,0.02 -0.14,0.04 -0.21,0.06 -0.1,0.01 -0.11,0.03 -0.16,0.04 -0.1,0.02 -0.13,0.04 -0.21,0.06 -0.1,0.02 -0.17,0.04 -0.25,0.06 -0.24,0.06 -0.48,0.114 -0.73,0.167 -0.1,0.02 -0.17,0.04 -0.25,0.06 -0.13,0.03 -0.27,0.05 -0.41,0.07 -0.1,0.01 -0.12,0.04 -0.19,0.06 0,0 0,-10e-4 0,0 -0.25,0.05 -0.51,0.08 -0.77,0.13 -0.1,0.02 -0.16,0.04 -0.25,0.06 -0.17,0.03 -0.33,0.05 -0.5,0.07 -0.12,0.02 -0.26,0.05 -0.38,0.07 -0.26,0.04 -0.52,0.08 -0.77,0.111 -0.1,0.01 -0.17,0.03 -0.25,0.04 -0.17,0.02 -0.35,0.03 -0.52,0.06 -0.1,0.01 -0.17,0.03 -0.25,0.04 -0.1,0.01 -0.2,0.03 -0.29,0.04 -0.16,0.02 -0.31,0.04 -0.46,0.06 0,0 0,0 0,0 -0.7,0.08 -1.4,0.146 -2.1,0.204 -0.18,0.01 -0.35,0.02 -0.52,0.04 -0.61,0.05 -1.24,0.1 -1.85,0.13 -0.17,0 -0.35,0.01 -0.52,0.02 -0.1,0 -0.18,0.01 -0.27,0.02 -0.17,0 -0.35,0.01 -0.52,0.02 -0.7,0.03 -1.4,0.06 -2.1,0.07 -0.17,0 -0.34,0.02 -0.52,0.02 -0.35,0 -0.7,0.01 -1.06,0.02 -0.18,0 -0.37,-10e-4 -0.55,0 0,0 0,0 0,0 -0.1,0 -0.18,0 -0.27,0 0,0 0,0 0,0 -0.37,-10e-4 -0.75,0 -1.12,0 0,0 0,0 0,0 -0.18,0 -0.37,-0.02 -0.56,-0.02 -0.19,0 -0.38,0 -0.57,0 -0.19,0 -0.37,-0.01 -0.56,-0.02 0,0 0,0 0,0 -0.1,0 -0.18,0 -0.27,0 -0.19,0 -0.39,-0.01 -0.58,-0.02 -0.19,0 -0.37,-0.01 -0.56,-0.02 0,0 0,0 0,0 -0.18,0 -0.37,-0.01 -0.55,-0.02 -0.28,-0.01 -0.57,-0.02 -0.85,-0.04 0,0 0,0 0,0 -0.75,-0.04 -1.5,-0.09 -2.25,-0.149 0,0 0,0 0,0 -0.56,-0.04 -1.12,-0.09 -1.68,-0.148 0,-10e-4 0,10e-4 0,0 C 21.7,9.121 21.33,9.088 20.96,9.046 20.86,9.035 20.78,9.019 20.69,9.008 20.55,8.992 20.4,8.989 20.26,8.971 19.85,8.92 19.43,8.864 19.01,8.804 18.87,8.785 18.73,8.751 18.59,8.73 18.41,8.702 18.23,8.686 18.05,8.656 17.96,8.641 17.87,8.616 17.78,8.6 c -0.1,0 -0.1,-0.01 -0.15,-0.02 -0.1,0 -0.1,-0.01 -0.14,-0.02 -0.1,-0.02 -0.18,-0.04 -0.27,-0.06 0,0 -0.1,-0.01 -0.13,-0.02 C 16.99,8.46 16.91,8.44 16.82,8.42 16.72,8.42 16.72,8.41 16.68,8.4 16.58,8.38 16.5,8.36 16.41,8.34 16.05,8.27 15.69,8.195 15.34,8.118 15.24,8.098 15.16,8.078 15.07,8.058 14.97,8.038 14.89,8.018 14.8,7.998 14.7,7.988 14.7,7.968 14.66,7.958 14.54,7.957 14.42,7.928 14.3,7.895 14.24,7.879 14.18,7.856 14.12,7.84 14,7.807 13.88,7.782 13.76,7.747 13.7,7.73 13.63,7.709 13.56,7.691 13.5,7.674 13.45,7.654 13.39,7.636 13.33,7.617 13.26,7.599 13.2,7.58 13.1,7.56 13.07,7.54 13.01,7.52 12.91,7.49 12.83,7.46 12.74,7.43 12.64,7.41 12.62,7.39 12.56,7.37 12.56,7.36 12.46,7.34 12.46,7.33 12.36,7.31 12.34,7.3 12.28,7.27 12.17,7.23 12.05,7.169 11.94,7.122 c -0.2,-0.08 -0.4,-0.168 -0.58,-0.26 -0.1,-0.04 -0.14,-0.07 -0.21,-0.111 0,0 0,0 0,0 0,-0.02 -0.1,-0.05 -0.1,-0.07 0,0 0,-0.01 0,-0.02 -0.12,-0.08 -0.25,-0.155 -0.36,-0.241 0,0 0,-0.01 0,-0.02 0,-0.01 0,-0.03 0,-0.04 0,0 0,-0.01 0,-0.02 -0.1,-0.07 -0.16,-0.132 -0.23,-0.204 0,0 0,-0.01 0,-0.02 0,-0.01 0,-0.04 0,-0.06 0,0 0,0 0,0 0,-0.04 0,-0.07 -0.1,-0.111 0,0 0,0 0,-0.02 0,-0.03 0,-0.06 -0.1,-0.09 0,-0.01 0,0 0,-0.02 0,-0.04 -0.1,-0.07 -0.1,-0.111 0,-0.01 0,-0.03 0,-0.04 0,-0.04 0,-0.08 0,-0.111 0,-0.02 0,-0.02 0,-0.04 0,-0.01 0,-0.04 0,-0.05 0,-0.01 0,-0.02 0,-0.04 0,-0.02 0,-0.04 0,-0.06 0,0 0,0 0,-0.02 0,-0.01 0,-0.03 0,-0.04 0,0 0,0 0,-0.02 0,-0.02 0,-0.04 0,-0.06 0,0 0,0 0,-0.02 0,-0.01 0,-0.02 0,-0.04 0,-0.01 0,-0.04 0,-0.06 0,0 0,-0.01 0,-0.02 0,0 0,-0.03 0,-0.04 0,0 0,-0.01 0,-0.02 0,0 0,-0.01 0,-0.02 0,-0.03 0,-0.08 0,-0.111 0,0 0,-0.01 0,-0.02 0,-0.01 0,-0.02 0,-0.04 0,-0.01 0,-0.02 0,-0.04 0,-0.01 0,-0.02 0,-0.04 0,0 0,-0.01 0,-0.02 0,-0.02 0,-0.04 0,-0.05 0,-0.02 0,-0.03 0,-0.06 0,0 0,-0.03 0,-0.04 0,0 0,-0.01 0,-0.02 0,0 0,-0.01 0,-0.02 0,-0.02 0,-0.04 0,-0.06 0,-0.01 0,0 0,-0.02 0,-0.02 0,-0.02 0,-0.04 0,0 0,-0.03 0,-0.04 0,-0.02 0,-0.02 0,-0.04 0,0 0,-0.01 0,-0.02 0,-0.02 0,-0.04 0.1,-0.06 0,0 0,-0.01 0,-0.02 0,-0.02 0.1,-0.03 0.1,-0.06 0,0 0,-0.01 0,-0.02 0,-0.03 0.1,-0.07 0.1,-0.09 0,-0.02 0.1,-0.04 0.1,-0.06 0,-0.02 0.1,-0.04 0.1,-0.06 0,-0.01 0,-0.02 0.1,-0.04 0.11,-0.07 0.21,-0.141 0.32,-0.204 0.1,-0.05 0.2,-0.08 0.29,-0.13 0.1,-0.03 0.14,-0.08 0.21,-0.111 0.1,-0.02 0.11,-0.03 0.16,-0.06 0,-0.01 0.1,-0.03 0.1,-0.04 0,-0.02 0.1,-0.04 0.15,-0.06 0,-0.01 0,-0.03 0.1,-0.04 0,-0.02 0.1,-0.04 0.15,-0.06 0.1,-0.02 0.1,-0.04 0.15,-0.06 0.1,-0.02 0.11,-0.04 0.16,-0.05 0.1,-0.02 0.1,-0.04 0.15,-0.06 0,0 0.1,-0.01 0.1,-0.02 0.1,-0.02 0.1,-0.04 0.15,-0.05 0.1,-0.03 0.16,-0.05 0.23,-0.07 0,0 0.1,-0.01 0.1,-0.02 0.1,-0.02 0.17,-0.05 0.25,-0.07 0,0 0,10e-4 0,0 0.11,-0.03 0.22,-0.06 0.33,-0.09 -3.92,0.455 -6.316,1.213 -6.316,2.56 0,0.262 0,4.394 0,4.659 0,2.844 10.676,5.154 23.836,5.154 13.16,0 23.83,-2.31 23.83,-5.154 0,-0.265 0,-4.397 0,-4.659 0,-1.376 -2.5,-2.153 -6.56,-2.616 z" inkscape:connector-curvature="0" />
        <path style="color:#000000;fill:url(#linearGradient3961);fill-rule:evenodd;stroke:#808389;stroke-width:0;stroke-linecap:round;stroke-linejoin:round" id="path3959" d="m 48.76,2.775 c 0,0 0.1,0.01 0.1,0.02 0.11,0.03 0.22,0.06 0.33,0.09 0,0 0.1,0.01 0.1,0.02 0.1,0.02 0.13,0.04 0.19,0.06 0,0 0,0.01 0.1,0.02 0,0 0,0 0,0 0,0.01 0.1,0.03 0.1,0.04 0,0.01 0.1,0.02 0.12,0.04 0,0 0,0.01 0.1,0.02 0.1,0.02 0.13,0.04 0.19,0.06 0,0 0,0.01 0.1,0.02 0,0.02 0.1,0.04 0.15,0.06 0,0 0,0.01 0.1,0.02 0.12,0.04 0.24,0.08 0.36,0.129 0,0.01 0.1,0.03 0.1,0.04 0,0.01 0.1,0.02 0.1,0.04 0.1,0.03 0.15,0.06 0.23,0.09 0,0.01 0,0.03 0.1,0.04 0,0 0,0 0,0 0,0.01 0.1,0.04 0.12,0.05 0,0 0,0.01 0.1,0.02 0,0 0,0.02 0,0.02 0.1,0.03 0.14,0.06 0.21,0.09 0,0 0,0.03 0,0.04 0,0.01 0.1,0.02 0.1,0.04 0,0 0,0.01 0,0.02 0,0 0,0.01 0,0.02 0,0 0,0.01 0,0.02 0,0 0,0.01 0,0.02 0,0 0,0.01 0,0.02 0,0 0,0.02 0,0.02 0,0.02 0.1,0.04 0.1,0.05 0,0 0,0.01 0,0.02 0,0.01 0,0.03 0,0.04 0,0.01 0,0.03 0.1,0.04 0.1,0.04 0.13,0.09 0.19,0.13 0,0 0,0.01 0,0.02 0.1,0.04 0.12,0.08 0.17,0.13 0,0 0,0.01 0,0.02 0,0.01 0,0.02 0.1,0.04 0,0 0,0.03 0,0.04 0,0.01 0,0.02 0,0.04 0,0 0,0 0,0 0,0 0,0.01 0,0.02 0,0.01 0,0.02 0,0.04 0,0 0,0.01 0,0.02 0,0 0,0.01 0,0.02 0.1,0.06 0.11,0.119 0.16,0.185 0,0.01 0,0.02 0,0.04 0,0 0,0.02 0,0.02 0,0 0,0.01 0,0.02 0,0.02 0,0.04 0,0.05 0,0 0,0.01 0,0.02 0,0.02 0,0.04 0,0.06 0,0.04 0,0.08 0,0.13 0,0.03 0,0.07 0,0.09 0,0 0,0 0,0.02 0,0.01 0,0.02 0,0.04 0,0.02 0,0.05 0,0.07 0,0.01 0,0.04 0,0.06 0,0 0,0.03 0,0.04 0,0.01 0,0.02 0,0.04 0,0.07 0,0.121 -0.1,0.185 0,0 0,0.01 0,0.02 0,0.01 0,0.02 0,0.04 0,0.01 0,0.02 0,0.04 0,0.02 0,0.02 0,0.04 0,0 0,0.03 0,0.04 0,0.02 0,0.05 0,0.07 0,0 0,0 0,0 0,0 0,0.01 0,0.02 0,0.04 -0.1,0.09 -0.1,0.13 0,0 0,0.01 0,0.02 0,0 0,0.03 0,0.04 -0.1,0.07 -0.12,0.125 -0.19,0.186 0,0 0,0.01 0,0.02 0,0.01 0,0.03 -0.1,0.04 0,0 0,0.03 0,0.04 0,0.03 -0.1,0.05 -0.11,0.07 0,0 0,0.01 0,0.02 -0.1,0.04 -0.13,0.09 -0.19,0.13 0,0.01 0,0.03 0,0.04 0,0.02 -0.1,0.04 -0.1,0.06 -0.22,0.135 -0.49,0.255 -0.75,0.371 -0.1,0.02 -0.1,0.05 -0.15,0.07 -0.1,0.03 -0.12,0.05 -0.18,0.07 0,0.02 -0.1,0.03 -0.15,0.06 0,0.01 -0.1,0.03 -0.1,0.04 0,0 0,0 0,0 0,0.02 -0.1,0.04 -0.13,0.06 -0.1,0.03 -0.17,0.06 -0.25,0.09 -0.14,0.05 -0.29,0.08 -0.43,0.13 -0.1,0.03 -0.16,0.05 -0.25,0.07 -0.1,0.02 -0.13,0.05 -0.19,0.07 -0.1,0.03 -0.19,0.04 -0.29,0.07 0,0.01 -0.1,0.03 -0.15,0.04 -0.1,0.02 -0.14,0.04 -0.21,0.06 -0.1,0.01 -0.11,0.03 -0.16,0.04 -0.1,0.02 -0.13,0.04 -0.21,0.06 -0.1,0.02 -0.17,0.04 -0.25,0.06 -0.24,0.06 -0.48,0.114 -0.73,0.167 -0.1,0.02 -0.17,0.04 -0.25,0.06 -0.13,0.03 -0.27,0.05 -0.41,0.07 -0.1,0.01 -0.12,0.04 -0.19,0.06 0,0 0,-10e-4 0,0 -0.25,0.05 -0.51,0.08 -0.77,0.13 -0.1,0.02 -0.16,0.04 -0.25,0.06 -0.17,0.03 -0.33,0.05 -0.5,0.07 -0.12,0.02 -0.26,0.05 -0.38,0.07 -0.26,0.04 -0.52,0.08 -0.77,0.111 -0.1,0.01 -0.17,0.03 -0.25,0.04 -0.17,0.02 -0.35,0.03 -0.52,0.06 -0.1,0.01 -0.17,0.03 -0.25,0.04 -0.1,0.01 -0.2,0.03 -0.29,0.04 -0.16,0.02 -0.31,0.04 -0.46,0.06 0,0 0,0 0,0 -0.7,0.08 -1.4,0.146 -2.1,0.204 -0.18,0.01 -0.35,0.02 -0.52,0.04 -0.61,0.05 -1.24,0.1 -1.85,0.13 -0.17,0 -0.35,0.01 -0.52,0.02 -0.1,0 -0.18,0.01 -0.27,0.02 -0.17,0 -0.35,0.01 -0.52,0.02 -0.7,0.03 -1.4,0.06 -2.1,0.07 -0.17,0 -0.34,0.02 -0.52,0.02 -0.35,0 -0.7,0.01 -1.06,0.02 -0.18,0 -0.37,-10e-4 -0.55,0 0,0 0,0 0,0 -0.1,0 -0.18,0 -0.27,0 0,0 0,0 0,0 -0.37,-10e-4 -0.75,0 -1.12,0 0,0 0,0 0,0 -0.18,0 -0.37,-0.02 -0.56,-0.02 -0.19,0 -0.38,0 -0.57,0 -0.19,0 -0.37,-0.01 -0.56,-0.02 0,0 0,0 0,0 -0.1,0 -0.18,0 -0.27,0 -0.19,0 -0.39,-0.01 -0.58,-0.02 -0.19,0 -0.37,-0.01 -0.56,-0.02 0,0 0,0 0,0 -0.18,0 -0.37,-0.01 -0.55,-0.02 -0.28,-0.01 -0.57,-0.02 -0.85,-0.04 0,0 0,0 0,0 -0.75,-0.04 -1.5,-0.09 -2.25,-0.149 0,0 0,0 0,0 -0.56,-0.04 -1.12,-0.09 -1.68,-0.148 0,-10e-4 0,10e-4 0,0 C 21.7,9.121 21.33,9.088 20.96,9.046 20.86,9.035 20.78,9.019 20.69,9.008 20.55,8.992 20.4,8.989 20.26,8.971 19.85,8.92 19.43,8.864 19.01,8.804 18.87,8.785 18.73,8.751 18.59,8.73 18.41,8.702 18.23,8.686 18.05,8.656 17.96,8.641 17.87,8.616 17.78,8.6 c -0.1,0 -0.1,-0.01 -0.15,-0.02 -0.1,0 -0.1,-0.01 -0.14,-0.02 -0.1,-0.02 -0.18,-0.04 -0.27,-0.06 0,0 -0.1,-0.01 -0.13,-0.02 C 16.99,8.46 16.91,8.44 16.82,8.42 16.72,8.42 16.72,8.41 16.68,8.4 16.58,8.38 16.5,8.36 16.41,8.34 16.05,8.27 15.69,8.195 15.34,8.118 15.24,8.098 15.16,8.078 15.07,8.058 14.97,8.038 14.89,8.018 14.8,7.998 14.7,7.988 14.7,7.968 14.66,7.958 14.54,7.957 14.42,7.928 14.3,7.895 14.24,7.879 14.18,7.856 14.12,7.84 14,7.807 13.88,7.782 13.76,7.747 13.7,7.73 13.63,7.709 13.56,7.691 13.5,7.674 13.45,7.654 13.39,7.636 13.33,7.617 13.26,7.599 13.2,7.58 13.1,7.56 13.07,7.54 13.01,7.52 12.91,7.49 12.83,7.46 12.74,7.43 12.64,7.41 12.62,7.39 12.56,7.37 12.56,7.36 12.46,7.34 12.46,7.33 12.36,7.31 12.34,7.3 12.28,7.27 12.17,7.23 12.05,7.169 11.94,7.122 c -0.2,-0.08 -0.4,-0.168 -0.58,-0.26 -0.1,-0.04 -0.14,-0.07 -0.21,-0.111 0,0 0,0 0,0 0,-0.02 -0.1,-0.05 -0.1,-0.07 0,0 0,-0.01 0,-0.02 -0.12,-0.08 -0.25,-0.155 -0.36,-0.241 0,0 0,-0.01 0,-0.02 0,-0.01 0,-0.03 0,-0.04 0,0 0,-0.01 0,-0.02 -0.1,-0.07 -0.16,-0.132 -0.23,-0.204 0,0 0,-0.01 0,-0.02 0,-0.01 0,-0.04 0,-0.06 0,0 0,0 0,0 0,-0.04 0,-0.07 -0.1,-0.111 0,0 0,0 0,-0.02 0,-0.03 0,-0.06 -0.1,-0.09 0,-0.01 0,0 0,-0.02 0,-0.04 -0.1,-0.07 -0.1,-0.111 0,-0.01 0,-0.03 0,-0.04 0,-0.04 0,-0.08 0,-0.111 0,-0.02 0,-0.02 0,-0.04 0,-0.01 0,-0.04 0,-0.05 0,-0.01 0,-0.02 0,-0.04 0,-0.02 0,-0.04 0,-0.06 0,0 0,0 0,-0.02 0,-0.01 0,-0.03 0,-0.04 0,0 0,0 0,-0.02 0,-0.02 0,-0.04 0,-0.06 0,0 0,0 0,-0.02 0,-0.01 0,-0.02 0,-0.04 0,-0.01 0,-0.04 0,-0.06 0,0 0,-0.01 0,-0.02 0,0 0,-0.03 0,-0.04 0,0 0,-0.01 0,-0.02 0,0 0,-0.01 0,-0.02 0,-0.03 0,-0.08 0,-0.111 0,0 0,-0.01 0,-0.02 0,-0.01 0,-0.02 0,-0.04 0,-0.01 0,-0.02 0,-0.04 0,-0.01 0,-0.02 0,-0.04 0,0 0,-0.01 0,-0.02 0,-0.02 0,-0.04 0,-0.05 0,-0.02 0,-0.03 0,-0.06 0,0 0,-0.03 0,-0.04 0,0 0,-0.01 0,-0.02 0,0 0,-0.01 0,-0.02 0,-0.02 0,-0.04 0,-0.06 0,-0.01 0,0 0,-0.02 0,-0.02 0,-0.02 0,-0.04 0,0 0,-0.03 0,-0.04 0,-0.02 0,-0.02 0,-0.04 0,0 0,-0.01 0,-0.02 0,-0.02 0,-0.04 0.1,-0.06 0,0 0,-0.01 0,-0.02 0,-0.02 0.1,-0.03 0.1,-0.06 0,0 0,-0.01 0,-0.02 0,-0.03 0.1,-0.07 0.1,-0.09 0,-0.02 0.1,-0.04 0.1,-0.06 0,-0.02 0.1,-0.04 0.1,-0.06 0,-0.01 0,-0.02 0.1,-0.04 0.11,-0.07 0.21,-0.141 0.32,-0.204 0.1,-0.05 0.2,-0.08 0.29,-0.13 0.1,-0.03 0.14,-0.08 0.21,-0.111 0.1,-0.02 0.11,-0.03 0.16,-0.06 0,-0.01 0.1,-0.03 0.1,-0.04 0,-0.02 0.1,-0.04 0.15,-0.06 0,-0.01 0,-0.03 0.1,-0.04 0,-0.02 0.1,-0.04 0.15,-0.06 0.1,-0.02 0.1,-0.04 0.15,-0.06 0.1,-0.02 0.11,-0.04 0.16,-0.05 0.1,-0.02 0.1,-0.04 0.15,-0.06 0,0 0.1,-0.01 0.1,-0.02 0.1,-0.02 0.1,-0.04 0.15,-0.05 0.1,-0.03 0.16,-0.05 0.23,-0.07 0,0 0.1,-0.01 0.1,-0.02 0.1,-0.02 0.17,-0.05 0.25,-0.07 0,0 0,10e-4 0,0 0.11,-0.03 0.22,-0.06 0.33,-0.09 -3.92,0.455 -6.316,1.213 -6.316,2.56 0,0.262 0,4.394 0,4.659 0,2.844 10.676,5.154 23.836,5.154 13.16,0 23.83,-2.31 23.83,-5.154 0,-0.265 0,-4.397 0,-4.659 0,-1.376 -2.5,-2.153 -6.56,-2.616 z" inkscape:connector-curvature="0" />
        <path style="color:#000000;fill:#d9dcd5;fill-rule:evenodd;stroke:url(#linearGradient2857);stroke-width:0.2608;stroke-linecap:round;stroke-linejoin:round" id="path18219" transform="matrix(0.5009,0,0,0.5009,-0.5732,-0.0603)" d="m 62.58,0.6243 c -1.55,0.01 -3.1,0.042 -4.65,0.074 C 46.35,1.11 34.47,2.038 23.92,5.364 c -3.5,1.2 -7.97,3.131 -7.46,6.076 1.11,3.17 6.3,4.71 10.46,5.92 12.52,3.18 26.2,3.88 39.54,3.82 12.32,-0.23 24.96,-1.04 36.34,-4.3 3.8,-1.2 8.5,-2.91 8.8,-5.96 0,-0.36 -0.1,-0.73 -0.3,-1.075 -1.8,-3.08 -7,-4.48 -11.33,-5.666 C 88.04,1.368 75.23,0.5557 62.58,0.6243 Z M 60.31,2.254 c 12.24,-0.163 24.71,0.436 36.28,2.925 3.91,0.981 8.61,2.155 10.31,4.703 0.1,0.278 0.2,0.558 0.2,0.848 -0.2,2.53 -4.5,3.93 -7.93,4.93 C 88.85,18.35 77.39,19.07 66.23,19.25 54.15,19.3 41.76,18.69 30.41,16.07 26.65,15.06 21.97,13.81 20.96,11.18 20.49,8.744 24.51,7.135 27.68,6.142 37.24,3.39 48.02,2.631 58.51,2.291 c 0.6,-0.01 1.2,-0.03 1.8,-0.04 z" inkscape:connector-curvature="0" />
        <path style="color:#000000;fill:url(#linearGradient14689);fill-rule:evenodd;stroke-width:0.4991" id="path7867" d="m 30.78,0.2524 c -0.78,0 -1.56,0.021 -2.33,0.037 C 22.65,0.4958 16.69,0.9609 11.41,2.627 9.655,3.228 7.416,4.195 7.673,5.669 8.23,7.26 10.83,8.03 12.91,8.637 c 6.27,1.593 13.13,1.943 19.81,1.913 6.17,-0.11 12.5,-0.52 18.21,-2.154 1.88,-0.603 4.25,-1.459 4.39,-2.986 0,-0.179 0,-0.368 -0.11,-0.538 C 54.29,3.328 51.7,2.627 49.51,2.033 43.53,0.6248 37.11,0.2181 30.78,0.2524 Z M 29.64,1.069 c 6.13,-0.082 12.38,0.218 18.17,1.465 1.99,0.492 4.34,1.079 5.16,2.356 0.1,0.141 0.12,0.279 0.12,0.427 C 52.96,6.581 50.8,7.285 49.1,7.784 43.93,9.134 38.2,9.49 32.6,9.584 26.55,9.608 20.35,9.304 14.66,7.988 12.77,7.486 10.43,6.855 9.926,5.539 9.693,4.32 11.71,3.514 13.29,3.017 18.08,1.638 23.48,1.258 28.73,1.087 c 0.31,0 0.61,-0.01 0.91,-0.02 z" inkscape:connector-curvature="0" />
      </g>
    </g>
  </g>
</svg>
