<?xml version="1.0" encoding="UTF-8" standalone="no"?>
<!-- Created with Inkscape (http://www.inkscape.org/) -->

<svg xmlns:dc="http://purl.org/dc/elements/1.1/" xmlns:cc="http://creativecommons.org/ns#" xmlns:rdf="http://www.w3.org/1999/02/22-rdf-syntax-ns#" xmlns:svg="http://www.w3.org/2000/svg" xmlns="http://www.w3.org/2000/svg" xmlns:xlink="http://www.w3.org/1999/xlink" xmlns:sodipodi="http://sodipodi.sourceforge.net/DTD/sodipodi-0.dtd" xmlns:inkscape="http://www.inkscape.org/namespaces/inkscape" id="svg3389" height="203.6" width="190" version="1.0" inkscape:version="0.48+devel r" sodipodi:docname="link.svg">
  <metadata id="metadata7975">
    <rdf:RDF>
      <cc:Work rdf:about="">
        <dc:format>image/svg+xml</dc:format>
        <dc:type rdf:resource="http://purl.org/dc/dcmitype/StillImage" />
        <dc:title></dc:title>
      </cc:Work>
    </rdf:RDF>
  </metadata>
  <sodipodi:namedview pagecolor="#ffffff" bordercolor="#666666" borderopacity="1" objecttolerance="10" gridtolerance="10" guidetolerance="10" inkscape:pageopacity="0" inkscape:pageshadow="2" inkscape:window-width="1366" inkscape:window-height="744" id="namedview7973" showgrid="false" inkscape:zoom="1" inkscape:cx="21.02" inkscape:cy="22.94" inkscape:window-x="0" inkscape:window-y="24" inkscape:window-maximized="1" inkscape:current-layer="svg3389" fit-margin-top="0" fit-margin-left="0" fit-margin-right="0" fit-margin-bottom="0" />
  <defs id="defs3391">
    <radialGradient id="radialGradient2616" gradientUnits="userSpaceOnUse" cy="4.625" cx="62.62" gradientTransform="matrix(1.734,0,0,0.6475,-84.05,36.87)" r="10.62">
      <stop id="stop8840" offset="0" />
      <stop id="stop8842" style="stop-opacity:0" offset="1" />
    </radialGradient>
    <linearGradient id="linearGradient2613" y2="8" xlink:href="#linearGradient2532" gradientUnits="userSpaceOnUse" x2="32.75" gradientTransform="matrix(0.9,0,0,0.9,-1.1,-0.95)" y1="50.02" x1="32.75" />
    <radialGradient id="radialGradient2611" gradientUnits="userSpaceOnUse" cy="12.61" cx="20.04" gradientTransform="matrix(1.757,-0.0452,0.0329,1.279,-14.97,-0.87)" r="22.46">
      <stop id="stop2541" style="stop-color:#f0c178" offset="0" />
      <stop id="stop2543" style="stop-color:#e18941" offset=".5" />
      <stop id="stop2545" style="stop-color:#ec4f18" offset="1" />
    </radialGradient>
    <linearGradient id="linearGradient2532">
      <stop id="stop2534" style="stop-color:#bb2b12" offset="0" />
      <stop id="stop2536" style="stop-color:#cd7233" offset="1" />
    </linearGradient>
    <linearGradient id="linearGradient2608" y2="0.4306" xlink:href="#linearGradient2532" gradientUnits="userSpaceOnUse" x2="28.01" y1="38.6" x1="28.01" gradientTransform="translate(0,6)" />
    <radialGradient id="radialGradient2605" xlink:href="#linearGradient3156" gradientUnits="userSpaceOnUse" cy="10.88" cx="22.12" gradientTransform="matrix(0.909,-0.1008,0.051,0.4601,-1.854,6.06)" r="20" />
    <radialGradient id="radialGradient2602" fy="4.761" xlink:href="#linearGradient3156" gradientUnits="userSpaceOnUse" cy="11.22" cx="22.94" gradientTransform="matrix(1.221,0.0092,-0.0057,0.7546,-6.387,5.63)" r="14" />
    <linearGradient id="linearGradient2599" y2="20.66" xlink:href="#linearGradient3156" gradientUnits="userSpaceOnUse" x2="28.29" gradientTransform="matrix(0.9686,-0.2622,0.1757,0.6429,-6.665,17.93)" y1="61.85" x1="24.33" />
    <linearGradient id="linearGradient2596" y2="20.66" xlink:href="#linearGradient3156" gradientUnits="userSpaceOnUse" x2="28.29" gradientTransform="matrix(1.012,-0.0061,0.001,0.6686,-3.699,6.86)" y1="-0.815" x1="27.89" />
    <linearGradient id="linearGradient2593" y2="20.66" xlink:href="#linearGradient3156" gradientUnits="userSpaceOnUse" x2="28.29" gradientTransform="matrix(-0.0895,-1.008,0.6251,-0.036,10.76,55.28)" y1="-2.31" x1="28.22" />
    <linearGradient id="linearGradient3156">
      <stop id="stop3158" style="stop-color:#fff" offset="0" />
      <stop id="stop3160" style="stop-color:#fff;stop-opacity:0" offset="1" />
    </linearGradient>
    <linearGradient id="linearGradient2590" y2="24.65" xlink:href="#linearGradient3156" gradientUnits="userSpaceOnUse" x2="29.73" gradientTransform="matrix(-0.1441,-0.9929,0.4371,0.0152,18.64,53.13)" y1="55.65" x1="30.5" />
  </defs>
  <g id="g8588" transform="matrix(5.075,0,0,5.027,-30.96,-31.42)">
    <path id="path8836" style="opacity:0.4;fill:url(#radialGradient2616);fill-rule:evenodd" d="m 42.94,39.87 c 0,3.8 -8.25,6.88 -18.42,6.88 -10.17,0 -18.42,-3.08 -18.42,-6.88 0,-3.8 8.25,-6.88 18.42,-6.88 10.17,0 18.42,3.08 18.42,6.88 z" inkscape:connector-curvature="0" />
    <path id="path1307" style="fill:url(#radialGradient2611);stroke:url(#linearGradient2613);stroke-width:0.1779;stroke-linecap:round;stroke-linejoin:round" d="M 43.45,25.15 C 43.45,35.33 35.19,43.6 25.01,43.6 14.83,43.6 6.573,35.33 6.573,25.15 6.573,14.96 14.83,6.7 25.01,6.7 c 10.18,0 18.44,8.26 18.44,18.45 z" inkscape:connector-curvature="0" />
    <path id="path6628" style="fill:url(#linearGradient2608)" d="m 42.3,20.86 -0.17,0.65 C 41.63,21.1 41.07,20.75 40.5,20.39 l -1.24,0.13 -1.14,-0.91 0,1.12 0.98,0.52 0.65,0.52 0.86,-0.69 c 0.22,0.29 0.44,0.58 0.65,0.86 l 0,0.87 -0.97,0.78 -1.79,0.86 -1.35,0.95 -0.87,-0.69 0.43,-0.78 -0.86,-0.69 -1.46,-2.2 -1.25,-1 -0.33,0.26 0.49,1.26 0.92,0.73 c 0.53,1.07 1.05,2.09 1.74,3.11 1.07,0 2.07,-0.1 3.14,-0.17 l 0,0.6 -1.3,2.25 -1.19,0.95 -0.98,1.47 0,2.42 0.33,0.96 -0.54,0.43 -1.2,0.52 -1.24,0.73 1.03,0.82 -1.41,0.87 0.27,0.56 -2.11,1.68 -1.41,0 -1.19,0.52 -0.76,0 0,-0.69 -0.32,-1.38 c -0.42,-0.87 -0.86,-1.73 -1.3,-2.6 0,-0.63 0,-1.26 0.1,-1.9 l 0.55,-0.86 -0.76,-1.04 0,-1.43 -1.03,-0.82 0.52,-1.19 -0.84,-0.67 -1.46,0 -0.49,-0.38 -1.46,0.64 -0.6,-0.47 -1.35,0.82 C 18.09,27.3 17.17,26.57 16.25,25.83 l -1.09,-1.81 0.98,-1.04 -0.54,-0.43 1.19,-1.99 c 0.97,-0.86 2,-1.68 3.03,-2.51 l 1.84,-0.34 2.06,-0.17 1.41,0.26 2,1.42 0.7,-0.56 0.98,-0.1 1.84,0.43 1.41,0 0.97,-0.6 0.44,-0.43 -0.98,-0.43 -1.62,-0.1 C 30.41,17.01 30,16.54 29.46,16.15 l -0.54,0.17 -0.22,1.13 -0.97,-0.78 -0.22,-0.87 -1.08,-0.6 -0.44,0 1.09,0.87 -0.44,0.77 -0.86,0.18 0.54,-0.78 -0.98,-0.35 -0.86,-0.69 -1.63,0.26 -0.21,0.34 -0.98,0.44 -0.54,0.95 -1.35,0.48 -0.6,-0.48 -0.65,0 0,-1.56 1.41,-0.52 1.08,0 -0.22,-0.6 -0.86,-0.61 1.46,-0.21 0.81,-0.65 0.65,-0.78 1.19,0 -0.32,-0.6 0.76,-0.35 0,0.69 1.62,0.26 1.62,-0.95 0.11,-0.43 1.41,-0.69 c -0.51,0 -1.02,0.1 -1.52,0.17 l 0,-0.78 0.55,-0.86 -0.55,0 -1.19,0.78 -0.32,0.43 0.32,0.6 -0.54,1.04 -0.86,-0.35 -0.76,-0.6 -1.19,0.6 -0.44,-1.38 2.06,-0.95 0,-0.52 1.3,-0.6 2.06,-0.35 1.41,0.35 1.95,0.86 -1.41,0 1.41,1.04 1.08,-0.87 c 0,0 4.31,2.17 6.53,5.16 2.17,2.91 3.07,6.22 3.17,6.9 z" inkscape:connector-curvature="0" />
    <path id="path3164" style="opacity:0.7;fill:none;stroke:url(#radialGradient2605);stroke-width:0.1776;stroke-linecap:round;stroke-linejoin:round" d="M 42.55,25.15 C 42.55,34.84 34.69,42.7 25,42.7 15.31,42.7 7.448,34.84 7.448,25.15 7.448,15.46 15.31,7.6 25,7.6 c 9.69,0 17.55,7.86 17.55,17.55 z" inkscape:connector-curvature="0" />
    <path id="path3154" style="opacity:0.5;fill:url(#radialGradient2602)" d="m 42.1,19.52 c 0,6.4 -7.66,9.93 -17.1,9.93 -9.44,0 -17.1,-3.53 -17.1,-9.93 0,-6.4 7.66,-13.27 17.1,-13.27 9.44,0 17.1,6.87 17.1,13.27 z" inkscape:connector-curvature="0" />
    <path id="path2218" style="opacity:0.5;fill:none;stroke:url(#linearGradient2599);stroke-width:0.1773;stroke-linecap:round" d="M 42.15,21.46 C 43.85,27.68 37.64,34.77 28.28,37.3 18.92,39.83 9.95,36.85 8.252,30.64 6.553,24.42 12.77,17.33 22.13,14.8 c 9.36,-2.53 18.32,0.45 20.02,6.66 z" inkscape:connector-curvature="0" />
    <path id="path2230" style="opacity:0.5;fill:none;stroke:url(#linearGradient2596);stroke-width:0.1776;stroke-linecap:round" d="m 42.89,22.79 c 0,6.46 -7.91,11.75 -17.7,11.81 C 15.41,34.66 7.47,29.47 7.461,23.01 7.451,16.54 15.37,11.26 25.16,11.2 c 9.78,-0.1 17.72,5.13 17.73,11.59 z" inkscape:connector-curvature="0" />
    <path id="path2234" style="opacity:0.5;fill:none;stroke:url(#linearGradient2593);stroke-width:0.1779;stroke-linecap:round" d="m 21.8,8.05 c 6.04,-0.35 11.64,7.26 12.51,17 0.86,9.74 -3.33,17.92 -9.38,18.27 C 18.89,43.67 13.29,36.05 12.43,26.31 11.56,16.57 15.76,8.39 21.8,8.05 l 0,0 z" inkscape:connector-curvature="0" />
    <path id="path2240" style="opacity:0.5;fill:none;stroke:url(#linearGradient2590);stroke-width:0.1779;stroke-linecap:round" d="m 22.61,7.82 c 4.23,0.15 8.78,8.05 10.17,17.65 1.4,9.59 -0.9,17.26 -5.12,17.11 -4.23,-0.15 -8.78,-8.05 -10.17,-17.64 -1.4,-9.6 0.9,-17.26 5.12,-17.12 l 0,0 z" inkscape:connector-curvature="0" />
    <path id="path2255" style="opacity:0.4;fill:#ffffff" d="m 34.07,35.65 c 0.18,0.69 -0.22,1.4 -0.9,1.58 -0.69,0.19 -1.4,-0.22 -1.58,-0.9 -0.19,-0.69 0.21,-1.4 0.9,-1.58 0.69,-0.19 1.39,0.22 1.58,0.9 z" inkscape:connector-curvature="0" />
    <path id="path2275" style="opacity:0.4;fill:#ffffff" d="m 16.98,37.19 c 0.19,0.69 -0.14,1.38 -0.72,1.54 -0.59,0.16 -1.22,-0.27 -1.4,-0.96 -0.19,-0.68 0.13,-1.37 0.72,-1.53 0.59,-0.16 1.22,0.27 1.4,0.95 z" inkscape:connector-curvature="0" />
    <path id="path2283" style="opacity:0.4;fill:#ffffff" d="m 29.15,11.21 c 0.28,0.56 0,1.16 -0.73,1.34 -0.68,0.19 -1.47,-0.11 -1.75,-0.66 -0.28,-0.56 0,-1.16 0.73,-1.34 0.69,-0.19 1.47,0.11 1.75,0.66 z" inkscape:connector-curvature="0" />
    <path id="path2291" style="opacity:0.4;fill:#ffffff" d="m 15.55,13.58 c 0,0.64 -0.58,1.3 -1.27,1.49 -0.68,0.19 -1.23,-0.18 -1.21,-0.81 0,-0.63 0.57,-1.3 1.26,-1.49 0.68,-0.18 1.23,0.18 1.22,0.81 z" inkscape:connector-curvature="0" />
  </g>
</svg>
