<?xml version="1.0" encoding="UTF-8" standalone="no"?>
<!-- Created with Inkscape (http://www.inkscape.org/) -->

<svg xmlns:dc="http://purl.org/dc/elements/1.1/" xmlns:cc="http://creativecommons.org/ns#" xmlns:rdf="http://www.w3.org/1999/02/22-rdf-syntax-ns#" xmlns:svg="http://www.w3.org/2000/svg" xmlns="http://www.w3.org/2000/svg" xmlns:sodipodi="http://sodipodi.sourceforge.net/DTD/sodipodi-0.dtd" xmlns:inkscape="http://www.inkscape.org/namespaces/inkscape" width="20.00002" height="130.0004" id="svg7391" version="1.1" inkscape:version="0.48+devel r" viewBox="0 0 20.00002 130.0004" sodipodi:docname="thumbs.svg">
<defs id="defs7393" />
<sodipodi:namedview id="base" pagecolor="#ffffff" bordercolor="#666666" borderopacity="1.0" inkscape:pageopacity="0.0" inkscape:pageshadow="2" inkscape:zoom="1.693912" inkscape:cx="-1.192318" inkscape:cy="54.83947" inkscape:document-units="px" inkscape:current-layer="layer1" showgrid="false" fit-margin-top="0" fit-margin-left="0" fit-margin-right="0" fit-margin-bottom="0" inkscape:window-width="1280" inkscape:window-height="894" inkscape:window-x="0" inkscape:window-y="27" inkscape:window-maximized="1" />
<metadata id="metadata7396">
<rdf:RDF>
<cc:Work rdf:about="">
<dc:format>image/svg+xml</dc:format>
<dc:type rdf:resource="http://purl.org/dc/dcmitype/StillImage" />
<dc:title></dc:title>
</cc:Work>
</rdf:RDF>
</metadata>
<g inkscape:label="Layer 1" inkscape:groupmode="layer" id="layer1" transform="translate(788.314,-342.7836)">
<g id="g17751">
<g transform="translate(5e-5,-11.74105)" id="g17745">
<g id="layer1-6" transform="matrix(0.0674898,0,0,0.0685394,-802.0084,330.3613)" style="fill:#008000">
<path d="m 238.596,527.0376 c 40.1594,-28.7277 44.7522,-57.6659 67.8601,-85.9105 15.2657,-18.6592 29.3027,-28.4963 46.7505,-55.1838 0,0 16.0177,-33.1495 32.2776,-33.3939 22.3086,-0.3355 22.1519,32.1307 17.7866,49.4398 -8.1548,32.3345 -20.4431,49.1517 -44.6956,79.753 36.4553,46.3813 84.3998,-27.9937 126.8451,-3.8603 25.2567,14.7632 10.8302,47.0481 -3.1209,57.1523 18.09,19.6563 16.8293,34.4977 6.579,53.6553 7.4436,20.0787 -2.2659,45.7926 -11.0659,55.4681 22.836,25.115 -8.737,52.9972 -32.6687,60.559 -63.0722,25.5348 -96.0719,5.4743 -161.7133,-1.6449 C 180.835,677.601 188.5482,562.8388 238.596,527.0376 Z" id="path3904-6" inkscape:connector-curvature="0" sodipodi:nodetypes="sassscccccccs" style="fill:#008000" />
</g>
<g style="fill:#aa0000" transform="matrix(-0.0674898,0,0,-0.0685394,-754.6197,438.688)" id="g7957">
<path style="fill:#aa0000" sodipodi:nodetypes="sassscccccccs" inkscape:connector-curvature="0" id="path7959" d="m 238.596,527.0376 c 40.1594,-28.7277 44.7522,-57.6659 67.8601,-85.9105 15.2657,-18.6592 29.3027,-28.4963 46.7505,-55.1838 0,0 16.0177,-33.1495 32.2776,-33.3939 22.3086,-0.3355 22.1519,32.1307 17.7866,49.4398 -8.1548,32.3345 -20.4431,49.1517 -44.6956,79.753 36.4553,46.3813 84.3998,-27.9937 126.8451,-3.8603 25.2567,14.7632 10.8302,47.0481 -3.1209,57.1523 18.09,19.6563 16.8293,34.4977 6.579,53.6553 7.4436,20.0787 -2.2659,45.7926 -11.0659,55.4681 22.836,25.115 -8.737,52.9972 -32.6687,60.559 -63.0722,25.5348 -96.0719,5.4743 -161.7133,-1.6449 C 180.835,677.601 188.5482,562.8388 238.596,527.0376 Z" />
</g>
</g>
<g transform="translate(5e-5,-14.79264)" id="g17739">
<g style="fill:#008000" transform="matrix(0.0674898,0,0,0.0685394,-802.0084,403.4133)" id="g17731">
<path style="fill:#808080" sodipodi:nodetypes="sassscccccccs" inkscape:connector-curvature="0" id="path17733" d="m 238.596,527.0376 c 40.1594,-28.7277 44.7522,-57.6659 67.8601,-85.9105 15.2657,-18.6592 29.3027,-28.4963 46.7505,-55.1838 0,0 16.0177,-33.1495 32.2776,-33.3939 22.3086,-0.3355 22.1519,32.1307 17.7866,49.4398 -8.1548,32.3345 -20.4431,49.1517 -44.6956,79.753 36.4553,46.3813 84.3998,-27.9937 126.8451,-3.8603 25.2567,14.7632 10.8302,47.0481 -3.1209,57.1523 18.09,19.6563 16.8293,34.4977 6.579,53.6553 7.4436,20.0787 -2.2659,45.7926 -11.0659,55.4681 22.836,25.115 -8.737,52.9972 -32.6687,60.559 -63.0722,25.5348 -96.0719,5.4743 -161.7133,-1.6449 C 180.835,677.601 188.5482,562.8388 238.596,527.0376 Z" />
</g>
<g id="g17735" transform="matrix(-0.0674898,0,0,-0.0685394,-754.6197,511.74)" style="fill:#aa0000">
<path d="m 238.596,527.0376 c 40.1594,-28.7277 44.7522,-57.6659 67.8601,-85.9105 15.2657,-18.6592 29.3027,-28.4963 46.7505,-55.1838 0,0 16.0177,-33.1495 32.2776,-33.3939 22.3086,-0.3355 22.1519,32.1307 17.7866,49.4398 -8.1548,32.3345 -20.4431,49.1517 -44.6956,79.753 36.4553,46.3813 84.3998,-27.9937 126.8451,-3.8603 25.2567,14.7632 10.8302,47.0481 -3.1209,57.1523 18.09,19.6563 16.8293,34.4977 6.579,53.6553 7.4436,20.0787 -2.2659,45.7926 -11.0659,55.4681 22.836,25.115 -8.737,52.9972 -32.6687,60.559 -63.0722,25.5348 -96.0719,5.4743 -161.7133,-1.6449 C 180.835,677.601 188.5482,562.8388 238.596,527.0376 Z" id="path17737" inkscape:connector-curvature="0" sodipodi:nodetypes="sassscccccccs" style="fill:#808080" />
</g>
</g>
</g>
</g>
</svg>
