<?xml version="1.0" encoding="UTF-8" standalone="no"?>
<!-- Created with Inkscape (http://www.inkscape.org/) -->

<svg
   xmlns:dc="http://purl.org/dc/elements/1.1/"
   xmlns:cc="http://creativecommons.org/ns#"
   xmlns:rdf="http://www.w3.org/1999/02/22-rdf-syntax-ns#"
   xmlns:svg="http://www.w3.org/2000/svg"
   xmlns="http://www.w3.org/2000/svg"
   xmlns:sodipodi="http://sodipodi.sourceforge.net/DTD/sodipodi-0.dtd"
   xmlns:inkscape="http://www.inkscape.org/namespaces/inkscape"
   id="svg2"
   sodipodi:version="0.32"
   inkscape:version="0.48.4 r9939"
   width="73.859528"
   height="73.859528"
   version="1.0"
   sodipodi:docname="broken.svg"
   sodipodi:modified="true">
  <metadata
     id="metadata7">
    <rdf:RDF>
      <cc:Work
         rdf:about="">
        <dc:format>image/svg+xml</dc:format>
        <dc:type
           rdf:resource="http://purl.org/dc/dcmitype/StillImage" />
        <dc:title />
      </cc:Work>
    </rdf:RDF>
  </metadata>
  <defs
     id="defs5" />
  <sodipodi:namedview
     inkscape:window-height="960"
     inkscape:window-width="1280"
     inkscape:pageshadow="2"
     inkscape:pageopacity="0.0"
     guidetolerance="10.0"
     gridtolerance="10.0"
     objecttolerance="10.0"
     borderopacity="1.0"
     bordercolor="#666666"
     pagecolor="#ffffff"
     id="base"
     width="70px"
     height="92px"
     inkscape:zoom="2.8284271"
     inkscape:cx="40.1614"
     inkscape:cy="70.850251"
     inkscape:window-x="0"
     inkscape:window-y="0"
     inkscape:current-layer="svg2"
     showgrid="false"
     fit-margin-top="0"
     fit-margin-left="0"
     fit-margin-right="0"
     fit-margin-bottom="0"
     inkscape:window-maximized="1"
     showguides="true"
     inkscape:guide-bbox="true" />
  <g
     id="g4154"
     transform="translate(0.70710683,0.17677631)">
    <circle
       sodipodi:ry="63.875004"
       sodipodi:rx="63.875004"
       sodipodi:cy="50.375"
       sodipodi:cx="36.625"
       d="m 100.5,50.375 c 0,35.277191 -28.597809,63.875 -63.875,63.875 -35.2771905,0 -63.875004,-28.597809 -63.875004,-63.875 0,-35.277191 28.5978135,-63.875004 63.875004,-63.875004 35.277191,0 63.875,28.597813 63.875,63.875004 z"
       style="color:#000000;fill:#ffffff;fill-opacity:1;fill-rule:nonzero;stroke:#cc0000;stroke-width:6.88976431;stroke-linecap:butt;stroke-linejoin:miter;stroke-miterlimit:4;stroke-opacity:1;stroke-dasharray:none;stroke-dashoffset:0;marker:none;visibility:visible;display:inline;overflow:visible;enable-background:accumulate"
       id="path4195"
       cx="36.625"
       cy="50.375"
       r="63.875004"
       transform="matrix(0.54837825,-0.01455616,0.01455616,0.54837825,15.405037,9.6615525)" />
    <g
       id="g4145">
      <g
         style="fill:#ffffff;fill-opacity:1;stroke:none"
         transform="matrix(-0.54832515,-0.12252432,-0.12252432,0.54832515,66.051301,28.408727)"
         id="g4055">
        <g
           id="g4049">
          <path
             sodipodi:nodetypes="ccccc"
             inkscape:connector-curvature="0"
             id="rect3132"
             d="m 62.597375,21.441382 -8.58e-4,37.85252 -56.2568653,-0.0013 8.58e-4,-37.85252 z"
             style="fill:#cc0000;fill-opacity:1;fill-rule:nonzero;stroke:none" />
          <g
             id="g4041">
            <path
               sodipodi:nodetypes="cscscccscscc"
               inkscape:connector-curvature="0"
               id="path3017"
               d="M 96.199619,21.830919 95.950618,6.6455897 C 95.827232,-0.87911052 91.524191,-14.392017 72.23801,-14.254695 54.282421,-14.125925 47.489496,-2.2877017 47.462293,6.6444907 l -0.04624,15.1853233 6.030663,1.36e-4 6.030662,1.37e-4 3.44e-4,-15.185324 c 1.27e-4,-5.6146493 6.507727,-10.0280875 12.705379,-9.9071368 5.874161,1.331e-4 10.794929,5.4990824 10.9988,9.9076741 l 0.590896,15.1853377 z"
               style="fill:#cc0000;fill-opacity:1;fill-rule:nonzero;stroke:none" />
            <path
               inkscape:connector-curvature="0"
               style="fill:#ffffff;fill-opacity:1;fill-rule:evenodd;stroke:none"
               d="m 51.452792,5.7964048 c 9.179703,-18.7158438 22.046347,-16.1116108 29.486107,-14.9583537 0,0 -9.783026,-4.6853801 -19.186976,-0.066361 C 52.529341,-4.6983744 51.452792,5.7964048 51.452792,5.7964048 z"
               id="path7026"
               sodipodi:nodetypes="ccsc" />
          </g>
        </g>
      </g>
      <path
         d="m 38.546784,45.516923 3.95188,-6.128757 5.61936,1.261757 -5.139212,3.888825 3.346066,0.751316 -8.49271,7.113759 3.198948,-6.360425 z"
         style="fill:#ffffff;fill-opacity:1;stroke:#ffffff;stroke-width:0.78337264;stroke-linecap:round;stroke-linejoin:round;stroke-miterlimit:4;stroke-opacity:1;stroke-dasharray:none"
         id="path2996"
         inkscape:connector-curvature="0"
         inkscape:transform-center-y="-1.0634267"
         inkscape:transform-center-x="0.003786541" />
    </g>
  </g>
</svg>
