<?xml version="1.0" encoding="UTF-8" standalone="no"?>
<!-- Created with Inkscape (http://www.inkscape.org/) -->

<svg
   xmlns:dc="http://purl.org/dc/elements/1.1/"
   xmlns:cc="http://creativecommons.org/ns#"
   xmlns:rdf="http://www.w3.org/1999/02/22-rdf-syntax-ns#"
   xmlns:svg="http://www.w3.org/2000/svg"
   xmlns="http://www.w3.org/2000/svg"
   xmlns:sodipodi="http://sodipodi.sourceforge.net/DTD/sodipodi-0.dtd"
   xmlns:inkscape="http://www.inkscape.org/namespaces/inkscape"
   id="svg2"
   sodipodi:version="0.32"
   inkscape:version="0.91+devel r"
   width="73.859528"
   height="73.859528"
   version="1.0"
   sodipodi:docname="sig-broken.svg"
   sodipodi:modified="true">
  <metadata
     id="metadata7">
    <rdf:RDF>
      <cc:Work
         rdf:about="">
        <dc:format>image/svg+xml</dc:format>
        <dc:type
           rdf:resource="http://purl.org/dc/dcmitype/StillImage" />
        <dc:title></dc:title>
      </cc:Work>
    </rdf:RDF>
  </metadata>
  <defs
     id="defs5" />
  <sodipodi:namedview
     inkscape:window-height="1056"
     inkscape:window-width="1855"
     inkscape:pageshadow="2"
     inkscape:pageopacity="0.0"
     guidetolerance="10.0"
     gridtolerance="10.0"
     objecttolerance="10.0"
     borderopacity="1.0"
     bordercolor="#666666"
     pagecolor="#ffffff"
     id="base"
     width="70px"
     height="92px"
     inkscape:zoom="1"
     inkscape:cx="46.000638"
     inkscape:cy="45.904486"
     inkscape:window-x="65"
     inkscape:window-y="24"
     inkscape:current-layer="svg2"
     showgrid="false"
     fit-margin-top="0"
     fit-margin-left="0"
     fit-margin-right="0"
     fit-margin-bottom="0"
     inkscape:window-maximized="1" />
  <g
     id="g4197"
     transform="matrix(0.5485714,0,0,0.5485714,16.838337,9.2954798)">
    <circle
       r="63.875004"
       cy="50.375"
       cx="36.625"
       id="path4195"
       style="color:#000000;clip-rule:nonzero;display:inline;overflow:visible;visibility:visible;opacity:1;isolation:auto;mix-blend-mode:normal;color-interpolation:sRGB;color-interpolation-filters:linearRGB;solid-color:#000000;solid-opacity:1;fill:#ffffff;fill-opacity:1;fill-rule:nonzero;stroke:#cc0000;stroke-width:6.88976431;stroke-linecap:butt;stroke-linejoin:miter;stroke-miterlimit:4;stroke-dasharray:none;stroke-dashoffset:0;stroke-opacity:1;marker:none;color-rendering:auto;image-rendering:auto;shape-rendering:auto;text-rendering:auto;enable-background:accumulate" />
    <path
       sodipodi:nodetypes="csccccccscssccss"
       inkscape:connector-curvature="0"
       id="rect3132"
       d="M 35.625,0 C 13.282997,0.16073382 4.8309448,14.891144 4.7973492,26.005404 L 4.7402344,44.900391 0,44.900391 0,92 l 70,0 0,-47.099609 -4.697266,0 -0.171723,-18.894987 C 65.04591,16.641605 59.622648,-0.17141177 35.625,0 Z m -0.6875,13.9375 c 7.309175,0 14.051687,6.582333 14.305486,12.067904 l 0.874208,18.894987 -30.369141,0 0,-18.894987 c 0,-6.986266 7.880769,-12.067904 15.189447,-12.067904 z"
       style="opacity:1;fill:#cc0000;fill-opacity:1;fill-rule:nonzero;stroke:none;stroke-width:2.5;stroke-miterlimit:4;stroke-dasharray:none;stroke-dashoffset:0;stroke-opacity:1" />
    <path
       sodipodi:nodetypes="ccsc"
       id="path7026"
       d="M 10.269321,25.20553 C 21.691029,1.9172856 37.700972,5.1573508 46.958242,6.5921309 c 0,0 -12.173078,-5.82970794 -23.874213,-0.082031 C 11.608567,12.146925 10.269321,25.20553 10.269321,25.20553 Z"
       style="fill:#ffffff;fill-opacity:1;fill-rule:evenodd;stroke:none;stroke-width:0.1;stroke-linecap:butt;stroke-linejoin:miter;stroke-miterlimit:4;stroke-dasharray:none;stroke-opacity:1"
       inkscape:connector-curvature="0" />
  </g>
  <path
     style="fill:#ffffff;fill-rule:evenodd;stroke:none;stroke-width:1px;stroke-linecap:butt;stroke-linejoin:miter;stroke-opacity:1"
     d="m 41.5,25.859528 -0.25,8 17.75,0 -0.5,-8 z"
     id="path4222"
     inkscape:connector-curvature="0"
     sodipodi:nodetypes="ccccc" />
  <g
     style="font-style:normal;font-weight:normal;font-size:23.19624901px;line-height:125%;font-family:sans-serif;letter-spacing:0px;word-spacing:0px;fill:#ffffff;fill-opacity:1;stroke:none;stroke-width:1px;stroke-linecap:butt;stroke-linejoin:miter;stroke-opacity:1"
     id="text4224">
    <path
       d="m 29.961595,38.949371 2.457806,0 4.202055,6.286093 4.224707,-6.286093 2.457806,0 -5.436621,8.120953 5.799062,8.789204 -2.457805,0 -4.757043,-7.192197 -4.791023,7.192197 -2.469132,0 6.036915,-9.027056 -5.266727,-7.883101 z"
       style=""
       id="path4229" />
  </g>
</svg>
