<?xml version="1.0" encoding="UTF-8" standalone="no"?>
<!-- Created with Inkscape (http://www.inkscape.org/) -->

<svg
   xmlns:dc="http://purl.org/dc/elements/1.1/"
   xmlns:cc="http://creativecommons.org/ns#"
   xmlns:rdf="http://www.w3.org/1999/02/22-rdf-syntax-ns#"
   xmlns:svg="http://www.w3.org/2000/svg"
   xmlns="http://www.w3.org/2000/svg"
   version="1.1"
   width="20"
   height="60"
   id="svg2">
  <defs
     id="defs4" />
  <metadata
     id="metadata7">
    <rdf:RDF>
      <cc:Work
         rdf:about="">
        <dc:format>image/svg+xml</dc:format>
        <dc:type
           rdf:resource="http://purl.org/dc/dcmitype/StillImage" />
        <dc:title></dc:title>
      </cc:Work>
    </rdf:RDF>
  </metadata>
  <g
     transform="translate(0,-992.36217)"
     id="layer1">
    <g
       id="g3822">
      <g
         id="g3812">
        <path
           d="m 13.212474,1034.0414 c -2.649863,0.9387 -4.7112341,-1.7475 -8.6213796,0.9402 l 0.9687169,8.0522 c 3.9101516,-2.6877 5.9753587,0.031 8.6252217,-0.9083 2.213789,-0.8215 2.370203,-1.7843 4.003552,-1.6786 -0.933126,-3.2027 -1.069145,-6.2974 -0.972553,-8.0841 -1.694835,-0.035 -3.004262,1.2947 -4.003558,1.6786 z"
           id="rect2985"
           style="color:#000000;fill:#808080;fill-opacity:1;fill-rule:nonzero;stroke:none;stroke-width:4.09800005;marker:none;visibility:visible;display:inline;overflow:visible;enable-background:accumulate" />
        <path
           d="m -120.7378,1027.5869 0.33584,0 c 0.27579,0 0.49781,0.222 0.49781,0.4978 l 0,16.8389 c 0,0.2757 -0.22202,0.4978 -0.49781,0.4978 l -0.33584,0 c -0.27578,0 -0.4978,-0.2221 -0.4978,-0.4978 l 0,-16.8389 c 0,-0.2758 0.22202,-0.4978 0.4978,-0.4978 z"
           transform="matrix(0.99284098,-0.11944363,0.11944363,0.99284098,0,0)"
           id="rect2988"
           style="color:#000000;fill:#808080;fill-opacity:1;fill-rule:nonzero;stroke:none;stroke-width:4.09800005;marker:none;visibility:visible;display:inline;overflow:visible;enable-background:accumulate" />
        <path
           d="m 154.04826,231.3607 c 0,5.99734 -4.86181,10.85914 -10.85914,10.85914 -5.99734,0 -10.85914,-4.8618 -10.85914,-10.85914 0,-5.99733 4.8618,-10.85914 10.85914,-10.85914 5.99733,0 10.85914,4.86181 10.85914,10.85914 z"
           transform="matrix(0.10651676,-0.01281449,0.01281449,0.10651676,-15.24026,1011.3619)"
           id="path2990"
           style="color:#000000;fill:#808080;fill-opacity:1;fill-rule:nonzero;stroke:none;stroke-width:4.09800005;marker:none;visibility:visible;display:inline;overflow:visible;enable-background:accumulate" />
      </g>
      <g
         id="g3817">
        <path
           d="m 13.212474,994.04136 c -2.649863,0.93876 -4.7112341,-1.74749 -8.6213796,0.94019 l 0.9687169,8.05215 c 3.9101516,-2.6876 5.9753587,0.031 8.6252217,-0.9082 2.213789,-0.8216 2.370203,-1.7843 4.003552,-1.6786 -0.933126,-3.2027 -1.069145,-6.29745 -0.972553,-8.08409 -1.694835,-0.0346 -3.004262,1.29467 -4.003558,1.67855 z"
           id="path3028"
           style="color:#000000;fill:#d55500;fill-opacity:1;fill-rule:nonzero;stroke:none;stroke-width:4.09800005;marker:none;visibility:visible;display:inline;overflow:visible;enable-background:accumulate" />
        <path
           d="m -115.96006,987.87323 0.33584,0 c 0.27579,0 0.49781,0.22202 0.49781,0.49781 l 0,16.83886 c 0,0.2758 -0.22202,0.4978 -0.49781,0.4978 l -0.33584,0 c -0.27578,0 -0.4978,-0.222 -0.4978,-0.4978 l 0,-16.83886 c 0,-0.27579 0.22202,-0.49781 0.4978,-0.49781 z"
           transform="matrix(0.99284098,-0.11944363,0.11944363,0.99284098,0,0)"
           id="rect3030"
           style="color:#000000;fill:#d55500;fill-opacity:1;fill-rule:nonzero;stroke:none;stroke-width:4.09800005;marker:none;visibility:visible;display:inline;overflow:visible;enable-background:accumulate" />
        <path
           d="m 154.04826,231.3607 c 0,5.99734 -4.86181,10.85914 -10.85914,10.85914 -5.99734,0 -10.85914,-4.8618 -10.85914,-10.85914 0,-5.99733 4.8618,-10.85914 10.85914,-10.85914 5.99733,0 10.85914,4.86181 10.85914,10.85914 z"
           transform="matrix(0.10651676,-0.01281449,0.01281449,0.10651676,-15.24026,971.36186)"
           id="path3032"
           style="color:#000000;fill:#d55500;fill-opacity:1;fill-rule:nonzero;stroke:none;stroke-width:4.09800005;marker:none;visibility:visible;display:inline;overflow:visible;enable-background:accumulate" />
      </g>
    </g>
  </g>
</svg>
