<?xml version="1.0" encoding="UTF-8" standalone="no"?>
<!-- Created with Inkscape (http://www.inkscape.org/) -->

<svg
   xmlns:dc="http://purl.org/dc/elements/1.1/"
   xmlns:cc="http://creativecommons.org/ns#"
   xmlns:rdf="http://www.w3.org/1999/02/22-rdf-syntax-ns#"
   xmlns:svg="http://www.w3.org/2000/svg"
   xmlns="http://www.w3.org/2000/svg"
   xmlns:sodipodi="http://sodipodi.sourceforge.net/DTD/sodipodi-0.dtd"
   xmlns:inkscape="http://www.inkscape.org/namespaces/inkscape"
   width="30"
   height="63.487888"
   id="svg6080"
   version="1.1"
   inkscape:version="0.48.4 r9939"
   sodipodi:docname="subscribe.svg">
  <defs
     id="defs6082" />
  <sodipodi:namedview
     id="base"
     pagecolor="#ffffff"
     bordercolor="#666666"
     borderopacity="1.0"
     inkscape:pageopacity="0.0"
     inkscape:pageshadow="2"
     inkscape:zoom="7.9195959"
     inkscape:cx="48.82342"
     inkscape:cy="26.678293"
     inkscape:document-units="px"
     inkscape:current-layer="layer1"
     showgrid="false"
     fit-margin-top="0"
     fit-margin-left="0"
     fit-margin-right="0"
     fit-margin-bottom="0"
     inkscape:window-width="1280"
     inkscape:window-height="960"
     inkscape:window-x="0"
     inkscape:window-y="0"
     inkscape:window-maximized="1" />
  <metadata
     id="metadata6085">
    <rdf:RDF>
      <cc:Work
         rdf:about="">
        <dc:format>image/svg+xml</dc:format>
        <dc:type
           rdf:resource="http://purl.org/dc/dcmitype/StillImage" />
      </cc:Work>
    </rdf:RDF>
  </metadata>
  <g
     inkscape:label="Ebene 1"
     inkscape:groupmode="layer"
     id="layer1"
     transform="translate(-258.02099,-556.63144)">
    <g
       id="g6131"
       transform="matrix(0.26882129,0,0,0.26882129,193.70151,871.95093)">
      <g
         id="g6133">
        <path
           inkscape:export-ydpi="410.78757"
           inkscape:export-xdpi="410.78757"
           inkscape:export-filename="/media/sicher/maren/Arbeit/Kitz/Entwurf3.png"
           style="font-size:medium;font-style:normal;font-variant:normal;font-weight:normal;font-stretch:normal;text-indent:0;text-align:start;text-decoration:none;line-height:normal;letter-spacing:normal;word-spacing:normal;text-transform:none;direction:ltr;block-progression:tb;writing-mode:lr-tb;text-anchor:start;baseline-shift:baseline;color:#000000;fill:#ffffff;fill-opacity:1;fill-rule:nonzero;stroke:none;stroke-width:0.65570527;marker:none;visibility:visible;display:inline;overflow:visible;enable-background:accumulate;font-family:Sans;-inkscape-font-specification:Sans"
           d="m 257.53045,-1007.2995 c -5.18863,-0.9134 -10.21081,2.6053 -11.12437,7.79406 l -6.99691,39.74774 c -0.91336,5.18867 2.60544,10.21095 7.79419,11.12438 l 66.40545,11.68965 c 5.18868,0.91341 10.21101,-2.60542 11.12438,-7.79401 l 6.99694,-39.74789 c 0.42489,-2.41394 -0.11084,-4.79006 -1.32673,-6.73494 -0.16693,-0.7003 -0.64778,-1.31947 -1.28495,-1.65457 -1.35656,-1.3929 -3.13991,-2.37503 -5.18281,-2.7347 L 257.53,-1007.2994 z"
           id="path6135"
           inkscape:connector-curvature="0"
           sodipodi:nodetypes="ccsssscccccc" />
        <path
           inkscape:connector-curvature="0"
           id="path6137"
           d="m 257.53045,-1007.2995 c -5.18863,-0.9134 -10.21081,2.6053 -11.12437,7.79406 l -6.99691,39.74774 c -0.91336,5.18867 2.60544,10.21095 7.79419,11.12438 l 66.40545,11.68965 c 5.18868,0.91341 10.21101,-2.60542 11.12438,-7.79401 l 6.99694,-39.74789 c 0.42489,-2.41394 -0.11084,-4.79006 -1.32673,-6.73494 a 2.5330767,2.5330767 0 0 0 -1.28495,-1.65457 c -1.35656,-1.3929 -3.13991,-2.37503 -5.18281,-2.7347 L 257.53,-1007.2994 z m -0.88293,5.0163 66.40563,11.68962 -38.3077,23.15385 -28.09793,-34.84347 z m -4.66926,2.1825 21.58368,26.80112 -27.44578,18.81069 c -1.31739,-0.97556 -2.00208,-2.61702 -1.69071,-4.38575 l 6.99692,-39.74775 c 0.0958,-0.54238 0.30566,-1.03301 0.55589,-1.47831 z m 74.71818,13.15294 c 0.0833,0.50395 0.11346,1.03682 0.0177,1.57922 l -6.99687,39.74775 c -0.31001,1.76036 -1.51786,3.02418 -3.07839,3.49697 l -19.38067,-27.00448 29.43855,-17.81951 z m -49.94068,17.60901 5.45722,6.77264 a 2.5330767,2.5330767 0 0 0 3.24848,0.57187 l 7.44191,-4.50198 17.00225,23.72892 -57.23313,-10.07493 24.08327,-16.49652 z"
           style="font-size:medium;font-style:normal;font-variant:normal;font-weight:normal;font-stretch:normal;text-indent:0;text-align:start;text-decoration:none;line-height:normal;letter-spacing:normal;word-spacing:normal;text-transform:none;direction:ltr;block-progression:tb;writing-mode:lr-tb;text-anchor:start;baseline-shift:baseline;color:#000000;fill:#d0d0d0;fill-opacity:1;fill-rule:nonzero;stroke:none;stroke-width:0.65570527;marker:none;visibility:visible;display:inline;overflow:visible;enable-background:accumulate;font-family:Sans;-inkscape-font-specification:Sans"
           inkscape:export-filename="/media/sicher/maren/Arbeit/Kitz/Entwurf3.png"
           inkscape:export-xdpi="410.78757"
           inkscape:export-ydpi="410.78757" />
      </g>
      <path
         style="color:#000000;fill:#bfbfbf;fill-opacity:1;fill-rule:nonzero;stroke:none;stroke-width:0.55780399;marker:none;visibility:visible;display:inline;overflow:visible;enable-background:accumulate"
         d="m 320.1585,-1015.5231 c -2.95585,0 -5.33779,2.382 -5.33779,5.3378 l 0,6.3075 0,4.70116 -11.00862,0 c -2.95586,0 -5.32801,2.38193 -5.32801,5.33779 l 0,9.03019 c 0,2.95585 2.37215,5.32801 5.32801,5.32801 l 11.00862,0 0,8.73637 0,2.27223 c 0,2.95587 2.38194,5.33782 5.33779,5.33782 l 2.27225,0 4.47592,0 2.28204,0 c 2.95585,0 5.3378,-2.38195 5.3378,-5.33782 l 0,-2.27223 0,-8.73637 10.99882,0 c 2.95585,0 5.3378,-2.37216 5.3378,-5.32801 l 0,-9.03019 c 0,-2.95586 -2.38195,-5.33779 -5.3378,-5.33779 l -10.99882,0 0,-4.70116 0,-6.3075 c 0,-2.9558 -2.38195,-5.3378 -5.3378,-5.3378 l -9.03021,0 z"
         id="path6139"
         inkscape:connector-curvature="0" />
    </g>
    <g
       transform="matrix(0.26882129,0,0,0.26882129,193.70151,829.62567)"
       id="g6088">
      <g
         id="g6032">
        <path
           sodipodi:nodetypes="ccsssscccccc"
           inkscape:connector-curvature="0"
           id="path6030"
           d="m 257.53045,-1007.2995 c -5.18863,-0.9134 -10.21081,2.6053 -11.12437,7.79406 l -6.99691,39.74774 c -0.91336,5.18867 2.60544,10.21095 7.79419,11.12438 l 66.40545,11.68965 c 5.18868,0.91341 10.21101,-2.60542 11.12438,-7.79401 l 6.99694,-39.74789 c 0.42489,-2.41394 -0.11084,-4.79006 -1.32673,-6.73494 -0.16693,-0.7003 -0.64778,-1.31947 -1.28495,-1.65457 -1.35656,-1.3929 -3.13991,-2.37503 -5.18281,-2.7347 L 257.53,-1007.2994 z"
           style="font-size:medium;font-style:normal;font-variant:normal;font-weight:normal;font-stretch:normal;text-indent:0;text-align:start;text-decoration:none;line-height:normal;letter-spacing:normal;word-spacing:normal;text-transform:none;direction:ltr;block-progression:tb;writing-mode:lr-tb;text-anchor:start;baseline-shift:baseline;color:#000000;fill:#ffffff;fill-opacity:1;fill-rule:nonzero;stroke:none;stroke-width:0.65570527;marker:none;visibility:visible;display:inline;overflow:visible;enable-background:accumulate;font-family:Sans;-inkscape-font-specification:Sans"
           inkscape:export-filename="/media/sicher/maren/Arbeit/Kitz/Entwurf3.png"
           inkscape:export-xdpi="410.78757"
           inkscape:export-ydpi="410.78757" />
        <path
           inkscape:export-ydpi="410.78757"
           inkscape:export-xdpi="410.78757"
           inkscape:export-filename="/media/sicher/maren/Arbeit/Kitz/Entwurf3.png"
           style="font-size:medium;font-style:normal;font-variant:normal;font-weight:normal;font-stretch:normal;text-indent:0;text-align:start;text-decoration:none;line-height:normal;letter-spacing:normal;word-spacing:normal;text-transform:none;direction:ltr;block-progression:tb;writing-mode:lr-tb;text-anchor:start;baseline-shift:baseline;color:#000000;fill:#ababab;fill-opacity:1;fill-rule:nonzero;stroke:none;stroke-width:0.65570527;marker:none;visibility:visible;display:inline;overflow:visible;enable-background:accumulate;font-family:Sans;-inkscape-font-specification:Sans"
           d="m 257.53045,-1007.2995 c -5.18863,-0.9134 -10.21081,2.6053 -11.12437,7.79406 l -6.99691,39.74774 c -0.91336,5.18867 2.60544,10.21095 7.79419,11.12438 l 66.40545,11.68965 c 5.18868,0.91341 10.21101,-2.60542 11.12438,-7.79401 l 6.99694,-39.74789 c 0.42489,-2.41394 -0.11084,-4.79006 -1.32673,-6.73494 a 2.5330767,2.5330767 0 0 0 -1.28495,-1.65457 c -1.35656,-1.3929 -3.13991,-2.37503 -5.18281,-2.7347 L 257.53,-1007.2994 z m -0.88293,5.0163 66.40563,11.68962 -38.3077,23.15385 -28.09793,-34.84347 z m -4.66926,2.1825 21.58368,26.80112 -27.44578,18.81069 c -1.31739,-0.97556 -2.00208,-2.61702 -1.69071,-4.38575 l 6.99692,-39.74775 c 0.0958,-0.54238 0.30566,-1.03301 0.55589,-1.47831 z m 74.71818,13.15294 c 0.0833,0.50395 0.11346,1.03682 0.0177,1.57922 l -6.99687,39.74775 c -0.31001,1.76036 -1.51786,3.02418 -3.07839,3.49697 l -19.38067,-27.00448 29.43855,-17.81951 z m -49.94068,17.60901 5.45722,6.77264 a 2.5330767,2.5330767 0 0 0 3.24848,0.57187 l 7.44191,-4.50198 17.00225,23.72892 -57.23313,-10.07493 24.08327,-16.49652 z"
           id="path5991"
           inkscape:connector-curvature="0" />
      </g>
      <path
         inkscape:connector-curvature="0"
         id="path5993"
         d="m 320.1585,-1015.5231 c -2.95585,0 -5.33779,2.382 -5.33779,5.3378 l 0,6.3075 0,4.70116 -11.00862,0 c -2.95586,0 -5.32801,2.38193 -5.32801,5.33779 l 0,9.03019 c 0,2.95585 2.37215,5.32801 5.32801,5.32801 l 11.00862,0 0,8.73637 0,2.27223 c 0,2.95587 2.38194,5.33782 5.33779,5.33782 l 2.27225,0 4.47592,0 2.28204,0 c 2.95585,0 5.3378,-2.38195 5.3378,-5.33782 l 0,-2.27223 0,-8.73637 10.99882,0 c 2.95585,0 5.3378,-2.37216 5.3378,-5.32801 l 0,-9.03019 c 0,-2.95586 -2.38195,-5.33779 -5.3378,-5.33779 l -10.99882,0 0,-4.70116 0,-6.3075 c 0,-2.9558 -2.38195,-5.3378 -5.3378,-5.3378 l -9.03021,0 z"
         style="color:#000000;fill:#d55500;fill-opacity:1;fill-rule:nonzero;stroke:none;stroke-width:0.55780399;marker:none;visibility:visible;display:inline;overflow:visible;enable-background:accumulate" />
    </g>
  </g>
</svg>
