<?xml version="1.0" encoding="UTF-8" standalone="no"?>
<!-- Created with Inkscape (http://www.inkscape.org/) -->

<svg
   xmlns:i="http://ns.adobe.com/AdobeIllustrator/10.0/"
   xmlns:dc="http://purl.org/dc/elements/1.1/"
   xmlns:cc="http://creativecommons.org/ns#"
   xmlns:rdf="http://www.w3.org/1999/02/22-rdf-syntax-ns#"
   xmlns:svg="http://www.w3.org/2000/svg"
   xmlns="http://www.w3.org/2000/svg"
   xmlns:sodipodi="http://sodipodi.sourceforge.net/DTD/sodipodi-0.dtd"
   xmlns:inkscape="http://www.inkscape.org/namespaces/inkscape"
   id="svg2"
   sodipodi:version="0.32"
   inkscape:version="0.48.4 r9939"
   width="100"
   height="40"
   version="1.0"
   sodipodi:docname="cc-by-nd.svg"
   inkscape:output_extension="org.inkscape.output.svg.inkscape"
   inkscape:export-filename="/home/doctormo/Desktop/small-pd.png"
   inkscape:export-xdpi="90"
   inkscape:export-ydpi="90">
  <metadata
     id="metadata7">
    <rdf:RDF>
      <cc:Work
         rdf:about="">
        <dc:format>image/svg+xml</dc:format>
        <dc:type
           rdf:resource="http://purl.org/dc/dcmitype/StillImage" />
        <dc:title />
      </cc:Work>
    </rdf:RDF>
  </metadata>
  <defs
     id="defs5" />
  <sodipodi:namedview
     inkscape:window-height="960"
     inkscape:window-width="1280"
     inkscape:pageshadow="2"
     inkscape:pageopacity="0"
     guidetolerance="10.0"
     gridtolerance="10.0"
     objecttolerance="10.0"
     borderopacity="1.0"
     bordercolor="#666666"
     pagecolor="#ffd7d7"
     id="base"
     showgrid="false"
     inkscape:zoom="4"
     inkscape:cx="95.396308"
     inkscape:cy="53.580515"
     inkscape:window-x="0"
     inkscape:window-y="0"
     inkscape:current-layer="svg2"
     inkscape:window-maximized="1"
     showguides="false" />
  <rect
     style="fill:#abb1aa;fill-opacity:1;stroke:#000000;stroke-width:2;stroke-linecap:round;stroke-linejoin:round;stroke-miterlimit:4;stroke-opacity:1;stroke-dasharray:none;stroke-dashoffset:0"
     id="rect3350"
     width="98"
     height="37.75"
     x="1.5"
     y="1.2499998"
     rx="1.0662317"
     ry="0.90645707" />
  <path
     inkscape:connector-curvature="0"
     style="fill:#000000;fill-opacity:1;fill-rule:evenodd;stroke:none"
     d="m 1.258859,24.721764 97.628973,0 0,15.002026 -97.628973,0 z"
     id="path3348"
     sodipodi:nodetypes="ccccc" />
  <circle
     r="13.505061"
     cy="17.593134"
     cx="17.611784"
     style="fill:#000000;fill-opacity:1;stroke:#abb1aa;stroke-width:1.99999988;stroke-linecap:round;stroke-linejoin:round;stroke-miterlimit:4;stroke-opacity:1;stroke-dasharray:none;stroke-dashoffset:0"
     id="path3360" />
  <g
     id="g3333"
     transform="matrix(0.8389478,0,0,0.8389478,-19.301918,4.5894415)">
    <circle
       r="10.621033"
       cy="-37.690372"
       cx="54.028732"
       style="fill:#ffffff;fill-opacity:1;stroke:#000000;stroke-width:1.8469218;stroke-linecap:round;stroke-linejoin:round;stroke-miterlimit:4;stroke-opacity:1;stroke-dasharray:none;stroke-dashoffset:0"
       id="path3331"
       transform="matrix(1.2907631,0,0,1.2907631,-25.738294,64.149342)"
       d="m 64.649765,-37.690372 c 0,5.865834 -4.755198,10.621032 -10.621033,10.621032 -5.865834,0 -10.621032,-4.755198 -10.621032,-10.621032 0,-5.865835 4.755198,-10.621033 10.621032,-10.621033 5.865835,0 10.621033,4.755198 10.621033,10.621033 z" />
    <g
       transform="matrix(0.08627803,0,0,0.08627803,30.92698,12.35943)"
       id="g2534"
       style="overflow:visible">
      <g
         id="Background"
         i:layer="yes"
         i:dimmedPercent="100"
         i:rgbTrio="#4F008000FFFF"
         transform="translate(-3.9356364,-120.10454)" />
      <g
         id="Guides"
         i:layer="yes"
         i:dimmedPercent="100"
         i:rgbTrio="#4F008000FFFF"
         transform="translate(-3.9356364,-120.10454)" />
      <g
         id="g47"
         transform="matrix(4.7881057,0,0,4.7814576,1.07065e-6,-155.7423)">
        <path
           inkscape:connector-curvature="0"
           i:knockout="Off"
           d="m 31.28,34.919 c -1.79,-3.264 -4.844,-4.563 -8.389,-4.563 -5.16,0 -9.267,3.65 -9.267,9.829 0,6.283 3.861,9.829 9.443,9.829 3.581,0 6.634,-1.966 8.319,-4.949 l -3.932,-2.001 c -0.878,2.106 -2.211,2.738 -3.896,2.738 -2.914,0 -4.247,-2.422 -4.247,-5.616 0,-3.194 1.123,-5.617 4.247,-5.617 0.842,0 2.527,0.457 3.51,2.562 l 4.212,-2.212 z"
           id="path51"
           style="fill-rule:evenodd;clip-rule:evenodd" />
        <path
           inkscape:connector-curvature="0"
           i:knockout="Off"
           d="m 49.562,34.919 c -1.791,-3.264 -4.844,-4.563 -8.389,-4.563 -5.16,0 -9.268,3.65 -9.268,9.829 0,6.283 3.862,9.829 9.443,9.829 3.581,0 6.634,-1.966 8.319,-4.949 l -3.932,-2.001 c -0.877,2.106 -2.211,2.738 -3.896,2.738 -2.913,0 -4.248,-2.422 -4.248,-5.616 0,-3.194 1.124,-5.617 4.248,-5.617 0.842,0 2.527,0.457 3.511,2.562 l 4.212,-2.212 z"
           id="path53"
           style="fill-rule:evenodd;clip-rule:evenodd" />
      </g>
    </g>
  </g>
  <g
     id="g6186"
     transform="translate(5.5312198,0)">
    <g
       transform="matrix(0.5474802,0,0,0.5474802,20.516757,5.0455482)"
       id="g3325">
      <circle
         r="10.621033"
         cy="-37.690372"
         cx="54.028732"
         style="fill:#ffffff;fill-opacity:1;stroke:#000000;stroke-width:2.26414919;stroke-linecap:round;stroke-linejoin:round;stroke-miterlimit:4;stroke-opacity:1;stroke-dasharray:none;stroke-dashoffset:0"
         id="path3319"
         transform="matrix(1.2907631,0,0,1.2907631,-25.738294,64.149342)"
         d="m 64.649765,-37.690372 c 0,5.865834 -4.755198,10.621032 -10.621033,10.621032 -5.865834,0 -10.621032,-4.755198 -10.621032,-10.621032 0,-5.865835 4.755198,-10.621033 10.621032,-10.621033 5.865835,0 10.621033,4.755198 10.621033,10.621033 z" />
      <g
         id="g3321"
         transform="translate(-8.3313295,52.164232)">
        <path
           inkscape:connector-curvature="0"
           id="path2838"
           style="fill:#000000;fill-opacity:1"
           d="m 54.475669,-44.112479 c 0,1.184305 -0.960069,2.144374 -2.144375,2.144374 -1.184305,0 -2.144375,-0.960069 -2.144375,-2.144374 0,-1.184306 0.96007,-2.144375 2.144375,-2.144375 1.184306,0 2.144375,0.960069 2.144375,2.144375 l 0,0 z" />
        <path
           inkscape:connector-curvature="0"
           id="path3572"
           style="fill:#000000;fill-opacity:1"
           d="m 50.112832,-27.071611 4.437001,0 0,-7.130405 1.341335,0 c 0,0 -4.91e-4,-5.09567 0,-5.897662 -0.0013,-0.211567 0.0191,-0.632908 -0.287804,-0.939811 -0.306903,-0.306903 -0.721155,-0.288301 -0.939812,-0.287805 -0.218652,4.91e-4 -4.445792,4.91e-4 -4.664444,0 -0.218652,-4.96e-4 -0.632908,-0.0191 -0.939811,0.287805 -0.306908,0.306903 -0.286489,0.728244 -0.287806,0.939811 4.93e-4,0.801992 0,5.897662 0,5.897662 l 1.341341,0 0,7.130405 z" />
      </g>
    </g>
    <text
       sodipodi:linespacing="125%"
       id="text3352-8"
       y="34.872864"
       x="44.238461"
       style="font-size:7.27043581px;font-style:normal;font-variant:normal;font-weight:bold;font-stretch:normal;text-align:center;line-height:125%;writing-mode:lr-tb;text-anchor:middle;fill:#ffffff;fill-opacity:1;stroke:none;font-family:Bitstream Vera Sans;-inkscape-font-specification:Bitstream Vera Sans Bold"
       xml:space="preserve"><tspan
         y="34.872864"
         x="44.238461"
         id="tspan3354-2"
         sodipodi:role="line">BY</tspan></text>
  </g>
  <text
     xml:space="preserve"
     style="font-size:7.27043581px;font-style:normal;font-variant:normal;font-weight:bold;font-stretch:normal;text-align:center;line-height:125%;writing-mode:lr-tb;text-anchor:middle;fill:#ffffff;fill-opacity:1;stroke:none;font-family:Bitstream Vera Sans;-inkscape-font-specification:Bitstream Vera Sans Bold"
     x="80.318382"
     y="34.869316"
     id="text3356-2"
     sodipodi:linespacing="125%"><tspan
       sodipodi:role="line"
       id="tspan3358-2"
       x="80.318382"
       y="34.869316">ND</tspan></text>
  <g
     id="g3344"
     transform="matrix(0.5475549,0,0,0.5475549,55.692639,29.548189)">
    <circle
       r="10.621033"
       cy="-37.690372"
       cx="54.028732"
       transform="matrix(1.2907631,0,0,1.2907631,-24.316921,19.849894)"
       id="path3342"
       style="color:#000000;fill:#fe2424;fill-opacity:1;fill-rule:nonzero;stroke:#000000;stroke-width:2.53459454;stroke-linecap:round;stroke-linejoin:miter;stroke-miterlimit:4;stroke-opacity:1;stroke-dasharray:none;stroke-dashoffset:0;marker:none;visibility:visible;display:inline;overflow:visible;enable-background:accumulate"
       d="m 64.649765,-37.690372 c 0,5.865834 -4.755198,10.621032 -10.621033,10.621032 -5.865834,0 -10.621032,-4.755198 -10.621032,-10.621032 0,-5.865835 4.755198,-10.621033 10.621032,-10.621033 5.865835,0 10.621033,4.755198 10.621033,10.621033 z"
       sodipodi:cx="54.028732"
       sodipodi:cy="-37.690372"
       sodipodi:rx="10.621033"
       sodipodi:ry="10.621033" />
  </g>
  <g
     style="font-size:14.58500004px;font-weight:bold;letter-spacing:0px;word-spacing:0px;text-anchor:end;fill:#000000;fill-opacity:1;font-family:Trebuchet MS;-inkscape-font-specification:Trebuchet MS Bold"
     id="text6606"
     transform="translate(35.273334,3.8994101)">
    <path
       d="m 41.8,9.033 0,-1.564 6.98,0 0,1.564 -6.98,0 z m 0,3.257 0,-1.56 6.98,0 0,1.56 -6.98,0 z"
       id="path6063"
       inkscape:connector-curvature="0"
       style="fill:#000000;fill-opacity:1" />
  </g>
</svg>
