<?xml version="1.0" encoding="UTF-8" standalone="no"?>
<!-- Created with Inkscape (http://www.inkscape.org/) -->

<svg
   xmlns:dc="http://purl.org/dc/elements/1.1/"
   xmlns:cc="http://creativecommons.org/ns#"
   xmlns:rdf="http://www.w3.org/1999/02/22-rdf-syntax-ns#"
   xmlns:svg="http://www.w3.org/2000/svg"
   xmlns="http://www.w3.org/2000/svg"
   xmlns:sodipodi="http://sodipodi.sourceforge.net/DTD/sodipodi-0.dtd"
   xmlns:inkscape="http://www.inkscape.org/namespaces/inkscape"
   width="32mm"
   height="32mm"
   viewBox="0 0 32 32"
   version="1.1"
   id="svg8"
   inkscape:version="0.91 r13725"
   sodipodi:docname="link.svg">
  <defs
     id="defs2" />
  <sodipodi:namedview
     id="base"
     pagecolor="#4a4a4a"
     bordercolor="#666666"
     borderopacity="1.0"
     inkscape:pageopacity="0"
     inkscape:pageshadow="2"
     inkscape:zoom="1.7468433"
     inkscape:cx="-117.47623"
     inkscape:cy="44.301938"
     inkscape:document-units="mm"
     inkscape:current-layer="layer1"
     showgrid="false"
     inkscape:snap-global="false"
     fit-margin-top="0"
     fit-margin-left="0"
     fit-margin-right="0"
     fit-margin-bottom="0"
     inkscape:window-width="1855"
     inkscape:window-height="1056"
     inkscape:window-x="65"
     inkscape:window-y="24"
     inkscape:window-maximized="1" />
  <metadata
     id="metadata5">
    <rdf:RDF>
      <cc:Work
         rdf:about="">
        <dc:format>image/svg+xml</dc:format>
        <dc:type
           rdf:resource="http://purl.org/dc/dcmitype/StillImage" />
        <dc:title />
      </cc:Work>
    </rdf:RDF>
  </metadata>
  <g
     inkscape:label="Layer 1"
     inkscape:groupmode="layer"
     id="layer1"
     transform="translate(-87.998492,-100.92994)">
    <path
       inkscape:connector-curvature="0"
       style="fill:#f0e7e7;fill-opacity:1"
       d="m 115.36106,115.98605 -4.92704,4.92536 c -2.71951,2.72118 -7.13121,2.72118 -9.85071,0 -0.42859,-0.42691 -0.763624,-0.90823 -1.057894,-1.40485 l 2.289224,-2.28923 c 0.10885,-0.10971 0.24322,-0.17263 0.37161,-0.24659 0.15816,0.54086 0.43452,1.05277 0.85973,1.47793 1.35804,1.35891 3.56819,1.35722 4.92536,0 l 4.92535,-4.92535 c 1.35891,-1.35891 1.35891,-3.56819 0,-4.92622 -1.35722,-1.35805 -3.56645,-1.35805 -4.92535,0 l -1.7518,1.75347 c -1.42094,-0.5536 -2.95249,-0.70239 -4.44321,-0.48388 l 3.73228,-3.73227 c 2.72118,-2.72033 7.13121,-2.72033 9.85239,0 2.71956,2.72042 2.71956,7.13131 6e-5,9.85163 z m -13.02515,8.09897 -1.7526,1.75348 c -1.358042,1.35722 -3.568193,1.35722 -4.92623,0 -1.358038,-1.35891 -1.358038,-3.56818 0,-4.92704 l 4.92623,-4.92536 c 1.3589,-1.3589 3.56731,-1.3589 4.92535,0 0.42434,0.42435 0.70071,0.93626 0.8606,1.47625 0.12926,-0.0748 0.26194,-0.13606 0.37079,-0.24491 l 2.28923,-2.28835 c -0.29253,-0.49831 -0.6293,-0.97794 -1.05789,-1.40567 -2.7195,-2.72032 -7.1312,-2.72032 -9.851579,0 l -4.925354,4.92536 c -2.720319,2.72119 -2.720319,7.13121 0,9.8524 2.720319,2.7195 7.131203,2.7195 9.851583,0 l 3.73315,-3.73315 c -1.4916,0.21938 -3.02314,0.0697 -4.44328,-0.48301 z"
       id="path4222" />
  </g>
</svg>
