<?xml version="1.0" encoding="UTF-8" standalone="no"?>
<svg
   xmlns:dc="http://purl.org/dc/elements/1.1/"
   xmlns:cc="http://creativecommons.org/ns#"
   xmlns:rdf="http://www.w3.org/1999/02/22-rdf-syntax-ns#"
   xmlns:svg="http://www.w3.org/2000/svg"
   xmlns="http://www.w3.org/2000/svg"
   xml:space="preserve"
   id="Calque_1"
   viewBox="0 0 18 18"
   height="18"
   width="18"
   version="1.1"><metadata
     id="metadata4361"><rdf:RDF><cc:Work
         rdf:about=""><dc:format>image/svg+xml</dc:format><dc:type
           rdf:resource="http://purl.org/dc/dcmitype/StillImage" /><dc:title></dc:title></cc:Work></rdf:RDF></metadata><defs
     id="defs4359" /><rect
     width="18"
     height="18"
     x="0"
     y="0"
     id="rect4351"
     style="fill:#5c3566;fill-opacity:1" /><path
     d="M 12.00562,14.609893 C 11.465496,14.921734 9.1680255,12.366163 8.547761,12.30097 7.9274966,12.235778 5.1488978,14.257832 4.6854125,13.840508 4.2219271,13.423184 5.9424621,10.448445 5.8127915,9.8383924 5.683121,9.2283403 2.9013988,7.210585 3.1550728,6.640824 3.4087467,6.071063 6.7695664,6.788144 7.30969,6.4763035 7.8498137,6.164463 8.9092136,2.8953673 9.5294781,2.9605598 c 0.6202649,0.065192 0.9768299,3.4831121 1.4403159,3.9004362 0.463485,0.4173241 3.899952,0.4146672 4.029623,1.0247193 0.129671,0.6100521 -3.010779,2.0053617 -3.264453,2.5751227 -0.253674,0.569761 0.810779,3.837215 0.270656,4.149055 z"
     id="path4142"
     style="color:#000000;clip-rule:nonzero;display:inline;overflow:visible;visibility:visible;opacity:1;isolation:auto;mix-blend-mode:normal;color-interpolation:sRGB;color-interpolation-filters:linearRGB;solid-color:#000000;solid-opacity:1;fill:#f5b200;fill-opacity:1;fill-rule:nonzero;stroke:none;stroke-width:3.77952766;stroke-linecap:round;stroke-linejoin:round;stroke-miterlimit:4;stroke-dasharray:none;stroke-dashoffset:0;stroke-opacity:1;marker:none;color-rendering:auto;image-rendering:auto;shape-rendering:auto;text-rendering:auto;enable-background:accumulate" /></svg>