<?xml version="1.0" encoding="UTF-8" standalone="no"?>
<svg
   xmlns:dc="http://purl.org/dc/elements/1.1/"
   xmlns:cc="http://creativecommons.org/ns#"
   xmlns:rdf="http://www.w3.org/1999/02/22-rdf-syntax-ns#"
   xmlns:svg="http://www.w3.org/2000/svg"
   xmlns="http://www.w3.org/2000/svg"
   xml:space="preserve"
   id="Calque_1"
   viewBox="0 0 18 18"
   height="18"
   width="18"
   version="1.1"><metadata
     id="metadata4361"><rdf:RDF><cc:Work
         rdf:about=""><dc:format>image/svg+xml</dc:format><dc:type
           rdf:resource="http://purl.org/dc/dcmitype/StillImage" /><dc:title></dc:title></cc:Work></rdf:RDF></metadata><defs
     id="defs4359" /><rect
     style="fill:#5c3566;fill-opacity:1"
     id="rect4351"
     y="0"
     x="0"
     height="18"
     width="18" /><path
     style="color:#000000;clip-rule:nonzero;display:inline;overflow:visible;visibility:visible;opacity:1;isolation:auto;mix-blend-mode:normal;color-interpolation:sRGB;color-interpolation-filters:linearRGB;solid-color:#000000;solid-opacity:1;fill:#f5b200;fill-opacity:0.55214721;fill-rule:nonzero;stroke:none;stroke-width:3.77952766;stroke-linecap:round;stroke-linejoin:round;stroke-miterlimit:4;stroke-dasharray:none;stroke-dashoffset:0;stroke-opacity:1;marker:none;color-rendering:auto;image-rendering:auto;shape-rendering:auto;text-rendering:auto;enable-background:accumulate"
     id="path4142"
     d="M 12.00562,14.609893 C 11.465496,14.921734 9.1680255,12.366163 8.547761,12.30097 7.9274966,12.235778 5.1488978,14.257832 4.6854125,13.840508 4.2219271,13.423184 5.9424621,10.448445 5.8127915,9.8383924 5.683121,9.2283403 2.9013988,7.210585 3.1550728,6.640824 3.4087467,6.071063 6.7695664,6.788144 7.30969,6.4763035 7.8498137,6.164463 8.9092136,2.8953673 9.5294781,2.9605598 c 0.6202649,0.065192 0.9768299,3.4831121 1.4403159,3.9004362 0.463485,0.4173241 3.899952,0.4146672 4.029623,1.0247193 0.129671,0.6100521 -3.010779,2.0053617 -3.264453,2.5751227 -0.253674,0.569761 0.810779,3.837215 0.270656,4.149055 z" /><path
     style="color:#000000;font-style:normal;font-variant:normal;font-weight:normal;font-stretch:normal;font-size:6.223248px;line-height:125%;font-family:sans-serif;text-indent:0;text-align:end;text-decoration:none;text-decoration-line:none;text-decoration-style:solid;text-decoration-color:#000000;letter-spacing:0px;word-spacing:0px;text-transform:none;direction:ltr;block-progression:tb;writing-mode:lr-tb;baseline-shift:baseline;text-anchor:end;white-space:normal;clip-rule:nonzero;display:inline;overflow:visible;visibility:visible;opacity:1;isolation:auto;mix-blend-mode:normal;color-interpolation:sRGB;color-interpolation-filters:linearRGB;solid-color:#000000;solid-opacity:1;fill:#f5b200;fill-opacity:1;fill-rule:nonzero;stroke:none;stroke-width:0.83433968;stroke-linecap:round;stroke-linejoin:round;stroke-miterlimit:4;stroke-dasharray:none;stroke-dashoffset:0;stroke-opacity:1;color-rendering:auto;image-rendering:auto;shape-rendering:auto;text-rendering:auto;enable-background:accumulate"
     d="m 14.273437,1 c -0.230248,6.59e-4 -0.416435,0.18772 -0.416016,0.4179689 l 0,1.173828 -1.169922,0 c -0.230248,6.59e-4 -0.416435,0.18772 -0.416016,0.417969 l 0,0.716797 c -4.18e-4,0.230249 0.185768,0.417309 0.416016,0.417968 l 1.169922,0 0,1.173828 c -4.19e-4,0.230249 0.185768,0.41731 0.416016,0.417969 l 0.724609,0 c 0.230248,-6.6e-4 0.416434,-0.18772 0.416015,-0.417969 l 0,-1.173828 1.169922,0 c 0.230248,-6.59e-4 0.416434,-0.187719 0.416016,-0.417968 l 0,-0.716797 c 4.19e-4,-0.230249 -0.185768,-0.41731 -0.416016,-0.417969 l -1.169922,0 0,-1.173828 C 15.41448,1.18772 15.228294,1.00066 14.998046,1 Z"
     id="text4066" /></svg>