<?xml version="1.0" encoding="UTF-8" standalone="no"?>
<!-- Created with Inkscape (http://www.inkscape.org/) -->

<svg xmlns:dc="http://purl.org/dc/elements/1.1/" xmlns:cc="http://creativecommons.org/ns#" xmlns:rdf="http://www.w3.org/1999/02/22-rdf-syntax-ns#" xmlns:svg="http://www.w3.org/2000/svg" xmlns="http://www.w3.org/2000/svg" version="1.1" width="18" height="18" viewBox="0 0 18 18" id="svg2">
  <defs id="defs4" />
  <metadata id="metadata7">
    <rdf:RDF>
      <cc:Work rdf:about="">
        <dc:format>image/svg+xml</dc:format>
        <dc:type rdf:resource="http://purl.org/dc/dcmitype/StillImage" />
        <dc:title></dc:title>
      </cc:Work>
    </rdf:RDF>
  </metadata>
  <g transform="translate(0,-1034)" id="layer1">
    <rect width="18" height="18" x="0" y="1034" id="rect4153" style="color:#000000;fill:#336699;stroke-width:1.795" />
    <g transform="matrix(0.0597,0,0,0.0597,-3.413,1032)" id="g3160">
      <g transform="matrix(0.7382,0,0,0.7382,-107.3,-18.49)" id="g3162" />
      <path d="m 110.2,86.71 c -14.8,-0.13 -29.94,6.35 -34.37,18.49 -6.6,14.5 3.99,31.6 22.04,36.9 0.1,0 0.14,0 0.2,0 19.73,7 44.23,10.5 65.53,32.6 l 8,8.3 -7.2,7.4 c -21.4,22.1 -45.8,25.4 -65.55,32.5 0,0 -0.15,0 -0.2,0 -18.01,5.2 -28.46,22.2 -22.04,36.7 0,0 0,0.1 0,0.2 5.48,14.7 26.99,21.3 44.29,17.3 0,0 0.1,0 0.2,0 17.7,-3 32.2,-17.5 28.1,-32 -2,-7.2 -4.6,-10.5 -7,-12.6 -1.3,-0.9 -2.3,-1.6 -3,-2.1 -0.6,-0.6 -3.5,-2.2 -3.5,-2.2 1.8,-1.3 2.8,-1.8 4.3,-2.8 2.3,-1.5 6.2,-3.3 11.3,-5.5 10.1,-4.3 25,-10.4 42.2,-20.3 30.9,17.6 71.2,40.4 93.4,53 22.3,12.6 45,6.2 54.4,0.5 L 222.1,183 342,112.4 c -18.6,-11.5 -39.8,-6.6 -53.9,0.2 -31.4,17.9 -63,35.6 -94.5,53.4 -14.3,-7.9 -29.7,-15.1 -43.1,-20.8 -5.1,-2.3 -9.1,-4 -11.3,-5.5 -1.1,-0.7 -3.9,-2.3 -3.9,-2.3 2.6,-1.5 5.3,-4.4 7.3,-6.6 2.1,-2.1 4.4,-5.3 5.8,-10.8 3.6,-14.6 -10.5,-29.09 -28.1,-32.2 -3.4,-0.76 -7.1,-0.87 -10.2,-1.09 z m -2,12.35 c 6.6,-0.31 13.4,1.44 17.7,5.04 6.6,5.2 7.8,12.5 5.3,18.4 -2.5,5.9 -8.6,10.3 -17.1,10.3 l -0.3,0 c -7.8,0.4 -15.46,-3.2 -20.03,-8.6 -4.55,-5.3 -5.86,-11.9 -1.36,-17.6 l 0,-0.2 c 3.11,-4.7 9.19,-7.04 15.79,-7.34 z m 5.1,133.04 c 0.5,0 1.2,0 1.5,0 8.6,0 14.7,4.4 17.2,10.3 2.5,5.9 1.3,13.2 -5.3,18.5 -4.4,3.5 -11.4,5.5 -17.9,5.2 -6.6,-0.4 -12.52,-2.8 -15.61,-7.6 l -0.2,-0.1 c -4.34,-5.6 -3.08,-11.8 1.18,-17.1 4.25,-5.2 11.53,-9.1 19.13,-9.2 z" id="path3186" style="color:#000000;fill:#eeeeee" />
    </g>
  </g>
</svg>
