<?xml version="1.0" encoding="UTF-8" standalone="no"?>
<!-- Created with Inkscape (http://www.inkscape.org/) -->

<svg xmlns:dc="http://purl.org/dc/elements/1.1/" xmlns:cc="http://creativecommons.org/ns#" xmlns:rdf="http://www.w3.org/1999/02/22-rdf-syntax-ns#" xmlns:svg="http://www.w3.org/2000/svg" xmlns="http://www.w3.org/2000/svg" version="1.1" width="18" height="18" viewBox="0 0 18 18" id="Calque_1" xml:space="preserve"><metadata id="metadata4361"><rdf:RDF><cc:Work rdf:about=""><dc:format>image/svg+xml</dc:format><dc:type rdf:resource="http://purl.org/dc/dcmitype/StillImage" /><dc:title></dc:title></cc:Work></rdf:RDF></metadata><defs id="defs4359" /><g transform="matrix(0.0705,0,0,0.0705,0.2231,0.12)" id="g4345"><g id="g4347"><g id="g4349"><rect width="255.3" height="255.3" x="-3.165" y="-1.799" id="rect4351" style="fill:#314358" /></g></g><g id="g4353"><path d="m 168.1,170.9 c -3,1.4 -8.7,2.7 -12.9,2.8 -12.8,0.3 -15.3,-9 -15.4,-15.8 l 0,-49.7 32.1,0 0,-24.14 -32,0 0,-40.68 c 0,0 -23,0 -23.3,0 -0.4,0 -1.1,0.34 -1.2,1.19 -1.4,12.45 -7.2,34.3 -31.41,43.04 l 0,20.59 16.21,0 0,52.2 c 0,17.9 13.1,43.2 47.9,42.6 11.7,-0.2 24.8,-5.1 27.7,-9.3 l -7.7,-22.8" id="path4355" style="fill:#ffffff" /></g></g></svg>