<?xml version="1.0" encoding="UTF-8" standalone="no"?>
<!-- Created with Inkscape (http://www.inkscape.org/) -->

<svg xmlns:dc="http://purl.org/dc/elements/1.1/" xmlns:cc="http://creativecommons.org/ns#" xmlns:rdf="http://www.w3.org/1999/02/22-rdf-syntax-ns#" xmlns:svg="http://www.w3.org/2000/svg" xmlns="http://www.w3.org/2000/svg" xmlns:sodipodi="http://sodipodi.sourceforge.net/DTD/sodipodi-0.dtd" xmlns:inkscape="http://www.inkscape.org/namespaces/inkscape" version="1.1" width="18" height="18" viewBox="0 0 18 18" id="Calque_1" xml:space="preserve" inkscape:version="0.48+devel r" sodipodi:docname="admin.svg"><sodipodi:namedview pagecolor="#ffffff" bordercolor="#666666" borderopacity="1" objecttolerance="10" gridtolerance="10" guidetolerance="10" inkscape:pageopacity="0" inkscape:pageshadow="2" inkscape:window-width="1375" inkscape:window-height="876" id="namedview11" showgrid="false" inkscape:zoom="16" inkscape:cx="6.365" inkscape:cy="5.546" inkscape:window-x="1431" inkscape:window-y="24" inkscape:window-maximized="1" inkscape:current-layer="Calque_1" inkscape:snap-global="false" showguides="true" /><metadata id="metadata4361"><rdf:RDF><cc:Work rdf:about=""><dc:format>image/svg+xml</dc:format><dc:type rdf:resource="http://purl.org/dc/dcmitype/StillImage" /><dc:title /></cc:Work></rdf:RDF></metadata><defs id="defs4359" /><rect style="fill:#b40b0b" id="rect4351" y="0" x="0" height="18" width="18" /><path sodipodi:nodetypes="ccccc" inkscape:connector-curvature="0" id="path9693" d="m 10.51,13.7 c 0.1,1.74 3.84,2.33 3.98,0.57 -0.22,-0.99 -1.99,-1.13 -1.56,-0.1 -0.3,0.55 -1.08,0 -1.56,-0.56 z" style="fill:#ffffff;fill-rule:evenodd;stroke:#000000;stroke-width:0.186px" /><path style="fill:#ffffff;fill-rule:evenodd;stroke:#000000;stroke-width:0.186px" d="m 7.827,13.66 c -0.06,1.75 -3.875,2.33 -4.024,0.58 0.223,-1 1.99,-1.14 1.562,-0.1 0.298,0.54 1.079,0 1.563,-0.56 z" id="path9683" inkscape:connector-curvature="0" sodipodi:nodetypes="ccccc" /><path sodipodi:nodetypes="ccssccscc" inkscape:connector-curvature="0" id="path9364" d="m 14.09,12.79 c -0.18,-0.81 0.1,-0.96 0.32,-1.18 1.67,-0.55 3.36,-2.3 1.78,-4.34 -0.83,-1.082 -3,-0.844 -3.88,0 -1.05,1.007 -1.77,1.422 -2.24,4.7 0.4,0.22 0.69,0.13 0.97,0 -0.15,-1.4 1.36,-2.182 2.1,-1.9 0.51,0.18 0.8,0.57 0.36,1.28 -0.52,0.58 -0.38,1.12 0.59,1.44 z" style="fill:#ffffff;fill-rule:evenodd;stroke:#000000;stroke-width:0.186px" /><path style="fill:#ffffff;fill-rule:evenodd;stroke:#000000;stroke-width:0.186px" d="M 3.973,12.84 C 4.159,12.03 3.88,11.88 3.657,11.66 1.983,11.11 0.2904,9.357 1.871,7.317 c 0.837,-1.082 2.902,-0.742 3.888,-0 1.004,0.765 2.529,1.532 2.232,4.704 -0.329,-0 -0.58,-0.11 -0.909,-0.2 0.112,-1.25 -1.416,-1.987 -2.16,-1.71 -0.502,0.19 -0.8,0.57 -0.354,1.28 0.521,0.58 0.372,1.12 -0.595,1.45 z" id="path9281" inkscape:connector-curvature="0" sodipodi:nodetypes="ccssccscc" /><path style="fill:#ffffff;fill-rule:evenodd;stroke:#000000;stroke-width:0.12" d="m 6.462,12.24 c -0.443,-0.1 -0.649,0.36 -0.257,0.57 1.395,0.41 3.915,0.62 5.625,0.12 0.34,-0.11 0.1,-0.7 -0.38,-0.6 -1.04,0.16 -1.677,0.27 -2.867,0.21 -0.76,-0 -1.45,-0.18 -2.121,-0.3 z" id="path9574-0" inkscape:connector-curvature="0" sodipodi:nodetypes="ccccsc" /><path style="fill:none;fill-rule:evenodd;stroke:#000000;stroke-width:0.1;stroke-linecap:round;stroke-linejoin:round" d="M 6.745,12.28 C 7.154,12.57 6.596,12.55 6.949,13" id="path9606" inkscape:connector-curvature="0" sodipodi:nodetypes="cc" /><path style="fill:none;fill-rule:evenodd;stroke:#000000;stroke-width:0.1;stroke-linecap:round;stroke-linejoin:round" d="m 7.47,12.41 c 0.502,0.28 -0.06,0.26 0.428,0.69" id="path9606-2" inkscape:connector-curvature="0" sodipodi:nodetypes="cc" /><path style="fill:none;fill-rule:evenodd;stroke:#000000;stroke-width:0.1;stroke-linecap:round;stroke-linejoin:round" d="m 8.307,12.51 c 0.502,0.28 -0.06,0.26 0.428,0.69" id="path9606-2-1" inkscape:connector-curvature="0" sodipodi:nodetypes="cc" /><path style="fill:none;fill-rule:evenodd;stroke:#000000;stroke-width:0.1;stroke-linecap:round;stroke-linejoin:round" d="m 9.2,12.53 c 0.465,0.26 -0.06,0.24 0.39,0.64" id="path9606-2-1-0" inkscape:connector-curvature="0" sodipodi:nodetypes="cc" /><path style="fill:none;fill-rule:evenodd;stroke:#000000;stroke-width:0.1;stroke-linecap:round;stroke-linejoin:round" d="m 10.04,12.5 c 0.44,0.25 -0.06,0.23 0.37,0.62" id="path9606-2-1-0-0" inkscape:connector-curvature="0" sodipodi:nodetypes="cc" /><path style="fill:none;fill-rule:evenodd;stroke:#000000;stroke-width:0.1;stroke-linecap:round;stroke-linejoin:round" d="m 10.89,12.42 c 0.54,0.25 -0,0.17 0.6,0.55" id="path9606-2-1-0-0-0" inkscape:connector-curvature="0" sodipodi:nodetypes="cc" /><path style="fill:none;fill-rule:evenodd;stroke:#000000;stroke-width:0.1488" d="M 7.823,11.99 C 8.065,11.95 7.619,9.684 7.396,9.684 6.782,9.517 6.428,9.194 6.242,8.975 6.075,8.757 6.354,8.437 6.038,8.13 5.945,8.798 5.684,7.991 5.312,7.769 4.029,7.003 2.839,7.325 3.49,8.41 2.913,8.692 2.485,9.553 3.378,9.577 3.025,9.873 3.006,10.43 3.657,10.15 c -0.223,0.42 -0.167,0.48 0.13,1.11 0.298,0.45 0.837,0.82 0.316,1.51" id="path9283" inkscape:connector-curvature="0" sodipodi:nodetypes="ccscsccccc" /><path sodipodi:nodetypes="ccscsccccc" inkscape:connector-curvature="0" id="path9366" d="m 10.39,12.05 c -0.24,0 0.34,-1.66 0.56,-1.66 -0.1,-0.847 0.39,-1.079 0.57,-1.264 0.25,-0.234 0.3,-0.693 0.51,-1.042 0.1,0.668 0.35,-0.139 0.72,-0.362 1.29,-0.766 2.48,-0.443 1.83,0.641 0.57,0.282 1,1.143 0.11,1.167 0.35,0.296 0.37,0.86 -0.28,0.58 0.22,0.41 0.17,0.47 -0.13,1.11 -0.3,0.44 -0.84,0.81 -0.32,1.51" style="fill:none;fill-rule:evenodd;stroke:#000000;stroke-width:0.1488" /><path style="fill:#ffffff;fill-rule:evenodd;stroke:#000000;stroke-width:0.186px" d="m 9.55,12.09 c -0.397,0.1 -0.848,0.1 -1.025,0 C 8.711,11.12 8.512,10.19 8.177,9.092 7.637,7.31 6.447,5.662 6.912,3.964 7.172,3.05 8.493,1.927 9.423,0.9708 9.739,0.662 9.869,0.8443 10.02,1.004 10.71,2.727 11.99,3.24 11.79,5.262 11.64,6.74 10.74,8.032 10.13,9.421 9.758,10.27 9.327,11.09 9.55,12.09 Z" id="path9424" inkscape:connector-curvature="0" sodipodi:nodetypes="ccssccssc" /><path style="fill:none;fill-rule:evenodd;stroke:#000000;stroke-width:0.1488;stroke-linecap:round;stroke-miterlimit:8" d="M 10.11,1.118 C 10.22,1.625 9.218,2.26 9.144,2.582 9.497,2.379 10.5,2.6 9.814,3.108 9.274,3.565 9.442,4.399 10.33,3.947 c 0.4,-0.02 0.95,0.688 0.1,0.822 0.1,0.595 -0.21,0.69 -0.35,0.969 C 10.69,6.182 10.5,6.543 9.889,6.856 9.665,7.099 9.181,7.236 9.497,7.678 9.702,7.891 9.609,8.2 9.367,8.401 8.698,8.949 9.442,8.886 9.349,9.404 9.2,10.36 9.125,11.26 9.107,12.13" id="path9426" inkscape:connector-curvature="0" sodipodi:nodetypes="ccccccccscc" /><path style="fill:#ffffff;fill-rule:evenodd;stroke:#000000;stroke-width:0.12" d="m 6.915,11.74 c -0.365,0 -0.375,0.35 -0.245,0.54 1.456,0.37 2.837,0.37 4.52,0.1 0.13,-0.1 0.13,-0.45 -0.18,-0.44 -1.635,0.19 -2.772,0.13 -4.095,-0.19 z" id="path9574" inkscape:connector-curvature="0" sodipodi:nodetypes="cccccc" /><path style="fill:#ffffff;fill-rule:evenodd;stroke:#000000;stroke-width:0.186;stroke-linecap:round;stroke-miterlimit:8" d="m 8.59,13.71 c -0.242,0.93 -1.023,1.5 -1.767,1.8 -0.298,0.42 1.023,0.82 1.32,0.38 -0.111,0.42 0.112,0.6 0.502,1.05 0.149,0.23 0.149,0.59 0.465,0.66 0.205,0.1 0.317,-0.61 0.354,-0.66 0.242,-0.26 0.746,-0.88 0.556,-1.3 0.38,0.32 1.4,0.34 1.29,-0.1 -1.27,-0.55 -1.16,-1.12 -1.418,-1.82 z" id="path9697" inkscape:connector-curvature="0" sodipodi:nodetypes="cccccscccc" /><path style="fill:none;fill-rule:evenodd;stroke:#000000;stroke-width:0.186px" d="m 5.365,14.11 c 0.186,0.47 1.228,0.52 1.005,1.02" id="path9685" inkscape:connector-curvature="0" sodipodi:nodetypes="cc" /><path sodipodi:nodetypes="cc" inkscape:connector-curvature="0" id="path9695" d="m 12.94,14.14 c -0.18,0.48 -1.23,0.53 -1,1.03" style="fill:none;fill-rule:evenodd;stroke:#000000;stroke-width:0.186px" /><path style="fill:#ffffff;fill-rule:evenodd;stroke:#000000;stroke-width:0.12" d="m 6.503,12.92 c -0.279,0 -0.197,0.53 0,0.52 0.963,0.37 4.047,0.4 5.077,0.1 0.25,-0.1 0.29,-0.49 0,-0.54 -0.79,0.19 -1.32,0.22 -2.396,0.2 -0.841,0 -1.618,0 -2.681,-0.27 z" id="path9574-7" inkscape:connector-curvature="0" sodipodi:nodetypes="ccccscc" /></svg>