<?xml version="1.0" encoding="UTF-8" standalone="no"?>
<!-- Created with Inkscape (http://www.inkscape.org/) -->

<svg xmlns:dc="http://purl.org/dc/elements/1.1/" xmlns:cc="http://creativecommons.org/ns#" xmlns:rdf="http://www.w3.org/1999/02/22-rdf-syntax-ns#" xmlns:svg="http://www.w3.org/2000/svg" xmlns="http://www.w3.org/2000/svg" version="1.1" width="18" height="18" id="svg2">
  <defs id="defs4" />
  <metadata id="metadata7">
    <rdf:RDF>
      <cc:Work rdf:about="">
        <dc:format>image/svg+xml</dc:format>
        <dc:type rdf:resource="http://purl.org/dc/dcmitype/StillImage" />
        <dc:title></dc:title>
      </cc:Work>
    </rdf:RDF>
  </metadata>
  <g transform="translate(-603.7,-708.5)" id="layer1">
    <rect width="17.35" height="17.35" x="604" y="708.8" id="rect3050" style="color:#000000;fill:#40504c;stroke:#374743;stroke-width:0.6517" />
    <g transform="matrix(0.5991,-0.1545,0.1485,0.6235,108.5,359.1)" id="g4994" style="fill:#d0dd20;stroke:#d0dd20;stroke-width:1.6">
      <path d="m 640.9,746.4 0,-2 c -0.2,-6 7.8,-11.4 12.7,-12.1 l 0,1.1 c -5.7,1.9 -7.5,6 -7.8,10.9 l 9,0 0,-16.7 2.8,-0.7 0.1,19.5 -16.8,0 z" id="path4561" style="color:#000000" />
      <path d="m 661.4,737.5 2.9,0.6 0,6.4 8.2,0 c 0,-7.6 -5.8,-11 -13.4,-11 l 0.1,-1 c 10.1,0 17.9,5.7 17.9,12.9 l 0,1 -15.7,0 0,-8.9 z" id="path4563" style="color:#000000" />
    </g>
  </g>
  <style type="text/css" id="style26" />
</svg>
