<?xml version="1.0" encoding="UTF-8" standalone="no"?>
<!-- Created with Inkscape (http://www.inkscape.org/) -->

<svg
   xmlns:dc="http://purl.org/dc/elements/1.1/"
   xmlns:cc="http://creativecommons.org/ns#"
   xmlns:rdf="http://www.w3.org/1999/02/22-rdf-syntax-ns#"
   xmlns:svg="http://www.w3.org/2000/svg"
   xmlns="http://www.w3.org/2000/svg"
   xmlns:sodipodi="http://sodipodi.sourceforge.net/DTD/sodipodi-0.dtd"
   xmlns:inkscape="http://www.inkscape.org/namespaces/inkscape"
   version="1.1"
   width="18"
   height="18"
   viewBox="0 0 18 18"
   id="Calque_1"
   xml:space="preserve"
   inkscape:version="0.91+devel r"
   sodipodi:docname="flag.svg"><sodipodi:namedview
     pagecolor="#ffffff"
     bordercolor="#666666"
     borderopacity="1"
     objecttolerance="10"
     gridtolerance="10"
     guidetolerance="10"
     inkscape:pageopacity="0"
     inkscape:pageshadow="2"
     inkscape:window-width="1855"
     inkscape:window-height="1056"
     id="namedview11"
     showgrid="false"
     inkscape:zoom="16"
     inkscape:cx="23.68713"
     inkscape:cy="13.722656"
     inkscape:window-x="65"
     inkscape:window-y="24"
     inkscape:window-maximized="1"
     inkscape:current-layer="Calque_1"
     inkscape:snap-global="false"
     showguides="true" /><metadata
     id="metadata4361"><rdf:RDF><cc:Work
         rdf:about=""><dc:format>image/svg+xml</dc:format><dc:type
           rdf:resource="http://purl.org/dc/dcmitype/StillImage" /><dc:title /></cc:Work></rdf:RDF></metadata><defs
     id="defs4359" /><rect
     style="fill:#d55500;fill-opacity:1"
     id="rect4351"
     y="0"
     x="0"
     height="18"
     width="18" /><g
     id="g3817"
     transform="matrix(0.71562517,0,0,0.71562517,1.7187487,-707.69059)"
     style="fill:#ffffff"><path
       inkscape:connector-curvature="0"
       d="m 13.212474,994.04136 c -2.649863,0.93876 -4.7112341,-1.74749 -8.6213796,0.94019 l 0.9687169,8.05215 c 3.9101516,-2.6876 5.9753587,0.031 8.6252217,-0.9082 2.213789,-0.8216 2.370203,-1.7843 4.003552,-1.6786 -0.933126,-3.2027 -1.069145,-6.29745 -0.972553,-8.08409 -1.694835,-0.0346 -3.004262,1.29467 -4.003558,1.67855 z"
       id="path3028"
       style="color:#000000;display:inline;overflow:visible;visibility:visible;fill:#ffffff;fill-opacity:1;fill-rule:nonzero;stroke:none;stroke-width:4.09800005;marker:none;enable-background:accumulate" /><path
       inkscape:connector-curvature="0"
       d="m -115.96006,987.87323 0.33584,0 c 0.27579,0 0.49781,0.22202 0.49781,0.49781 l 0,16.83886 c 0,0.2758 -0.22202,0.4978 -0.49781,0.4978 l -0.33584,0 c -0.27578,0 -0.4978,-0.222 -0.4978,-0.4978 l 0,-16.83886 c 0,-0.27579 0.22202,-0.49781 0.4978,-0.49781 z"
       transform="rotate(-6.859994)"
       id="rect3030"
       style="color:#000000;display:inline;overflow:visible;visibility:visible;fill:#ffffff;fill-opacity:1;fill-rule:nonzero;stroke:none;stroke-width:4.09800005;marker:none;enable-background:accumulate" /><path
       inkscape:connector-curvature="0"
       d="m 154.04826,231.3607 c 0,5.99734 -4.86181,10.85914 -10.85914,10.85914 -5.99734,0 -10.85914,-4.8618 -10.85914,-10.85914 0,-5.99733 4.8618,-10.85914 10.85914,-10.85914 5.99733,0 10.85914,4.86181 10.85914,10.85914 z"
       transform="matrix(0.10651676,-0.01281449,0.01281449,0.10651676,-15.24026,971.36186)"
       id="path3032"
       style="color:#000000;display:inline;overflow:visible;visibility:visible;fill:#ffffff;fill-opacity:1;fill-rule:nonzero;stroke:none;stroke-width:4.09800005;marker:none;enable-background:accumulate" /></g></svg>