<?xml version="1.0" encoding="UTF-8" standalone="no"?>
<!-- Created with Inkscape (http://www.inkscape.org/) -->

<svg
   xmlns:dc="http://purl.org/dc/elements/1.1/"
   xmlns:cc="http://creativecommons.org/ns#"
   xmlns:rdf="http://www.w3.org/1999/02/22-rdf-syntax-ns#"
   xmlns:svg="http://www.w3.org/2000/svg"
   xmlns="http://www.w3.org/2000/svg"
   xmlns:sodipodi="http://sodipodi.sourceforge.net/DTD/sodipodi-0.dtd"
   xmlns:inkscape="http://www.inkscape.org/namespaces/inkscape"
   version="1.1"
   width="18"
   height="18"
   viewBox="0 0 18 18"
   id="Calque_1"
   xml:space="preserve"
   inkscape:version="0.91+devel r"
   sodipodi:docname="moderation.svg"><sodipodi:namedview
     pagecolor="#ffffff"
     bordercolor="#666666"
     borderopacity="1"
     objecttolerance="10"
     gridtolerance="10"
     guidetolerance="10"
     inkscape:pageopacity="0"
     inkscape:pageshadow="2"
     inkscape:window-width="1855"
     inkscape:window-height="1056"
     id="namedview11"
     showgrid="false"
     inkscape:zoom="16"
     inkscape:cx="20.81213"
     inkscape:cy="16.191406"
     inkscape:window-x="65"
     inkscape:window-y="24"
     inkscape:window-maximized="1"
     inkscape:current-layer="Calque_1"
     inkscape:snap-global="false"
     showguides="true" /><metadata
     id="metadata4361"><rdf:RDF><cc:Work
         rdf:about=""><dc:format>image/svg+xml</dc:format><dc:type
           rdf:resource="http://purl.org/dc/dcmitype/StillImage" /><dc:title /></cc:Work></rdf:RDF></metadata><defs
     id="defs4359" /><rect
     style="fill:#b40b0b;fill-opacity:1"
     id="rect4351"
     y="0"
     x="0"
     height="18"
     width="18" /><path
     style="color:#000000;fill:#ffffff;fill-opacity:1;fill-rule:nonzero;stroke:#ffffff;stroke-width:0.77809143;stroke-linecap:round;stroke-linejoin:round;stroke-miterlimit:4;stroke-opacity:1;stroke-dasharray:none;stroke-dashoffset:0;marker:none;visibility:visible;display:inline;overflow:visible;enable-background:accumulate"
     d="m 9.0028395,3.6332423 c -3.3768213,0 -6.1216607,1.9860557 -6.1216607,4.4301332 0,1.5473037 1.1049774,2.9049495 2.7681186,3.6966875 l -0.478399,3.481806 3.1814095,-2.777908 c 0.2131196,0.0161 0.4315416,0.02355 0.6505316,0.02355 3.3770095,0 6.1159815,-1.980169 6.1159815,-4.4242467 0,-2.4440775 -2.738972,-4.4301332 -6.1159815,-4.4301332 z"
     id="path4122"
     inkscape:connector-curvature="0"
     sodipodi:nodetypes="sscccsss" /><g
     style="font-style:normal;font-weight:normal;font-size:8.65287876px;line-height:125%;font-family:sans-serif;letter-spacing:0px;word-spacing:0px;fill:#d40000;fill-opacity:1;stroke:none;stroke-width:1px;stroke-linecap:butt;stroke-linejoin:miter;stroke-opacity:1"
     id="text4332"><path
       d="m 5.9051593,8.621491 0.219702,-1.0689347 -1.0351344,0 0,-1.1661106 1.2675115,0 0.2999777,-1.5125638 1.204136,0 -0.3084278,1.5125638 0.9252834,0 0.3042028,-1.5125638 1.1999109,0 -0.2957527,1.5125638 0.5788303,0 0,1.1661106 -0.8154324,0 -0.215477,1.0689347 1.0309094,0 0,1.1661106 -1.2632865,0 -0.2999778,1.4872134 -1.2041359,0 0.2957527,-1.4872134 -0.9210584,0 -0.3042028,1.4872134 -1.1956859,0 0.3084278,-1.4872134 -0.5915053,0 0,-1.1661106 0.8154324,0 z m 1.1999109,0 0.9252834,0 0.219702,-1.0689347 -0.9210584,0 -0.223927,1.0689347 z"
       style="font-style:normal;font-variant:normal;font-weight:normal;font-stretch:normal;font-family:'Arial Black';-inkscape-font-specification:'Arial Black, '"
       id="path4967" /><path
       d="m 11.072381,4.9795079 1.837892,0 0,1.4111628 -0.354903,2.8350008 -1.136535,0 -0.346454,-2.8350008 0,-1.4111628 z m 0.06338,4.6771175 1.715366,0 0,1.5167886 -1.715366,0 0,-1.5167886 z"
       style="font-style:normal;font-variant:normal;font-weight:normal;font-stretch:normal;font-family:'Arial Black';-inkscape-font-specification:'Arial Black, '"
       id="path4969" /></g></svg>